<svg width="1442" height="902" viewBox="0 0 1442 902" fill="none" xmlns="http://www.w3.org/2000/svg">
<g clip-path="url(#clip0_793_18)">
<rect x="1" y="1" width="1440" height="900" fill="#12A4FF"/>
<path d="M948.886 770.642H948.895L948.998 770.642H949.007H1016.35C1022.7 770.642 1027.85 775.791 1027.85 782.142V789.287C1027.85 823.751 1055.77 851.699 1090.23 851.699H1128.77C1163.23 851.699 1191.15 823.751 1191.15 789.287V782.142C1191.15 775.791 1196.3 770.642 1202.65 770.642H1264.06C1270.41 770.642 1275.56 775.791 1275.56 782.142V871.928C1275.56 908.558 1305.24 938.262 1341.86 938.262H1383.2C1419.82 938.262 1449.5 908.558 1449.5 871.928V-132.542C1449.5 -169.172 1419.82 -198.876 1383.2 -198.876H1341.86C1305.24 -198.876 1275.56 -169.172 1275.56 -132.542V218.034C1275.56 224.385 1270.41 229.534 1264.06 229.534H1202.65C1196.3 229.534 1191.15 224.385 1191.15 218.034V47.6272C1191.15 13.163 1163.23 -14.7853 1128.77 -14.7853L890.881 -14.7853C884.53 -14.7853 879.381 -19.934 879.381 -26.2853V-158.088C879.381 -192.552 851.46 -220.5 817.005 -220.5H656.471C622.016 -220.5 594.095 -192.552 594.095 -158.088V-26.2853C594.095 -19.934 588.946 -14.7853 582.595 -14.7853H548.429C542.078 -14.7853 536.929 -19.934 536.929 -26.2853V-54.5391C536.929 -89.6574 508.478 -118.136 473.369 -118.136H433.98C398.871 -118.136 370.42 -89.6573 370.42 -54.5391V-26.2853C370.42 -19.934 365.271 -14.7853 358.92 -14.7853L151.768 -14.7853C145.417 -14.7853 140.268 -19.934 140.268 -26.2853V-78.0389C140.268 -114.078 111.07 -143.303 75.0416 -143.303H34.4603C-1.56854 -143.303 -30.766 -114.078 -30.766 -78.0388V-26.2853C-30.766 -19.934 -35.9147 -14.7853 -42.266 -14.7853H-100.124C-134.578 -14.7853 -162.5 13.1631 -162.5 47.6272L-162.5 86.1956C-162.5 120.66 -134.578 148.608 -100.124 148.608H-42.2659C-35.9147 148.608 -30.766 153.757 -30.766 160.108V854.908C-30.766 890.947 -1.56854 920.172 34.4603 920.172H75.0416C111.07 920.172 140.268 890.947 140.268 854.908V782.142C140.268 775.791 145.417 770.642 151.768 770.642L358.92 770.642C365.271 770.642 370.42 775.791 370.42 782.142V788.102C370.42 823.22 398.871 851.699 433.98 851.699H473.369C508.478 851.699 536.929 823.22 536.929 788.102V782.142C536.929 775.791 542.078 770.642 548.429 770.642H679.19C685.541 770.642 690.69 775.791 690.69 782.142V1288.09C690.69 1322.55 718.611 1350.5 753.066 1350.5H791.609C826.064 1350.5 853.985 1322.55 853.985 1288.09V782.142C853.985 775.791 859.134 770.642 865.485 770.642H948.886ZM351.205 302.368L203.382 168.636C195.577 161.575 200.572 148.608 211.097 148.608L358.92 148.608C365.271 148.608 370.42 153.757 370.42 160.108L370.42 293.84C370.42 303.81 358.599 309.057 351.205 302.368ZM548.429 148.608H582.595C588.946 148.608 594.095 153.757 594.095 160.108V496.193C594.095 506.163 582.273 511.409 574.88 504.721L540.714 473.812C538.304 471.632 536.929 468.534 536.929 465.284L536.929 160.108C536.929 153.757 542.078 148.608 548.429 148.608ZM890.881 148.608H1016.35C1022.7 148.608 1027.85 153.757 1027.85 160.108V218.034C1027.85 224.385 1022.7 229.534 1016.35 229.534H890.881C884.53 229.534 879.381 224.385 879.381 218.034V160.108C879.381 153.757 884.53 148.608 890.881 148.608ZM879.381 607.249V404.427C879.381 398.076 884.53 392.927 890.881 392.927H1016.35C1022.7 392.927 1027.85 398.076 1027.85 404.427V595.749C1027.85 602.1 1022.7 607.249 1016.35 607.249H879.381ZM140.268 595.749V357.725C140.268 347.755 152.089 342.508 159.483 349.197L366.635 536.602C369.045 538.782 370.42 541.881 370.42 545.13V595.749C370.42 602.1 365.271 607.249 358.92 607.249L151.768 607.249C145.417 607.249 140.268 602.1 140.268 595.749ZM1191.15 595.749V404.427C1191.15 398.076 1196.3 392.927 1202.65 392.927H1264.06C1270.41 392.927 1275.56 398.076 1275.56 404.427V595.749C1275.56 602.1 1270.41 607.249 1264.06 607.249H1202.65C1196.3 607.249 1191.15 602.1 1191.15 595.749Z" fill="#021F69" stroke="white" stroke-width="17"/>
</g>
<rect x="0.5" y="0.5" width="1441" height="901" stroke="white"/>
<defs>
<clipPath id="clip0_793_18">
<rect x="1" y="1" width="1440" height="900" fill="white"/>
</clipPath>
</defs>
</svg>
