<svg width="416" height="811" viewBox="0 0 416 811" fill="none" xmlns="http://www.w3.org/2000/svg">
<rect x="26.9062" y="30.9912" width="388.654" height="779.649" rx="48" fill="#021F69"/>
<path d="M219.068 227.91C200.272 227.91 183.015 225.251 165.342 218.135C140.698 208.213 116.276 193.589 101.645 170.707C91.8663 155.415 84.0081 132.553 94.7568 115.735C107.895 95.1767 139.691 91.354 161.603 90.1508C194.934 88.3206 229.706 93.6975 259.608 108.978C280.106 119.453 329.215 157.548 290.112 176.808C267.188 188.099 223.382 193.518 212.639 162.704C198.132 121.091 270.138 128.861 289.784 137.12C302.911 142.639 318.395 153.575 321.338 168.542C324.772 186.011 309.747 200.336 296.475 208.886C282.037 218.188 260.261 226.74 243.799 217.283C221.721 204.6 220.499 170.596 226.021 148.928C231.244 128.437 244.984 108.36 264.463 99.0724C286.048 88.7806 309.273 96.87 325.011 113.307C337.99 126.863 347.56 147.744 345.15 166.902C342.535 187.696 324.433 199.396 305.594 204.032C289.073 208.097 264.883 209.427 253.311 193.929C243.942 181.382 246.563 161.757 259.477 152.798C286.417 134.111 335.24 165.801 323.437 198.587C315.922 219.46 289.938 231.641 271.351 239.783C233.415 256.402 188.556 267.279 146.908 263.465C122.979 261.273 93.6537 251.189 85.7697 225.745C81.261 211.194 87.8483 196.48 104.006 194.848C121.617 193.068 141.018 202.018 154.518 212.625C160.934 217.667 173.529 229.051 172.361 238.668C171.061 249.371 150.191 243.007 145.596 240.439C122.349 227.448 113.083 195.328 110.698 170.707C108.839 151.528 111.65 130.291 124.736 115.21C138.612 99.2173 157.047 100.584 172.623 113.045C186.101 123.827 198.572 140.776 201.225 158.243C204.105 177.208 191.513 189.378 174.657 195.307C148.064 204.661 115.031 203.446 90.0993 189.731C68.4844 177.84 48.9386 153.78 49.2308 128.067C49.5382 101.017 77.2165 94.2511 99.5456 93.0372C134.874 91.1165 169.781 101.16 199.257 120.458C212.631 129.214 227.951 141.096 233.172 156.997C239.161 175.237 224.273 184.955 208.572 189.075C193.52 193.025 171.428 195.608 159.176 183.499C145.502 169.986 155.579 153.836 169.737 146.042C198.729 130.081 235.315 128.688 267.546 127.805C287.561 127.257 307.567 127.677 327.569 126.624C337.502 126.101 333.909 125.429 326.389 123.147C315.542 119.857 302.757 116.441 294.507 108.125C275.21 88.6724 310.423 81.8736 323.896 85.7557C355.699 94.9192 362.199 140.04 357.417 167.689C355.943 176.214 352.321 189.433 344.494 194.716C336.01 200.444 335.677 169.59 335.573 167.821C334.605 151.376 333.722 133.91 337.409 117.703C338.316 113.718 341.981 99.9499 346.725 109.568C353.224 122.747 355.23 139.367 357.548 153.651C360.887 174.226 362.026 194.888 361.944 215.708C361.937 217.486 362.766 237.422 358.336 237.422C351.909 237.422 352.803 191.768 352.76 189.075C352.379 165.371 351.172 139.797 357.417 116.653C358.817 111.464 363.978 95.2558 370.472 106.026C379.319 120.699 385.314 141.126 386.74 158.243" stroke="#12A4FF" stroke-width="17" stroke-linecap="round"/>
<path d="M235.599 177.136C231.009 176.116 224.816 164.106 222.413 160.867C214.106 149.664 205.64 139.276 195.977 129.248C189.765 122.802 212.211 131.782 212.967 132.003C250.043 142.848 288.456 148.927 326.782 153.257C337.213 154.436 347.672 155.521 358.139 156.341C362.554 156.686 369.774 158.217 374.276 156.931C376.332 156.344 370.727 154.502 368.766 153.651C354.818 147.601 340.34 142.898 325.995 137.907C301.052 129.229 275.225 120.343 252.852 105.96C236.94 95.7313 263.889 96.1392 270.629 96.1858C292.728 96.3388 315.78 100.46 334.851 112.127C340.714 115.714 348.988 121.048 352.235 127.542C358.229 139.53 336.491 103.947 336.491 90.5443C336.491 78.9945 340.579 113.438 340.296 124.984C339.678 150.167 331.142 177.473 312.875 195.635C289.624 218.751 243.011 214.407 218.477 196.225C201.013 183.282 190.447 157.539 185.35 136.858C183.317 128.61 187.766 125.358 189.286 134.627C192.039 151.422 179.434 168.029 166.851 177.529C158.979 183.472 143.358 192.894 133.198 186.32C123.546 180.074 135.881 171.684 142.054 170.576C161.659 167.057 182.706 171.753 200.241 180.612C209.384 185.232 221.634 192.244 204.111 193.667C176.391 195.917 145.202 196.821 119.094 185.926C117.899 185.427 94.9932 172.884 97.3152 171.756C103.245 168.876 137.357 180.797 138.512 171.888C139.629 163.266 127.847 153.193 122.177 148.469C113.415 141.166 102.145 137.638 92.4608 145.648C78.9112 156.854 73.0148 178.14 68.7794 194.454C66.6859 202.518 65.565 210.544 65.565 218.857C65.565 225.334 65.5176 205.881 64.8434 199.439C63.6643 188.172 61.0366 174.891 54.9379 165.065C50.1415 157.338 51.5423 172.816 51.6579 174.643C52.5113 188.126 54.6343 201.791 63.1378 212.756C74.4599 227.356 82.8056 200.732 85.9009 192.617C96.1927 165.636 103.456 137.45 110.304 109.437C112.883 98.8868 115.455 95.0013 124.211 103.533C137.453 116.435 149.551 130.549 161.996 144.205C164.32 146.755 174.506 161.678 179.183 160.342C182.555 159.379 185.279 154.266 186.793 151.88C196.92 135.922 205.98 119.242 215.657 103.008C221.68 92.9027 227.507 82.2782 234.943 73.0948C238.707 68.4463 247.114 57.9227 254.492 59.5813C260.44 60.9184 264.41 69.2246 266.824 73.8164C272.795 85.1715 276.824 97.4027 280.338 109.699C284.396 123.903 288.583 138.294 291.752 152.733C293.54 160.879 290.398 154.993 288.472 150.961C281.743 136.871 276.602 121.241 273.647 105.895C271.068 92.5067 280.028 98.2144 287.226 103.73C297.716 111.768 307.042 121.705 317.992 129.117C325.442 134.16 325.451 110.597 326.061 107.207C327.294 100.345 329.847 68.0369 340.689 67.322C351.734 66.5938 362.365 95.9614 365.814 103.533C369.857 112.407 376.138 123.898 361.419 122.032C325.007 117.416 290.435 107.052 253.311 106.747C241.406 106.65 228.844 106.992 217.362 110.618C213.656 111.788 200.338 116.951 202.537 123.475C204.19 128.38 214.424 129.708 217.953 130.429C235.182 133.947 252.758 135.351 269.973 139.022C284.653 142.153 328.307 151.596 317.598 176.086C311.82 189.3 297.429 199.704 286.373 207.836C264.932 223.607 241.256 236.658 216.837 247.196C210.229 250.048 159.602 272.297 155.961 254.674C150.973 230.53 205.334 228.243 217.297 227.91C241.473 227.235 268.122 230.019 289.784 241.817C290.777 242.358 295.864 245.228 291.227 245.228C282.183 245.228 273.025 240.09 266.234 234.601C250.375 221.781 234.031 198.143 234.287 176.742C234.536 155.962 261.795 180.065 267.218 184.811C273.124 189.979 278.724 195.471 284.143 201.145C285.729 202.807 291.021 210.58 294.114 210.329C299.48 209.894 293.779 165.563 293.458 161.785" stroke="#FFF968" stroke-width="10" stroke-linecap="round"/>
<mask id="path-4-outside-1_649_4" maskUnits="userSpaceOnUse" x="-0.694824" y="-0.148926" width="345" height="129" fill="black">
<rect fill="white" x="-0.694824" y="-0.148926" width="345" height="129"/>
<path d="M22.3135 58.7454L26.5736 82.0191L30.68 106.031C30.7288 106.307 30.9722 106.477 31.2479 106.428L38.8301 105.087C39.1058 105.038 39.276 104.794 39.2272 104.519L36.1093 87.2985L45.139 85.7008C56.0299 83.7738 61.9026 77.1899 60.1098 67.0573C58.3535 57.1315 50.8338 53.2015 39.7362 55.1651L22.7106 58.1775C22.4349 58.2263 22.2647 58.4697 22.3135 58.7454ZM34.8452 80.5556L31.8041 62.9664L41.1095 61.32C47.0375 60.2711 50.9272 62.5685 52.0127 68.7032C53.1713 75.2515 49.7625 78.4849 44.5928 79.3996L34.9427 81.1071L34.8452 80.5556Z"/>
<path d="M88.415 64.4661C85.3926 61.4465 81.4101 60.2318 76.7229 61.0611C67.2106 62.7442 63.022 72.0158 64.8392 82.2862C66.6686 92.6256 73.253 99.7067 83.041 97.9749C87.8661 97.1212 91.2224 94.3947 93.0129 90.4524L93.6556 94.8883C93.7044 95.164 93.9477 95.3342 94.2235 95.2854L101.53 93.9926C101.806 93.9439 101.976 93.7005 101.927 93.4248L98.7036 76.01L95.8169 58.8912C95.7681 58.6154 95.5247 58.4452 95.249 58.494L87.8735 59.799C87.5978 59.8478 87.4276 60.0912 87.4764 60.3669L88.415 64.4661ZM84.3156 91.9202C78.4688 93.0258 74.6145 88.5184 73.1632 80.3158C71.7972 72.5957 73.9075 67.2462 79.9165 66.2541C85.5809 65.3229 89.581 69.4491 91 77.8707C92.3946 86.1544 89.8989 90.9323 84.3156 91.9202Z"/>
<path d="M124.179 90.8382C133.485 89.1918 138.595 82.3163 137.857 74.1296C137.808 73.8538 137.577 73.7526 137.301 73.8014L130.409 75.021C130.133 75.0698 129.95 75.2442 129.942 75.601C130.387 80.9251 127.96 84.4824 123.398 85.2184C117.251 86.2349 113.6 82.4735 112.075 73.8574C110.587 65.448 112.69 60.4553 118.812 59.3009C122.81 58.5936 126.144 60.5628 127.789 65.0347C127.918 65.3672 128.081 65.4806 128.356 65.4318L135.111 64.2366C135.387 64.1878 135.557 63.9445 135.44 63.6809C133.328 56.1639 126.773 52.0633 117.812 53.6487C106.646 55.6245 101.621 64.1909 103.609 75.4264C105.597 86.6619 113.219 92.7774 124.179 90.8382Z"/>
<path d="M160.211 47.3554L153.948 62.1833L148.917 63.0736L146.725 49.8837C146.676 49.608 146.433 49.4378 146.157 49.4865L138.713 50.8037C138.437 50.8525 138.267 51.0959 138.316 51.3716L141.454 68.3038L144.426 85.9052C144.475 86.1809 144.718 86.3511 144.994 86.3023L152.438 84.9852C152.714 84.9364 152.884 84.693 152.835 84.4173L149.965 69.0015L155.066 68.099L162.264 76.6356L166.645 82.1159C166.832 82.3673 167.12 82.3874 167.327 82.3508L175.874 80.8385C176.219 80.7775 176.377 80.4652 176.121 80.2261L160.708 62.6222L168.324 46.2042C168.47 45.8229 168.283 45.5716 167.939 45.6326L160.701 46.9132C160.494 46.9498 160.3 47.0553 160.211 47.3554Z"/>
<path d="M192.404 40.5929C187.648 41.4344 184.292 44.1609 182.489 48.0342L181.858 43.6673C181.81 43.3916 181.566 43.2214 181.291 43.2702L173.915 44.5751C173.639 44.6239 173.469 44.8673 173.518 45.143L177.193 65.1081L181.702 91.3946C181.75 91.6703 181.994 91.8405 182.269 91.7917L189.714 90.4746C189.99 90.4258 190.16 90.1824 190.111 89.9067L187.205 74.2841C190.203 77.1659 194.104 78.3238 198.722 77.5067C208.234 75.8236 212.492 66.5398 210.675 56.2694C208.845 45.93 202.192 38.8611 192.404 40.5929ZM195.516 72.2448C189.864 73.2448 185.921 69.0375 184.514 60.6849C183.132 52.4701 185.558 47.7044 191.142 46.7165C197.07 45.6677 200.831 50.0494 202.282 58.252C203.636 65.9031 201.513 71.1837 195.516 72.2448Z"/>
<path d="M238.447 37.92C235.424 34.9004 231.442 33.6857 226.755 34.5151C217.242 36.1981 213.054 45.4697 214.871 55.7402C216.7 66.0796 223.285 73.1607 233.073 71.4289C237.898 70.5751 241.254 67.8487 243.045 63.9064L243.687 68.3423C243.736 68.618 243.979 68.7882 244.255 68.7394L251.562 67.4466C251.837 67.3978 252.008 67.1545 251.959 66.8787L248.735 49.464L245.849 32.3451C245.8 32.0694 245.556 31.8992 245.281 31.948L237.905 33.253C237.63 33.3018 237.459 33.5451 237.508 33.8209L238.447 37.92ZM234.347 65.3742C228.501 66.4798 224.646 61.9724 223.195 53.7698C221.829 46.0497 223.939 40.7002 229.948 39.7081C235.613 38.7769 239.613 42.9031 241.032 51.3247C242.426 59.6084 239.931 64.3863 234.347 65.3742Z"/>
<path d="M274.211 64.2922C283.516 62.6457 288.627 55.7702 287.889 47.5835C287.84 47.3078 287.609 47.2065 287.333 47.2553L280.44 48.4749C280.165 48.5237 279.982 48.6982 279.974 49.055C280.419 54.379 277.991 57.9363 273.43 58.6724C267.283 59.6889 263.632 55.9275 262.107 47.3113C260.619 38.9019 262.721 33.9093 268.844 32.7549C272.842 32.0475 276.176 34.0168 277.82 38.4887C277.95 38.8211 278.112 38.9346 278.388 38.8858L285.143 37.6906C285.419 37.6418 285.589 37.3984 285.471 37.1349C283.359 29.6179 276.805 25.5172 267.844 27.1027C256.677 29.0785 251.653 37.6449 253.641 48.8804C255.629 60.1159 263.251 66.2314 274.211 64.2922Z"/>
<path d="M296.246 22.8594L288.801 24.1766C288.525 24.2254 288.355 24.4687 288.404 24.7444L291.522 41.9646L294.458 59.3592C294.506 59.6349 294.75 59.8051 295.025 59.7563L308.053 57.4512C318.392 55.6218 323.26 50.9929 321.87 43.1349C320.492 35.3459 314.412 32.7251 304.004 34.5667L298.903 35.4692L296.813 23.2565C296.765 22.9808 296.521 22.8106 296.246 22.8594ZM299.81 40.9958L305.049 40.0689C310.287 39.142 312.814 40.9696 313.497 44.8297C314.217 48.8965 311.834 51.0954 307.146 51.9247L301.908 52.8516L299.81 40.9958Z"/>
</mask>
<path d="M22.3135 58.7454L26.5736 82.0191L30.68 106.031C30.7288 106.307 30.9722 106.477 31.2479 106.428L38.8301 105.087C39.1058 105.038 39.276 104.794 39.2272 104.519L36.1093 87.2985L45.139 85.7008C56.0299 83.7738 61.9026 77.1899 60.1098 67.0573C58.3535 57.1315 50.8338 53.2015 39.7362 55.1651L22.7106 58.1775C22.4349 58.2263 22.2647 58.4697 22.3135 58.7454ZM34.8452 80.5556L31.8041 62.9664L41.1095 61.32C47.0375 60.2711 50.9272 62.5685 52.0127 68.7032C53.1713 75.2515 49.7625 78.4849 44.5928 79.3996L34.9427 81.1071L34.8452 80.5556Z" fill="white"/>
<path d="M88.415 64.4661C85.3926 61.4465 81.4101 60.2318 76.7229 61.0611C67.2106 62.7442 63.022 72.0158 64.8392 82.2862C66.6686 92.6256 73.253 99.7067 83.041 97.9749C87.8661 97.1212 91.2224 94.3947 93.0129 90.4524L93.6556 94.8883C93.7044 95.164 93.9477 95.3342 94.2235 95.2854L101.53 93.9926C101.806 93.9439 101.976 93.7005 101.927 93.4248L98.7036 76.01L95.8169 58.8912C95.7681 58.6154 95.5247 58.4452 95.249 58.494L87.8735 59.799C87.5978 59.8478 87.4276 60.0912 87.4764 60.3669L88.415 64.4661ZM84.3156 91.9202C78.4688 93.0258 74.6145 88.5184 73.1632 80.3158C71.7972 72.5957 73.9075 67.2462 79.9165 66.2541C85.5809 65.3229 89.581 69.4491 91 77.8707C92.3946 86.1544 89.8989 90.9323 84.3156 91.9202Z" fill="white"/>
<path d="M124.179 90.8382C133.485 89.1918 138.595 82.3163 137.857 74.1296C137.808 73.8538 137.577 73.7526 137.301 73.8014L130.409 75.021C130.133 75.0698 129.95 75.2442 129.942 75.601C130.387 80.9251 127.96 84.4824 123.398 85.2184C117.251 86.2349 113.6 82.4735 112.075 73.8574C110.587 65.448 112.69 60.4553 118.812 59.3009C122.81 58.5936 126.144 60.5628 127.789 65.0347C127.918 65.3672 128.081 65.4806 128.356 65.4318L135.111 64.2366C135.387 64.1878 135.557 63.9445 135.44 63.6809C133.328 56.1639 126.773 52.0633 117.812 53.6487C106.646 55.6245 101.621 64.1909 103.609 75.4264C105.597 86.6619 113.219 92.7774 124.179 90.8382Z" fill="white"/>
<path d="M160.211 47.3554L153.948 62.1833L148.917 63.0736L146.725 49.8837C146.676 49.608 146.433 49.4378 146.157 49.4865L138.713 50.8037C138.437 50.8525 138.267 51.0959 138.316 51.3716L141.454 68.3038L144.426 85.9052C144.475 86.1809 144.718 86.3511 144.994 86.3023L152.438 84.9852C152.714 84.9364 152.884 84.693 152.835 84.4173L149.965 69.0015L155.066 68.099L162.264 76.6356L166.645 82.1159C166.832 82.3673 167.12 82.3874 167.327 82.3508L175.874 80.8385C176.219 80.7775 176.377 80.4652 176.121 80.2261L160.708 62.6222L168.324 46.2042C168.47 45.8229 168.283 45.5716 167.939 45.6326L160.701 46.9132C160.494 46.9498 160.3 47.0553 160.211 47.3554Z" fill="white"/>
<path d="M192.404 40.5929C187.648 41.4344 184.292 44.1609 182.489 48.0342L181.858 43.6673C181.81 43.3916 181.566 43.2214 181.291 43.2702L173.915 44.5751C173.639 44.6239 173.469 44.8673 173.518 45.143L177.193 65.1081L181.702 91.3946C181.75 91.6703 181.994 91.8405 182.269 91.7917L189.714 90.4746C189.99 90.4258 190.16 90.1824 190.111 89.9067L187.205 74.2841C190.203 77.1659 194.104 78.3238 198.722 77.5067C208.234 75.8236 212.492 66.5398 210.675 56.2694C208.845 45.93 202.192 38.8611 192.404 40.5929ZM195.516 72.2448C189.864 73.2448 185.921 69.0375 184.514 60.6849C183.132 52.4701 185.558 47.7044 191.142 46.7165C197.07 45.6677 200.831 50.0494 202.282 58.252C203.636 65.9031 201.513 71.1837 195.516 72.2448Z" fill="white"/>
<path d="M238.447 37.92C235.424 34.9004 231.442 33.6857 226.755 34.5151C217.242 36.1981 213.054 45.4697 214.871 55.7402C216.7 66.0796 223.285 73.1607 233.073 71.4289C237.898 70.5751 241.254 67.8487 243.045 63.9064L243.687 68.3423C243.736 68.618 243.979 68.7882 244.255 68.7394L251.562 67.4466C251.837 67.3978 252.008 67.1545 251.959 66.8787L248.735 49.464L245.849 32.3451C245.8 32.0694 245.556 31.8992 245.281 31.948L237.905 33.253C237.63 33.3018 237.459 33.5451 237.508 33.8209L238.447 37.92ZM234.347 65.3742C228.501 66.4798 224.646 61.9724 223.195 53.7698C221.829 46.0497 223.939 40.7002 229.948 39.7081C235.613 38.7769 239.613 42.9031 241.032 51.3247C242.426 59.6084 239.931 64.3863 234.347 65.3742Z" fill="white"/>
<path d="M274.211 64.2922C283.516 62.6457 288.627 55.7702 287.889 47.5835C287.84 47.3078 287.609 47.2065 287.333 47.2553L280.44 48.4749C280.165 48.5237 279.982 48.6982 279.974 49.055C280.419 54.379 277.991 57.9363 273.43 58.6724C267.283 59.6889 263.632 55.9275 262.107 47.3113C260.619 38.9019 262.721 33.9093 268.844 32.7549C272.842 32.0475 276.176 34.0168 277.82 38.4887C277.95 38.8211 278.112 38.9346 278.388 38.8858L285.143 37.6906C285.419 37.6418 285.589 37.3984 285.471 37.1349C283.359 29.6179 276.805 25.5172 267.844 27.1027C256.677 29.0785 251.653 37.6449 253.641 48.8804C255.629 60.1159 263.251 66.2314 274.211 64.2922Z" fill="white"/>
<path d="M296.246 22.8594L288.801 24.1766C288.525 24.2254 288.355 24.4687 288.404 24.7444L291.522 41.9646L294.458 59.3592C294.506 59.6349 294.75 59.8051 295.025 59.7563L308.053 57.4512C318.392 55.6218 323.26 50.9929 321.87 43.1349C320.492 35.3459 314.412 32.7251 304.004 34.5667L298.903 35.4692L296.813 23.2565C296.765 22.9808 296.521 22.8106 296.246 22.8594ZM299.81 40.9958L305.049 40.0689C310.287 39.142 312.814 40.9696 313.497 44.8297C314.217 48.8965 311.834 51.0954 307.146 51.9247L301.908 52.8516L299.81 40.9958Z" fill="white"/>
<path d="M22.3135 58.7454L26.5736 82.0191L30.68 106.031C30.7288 106.307 30.9722 106.477 31.2479 106.428L38.8301 105.087C39.1058 105.038 39.276 104.794 39.2272 104.519L36.1093 87.2985L45.139 85.7008C56.0299 83.7738 61.9026 77.1899 60.1098 67.0573C58.3535 57.1315 50.8338 53.2015 39.7362 55.1651L22.7106 58.1775C22.4349 58.2263 22.2647 58.4697 22.3135 58.7454ZM34.8452 80.5556L31.8041 62.9664L41.1095 61.32C47.0375 60.2711 50.9272 62.5685 52.0127 68.7032C53.1713 75.2515 49.7625 78.4849 44.5928 79.3996L34.9427 81.1071L34.8452 80.5556Z" stroke="#021F69" stroke-width="44" stroke-linejoin="round" mask="url(#path-4-outside-1_649_4)"/>
<path d="M88.415 64.4661C85.3926 61.4465 81.4101 60.2318 76.7229 61.0611C67.2106 62.7442 63.022 72.0158 64.8392 82.2862C66.6686 92.6256 73.253 99.7067 83.041 97.9749C87.8661 97.1212 91.2224 94.3947 93.0129 90.4524L93.6556 94.8883C93.7044 95.164 93.9477 95.3342 94.2235 95.2854L101.53 93.9926C101.806 93.9439 101.976 93.7005 101.927 93.4248L98.7036 76.01L95.8169 58.8912C95.7681 58.6154 95.5247 58.4452 95.249 58.494L87.8735 59.799C87.5978 59.8478 87.4276 60.0912 87.4764 60.3669L88.415 64.4661ZM84.3156 91.9202C78.4688 93.0258 74.6145 88.5184 73.1632 80.3158C71.7972 72.5957 73.9075 67.2462 79.9165 66.2541C85.5809 65.3229 89.581 69.4491 91 77.8707C92.3946 86.1544 89.8989 90.9323 84.3156 91.9202Z" stroke="#021F69" stroke-width="44" stroke-linejoin="round" mask="url(#path-4-outside-1_649_4)"/>
<path d="M124.179 90.8382C133.485 89.1918 138.595 82.3163 137.857 74.1296C137.808 73.8538 137.577 73.7526 137.301 73.8014L130.409 75.021C130.133 75.0698 129.95 75.2442 129.942 75.601C130.387 80.9251 127.96 84.4824 123.398 85.2184C117.251 86.2349 113.6 82.4735 112.075 73.8574C110.587 65.448 112.69 60.4553 118.812 59.3009C122.81 58.5936 126.144 60.5628 127.789 65.0347C127.918 65.3672 128.081 65.4806 128.356 65.4318L135.111 64.2366C135.387 64.1878 135.557 63.9445 135.44 63.6809C133.328 56.1639 126.773 52.0633 117.812 53.6487C106.646 55.6245 101.621 64.1909 103.609 75.4264C105.597 86.6619 113.219 92.7774 124.179 90.8382Z" stroke="#021F69" stroke-width="44" stroke-linejoin="round" mask="url(#path-4-outside-1_649_4)"/>
<path d="M160.211 47.3554L153.948 62.1833L148.917 63.0736L146.725 49.8837C146.676 49.608 146.433 49.4378 146.157 49.4865L138.713 50.8037C138.437 50.8525 138.267 51.0959 138.316 51.3716L141.454 68.3038L144.426 85.9052C144.475 86.1809 144.718 86.3511 144.994 86.3023L152.438 84.9852C152.714 84.9364 152.884 84.693 152.835 84.4173L149.965 69.0015L155.066 68.099L162.264 76.6356L166.645 82.1159C166.832 82.3673 167.12 82.3874 167.327 82.3508L175.874 80.8385C176.219 80.7775 176.377 80.4652 176.121 80.2261L160.708 62.6222L168.324 46.2042C168.47 45.8229 168.283 45.5716 167.939 45.6326L160.701 46.9132C160.494 46.9498 160.3 47.0553 160.211 47.3554Z" stroke="#021F69" stroke-width="44" stroke-linejoin="round" mask="url(#path-4-outside-1_649_4)"/>
<path d="M192.404 40.5929C187.648 41.4344 184.292 44.1609 182.489 48.0342L181.858 43.6673C181.81 43.3916 181.566 43.2214 181.291 43.2702L173.915 44.5751C173.639 44.6239 173.469 44.8673 173.518 45.143L177.193 65.1081L181.702 91.3946C181.75 91.6703 181.994 91.8405 182.269 91.7917L189.714 90.4746C189.99 90.4258 190.16 90.1824 190.111 89.9067L187.205 74.2841C190.203 77.1659 194.104 78.3238 198.722 77.5067C208.234 75.8236 212.492 66.5398 210.675 56.2694C208.845 45.93 202.192 38.8611 192.404 40.5929ZM195.516 72.2448C189.864 73.2448 185.921 69.0375 184.514 60.6849C183.132 52.4701 185.558 47.7044 191.142 46.7165C197.07 45.6677 200.831 50.0494 202.282 58.252C203.636 65.9031 201.513 71.1837 195.516 72.2448Z" stroke="#021F69" stroke-width="44" stroke-linejoin="round" mask="url(#path-4-outside-1_649_4)"/>
<path d="M238.447 37.92C235.424 34.9004 231.442 33.6857 226.755 34.5151C217.242 36.1981 213.054 45.4697 214.871 55.7402C216.7 66.0796 223.285 73.1607 233.073 71.4289C237.898 70.5751 241.254 67.8487 243.045 63.9064L243.687 68.3423C243.736 68.618 243.979 68.7882 244.255 68.7394L251.562 67.4466C251.837 67.3978 252.008 67.1545 251.959 66.8787L248.735 49.464L245.849 32.3451C245.8 32.0694 245.556 31.8992 245.281 31.948L237.905 33.253C237.63 33.3018 237.459 33.5451 237.508 33.8209L238.447 37.92ZM234.347 65.3742C228.501 66.4798 224.646 61.9724 223.195 53.7698C221.829 46.0497 223.939 40.7002 229.948 39.7081C235.613 38.7769 239.613 42.9031 241.032 51.3247C242.426 59.6084 239.931 64.3863 234.347 65.3742Z" stroke="#021F69" stroke-width="44" stroke-linejoin="round" mask="url(#path-4-outside-1_649_4)"/>
<path d="M274.211 64.2922C283.516 62.6457 288.627 55.7702 287.889 47.5835C287.84 47.3078 287.609 47.2065 287.333 47.2553L280.44 48.4749C280.165 48.5237 279.982 48.6982 279.974 49.055C280.419 54.379 277.991 57.9363 273.43 58.6724C267.283 59.6889 263.632 55.9275 262.107 47.3113C260.619 38.9019 262.721 33.9093 268.844 32.7549C272.842 32.0475 276.176 34.0168 277.82 38.4887C277.95 38.8211 278.112 38.9346 278.388 38.8858L285.143 37.6906C285.419 37.6418 285.589 37.3984 285.471 37.1349C283.359 29.6179 276.805 25.5172 267.844 27.1027C256.677 29.0785 251.653 37.6449 253.641 48.8804C255.629 60.1159 263.251 66.2314 274.211 64.2922Z" stroke="#021F69" stroke-width="44" stroke-linejoin="round" mask="url(#path-4-outside-1_649_4)"/>
<path d="M296.246 22.8594L288.801 24.1766C288.525 24.2254 288.355 24.4687 288.404 24.7444L291.522 41.9646L294.458 59.3592C294.506 59.6349 294.75 59.8051 295.025 59.7563L308.053 57.4512C318.392 55.6218 323.26 50.9929 321.87 43.1349C320.492 35.3459 314.412 32.7251 304.004 34.5667L298.903 35.4692L296.813 23.2565C296.765 22.9808 296.521 22.8106 296.246 22.8594ZM299.81 40.9958L305.049 40.0689C310.287 39.142 312.814 40.9696 313.497 44.8297C314.217 48.8965 311.834 51.0954 307.146 51.9247L301.908 52.8516L299.81 40.9958Z" stroke="#021F69" stroke-width="44" stroke-linejoin="round" mask="url(#path-4-outside-1_649_4)"/>
</svg>
