<svg width="395" height="183" viewBox="0 0 395 183" fill="none" xmlns="http://www.w3.org/2000/svg">
<path d="M99.4172 142.998C89.6388 127.706 81.7805 104.844 92.5293 88.0256C105.668 67.4677 137.464 63.645 159.375 62.4418C192.707 60.6116 227.479 65.9885 257.381 81.2689C277.879 91.7436 326.987 129.839 287.885 149.099C264.96 160.39 221.154 165.809 210.412 134.995C195.904 93.382 267.91 101.152 287.557 109.411C300.684 114.93 316.168 125.866 319.11 140.833M223.794 121.219C229.016 100.728 242.757 80.6507 262.235 71.3634C283.82 61.0716 307.046 69.161 322.784 85.5985C335.762 99.1542 345.332 120.035 342.923 139.193M251.083 166.22C241.715 153.673 244.336 134.048 257.25 125.089M108.47 142.998C106.612 123.819 109.423 102.582 122.508 87.5009C136.384 71.5083 154.819 72.8748 170.396 85.3361C183.874 96.1184 196.345 113.067 198.997 130.534C201.877 149.499 189.285 161.669 172.429 167.598C145.836 176.952 112.803 175.737 87.8717 162.022C66.2568 150.131 46.711 126.071 47.0032 100.358C47.3106 73.308 74.9889 66.5422 97.3181 65.3282C132.647 63.4075 167.554 73.451 197.029 92.7488C210.403 101.505 225.723 113.387 230.944 129.288C236.934 147.528 222.046 157.246 206.344 161.366C191.292 165.316 169.201 167.899 156.948 155.79C143.274 142.277 153.351 126.127 167.51 118.333C196.501 102.372 233.088 100.979 265.318 100.096C285.334 99.5476 305.339 99.9679 325.342 98.9152C335.274 98.3924 331.682 97.7199 324.161 95.4384C313.315 92.1479 300.529 88.732 292.28 80.4161C272.983 60.9634 308.195 54.1646 321.668 58.0467C353.471 67.2102 359.971 112.331 355.19 139.98C353.716 148.505 350.094 161.724 342.267 167.007C333.782 172.735 333.449 141.881 333.345 140.112C332.378 123.667 331.495 106.201 335.182 89.9936C336.088 86.0092 339.754 72.2409 344.497 81.8593C350.996 95.0385 353.003 111.658 355.321 125.942M350.532 161.366C350.151 137.662 348.945 112.088 355.19 88.944C356.59 83.7552 361.75 67.5468 368.244 78.3169C377.091 92.9901 383.086 113.417 384.513 130.534" stroke="#FFF968" stroke-width="17" stroke-linecap="round"/>
<path d="M335.17 80.64C344.287 96.3356 351.163 119.511 339.707 135.856C325.703 155.835 293.773 158.297 271.83 158.565C238.451 158.971 203.94 152.116 174.717 135.573C154.684 124.233 107.246 84.0772 147.135 66.5036C170.52 56.201 214.517 52.6555 223.936 83.9001C236.654 126.094 165.045 115.259 145.769 106.169C132.889 100.096 117.886 88.5088 115.585 73.4293M209.978 97.0925C203.886 117.342 189.301 136.815 169.444 145.263C147.44 154.624 124.581 145.551 109.558 128.457C97.1697 114.36 88.4996 93.0903 91.7243 74.0518M184.633 50.9679C193.458 63.9035 190.002 83.3992 176.718 91.7982M326.126 80.2537C327.164 99.4949 323.45 120.592 309.732 135.101C295.187 150.487 276.827 148.336 261.796 135.221C248.79 123.873 237.054 106.408 235.149 88.8438C233.081 69.7735 246.181 58.152 263.274 52.9474C290.242 44.7361 323.193 47.36 347.517 62.1261C368.605 74.9278 387.106 99.8001 385.717 125.477C384.256 152.49 356.314 158.068 333.954 158.329C298.575 158.74 264.128 147.217 235.503 126.679C222.515 117.36 207.716 104.835 203.178 88.726C197.972 70.2467 213.261 61.1729 229.124 57.7267C244.331 54.4229 266.513 52.7845 278.238 65.4051C291.322 79.489 280.566 95.1945 266.088 102.378C236.441 117.086 199.829 116.918 167.59 116.425C147.569 116.119 127.6 114.845 107.571 115.043C97.6247 115.142 101.185 115.967 108.602 118.567C119.298 122.318 131.926 126.276 139.813 134.936C158.263 155.195 122.792 160.485 109.497 156.031C78.1141 145.519 73.5451 100.162 79.502 72.742C81.3385 64.2881 85.521 51.2356 93.5665 46.291C102.288 40.9311 101.304 71.7704 101.332 73.5429C101.597 90.0142 101.734 107.502 97.3589 123.537C96.2832 127.479 92.0338 141.078 87.7052 131.266C81.7741 117.822 80.4784 101.132 78.772 86.7619M85.0678 51.5747C84.437 75.2736 84.5514 100.876 77.3245 123.732C75.7042 128.856 69.857 144.83 63.8286 133.792C55.6157 118.755 50.4975 98.0913 49.8027 80.9286" stroke="#12A4FF" stroke-width="17" stroke-linecap="round"/>
<mask id="path-3-outside-1_673_109" maskUnits="userSpaceOnUse" x="-0.56543" y="0" width="345" height="129" fill="black">
<rect fill="white" x="-0.56543" width="345" height="129"/>
<path d="M22.4429 58.8943L26.703 82.1681L30.8094 106.18C30.8582 106.456 31.1016 106.626 31.3773 106.577L38.9595 105.235C39.2352 105.187 39.4054 104.943 39.3566 104.668L36.2387 87.4474L45.2684 85.8497C56.1593 83.9228 62.032 77.3388 60.2392 67.2062C58.4829 57.2804 50.9632 53.3505 39.8656 55.314L22.84 58.3265C22.5643 58.3752 22.3941 58.6186 22.4429 58.8943ZM34.9745 80.7045L31.9335 63.1154L41.2389 61.4689C47.1669 60.42 51.0566 62.7175 52.1421 68.8522C53.3007 75.4005 49.8919 78.6338 44.7222 79.5485L35.0721 81.256L34.9745 80.7045Z"/>
<path d="M88.5444 64.615C85.522 61.5954 81.5395 60.3807 76.8523 61.21C67.34 62.8931 63.1514 72.1647 64.9686 82.4352C66.798 92.7746 73.3824 99.8557 83.1704 98.1238C87.9955 97.2701 91.3518 94.5436 93.1423 90.6014L93.785 95.0372C93.8338 95.3129 94.0771 95.4831 94.3529 95.4344L101.659 94.1416C101.935 94.0928 102.105 93.8494 102.057 93.5737L98.833 76.159L95.9463 59.0401C95.8975 58.7644 95.6541 58.5942 95.3784 58.643L88.0029 59.9479C87.7272 59.9967 87.557 60.2401 87.6058 60.5158L88.5444 64.615ZM84.445 92.0691C78.5982 93.1747 74.7439 88.6673 73.2926 80.4647C71.9266 72.7446 74.0369 67.3952 80.0459 66.403C85.7103 65.4719 89.7104 69.598 91.1294 78.0196C92.524 86.3033 90.0283 91.0812 84.445 92.0691Z"/>
<path d="M124.308 90.9872C133.614 89.3407 138.724 82.4652 137.987 74.2785C137.938 74.0028 137.707 73.9015 137.431 73.9503L130.538 75.1699C130.262 75.2187 130.08 75.3931 130.072 75.75C130.516 81.074 128.089 84.6313 123.527 85.3673C117.38 86.3838 113.729 82.6225 112.205 74.0063C110.717 65.5969 112.819 60.6043 118.942 59.4499C122.94 58.7425 126.274 60.7117 127.918 65.1836C128.048 65.5161 128.21 65.6296 128.486 65.5808L135.241 64.3856C135.517 64.3368 135.687 64.0934 135.569 63.8299C133.457 56.3129 126.902 52.2122 117.942 53.7977C106.775 55.7734 101.751 64.3398 103.739 75.5753C105.727 86.8108 113.349 92.9264 124.308 90.9872Z"/>
<path d="M160.34 47.5043L154.078 62.3322L149.046 63.2225L146.854 50.0326C146.806 49.7569 146.562 49.5867 146.286 49.6355L138.842 50.9527C138.566 51.0014 138.396 51.2448 138.445 51.5205L141.583 68.4528L144.555 86.0541C144.604 86.3299 144.847 86.5001 145.123 86.4513L152.567 85.1341C152.843 85.0853 153.013 84.8419 152.965 84.5662L150.095 69.1504L155.196 68.2479L162.393 76.7845L166.775 82.2649C166.961 82.5162 167.249 82.5363 167.456 82.4997L176.003 80.9874C176.348 80.9264 176.506 80.6141 176.251 80.375L160.838 62.7711L168.454 46.3531C168.599 45.9719 168.413 45.7205 168.068 45.7815L160.831 47.0621C160.624 47.0987 160.429 47.2042 160.34 47.5043Z"/>
<path d="M192.533 40.7418C187.777 41.5834 184.421 44.3098 182.618 48.1832L181.988 43.8162C181.939 43.5405 181.696 43.3703 181.42 43.4191L174.045 44.7241C173.769 44.7729 173.599 45.0162 173.647 45.292L177.322 65.2571L181.831 91.5435C181.88 91.8193 182.123 91.9895 182.399 91.9407L189.843 90.6235C190.119 90.5747 190.289 90.3313 190.24 90.0556L187.334 74.4331C190.332 77.3148 194.233 78.4728 198.852 77.6556C208.364 75.9726 212.621 66.6888 210.804 56.4183C208.975 46.0789 202.321 39.01 192.533 40.7418ZM195.646 72.3937C189.994 73.3938 186.05 69.1865 184.643 60.8338C183.261 52.619 185.688 47.8533 191.271 46.8654C197.199 45.8166 200.96 50.1983 202.411 58.4009C203.765 66.0521 201.643 71.3326 195.646 72.3937Z"/>
<path d="M238.576 38.069C235.554 35.0494 231.571 33.8347 226.884 34.664C217.372 36.347 213.183 45.6186 215 55.8891C216.83 66.2285 223.414 73.3096 233.202 71.5778C238.027 70.7241 241.383 67.9976 243.174 64.0553L243.817 68.4912C243.865 68.7669 244.109 68.9371 244.385 68.8883L251.691 67.5955C251.967 67.5468 252.137 67.3034 252.088 67.0277L248.865 49.6129L245.978 32.4941C245.929 32.2183 245.686 32.0481 245.41 32.0969L238.035 33.4019C237.759 33.4507 237.589 33.6941 237.638 33.9698L238.576 38.069ZM234.477 65.5231C228.63 66.6287 224.776 62.1213 223.324 53.9187C221.958 46.1986 224.069 40.8491 230.078 39.857C235.742 38.9258 239.742 43.052 241.161 51.4736C242.556 59.7573 240.06 64.5352 234.477 65.5231Z"/>
<path d="M274.34 64.4411C283.646 62.7947 288.756 55.9192 288.018 47.7325C287.969 47.4567 287.738 47.3555 287.463 47.4043L280.57 48.6239C280.294 48.6726 280.112 48.8471 280.104 49.2039C280.548 54.5279 278.121 58.0853 273.559 58.8213C267.412 59.8378 263.761 56.0764 262.236 47.4602C260.749 39.0509 262.851 34.0582 268.973 32.9038C272.971 32.1965 276.305 34.1657 277.95 38.6376C278.08 38.9701 278.242 39.0835 278.518 39.0347L285.273 37.8395C285.548 37.7907 285.719 37.5474 285.601 37.2838C283.489 29.7668 276.934 25.6661 267.973 27.2516C256.807 29.2274 251.782 37.7938 253.77 49.0293C255.758 60.2648 263.38 66.3803 274.34 64.4411Z"/>
<path d="M296.375 23.0083L288.931 24.3255C288.655 24.3743 288.485 24.6177 288.533 24.8934L291.651 42.1135L294.587 59.5081C294.636 59.7838 294.879 59.954 295.155 59.9052L308.182 57.6002C318.522 55.7708 323.39 51.1418 321.999 43.2839C320.621 35.4949 314.542 32.874 304.133 34.7156L299.033 35.6181L296.943 23.4054C296.894 23.1297 296.651 22.9595 296.375 23.0083ZM299.939 41.1447L305.178 40.2178C310.417 39.2909 312.944 41.1185 313.627 44.9786C314.346 49.0454 311.963 51.2443 307.276 52.0736L302.037 53.0005L299.939 41.1447Z"/>
</mask>
<path d="M22.4429 58.8943L26.703 82.1681L30.8094 106.18C30.8582 106.456 31.1016 106.626 31.3773 106.577L38.9595 105.235C39.2352 105.187 39.4054 104.943 39.3566 104.668L36.2387 87.4474L45.2684 85.8497C56.1593 83.9228 62.032 77.3388 60.2392 67.2062C58.4829 57.2804 50.9632 53.3505 39.8656 55.314L22.84 58.3265C22.5643 58.3752 22.3941 58.6186 22.4429 58.8943ZM34.9745 80.7045L31.9335 63.1154L41.2389 61.4689C47.1669 60.42 51.0566 62.7175 52.1421 68.8522C53.3007 75.4005 49.8919 78.6338 44.7222 79.5485L35.0721 81.256L34.9745 80.7045Z" fill="white"/>
<path d="M88.5444 64.615C85.522 61.5954 81.5395 60.3807 76.8523 61.21C67.34 62.8931 63.1514 72.1647 64.9686 82.4352C66.798 92.7746 73.3824 99.8557 83.1704 98.1238C87.9955 97.2701 91.3518 94.5436 93.1423 90.6014L93.785 95.0372C93.8338 95.3129 94.0771 95.4831 94.3529 95.4344L101.659 94.1416C101.935 94.0928 102.105 93.8494 102.057 93.5737L98.833 76.159L95.9463 59.0401C95.8975 58.7644 95.6541 58.5942 95.3784 58.643L88.0029 59.9479C87.7272 59.9967 87.557 60.2401 87.6058 60.5158L88.5444 64.615ZM84.445 92.0691C78.5982 93.1747 74.7439 88.6673 73.2926 80.4647C71.9266 72.7446 74.0369 67.3952 80.0459 66.403C85.7103 65.4719 89.7104 69.598 91.1294 78.0196C92.524 86.3033 90.0283 91.0812 84.445 92.0691Z" fill="white"/>
<path d="M124.308 90.9872C133.614 89.3407 138.724 82.4652 137.987 74.2785C137.938 74.0028 137.707 73.9015 137.431 73.9503L130.538 75.1699C130.262 75.2187 130.08 75.3931 130.072 75.75C130.516 81.074 128.089 84.6313 123.527 85.3673C117.38 86.3838 113.729 82.6225 112.205 74.0063C110.717 65.5969 112.819 60.6043 118.942 59.4499C122.94 58.7425 126.274 60.7117 127.918 65.1836C128.048 65.5161 128.21 65.6296 128.486 65.5808L135.241 64.3856C135.517 64.3368 135.687 64.0934 135.569 63.8299C133.457 56.3129 126.902 52.2122 117.942 53.7977C106.775 55.7734 101.751 64.3398 103.739 75.5753C105.727 86.8108 113.349 92.9264 124.308 90.9872Z" fill="white"/>
<path d="M160.34 47.5043L154.078 62.3322L149.046 63.2225L146.854 50.0326C146.806 49.7569 146.562 49.5867 146.286 49.6355L138.842 50.9527C138.566 51.0014 138.396 51.2448 138.445 51.5205L141.583 68.4528L144.555 86.0541C144.604 86.3299 144.847 86.5001 145.123 86.4513L152.567 85.1341C152.843 85.0853 153.013 84.8419 152.965 84.5662L150.095 69.1504L155.196 68.2479L162.393 76.7845L166.775 82.2649C166.961 82.5162 167.249 82.5363 167.456 82.4997L176.003 80.9874C176.348 80.9264 176.506 80.6141 176.251 80.375L160.838 62.7711L168.454 46.3531C168.599 45.9719 168.413 45.7205 168.068 45.7815L160.831 47.0621C160.624 47.0987 160.429 47.2042 160.34 47.5043Z" fill="white"/>
<path d="M192.533 40.7418C187.777 41.5834 184.421 44.3098 182.618 48.1832L181.988 43.8162C181.939 43.5405 181.696 43.3703 181.42 43.4191L174.045 44.7241C173.769 44.7729 173.599 45.0162 173.647 45.292L177.322 65.2571L181.831 91.5435C181.88 91.8193 182.123 91.9895 182.399 91.9407L189.843 90.6235C190.119 90.5747 190.289 90.3313 190.24 90.0556L187.334 74.4331C190.332 77.3148 194.233 78.4728 198.852 77.6556C208.364 75.9726 212.621 66.6888 210.804 56.4183C208.975 46.0789 202.321 39.01 192.533 40.7418ZM195.646 72.3937C189.994 73.3938 186.05 69.1865 184.643 60.8338C183.261 52.619 185.688 47.8533 191.271 46.8654C197.199 45.8166 200.96 50.1983 202.411 58.4009C203.765 66.0521 201.643 71.3326 195.646 72.3937Z" fill="white"/>
<path d="M238.576 38.069C235.554 35.0494 231.571 33.8347 226.884 34.664C217.372 36.347 213.183 45.6186 215 55.8891C216.83 66.2285 223.414 73.3096 233.202 71.5778C238.027 70.7241 241.383 67.9976 243.174 64.0553L243.817 68.4912C243.865 68.7669 244.109 68.9371 244.385 68.8883L251.691 67.5955C251.967 67.5468 252.137 67.3034 252.088 67.0277L248.865 49.6129L245.978 32.4941C245.929 32.2183 245.686 32.0481 245.41 32.0969L238.035 33.4019C237.759 33.4507 237.589 33.6941 237.638 33.9698L238.576 38.069ZM234.477 65.5231C228.63 66.6287 224.776 62.1213 223.324 53.9187C221.958 46.1986 224.069 40.8491 230.078 39.857C235.742 38.9258 239.742 43.052 241.161 51.4736C242.556 59.7573 240.06 64.5352 234.477 65.5231Z" fill="white"/>
<path d="M274.34 64.4411C283.646 62.7947 288.756 55.9192 288.018 47.7325C287.969 47.4567 287.738 47.3555 287.463 47.4043L280.57 48.6239C280.294 48.6726 280.112 48.8471 280.104 49.2039C280.548 54.5279 278.121 58.0853 273.559 58.8213C267.412 59.8378 263.761 56.0764 262.236 47.4602C260.749 39.0509 262.851 34.0582 268.973 32.9038C272.971 32.1965 276.305 34.1657 277.95 38.6376C278.08 38.9701 278.242 39.0835 278.518 39.0347L285.273 37.8395C285.548 37.7907 285.719 37.5474 285.601 37.2838C283.489 29.7668 276.934 25.6661 267.973 27.2516C256.807 29.2274 251.782 37.7938 253.77 49.0293C255.758 60.2648 263.38 66.3803 274.34 64.4411Z" fill="white"/>
<path d="M296.375 23.0083L288.931 24.3255C288.655 24.3743 288.485 24.6177 288.533 24.8934L291.651 42.1135L294.587 59.5081C294.636 59.7838 294.879 59.954 295.155 59.9052L308.182 57.6002C318.522 55.7708 323.39 51.1418 321.999 43.2839C320.621 35.4949 314.542 32.874 304.133 34.7156L299.033 35.6181L296.943 23.4054C296.894 23.1297 296.651 22.9595 296.375 23.0083ZM299.939 41.1447L305.178 40.2178C310.417 39.2909 312.944 41.1185 313.627 44.9786C314.346 49.0454 311.963 51.2443 307.276 52.0736L302.037 53.0005L299.939 41.1447Z" fill="white"/>
<path d="M22.4429 58.8943L26.703 82.1681L30.8094 106.18C30.8582 106.456 31.1016 106.626 31.3773 106.577L38.9595 105.235C39.2352 105.187 39.4054 104.943 39.3566 104.668L36.2387 87.4474L45.2684 85.8497C56.1593 83.9228 62.032 77.3388 60.2392 67.2062C58.4829 57.2804 50.9632 53.3505 39.8656 55.314L22.84 58.3265C22.5643 58.3752 22.3941 58.6186 22.4429 58.8943ZM34.9745 80.7045L31.9335 63.1154L41.2389 61.4689C47.1669 60.42 51.0566 62.7175 52.1421 68.8522C53.3007 75.4005 49.8919 78.6338 44.7222 79.5485L35.0721 81.256L34.9745 80.7045Z" stroke="#021F69" stroke-width="44" stroke-linejoin="round" mask="url(#path-3-outside-1_673_109)"/>
<path d="M88.5444 64.615C85.522 61.5954 81.5395 60.3807 76.8523 61.21C67.34 62.8931 63.1514 72.1647 64.9686 82.4352C66.798 92.7746 73.3824 99.8557 83.1704 98.1238C87.9955 97.2701 91.3518 94.5436 93.1423 90.6014L93.785 95.0372C93.8338 95.3129 94.0771 95.4831 94.3529 95.4344L101.659 94.1416C101.935 94.0928 102.105 93.8494 102.057 93.5737L98.833 76.159L95.9463 59.0401C95.8975 58.7644 95.6541 58.5942 95.3784 58.643L88.0029 59.9479C87.7272 59.9967 87.557 60.2401 87.6058 60.5158L88.5444 64.615ZM84.445 92.0691C78.5982 93.1747 74.7439 88.6673 73.2926 80.4647C71.9266 72.7446 74.0369 67.3952 80.0459 66.403C85.7103 65.4719 89.7104 69.598 91.1294 78.0196C92.524 86.3033 90.0283 91.0812 84.445 92.0691Z" stroke="#021F69" stroke-width="44" stroke-linejoin="round" mask="url(#path-3-outside-1_673_109)"/>
<path d="M124.308 90.9872C133.614 89.3407 138.724 82.4652 137.987 74.2785C137.938 74.0028 137.707 73.9015 137.431 73.9503L130.538 75.1699C130.262 75.2187 130.08 75.3931 130.072 75.75C130.516 81.074 128.089 84.6313 123.527 85.3673C117.38 86.3838 113.729 82.6225 112.205 74.0063C110.717 65.5969 112.819 60.6043 118.942 59.4499C122.94 58.7425 126.274 60.7117 127.918 65.1836C128.048 65.5161 128.21 65.6296 128.486 65.5808L135.241 64.3856C135.517 64.3368 135.687 64.0934 135.569 63.8299C133.457 56.3129 126.902 52.2122 117.942 53.7977C106.775 55.7734 101.751 64.3398 103.739 75.5753C105.727 86.8108 113.349 92.9264 124.308 90.9872Z" stroke="#021F69" stroke-width="44" stroke-linejoin="round" mask="url(#path-3-outside-1_673_109)"/>
<path d="M160.34 47.5043L154.078 62.3322L149.046 63.2225L146.854 50.0326C146.806 49.7569 146.562 49.5867 146.286 49.6355L138.842 50.9527C138.566 51.0014 138.396 51.2448 138.445 51.5205L141.583 68.4528L144.555 86.0541C144.604 86.3299 144.847 86.5001 145.123 86.4513L152.567 85.1341C152.843 85.0853 153.013 84.8419 152.965 84.5662L150.095 69.1504L155.196 68.2479L162.393 76.7845L166.775 82.2649C166.961 82.5162 167.249 82.5363 167.456 82.4997L176.003 80.9874C176.348 80.9264 176.506 80.6141 176.251 80.375L160.838 62.7711L168.454 46.3531C168.599 45.9719 168.413 45.7205 168.068 45.7815L160.831 47.0621C160.624 47.0987 160.429 47.2042 160.34 47.5043Z" stroke="#021F69" stroke-width="44" stroke-linejoin="round" mask="url(#path-3-outside-1_673_109)"/>
<path d="M192.533 40.7418C187.777 41.5834 184.421 44.3098 182.618 48.1832L181.988 43.8162C181.939 43.5405 181.696 43.3703 181.42 43.4191L174.045 44.7241C173.769 44.7729 173.599 45.0162 173.647 45.292L177.322 65.2571L181.831 91.5435C181.88 91.8193 182.123 91.9895 182.399 91.9407L189.843 90.6235C190.119 90.5747 190.289 90.3313 190.24 90.0556L187.334 74.4331C190.332 77.3148 194.233 78.4728 198.852 77.6556C208.364 75.9726 212.621 66.6888 210.804 56.4183C208.975 46.0789 202.321 39.01 192.533 40.7418ZM195.646 72.3937C189.994 73.3938 186.05 69.1865 184.643 60.8338C183.261 52.619 185.688 47.8533 191.271 46.8654C197.199 45.8166 200.96 50.1983 202.411 58.4009C203.765 66.0521 201.643 71.3326 195.646 72.3937Z" stroke="#021F69" stroke-width="44" stroke-linejoin="round" mask="url(#path-3-outside-1_673_109)"/>
<path d="M238.576 38.069C235.554 35.0494 231.571 33.8347 226.884 34.664C217.372 36.347 213.183 45.6186 215 55.8891C216.83 66.2285 223.414 73.3096 233.202 71.5778C238.027 70.7241 241.383 67.9976 243.174 64.0553L243.817 68.4912C243.865 68.7669 244.109 68.9371 244.385 68.8883L251.691 67.5955C251.967 67.5468 252.137 67.3034 252.088 67.0277L248.865 49.6129L245.978 32.4941C245.929 32.2183 245.686 32.0481 245.41 32.0969L238.035 33.4019C237.759 33.4507 237.589 33.6941 237.638 33.9698L238.576 38.069ZM234.477 65.5231C228.63 66.6287 224.776 62.1213 223.324 53.9187C221.958 46.1986 224.069 40.8491 230.078 39.857C235.742 38.9258 239.742 43.052 241.161 51.4736C242.556 59.7573 240.06 64.5352 234.477 65.5231Z" stroke="#021F69" stroke-width="44" stroke-linejoin="round" mask="url(#path-3-outside-1_673_109)"/>
<path d="M274.34 64.4411C283.646 62.7947 288.756 55.9192 288.018 47.7325C287.969 47.4567 287.738 47.3555 287.463 47.4043L280.57 48.6239C280.294 48.6726 280.112 48.8471 280.104 49.2039C280.548 54.5279 278.121 58.0853 273.559 58.8213C267.412 59.8378 263.761 56.0764 262.236 47.4602C260.749 39.0509 262.851 34.0582 268.973 32.9038C272.971 32.1965 276.305 34.1657 277.95 38.6376C278.08 38.9701 278.242 39.0835 278.518 39.0347L285.273 37.8395C285.548 37.7907 285.719 37.5474 285.601 37.2838C283.489 29.7668 276.934 25.6661 267.973 27.2516C256.807 29.2274 251.782 37.7938 253.77 49.0293C255.758 60.2648 263.38 66.3803 274.34 64.4411Z" stroke="#021F69" stroke-width="44" stroke-linejoin="round" mask="url(#path-3-outside-1_673_109)"/>
<path d="M296.375 23.0083L288.931 24.3255C288.655 24.3743 288.485 24.6177 288.533 24.8934L291.651 42.1135L294.587 59.5081C294.636 59.7838 294.879 59.954 295.155 59.9052L308.182 57.6002C318.522 55.7708 323.39 51.1418 321.999 43.2839C320.621 35.4949 314.542 32.874 304.133 34.7156L299.033 35.6181L296.943 23.4054C296.894 23.1297 296.651 22.9595 296.375 23.0083ZM299.939 41.1447L305.178 40.2178C310.417 39.2909 312.944 41.1185 313.627 44.9786C314.346 49.0454 311.963 51.2443 307.276 52.0736L302.037 53.0005L299.939 41.1447Z" stroke="#021F69" stroke-width="44" stroke-linejoin="round" mask="url(#path-3-outside-1_673_109)"/>
</svg>
