<svg width="70" height="74" viewBox="0 0 70 74" fill="none" xmlns="http://www.w3.org/2000/svg">
<path d="M12.4007 72.9901L31.0416 72.9901C32.576 72.9901 34.1027 73.1247 35.63 73.2718C44.2998 74.1065 59.7883 73.1707 67.0415 63.7669C76.9736 50.8901 50.5429 60.4252 47.7521 36.0973C44.9613 11.7695 47.7521 15.6013 42.1705 3.17006C36.5888 -9.26122 6.58757 21.7947 19.7619 27.9881C26.118 30.9761 27.579 36.4371 27.1284 41.4548C26.6375 46.9202 21.1713 49.9544 15.6838 49.9544L12.4007 49.9544C6.03953 49.9544 0.882813 55.1111 0.882813 61.4723C0.882813 67.8334 6.03953 72.9901 12.4007 72.9901Z" fill="#F08603"/>
</svg>
