<svg width="243" height="92" viewBox="0 0 243 92" fill="none" xmlns="http://www.w3.org/2000/svg">
<path d="M0.72851 0.795166L0.728515 87.3977L75.7285 44.0964L0.72851 0.795166ZM57.2237 83.6477L40.9737 55.5019L27.9833 63.0019L44.2333 91.1477L57.2237 83.6477Z" fill="#021F69"/>
<rect x="14" y="1" width="229" height="43" rx="21.5" fill="#021F69"/>
<path d="M57.9052 31.4458C62.0152 31.4458 65.7352 29.6758 65.7352 25.1758C65.7052 22.7758 64.3552 20.9458 61.3852 20.2558C63.8152 19.5658 65.1352 18.1258 65.1352 15.5458C65.1352 12.0958 62.0752 10.4458 57.8152 10.4458H49.2952C49.1752 10.4458 49.0852 10.5358 49.0852 10.6558L49.1452 20.7658L49.0852 31.2358C49.0852 31.3558 49.1752 31.4458 49.2952 31.4458H57.9052ZM57.8152 13.0558C59.9152 13.0558 61.4452 14.0158 61.4452 16.1158C61.4452 18.1858 60.0652 19.1158 57.8152 19.1158H52.7152L52.7752 13.0558H57.8152ZM57.8152 21.7258C60.0652 21.7258 62.0152 22.6558 62.0152 25.1758C62.0152 27.9358 60.2452 28.8358 57.8152 28.8358H52.7752L52.7152 21.7258H57.8152ZM71.3698 15.9658H68.1298C68.0098 15.9658 67.9198 16.0558 67.9198 16.1758L67.9498 23.6758L67.8898 31.2658C67.8898 31.3858 67.9798 31.4758 68.0998 31.4758H71.5198V31.4458H73.7698C78.2698 31.4458 80.6698 29.8558 80.6698 26.4358C80.6698 23.0458 78.2998 21.4858 73.7698 21.4858H71.5498L71.5798 16.1758C71.5798 16.0558 71.4898 15.9658 71.3698 15.9658ZM81.7798 23.8558L81.7198 31.2358C81.7198 31.3558 81.8098 31.4458 81.9298 31.4458H85.1698C85.2898 31.4458 85.3798 31.3558 85.3798 31.2358L85.3198 23.8558L85.3798 16.2058C85.3798 16.0858 85.2898 15.9958 85.1698 15.9958H81.9298C81.8098 15.9958 81.7198 16.0858 81.7198 16.2058L81.7798 23.8558ZM71.5198 23.8858H73.7998C76.0798 23.8858 77.0098 24.8458 77.0098 26.5258C77.0098 28.2958 75.8398 29.0458 73.7998 29.0458H71.5198V23.8858ZM96.0913 16.5958C93.4213 16.5958 91.5613 17.8258 90.6013 19.9258C90.9013 16.6558 92.0413 14.6758 94.9813 14.1058C96.4513 13.8058 99.4813 13.6558 101.461 13.2358C101.581 13.2058 101.641 13.1458 101.641 13.0258V10.6558C101.641 10.5358 101.551 10.4458 101.401 10.4758C99.3913 10.8358 96.3313 10.9558 94.5313 11.3158C89.6413 12.2458 87.6013 16.0858 87.6013 22.2058C87.6013 28.5358 90.2413 31.7758 95.0113 31.7758C99.6913 31.7758 102.511 28.7158 102.511 23.9758C102.511 19.8958 100.441 16.5958 96.0913 16.5958ZM95.0413 29.3158C92.5813 29.3158 91.2613 27.3958 91.2613 24.2458C91.2613 20.9158 92.7013 19.0558 95.1013 19.0558C97.5013 19.0558 98.8513 20.9758 98.8513 24.2458C98.8513 27.5158 97.4713 29.3158 95.0413 29.3158ZM112.004 29.3758C109.424 29.3758 108.074 27.7258 107.924 24.3358H119.234C119.354 24.3358 119.444 24.2758 119.444 24.1258C119.384 18.8458 116.654 15.6358 111.854 15.6358C107.144 15.6358 104.324 18.9058 104.324 23.7658C104.324 28.4758 106.994 31.8058 111.974 31.8058C116.144 31.8058 118.664 29.4058 119.054 26.3458C119.084 26.2258 118.994 26.1358 118.874 26.1358H115.814C115.694 26.1358 115.634 26.1958 115.604 26.3158C115.154 28.3858 113.924 29.3758 112.004 29.3758ZM111.884 18.0358C114.254 18.0358 115.394 19.8958 115.544 21.9958H108.044C108.404 19.4158 109.664 18.0358 111.884 18.0358ZM129.751 15.6958C127.681 15.6958 126.061 16.5958 125.011 18.0958L125.071 16.2058C125.071 16.0858 124.981 15.9958 124.861 15.9958H121.651C121.531 15.9958 121.441 16.0858 121.441 16.2058L121.501 24.9058L121.441 36.3358C121.441 36.4558 121.531 36.5458 121.651 36.5458H124.891C125.011 36.5458 125.101 36.4558 125.101 36.3358L125.041 29.5258C126.091 30.9658 127.651 31.7458 129.661 31.7458C133.801 31.7458 136.291 28.1458 136.291 23.6758C136.291 19.1758 134.011 15.6958 129.751 15.6958ZM128.701 29.2858C126.241 29.2858 124.891 27.2158 124.921 23.5858C124.951 20.0158 126.331 18.1858 128.761 18.1858C131.341 18.1858 132.601 20.3158 132.601 23.8858C132.601 27.2158 131.311 29.2858 128.701 29.2858ZM141.825 27.5158L141.885 23.6158L141.945 16.2058C141.945 16.0858 141.855 15.9958 141.735 15.9958H138.525C138.405 15.9958 138.315 16.0858 138.315 16.2058L138.375 23.3758L138.315 31.2358C138.315 31.3558 138.405 31.4458 138.525 31.4458H142.365C142.455 31.4458 142.575 31.4158 142.635 31.2958L148.905 20.0158L148.845 23.5858L148.785 31.2358C148.785 31.3558 148.875 31.4458 148.995 31.4458H152.175C152.295 31.4458 152.385 31.3558 152.385 31.2358L152.325 23.5858L152.385 16.2058C152.385 16.0858 152.295 15.9958 152.175 15.9958H148.395C148.305 15.9958 148.185 16.0258 148.125 16.1458L141.825 27.5158ZM164.703 27.5158L164.763 23.6158L164.823 16.2058C164.823 16.0858 164.733 15.9958 164.613 15.9958H161.403C161.283 15.9958 161.193 16.0858 161.193 16.2058L161.253 23.3758L161.193 31.2358C161.193 31.3558 161.283 31.4458 161.403 31.4458H165.243C165.333 31.4458 165.453 31.4158 165.513 31.2958L171.783 20.0158L171.723 23.5858L171.663 31.2358C171.663 31.3558 171.753 31.4458 171.873 31.4458H175.053C175.173 31.4458 175.263 31.3558 175.263 31.2358L175.203 23.5858L175.263 16.2058C175.263 16.0858 175.173 15.9958 175.053 15.9958H171.273C171.183 15.9958 171.063 16.0258 171.003 16.1458L164.703 27.5158ZM177.657 16.2058L177.717 23.5858L177.657 31.2358C177.657 31.3558 177.747 31.4458 177.867 31.4458H181.107C181.227 31.4458 181.317 31.3558 181.317 31.2358L181.257 23.5858L181.287 18.5758H187.647C187.767 18.5758 187.857 18.4858 187.857 18.3658V16.2058C187.857 16.0858 187.767 15.9958 187.647 15.9958H177.867C177.747 15.9958 177.657 16.0858 177.657 16.2058ZM198.036 15.6958C195.966 15.6958 194.346 16.5958 193.296 18.0958L193.356 16.2058C193.356 16.0858 193.266 15.9958 193.146 15.9958H189.936C189.816 15.9958 189.726 16.0858 189.726 16.2058L189.786 24.9058L189.726 36.3358C189.726 36.4558 189.816 36.5458 189.936 36.5458H193.176C193.296 36.5458 193.386 36.4558 193.386 36.3358L193.326 29.5258C194.376 30.9658 195.936 31.7458 197.946 31.7458C202.086 31.7458 204.576 28.1458 204.576 23.6758C204.576 19.1758 202.296 15.6958 198.036 15.6958ZM196.986 29.2858C194.526 29.2858 193.176 27.2158 193.206 23.5858C193.236 20.0158 194.616 18.1858 197.046 18.1858C199.626 18.1858 200.886 20.3158 200.886 23.8858C200.886 27.2158 199.596 29.2858 196.986 29.2858ZM209.441 36.5458H212.471C212.591 36.5458 212.681 36.4558 212.711 36.3658L219.641 16.2358C219.701 16.1158 219.641 15.9958 219.491 15.9958H216.251C216.131 15.9958 216.041 16.0558 216.011 16.1758L212.741 26.9158L208.841 16.1758C208.811 16.0558 208.721 15.9958 208.601 15.9958H204.971C204.821 15.9958 204.731 16.0858 204.791 16.2358L210.941 31.5358L209.291 36.3058C209.231 36.4258 209.291 36.5458 209.441 36.5458Z" fill="white"/>
</svg>
