<svg width="87" height="162" viewBox="0 0 87 162" fill="none" xmlns="http://www.w3.org/2000/svg">
<path d="M87 162L36 162C16.1178 162 1.38497e-05 145.882 1.21116e-05 126L4.24352e-06 36C2.50536e-06 16.1178 16.1177 6.19672e-06 36 4.45856e-06L87 0L87 162Z" fill="#021F69"/>
<path d="M30.3359 117.18L30.3359 135.26C30.3359 135.42 30.4159 135.54 30.6159 135.54C36.3359 135.66 42.2959 135.94 45.6959 136.3C49.8559 136.7 52.6159 137.66 54.6559 139.26L54.6559 141.06C54.6559 141.22 54.7759 141.34 54.9359 141.34L64.3359 141.34C64.4959 141.34 64.6159 141.22 64.6159 141.06L64.6159 136.98C64.6159 136.82 64.4959 136.7 64.3359 136.7L58.3359 136.54L58.3359 118.1L64.3359 117.94C64.4959 117.94 64.6159 117.82 64.6159 117.66L64.6159 113.62C64.6159 113.46 64.4959 113.34 64.3359 113.34L54.9359 113.34C54.7759 113.34 54.6559 113.46 54.6559 113.62L54.6559 116.62L45.1759 116.78L30.6159 116.9C30.4559 116.9 30.3359 117.02 30.3359 117.18ZM45.5359 131.82C42.9759 131.58 38.4959 131.34 34.0159 131.14L34.0159 121.7L45.1759 121.54L54.6559 121.54L54.6559 134.26C52.6559 132.98 49.4959 132.22 45.5359 131.82ZM58.8159 101.916C58.8159 95.396 54.4959 91.756 48.0159 91.756C41.4959 91.756 37.2559 95.396 37.2559 101.916C37.2559 108.396 41.5759 112.076 48.0959 112.076C54.6159 112.076 58.8159 108.396 58.8159 101.916ZM55.5759 101.916C55.5759 105.436 53.0559 107.196 48.0959 107.196C43.1759 107.196 40.5359 105.476 40.4959 101.916C40.4959 98.436 43.1759 96.716 48.0959 96.716C53.0559 96.716 55.5759 98.396 55.5759 101.916ZM53.0159 77.5785L37.9759 83.1385C37.8159 83.1785 37.7359 83.2985 37.7359 83.4585L37.7359 88.7785C37.7359 88.9385 37.8559 89.0585 38.0159 89.0585L48.1359 88.9785L58.0559 89.0585C58.2159 89.0585 58.3359 88.9385 58.3359 88.7785L58.3359 85.4985C58.3359 85.3385 58.2159 85.2185 58.0559 85.2185L48.7759 85.2585L44.4159 85.3385L42.6559 85.4185L58.0959 79.6985C58.2559 79.6585 58.3359 79.5385 58.3359 79.3785L58.3359 76.4585C58.3359 76.2985 58.2559 76.1785 58.0959 76.1385L42.9359 70.5785L44.3759 70.5785L48.7759 70.6585L58.0559 70.6585C58.2159 70.6585 58.3359 70.5385 58.3359 70.3785L58.3359 66.3385C58.3359 66.1785 58.2159 66.0585 58.0559 66.0585L48.1359 66.0985L38.0159 66.0585C37.8559 66.0585 37.7359 66.1785 37.7359 66.3385L37.7359 71.6985C37.7359 71.8585 37.8159 71.9785 37.9759 72.0185L53.0159 77.5785ZM58.8159 53.1692C58.8159 46.6492 54.4959 43.0092 48.0159 43.0092C41.4959 43.0092 37.2559 46.6492 37.2559 53.1692C37.2559 59.6492 41.5759 63.3292 48.0959 63.3292C54.6159 63.3292 58.8159 59.6492 58.8159 53.1692ZM55.5759 53.1692C55.5759 56.6892 53.0559 58.4492 48.0959 58.4492C43.1759 58.4492 40.5359 56.7292 40.4959 53.1692C40.4959 49.6892 43.1759 47.9692 48.0959 47.9692C53.0559 47.9692 55.5759 49.6492 55.5759 53.1692ZM35.9759 30.8317C35.9759 34.9917 33.6159 37.5117 29.9359 37.5117L29.9359 33.7917C31.9359 33.7917 33.1759 32.7517 33.1759 30.7917C33.1759 28.8717 31.9359 27.7917 29.9359 27.7117L29.9359 23.9917C33.6159 23.9917 35.9759 26.5917 35.9759 30.8317ZM53.0959 35.6317L47.8959 35.5517L38.0159 35.4717C37.8559 35.4717 37.7359 35.5917 37.7359 35.7517L37.7359 40.0317C37.7359 40.1917 37.8559 40.3117 38.0159 40.3117L47.5759 40.2317L58.0559 40.3117C58.2159 40.3117 58.3359 40.1917 58.3359 40.0317L58.3359 34.9117C58.3359 34.7917 58.2959 34.6317 58.1359 34.5517L43.0959 26.1917L47.8559 26.2717L58.0559 26.3517C58.2159 26.3517 58.3359 26.2317 58.3359 26.0717L58.3359 21.8317C58.3359 21.6717 58.2159 21.5517 58.0559 21.5517L47.8559 21.6317L38.0159 21.5517C37.8559 21.5517 37.7359 21.6717 37.7359 21.8317L37.7359 26.8717C37.7359 26.9917 37.7759 27.1517 37.9359 27.2317L53.0959 35.6317Z" fill="#12A4FF"/>
</svg>
