<svg width="75" height="162" viewBox="0 0 75 162" fill="none" xmlns="http://www.w3.org/2000/svg">
<path d="M0 0H39C58.8822 0 75 16.1177 75 36V126C75 145.882 58.8823 162 39 162H0V0Z" fill="white"/>
<path d="M53 45.16L53 27.08C53 26.92 52.92 26.8 52.72 26.8C47 26.68 41.04 26.4 37.64 26.04C33.48 25.64 30.72 24.68 28.68 23.08L28.68 21.28C28.68 21.12 28.56 21 28.4 21L19 21C18.84 21 18.72 21.12 18.72 21.28L18.72 25.36C18.72 25.52 18.84 25.64 19 25.64L25 25.8L25 44.24L19 44.4C18.84 44.4 18.72 44.52 18.72 44.68L18.72 48.72C18.72 48.88 18.84 49 19 49L28.4 49C28.56 49 28.68 48.88 28.68 48.72L28.68 45.72L38.16 45.56L52.72 45.44C52.88 45.44 53 45.32 53 45.16ZM37.8 30.52C40.36 30.76 44.84 31 49.32 31.2L49.32 40.64L38.16 40.8L28.68 40.8L28.68 28.08C30.68 29.36 33.84 30.12 37.8 30.52ZM24.52 60.4237C24.52 66.9437 28.84 70.5838 35.32 70.5838C41.84 70.5838 46.08 66.9438 46.08 60.4238C46.08 53.9437 41.76 50.2637 35.24 50.2637C28.72 50.2637 24.52 53.9437 24.52 60.4237ZM27.76 60.4237C27.76 56.9037 30.28 55.1437 35.24 55.1437C40.16 55.1437 42.8 56.8637 42.84 60.4238C42.84 63.9037 40.16 65.6238 35.24 65.6238C30.28 65.6237 27.76 63.9437 27.76 60.4237ZM30.32 84.7612L45.36 79.2013C45.52 79.1613 45.6 79.0413 45.6 78.8813L45.6 73.5613C45.6 73.4013 45.48 73.2813 45.32 73.2813L35.2 73.3612L25.28 73.2812C25.12 73.2812 25 73.4012 25 73.5612L25 76.8412C25 77.0012 25.12 77.1212 25.28 77.1212L34.56 77.0812L38.92 77.0013L40.68 76.9213L25.24 82.6412C25.08 82.6813 25 82.8012 25 82.9613L25 85.8812C25 86.0412 25.08 86.1612 25.24 86.2013L40.4 91.7613L38.96 91.7613L34.56 91.6813L25.28 91.6812C25.12 91.6812 25 91.8012 25 91.9612L25 96.0012C25 96.1612 25.12 96.2813 25.28 96.2813L35.2 96.2413L45.32 96.2813C45.48 96.2813 45.6 96.1613 45.6 96.0013L45.6 90.6413C45.6 90.4813 45.52 90.3613 45.36 90.3213L30.32 84.7612ZM24.52 109.171C24.52 115.691 28.84 119.331 35.32 119.331C41.84 119.331 46.08 115.691 46.08 109.171C46.08 102.691 41.76 99.0106 35.24 99.0106C28.72 99.0106 24.52 102.691 24.52 109.171ZM27.76 109.171C27.76 105.651 30.28 103.891 35.24 103.891C40.16 103.891 42.8 105.611 42.84 109.171C42.84 112.651 40.16 114.371 35.24 114.371C30.28 114.371 27.76 112.691 27.76 109.171ZM47.36 131.508C47.36 127.348 49.72 124.828 53.4 124.828L53.4 128.548C51.4 128.548 50.16 129.588 50.16 131.548C50.16 133.468 51.4 134.548 53.4 134.628L53.4 138.348C49.72 138.348 47.36 135.748 47.36 131.508ZM30.24 126.708L35.44 126.788L45.32 126.868C45.48 126.868 45.6 126.748 45.6 126.588L45.6 122.308C45.6 122.148 45.48 122.028 45.32 122.028L35.76 122.108L25.28 122.028C25.12 122.028 25 122.148 25 122.308L25 127.428C25 127.548 25.04 127.708 25.2 127.788L40.24 136.148L35.48 136.068L25.28 135.988C25.12 135.988 25 136.108 25 136.268L25 140.508C25 140.668 25.12 140.788 25.28 140.788L35.48 140.708L45.32 140.788C45.48 140.788 45.6 140.668 45.6 140.508L45.6 135.468C45.6 135.348 45.56 135.188 45.4 135.108L30.24 126.708Z" fill="#021F69"/>
</svg>
