<svg width="114" height="128" viewBox="0 0 114 128" fill="none" xmlns="http://www.w3.org/2000/svg">
<path d="M43.1016 120.265C43.1289 120.271 43.1562 120.276 43.1835 120.281C65.2916 124.592 81.3317 120.46 92.0119 110.445C102.464 100.645 106.686 86.2076 107.552 72.1388C108.422 57.984 105.963 43.3473 102.147 32.0773C100.242 26.4519 97.9209 21.4298 95.3342 17.6492C94.042 15.7605 92.5742 14.0199 90.9185 12.671C89.2851 11.3403 87.148 10.1344 84.5914 9.92519C80.7489 9.61078 77.4256 10.9763 75.0136 13.6644C72.8596 16.0651 71.7182 19.1956 71.0276 22.1163C69.6475 27.9524 69.493 35.6879 69.3775 42.9176C69.3716 43.2897 69.3658 43.6611 69.36 44.0318C69.2476 51.1995 69.1395 58.0903 68.252 63.8226C67.6819 67.5043 66.8819 70.0155 66.0064 71.6675C66.0012 71.6256 65.996 71.5835 65.9909 71.5409C65.3581 66.2672 65.6503 58.2215 65.9803 49.1359L65.9934 48.7758C66.3163 39.8818 66.6546 30.126 65.8266 22.5842C65.418 18.8632 64.6739 15.0937 63.1482 12.1047C61.5314 8.93732 58.5154 5.82056 53.7112 5.82056C49.6063 5.82056 46.5066 7.89739 44.5637 10.8819C42.8386 13.5319 42.0353 16.8348 41.5977 19.9384C40.7764 25.7636 40.9677 33.3112 41.1509 40.5402C41.1642 41.0632 41.1774 41.5845 41.1902 42.1034C41.3877 50.1207 41.4995 57.7933 40.5619 63.9313C39.7174 69.4595 38.2595 72.1175 36.8082 73.2666C36.5193 69.9895 37.0626 64.9301 37.7475 58.5535L37.7633 58.4056C38.4486 52.025 39.2351 44.502 38.5059 38.4543C38.1397 35.4167 37.331 32.1215 35.4415 29.41C33.3655 26.4309 30.2321 24.5281 26.2622 24.2249C23.1983 23.991 20.2927 24.4081 17.6646 25.6237C15.0265 26.8439 12.982 28.7237 11.4345 30.9365C8.46805 35.1781 7.21259 40.8077 6.62163 46.3489C6.01639 52.024 6.03777 58.4338 6.18986 64.7682C6.24105 66.9 6.30647 69.0127 6.37121 71.1036C6.50322 75.3666 6.63242 79.5389 6.63242 83.5973C6.63242 95.6806 13.3015 104.391 20.8415 110.127C28.3128 115.81 37.1379 119.008 43.1016 120.265ZM63.796 74.16C63.7961 74.1596 63.8039 74.1559 63.8193 74.1501C63.8036 74.1575 63.7959 74.1604 63.796 74.16ZM35.1305 74.0718C35.1314 74.0701 35.1537 74.0651 35.1945 74.0616C35.15 74.0717 35.1295 74.0735 35.1305 74.0718ZM37.1484 75.127C37.1525 75.1347 37.1544 75.1389 37.1543 75.139C37.1542 75.1391 37.1522 75.1353 37.1484 75.127Z" fill="#FFF968" stroke="#F08603" stroke-width="11" stroke-linejoin="round"/>
</svg>
