<svg width="140" height="155" viewBox="0 0 140 155" fill="none" xmlns="http://www.w3.org/2000/svg">
<path d="M122.722 25.4632L85.537 13.4236C82.4761 12.4326 79.5176 11.1781 76.5658 9.89828C59.8102 2.63358 28.3089 -5.50317 7.76643 8.57102C-20.363 27.8432 38.52 25.8932 28.3745 76.2255C18.2291 126.558 15.1368 117.111 18.2422 145.515C21.3476 173.918 101.253 131.344 78.9726 110.48C68.2232 100.414 68.8357 88.5768 72.9755 78.8585C77.4847 68.273 90.3484 65.7508 101.295 69.295L107.844 71.4154C120.534 75.5239 134.151 68.5677 138.259 55.8784C142.368 43.189 135.412 29.5717 122.722 25.4632Z" fill="white"/>
</svg>
