<svg width="395" height="767" viewBox="0 0 395 767" fill="none" xmlns="http://www.w3.org/2000/svg">
<path d="M15.1761 695.065C12.152 723.425 41.6457 740.338 56.7706 745.25C175.453 781.808 154.412 612.25 129.808 607.572C105.204 602.895 118.921 685.213 95.0607 696.487C71.2006 707.761 109.647 599.447 86.4376 596.972C63.2285 594.497 80.848 683.021 53.8002 692.087C26.7523 701.154 69.6861 624.13 43.309 619.263C16.9318 614.396 18.9563 659.615 15.1761 695.065Z" fill="#021F69"/>
<path d="M248.501 413.083C259.745 439.294 293.743 439.606 309.336 436.486C430.724 410.271 329.38 272.714 305.635 280.678C281.89 288.642 334.145 353.711 318.857 375.221C303.57 396.732 284.077 283.461 262.627 292.664C241.177 301.866 299.872 370.435 280.724 391.581C261.576 412.727 261.313 324.545 235.929 333.212C210.546 341.879 234.445 380.32 248.501 413.083Z" fill="white"/>
<path d="M46.9788 313.722C58.2234 339.932 92.2212 340.244 107.815 337.124C229.202 310.91 127.858 173.352 104.113 181.317C80.3684 189.281 132.623 254.35 117.335 275.86C102.048 297.37 82.555 184.1 61.105 193.302C39.655 202.504 98.3502 271.074 79.2021 292.219C60.054 313.365 59.7906 225.183 34.4072 233.851C9.02383 242.518 32.923 280.958 46.9788 313.722Z" fill="white"/>
<path d="M149.301 533.783L179.278 562.747C181.746 565.131 183.992 567.72 186.219 570.329C198.864 585.142 225.226 607.703 251.501 603.85C287.481 598.575 230.162 572.841 263.473 529.383C296.785 485.924 295.319 496.422 305.658 467.759C315.998 439.095 219.498 442.422 231.061 472.852C236.64 487.533 230.504 498.585 221.983 505.954C212.702 513.98 199.197 510.366 190.373 501.84L185.093 496.739C174.863 486.855 158.558 487.136 148.675 497.365C138.791 507.595 139.071 523.9 149.301 533.783Z" fill="#021F69"/>
<path d="M176.115 452.531L179.775 411.009C180.076 407.591 180.676 404.217 181.303 400.843C184.865 381.695 185.821 347.011 166.299 329.008C139.566 304.357 155.616 365.103 100.878 366.543C46.1396 367.983 55.2229 362.518 26.4365 372.511C-2.34998 382.503 60.9362 455.428 77.3185 427.298C85.2224 413.727 97.6736 411.545 108.762 413.534C120.84 415.7 126.525 428.472 125.448 440.695L124.803 448.008C123.554 462.178 134.028 474.677 148.197 475.926C162.367 477.175 174.866 466.701 176.115 452.531Z" fill="#021F69"/>
<path d="M383.108 572.703L375.223 548.625C374.574 546.643 374.102 544.614 373.646 542.579C371.057 531.028 363.297 511.417 348.082 506.026C327.248 498.644 350.745 528.751 320.501 542.646C290.258 556.541 294.027 551.316 280.331 563.784C266.635 576.252 319.439 601.867 321.866 582.231C323.037 572.757 329.473 568.559 336.145 567.019C343.412 565.341 349.644 571.118 351.965 578.206L353.354 582.447C356.044 590.664 364.886 595.143 373.103 592.453C381.32 589.762 385.799 580.92 383.108 572.703Z" fill="white"/>
<path d="M281.809 709.473C291.031 734.224 308.46 754.277 322.014 747.033C346.106 734.158 338.877 693.113 361.89 678.397C395.731 656.755 337.771 628.069 327.58 605.418C314.477 576.292 290.765 623.812 282.294 647.961C273.822 672.11 233.214 645.833 224.754 675.245C216.294 704.658 235.597 720.091 256.981 723.975C278.364 727.859 272.586 684.722 281.809 709.473Z" fill="#021F69"/>
<path d="M296.705 233.134C299.262 255.312 309.505 275.296 322.094 272.096C344.47 266.408 346.848 231.263 368.712 223.845C400.864 212.937 359.109 177.663 355.332 157.012C350.476 130.458 321.397 164.653 309.557 182.754C297.716 200.856 269.712 171.072 256.815 193.495C243.918 215.919 256.634 232.491 273.395 240.008C290.156 247.524 294.148 210.955 296.705 233.134Z" fill="#021F69"/>
<path d="M56.9066 538.018C63.8618 556.685 77.0067 571.808 87.2288 566.345C105.398 556.635 99.9461 525.68 117.302 514.581C142.825 498.26 99.112 476.625 91.4267 459.543C81.5444 437.577 63.6613 473.415 57.2725 491.627C50.8837 509.84 20.2575 490.022 13.8771 512.205C7.49669 534.387 22.0552 546.026 38.182 548.955C54.3088 551.884 49.9514 519.351 56.9066 538.018Z" fill="white"/>
<path d="M173.108 720.903C172.009 733.13 175.293 745.034 182.429 744.716C195.112 744.151 200.315 725.493 212.916 723.939C231.445 721.655 212.9 698.001 213.171 686.461C213.52 671.621 194.047 686.787 185.651 695.212C177.255 703.637 165.501 684.474 156.054 695.108C146.606 705.742 151.604 716.085 159.789 722.003C167.975 727.921 174.206 708.676 173.108 720.903Z" fill="white"/>
<path d="M182.537 292.259L181.226 302.748C181.192 303.026 181.374 303.26 181.574 303.356L227.122 326.12C227.383 326.293 227.687 326.12 227.73 325.772L228.685 318.132C228.72 317.854 228.607 317.628 228.338 317.524L215.739 311.646L218.118 292.614L231.793 289.879C232.079 289.844 232.244 289.653 232.279 289.376L233.26 281.527C233.303 281.179 233.043 281.006 232.747 281.11L183.023 291.756C182.806 291.799 182.572 291.981 182.537 292.259ZM211.033 293.986L209.201 308.642L187.669 298.615L211.033 293.986Z" fill="#FFF968"/>
<path d="M187.251 254.544L186.374 261.56C186.348 261.768 186.383 262.055 186.643 262.228C189.916 264.824 192.322 268.723 193.355 273.437C193.39 273.724 193.581 273.889 193.858 273.923L199.415 274.618C199.763 274.661 199.927 274.47 199.901 274.114C199.189 270.216 197.8 266.656 195.629 263.704L234.388 268.548C234.666 268.583 234.9 268.4 234.935 268.123L235.872 260.621C235.907 260.343 235.725 260.109 235.447 260.074L187.798 254.119C187.52 254.084 187.285 254.267 187.251 254.544Z" fill="#FFF968"/>
<path d="M190.243 230.602L189.366 237.618C189.34 237.826 189.375 238.113 189.635 238.286C192.909 240.882 195.314 244.781 196.347 249.495C196.382 249.782 196.573 249.947 196.851 249.982L202.407 250.676C202.755 250.719 202.92 250.528 202.894 250.172C202.182 246.274 200.792 242.714 198.622 239.762L237.38 244.606C237.658 244.641 237.892 244.458 237.927 244.181L238.865 236.679C238.899 236.401 238.717 236.167 238.439 236.132L190.79 230.177C190.512 230.142 190.278 230.325 190.243 230.602Z" fill="#FFF968"/>
<path d="M237.314 197.155L234.336 220.98L232.808 220.789C221.625 219.391 226.279 195.141 208.636 192.936C199.719 192.033 193.624 196.774 192.331 207.124C191.054 217.898 196.334 224.202 207.161 225.625C207.508 225.669 207.673 225.478 207.708 225.2L208.558 218.393C208.593 218.115 208.48 217.889 208.133 217.846C201.213 216.769 197.931 213.114 198.512 207.896C199.129 202.4 202.88 200.047 207.924 200.889C219.315 202.313 214.098 226.563 233.199 228.95L239.242 229.705C239.52 229.74 239.755 229.558 239.789 229.28L243.704 197.954C243.739 197.676 243.557 197.441 243.279 197.407L237.861 196.73C237.583 196.695 237.349 196.877 237.314 197.155Z" fill="#FFF968"/>
<path d="M166.27 560.49L160.075 551.925C159.911 551.698 159.618 551.651 159.407 551.717L110.57 566.134C110.261 566.185 110.157 566.519 110.362 566.803L114.875 573.042C115.039 573.268 115.275 573.357 115.543 573.249L128.766 568.955L140.006 584.496L131.871 595.823C131.685 596.044 131.695 596.296 131.859 596.523L136.495 602.932C136.7 603.216 137.009 603.165 137.153 602.888L166.258 561.189C166.387 561.01 166.434 560.716 166.27 560.49ZM144.252 578.661L135.596 566.693L158.183 559.341L144.252 578.661Z" fill="#FFF968"/>
<path d="M188.545 591.287L184.402 585.558C184.278 585.388 184.058 585.202 183.749 585.253C179.584 585.587 175.167 584.376 171.196 581.633C170.975 581.447 170.723 581.457 170.496 581.621L165.958 584.903C165.675 585.108 165.684 585.36 165.946 585.602C169.126 587.968 172.569 589.624 176.17 590.302L144.521 613.194C144.294 613.358 144.247 613.651 144.411 613.878L148.842 620.003C149.006 620.23 149.299 620.277 149.526 620.113L188.435 591.971C188.662 591.807 188.709 591.513 188.545 591.287Z" fill="#FFF968"/>
<path d="M202.685 610.837L198.542 605.108C198.419 604.938 198.198 604.752 197.889 604.803C193.725 605.137 189.307 603.926 185.336 601.183C185.115 600.997 184.863 601.007 184.636 601.171L180.099 604.453C179.815 604.658 179.825 604.91 180.087 605.153C183.266 607.518 186.71 609.174 190.311 609.852L158.662 632.744C158.435 632.908 158.388 633.201 158.552 633.428L162.982 639.554C163.146 639.781 163.44 639.828 163.667 639.664L202.576 611.521C202.802 611.357 202.85 611.064 202.685 610.837Z" fill="#FFF968"/>
<path d="M191.072 667.402L177.001 647.947L178.249 647.044C187.381 640.44 200.517 661.348 214.923 650.928C222.06 645.507 223.284 637.883 217.172 629.432C210.756 620.681 202.596 619.672 193.707 626.015C193.424 626.22 193.433 626.472 193.597 626.699L197.618 632.258C197.782 632.484 198.018 632.573 198.302 632.367C204.097 628.435 208.99 628.87 212.124 633.083C215.421 637.523 214.283 641.802 210.02 644.626C200.718 651.354 187.994 630.061 172.397 641.342L167.462 644.911C167.235 645.075 167.188 645.369 167.352 645.596L185.854 671.176C186.018 671.403 186.312 671.45 186.538 671.286L190.962 668.086C191.189 667.922 191.236 667.628 191.072 667.402Z" fill="#FFF968"/>
<path d="M40.2058 133.887L30.2464 137.427C29.9825 137.521 29.855 137.789 29.8594 138.011L29.9822 188.931C29.9441 189.242 30.2358 189.435 30.5655 189.318L37.8208 186.739C38.0846 186.645 38.2356 186.443 38.2077 186.155L37.7997 172.259L55.8718 165.835L64.4584 176.824C64.6182 177.064 64.8629 177.126 65.1268 177.032L72.5798 174.382C72.9096 174.265 72.9478 173.954 72.7221 173.738L40.8741 134.095C40.7378 133.921 40.4696 133.793 40.2058 133.887ZM51.4634 160.122L37.5466 165.069L36.8328 141.326L51.4634 160.122Z" fill="#FFF968"/>
<path d="M76.0186 121.156L69.357 123.524C69.1592 123.594 68.9188 123.754 68.8807 124.065C68.0318 128.156 65.6293 132.056 61.8814 135.097C61.641 135.256 61.5795 135.501 61.6732 135.765L63.549 141.041C63.6662 141.371 63.911 141.433 64.2173 141.25C67.3803 138.862 69.9367 136.022 71.5989 132.757L84.6821 169.56C84.7759 169.824 85.0441 169.952 85.3079 169.858L92.4312 167.326C92.695 167.232 92.8226 166.964 92.7288 166.7L76.6445 121.454C76.5507 121.19 76.2825 121.062 76.0186 121.156Z" fill="#FFF968"/>
<path d="M98.753 113.074L92.0914 115.442C91.8936 115.513 91.6532 115.672 91.615 115.983C90.7662 120.074 88.3637 123.974 84.6158 127.015C84.3754 127.175 84.3138 127.419 84.4076 127.683L86.2833 132.96C86.4006 133.289 86.6453 133.351 86.9517 133.168C90.1147 130.78 92.671 127.94 94.3333 124.675L107.416 161.479C107.51 161.742 107.778 161.87 108.042 161.776L115.166 159.244C115.429 159.15 115.557 158.882 115.463 158.618L99.3788 113.372C99.2851 113.108 99.0169 112.981 98.753 113.074Z" fill="#FFF968"/>
<path d="M149.781 140.104L127.158 148.146L126.642 146.695C122.867 136.076 146.623 129.34 140.668 112.587C137.469 104.215 130.495 100.899 120.668 104.393C110.468 108.093 107.208 115.641 110.799 125.953C110.917 126.283 111.161 126.345 111.425 126.251L117.889 123.953C118.153 123.859 118.304 123.657 118.186 123.327C116.04 116.661 117.831 112.087 122.754 110.263C127.941 108.344 131.729 110.638 133.242 115.524C137.088 126.34 113.078 132.572 119.526 150.71L121.566 156.449C121.659 156.713 121.928 156.84 122.192 156.746L151.938 146.172C152.202 146.078 152.329 145.81 152.235 145.546L150.407 140.401C150.313 140.138 150.045 140.01 149.781 140.104Z" fill="#FFF968"/>
<path d="M154.838 69.7896C166.061 71.4139 174.672 67.1433 178.803 54.727C178.932 54.3214 178.685 54.0734 178.408 54.0333L170.926 52.9504C170.649 52.9103 170.421 53.0188 170.302 53.3551C168.1 60.746 163.065 64.261 155.583 63.1781C146.507 61.8645 142.116 54.5803 143.87 42.4566C145.525 31.0257 151.763 24.5728 161.047 25.9164C167.836 26.8991 171.897 31.0941 172.309 38.5096C172.338 38.7967 172.457 38.9553 172.734 38.9954L180.077 40.0583C180.354 40.0984 180.592 39.9207 180.642 39.5743C179.934 26.3868 172.183 20.809 162.138 19.3551C147.797 17.2795 137.357 25.8827 135.131 41.2625C132.925 56.5037 140.29 67.6839 154.838 69.7896Z" fill="white"/>
<path d="M198.221 75.9272C209.513 77.5616 216.9 70.992 218.525 59.769C220.159 48.4766 214.918 40.2207 203.625 38.5863C192.402 36.9619 184.946 43.5214 183.311 54.8138C181.677 66.1061 186.998 74.3028 198.221 75.9272ZM199.033 70.3156C192.937 69.4333 190.52 64.6275 191.763 56.0371C192.997 47.5159 196.637 43.3747 202.813 44.1978C208.84 45.0702 211.148 50.143 209.914 58.6642C208.671 67.2547 205.129 71.198 199.033 70.3156Z" fill="white"/>
<path d="M245.44 46.9017C239.274 46.0093 234.568 48.228 231.649 52.7566C233.435 45.3055 236.729 41.1142 243.709 40.7806C247.204 40.5791 254.251 41.2455 258.964 40.9374C259.251 40.9082 259.409 40.7897 259.449 40.5126L260.242 35.0396C260.282 34.7625 260.104 34.5246 259.747 34.5437C254.986 34.7033 247.879 33.9576 243.602 34.1873C231.999 34.7005 226.004 42.8863 223.959 57.019C221.843 71.6367 226.857 80.0011 237.872 81.5954C248.679 83.1597 256.214 77.0358 257.799 66.0899C259.162 56.6681 255.485 48.3556 245.44 46.9017ZM238.763 75.9247C233.083 75.1024 230.676 70.2274 231.729 62.9532C232.842 55.2634 236.789 51.4494 242.331 52.2516C247.874 53.0538 250.349 57.9388 249.256 65.4901C248.163 73.0414 244.375 76.7368 238.763 75.9247Z" fill="white"/>
<path d="M277.916 81.7329C271.958 80.8706 269.392 76.6091 270.179 68.7305L296.296 72.5107C296.574 72.5508 296.801 72.4423 296.852 72.0959C298.478 59.8829 293.246 51.5577 282.162 49.9534C271.285 48.3791 263.68 54.9879 262.056 66.211C260.481 77.0876 265.534 85.6699 277.034 87.3344C286.664 88.7282 293.286 84.0282 295.209 77.0922C295.318 76.8251 295.141 76.5872 294.863 76.5471L287.797 75.5243C287.52 75.4842 287.361 75.6027 287.252 75.8698C285.521 80.4996 282.35 82.3746 277.916 81.7329ZM281.429 55.5057C286.902 56.2978 288.913 60.9741 288.557 65.8737L271.238 63.3669C272.931 57.5293 276.302 54.7637 281.429 55.5057Z" fill="white"/>
<path d="M323.47 56.0737C318.69 55.3818 314.648 56.9187 311.722 60.0316L312.492 55.6872C312.532 55.41 312.355 55.1721 312.077 55.132L304.665 54.0591C304.388 54.019 304.15 54.1968 304.11 54.4739L301.34 74.5846L297.381 100.959C297.341 101.237 297.519 101.475 297.796 101.515L305.278 102.598C305.555 102.638 305.793 102.46 305.833 102.183L307.971 86.4366C309.914 90.1129 313.256 92.4356 317.898 93.1074C327.458 94.4911 334.411 87.01 335.905 76.6875C337.41 66.2958 333.308 57.4975 323.47 56.0737ZM316.503 87.1057C310.822 86.2835 308.397 81.0521 309.679 72.6794C310.942 64.4454 314.74 60.6806 320.352 61.4928C326.31 62.3552 328.507 67.6951 327.314 75.9392C326.201 83.629 322.53 87.9781 316.503 87.1057Z" fill="white"/>
<path d="M347.401 87.4047L348.843 78.4186L351.458 61.327C351.499 61.0499 351.321 60.812 351.044 60.7719L343.631 59.699C343.354 59.6589 343.116 59.8366 343.076 60.1137L340.818 76.6912L338.052 94.8221C338.012 95.0992 338.19 95.3371 338.467 95.3772L347.335 96.6607C347.542 96.6908 347.83 96.6616 348.008 96.4045L366.257 72.4516L364.926 80.6757L362.23 98.3215C362.19 98.5986 362.368 98.8365 362.645 98.8767L369.988 99.9395C370.266 99.9796 370.504 99.8019 370.544 99.5248L372.962 81.8388L375.567 64.8164C375.607 64.5393 375.43 64.3014 375.152 64.2613L366.423 62.9979C366.216 62.9678 365.928 62.997 365.75 63.254L347.401 87.4047Z" fill="white"/>
<path fill-rule="evenodd" clip-rule="evenodd" d="M326.192 37.2696C323.408 36.8667 320.666 36.8069 318.007 37.0694C316.977 36.7381 315.906 36.4882 314.799 36.328L307.386 35.2551C304.427 34.8268 301.528 35.0857 298.851 35.9114C294.568 33.4204 289.803 31.8614 284.884 31.1494C282.849 30.8549 280.808 30.7119 278.779 30.7271C278.108 27.6885 276.666 24.5905 274.157 21.8507C269.624 16.8989 263.727 15.4011 259.111 15.5544C257.673 15.6026 255.589 15.5121 252.393 15.3606L252.072 15.3453C249.513 15.2235 245.825 15.0478 242.674 15.2099C234.024 15.6099 226.079 18.5456 219.696 24.1234C215.564 21.8794 211.019 20.4585 206.347 19.7823C202.395 19.2103 198.398 19.1864 194.499 19.7859C192.836 16.7888 190.75 14.0096 188.208 11.5118C181.155 4.58219 172.444 1.64885 164.86 0.551072C153.155 -1.14307 141.429 1.42391 132.09 9.03332C122.937 16.491 117.963 27.2373 116.327 38.5409C114.712 49.7037 116.345 61.3888 123.003 71.1548C129.813 81.1428 140.371 86.8937 152.117 88.5937C159.517 89.6648 167.747 89.2666 175.551 85.749C181.165 90.7831 188.184 93.6725 195.499 94.7313C202.597 95.7586 209.844 95.0298 216.409 92.091C221.766 96.7699 228.359 99.4165 235.15 100.4C241.947 101.383 248.954 100.741 255.371 98.0111C260.74 102.459 267.321 105.126 274.313 106.139C275.945 106.375 277.566 106.512 279.168 106.554C281.258 113.625 287.291 119.192 295.075 120.319L302.557 121.402C310.543 122.558 318.088 118.708 322.021 112.222C324.085 112.107 326.097 111.803 328.042 111.325C330.307 112.771 332.91 113.771 335.745 114.181L344.613 115.465C346.229 115.699 349.192 115.849 352.515 115.009C354.71 116.356 357.211 117.288 359.923 117.681L367.267 118.744C377.929 120.287 387.805 112.909 389.348 102.246C389.355 102.197 389.362 102.148 389.369 102.099L391.766 84.5631L394.349 67.6909C394.356 67.64 394.364 67.5891 394.371 67.5381C395.915 56.8756 388.536 47.0005 377.874 45.4573L369.145 44.1939C367.523 43.9591 364.544 43.8084 361.205 44.6593C359.003 43.3016 356.491 42.3624 353.765 41.9679L346.353 40.895C343.585 40.4943 340.869 40.695 338.34 41.3983C334.717 39.3249 330.628 37.9118 326.192 37.2696ZM155.791 63.2071C158.031 63.5076 160.049 63.3915 161.834 62.8784L164.148 61.9204C165.913 60.9368 167.377 59.4619 168.525 57.5239C169.242 56.3129 169.835 54.921 170.302 53.3552C170.374 53.1518 170.486 53.0318 170.624 52.9775C170.653 52.9662 170.683 52.9578 170.714 52.952C170.78 52.9396 170.851 52.9396 170.926 52.9505L178.408 54.0334C178.501 54.0468 178.59 54.0832 178.662 54.1409C178.808 54.2563 178.889 54.4567 178.803 54.7271C178.684 55.0841 178.562 55.4343 178.436 55.7779C178.385 55.9157 178.334 56.0525 178.282 56.1882L177.989 56.9289C177.818 57.3466 177.641 57.7535 177.459 58.1499C177.353 58.3803 177.245 58.6071 177.135 58.8304C175.908 61.3196 174.443 63.3663 172.763 65.0006C171.539 66.1919 170.201 67.1641 168.758 67.9287C168.08 68.2883 167.378 68.602 166.655 68.871C166.25 69.0215 165.839 69.1579 165.42 69.2806C162.253 70.2095 158.7 70.3486 154.838 69.7896C154.769 69.7796 154.7 69.7693 154.63 69.7588C140.22 67.5771 132.936 56.431 135.131 41.2625L135.141 41.1932C137.381 25.9065 147.752 17.3381 161.999 19.3354C162.045 19.3419 162.092 19.3484 162.138 19.3551C165.878 19.8965 169.301 21.0097 172.16 22.8747C173.092 23.4825 173.964 24.1702 174.768 24.944C175.635 25.7792 176.423 26.7146 177.12 27.7582C178.469 29.7751 179.48 32.1958 180.076 35.0769C180.092 35.1523 180.107 35.2281 180.123 35.3042C180.258 35.9867 180.37 36.6945 180.458 37.4287C180.468 37.5117 180.478 37.5951 180.487 37.6789C180.501 37.8029 180.514 37.9276 180.526 38.053C180.554 38.3301 180.578 38.6108 180.599 38.8952C180.616 39.1193 180.63 39.3457 180.642 39.5743C180.617 39.7475 180.545 39.8785 180.445 39.9613C180.345 40.044 180.216 40.0784 180.077 40.0583L172.734 38.9955C172.457 38.9554 172.338 38.7968 172.309 38.5096C172.306 38.4619 172.304 38.4144 172.301 38.3669C172.2 36.7506 171.924 35.2889 171.483 33.9819L171.475 33.9556C170.48 31.0268 168.652 28.877 166.102 27.5054C164.681 26.7411 163.036 26.2184 161.185 25.937C161.139 25.93 161.093 25.9232 161.047 25.9165C151.764 24.5729 145.525 31.0258 143.87 42.4566L143.86 42.5259C142.132 54.6081 146.525 61.8671 155.583 63.1781C155.652 63.1882 155.722 63.1978 155.791 63.2071ZM183.022 58.85C183.02 58.5285 183.025 58.2037 183.035 57.8757C183.043 57.6381 183.054 57.3989 183.069 57.158C183.089 56.8324 183.115 56.5039 183.147 56.1724L183.153 56.115C183.195 55.6861 183.248 55.2523 183.312 54.8138C184.209 48.6126 186.862 43.8386 190.931 41.0635C191.236 40.8554 191.549 40.6585 191.87 40.4731C193.27 39.6644 194.818 39.0742 196.504 38.7224C197.491 38.5164 198.525 38.3922 199.604 38.3538C200.864 38.309 202.185 38.3814 203.562 38.5773L203.626 38.5863C205.533 38.8624 207.268 39.3273 208.826 39.9639C211.087 40.888 212.977 42.1736 214.482 43.7681C215.523 44.8701 216.379 46.1196 217.049 47.4992C217.351 48.1226 217.615 48.7725 217.841 49.4473C218.528 51.5061 218.856 53.797 218.814 56.2744C218.795 57.4021 218.699 58.5684 218.525 59.769C218.518 59.8153 218.511 59.8614 218.505 59.9075C218.449 60.281 218.386 60.6493 218.318 61.0122C218.044 62.4608 217.669 63.8243 217.198 65.0944C216.2 67.7807 214.77 70.0491 212.949 71.82C211.076 73.6411 208.789 74.9362 206.135 75.6187C203.777 76.225 201.128 76.348 198.221 75.9272C195.244 75.4964 192.683 74.6031 190.556 73.3124C188.048 71.7902 186.144 69.715 184.878 67.1934C184.691 66.8205 184.518 66.4378 184.359 66.0457C183.49 63.9085 183.039 61.4913 183.022 58.85ZM225.77 48.9672C225.536 49.6846 225.319 50.4262 225.119 51.1916C224.644 53.0026 224.259 54.9469 223.959 57.0191C223.785 58.2221 223.659 59.3828 223.581 60.5008L223.571 60.6409C223.546 61.0202 223.526 61.3946 223.512 61.764C223.388 64.9947 223.683 67.8466 224.382 70.3122C224.663 71.3031 225.01 72.2317 225.42 73.0973C226.712 75.8226 228.639 77.9244 231.168 79.3872C233.068 80.486 235.307 81.2242 237.872 81.5955L237.941 81.6054C240.277 81.9368 242.459 81.9084 244.461 81.5494C247.237 81.0514 249.665 79.9173 251.674 78.2244C253.115 77.0096 254.341 75.507 255.323 73.7453C256.34 71.921 257.096 69.8189 257.562 67.4708C257.612 67.2208 257.658 66.968 257.701 66.7124C257.736 66.5067 257.768 66.2992 257.799 66.0899C257.822 65.9277 257.844 65.7659 257.865 65.6044C258.11 63.6665 258.14 61.7802 257.942 59.9961C257.923 59.8269 257.902 59.6586 257.88 59.4913C257.675 57.9978 257.307 56.581 256.768 55.2716C256.519 54.6683 256.234 54.0878 255.912 53.5331C255.819 53.3728 255.723 53.2147 255.624 53.0588C255.474 52.8232 255.317 52.5927 255.153 52.3675C253.641 50.2935 251.522 48.6724 248.75 47.6998C247.786 47.3613 246.742 47.1013 245.617 46.9282C245.558 46.9192 245.499 46.9103 245.44 46.9017C245.047 46.8448 244.659 46.8005 244.278 46.7687C244.238 46.7654 244.198 46.7622 244.158 46.7591C244.123 46.7564 244.088 46.7538 244.053 46.7514L243.994 46.7473C243.704 46.7276 243.417 46.7152 243.133 46.7101C240.87 46.6689 238.837 47.0882 237.053 47.92C234.864 48.9406 233.05 50.5824 231.649 52.7566C232.583 48.8612 233.928 45.8567 235.998 43.8286C237.595 42.2631 239.624 41.2794 242.226 40.9168C242.701 40.8507 243.195 40.8052 243.709 40.7806C243.769 40.7772 243.831 40.7739 243.893 40.771L243.956 40.7681L243.994 40.7664C244.67 40.7376 245.461 40.7365 246.33 40.7515C247.478 40.7715 248.762 40.8197 250.098 40.8699C251.361 40.9173 252.67 40.9664 253.956 40.9951C255.735 41.0348 257.467 41.0353 258.964 40.9374C259.251 40.9083 259.409 40.7898 259.45 40.5126L260.242 35.0397C260.282 34.7626 260.104 34.5246 259.748 34.5438C259.362 34.5567 258.961 34.5637 258.547 34.5657C258.471 34.5661 258.394 34.5663 258.316 34.5664C257.846 34.5666 257.36 34.5609 256.862 34.5506C255.233 34.5167 253.482 34.4336 251.745 34.3512C250.709 34.302 249.678 34.2531 248.682 34.2151C248.207 34.1969 247.739 34.1812 247.283 34.1692C246.464 34.1476 245.681 34.1376 244.952 34.146C244.478 34.1514 244.026 34.1646 243.602 34.1874C243.533 34.1904 243.463 34.1938 243.394 34.1974L243.33 34.2009C242.698 34.2356 242.084 34.2934 241.486 34.3739C241.41 34.3841 241.334 34.3947 241.259 34.4057C241.23 34.4098 241.201 34.4141 241.173 34.4183L241.133 34.4244C238.096 34.8838 235.494 35.9412 233.29 37.5579C231.04 39.209 229.204 41.4436 227.743 44.2205C226.986 45.6591 226.33 47.2432 225.77 48.9672ZM264.091 59.2465C265.016 57.2987 266.196 55.6104 267.604 54.2189C269.084 52.7563 270.815 51.6216 272.766 50.858C272.865 50.8192 272.965 50.7813 273.065 50.7443C273.638 50.5333 274.23 50.3539 274.839 50.2071C274.935 50.1841 275.031 50.1619 275.127 50.1405C275.407 50.0783 275.691 50.0229 275.978 49.9744C277.89 49.6514 279.959 49.6346 282.162 49.9534L282.231 49.9636C283.381 50.1332 284.467 50.3755 285.489 50.6871C286.847 51.1009 288.09 51.6371 289.218 52.2882L289.287 52.3286C289.364 52.3733 289.44 52.4185 289.515 52.4642C289.824 52.6513 290.123 52.8473 290.413 53.0519C290.882 53.3826 291.328 53.7361 291.749 54.1117C292.273 54.5787 292.76 55.0798 293.209 55.6138C293.307 55.7306 293.404 55.849 293.498 55.9689C293.742 56.277 293.973 56.5953 294.192 56.9237C294.272 57.0431 294.35 57.1638 294.427 57.2859C294.503 57.407 294.577 57.5295 294.65 57.6532C295.653 59.3559 296.359 61.302 296.757 63.4632C296.936 64.4312 297.053 65.4424 297.107 66.4941L297.112 66.5977C297.116 66.6684 297.119 66.7392 297.122 66.8102C297.171 68.0639 297.133 69.374 297.006 70.7363L297.006 70.7381C297 70.8028 296.994 70.8675 296.987 70.9324C296.956 71.2499 296.919 71.5701 296.878 71.8931C296.87 71.9606 296.861 72.0282 296.852 72.096C296.802 72.4424 296.574 72.5509 296.297 72.5107L270.179 68.7305C270.174 68.7777 270.169 68.8247 270.165 68.8716C270.146 69.0708 270.129 69.2677 270.115 69.4622C270.057 70.2198 270.033 70.9421 270.042 71.6291C270.092 75.5511 271.215 78.3265 273.418 79.9948C274.354 80.7043 275.486 81.2136 276.814 81.5257C277.146 81.6037 277.49 81.6693 277.847 81.7227L277.916 81.7329C279.045 81.8964 280.093 81.8966 281.055 81.7296C283.715 81.2681 285.727 79.5297 287.029 76.4316C287.106 76.2491 287.18 76.0618 287.252 75.8698C287.362 75.6027 287.52 75.4842 287.797 75.5244L294.864 76.5471C295.141 76.5872 295.318 76.8251 295.209 77.0922C295.061 77.6247 294.886 78.1441 294.684 78.6485C294.653 78.7244 294.622 78.8001 294.591 78.8754C294.559 78.9502 294.527 79.0246 294.494 79.0987C293.687 80.9286 292.516 82.5476 291.019 83.8677C290.93 83.9458 290.841 84.0228 290.75 84.0988C290.442 84.3563 290.121 84.6016 289.787 84.834C289.514 85.0248 289.231 85.2068 288.94 85.3798C288.092 85.8839 287.173 86.3107 286.187 86.6502C284.396 87.2667 282.384 87.5958 280.177 87.579C279.977 87.5775 279.775 87.5732 279.571 87.5659C278.773 87.5374 277.95 87.4645 277.104 87.3444L277.035 87.3344C274.556 86.9757 272.376 86.2955 270.499 85.3402C269.596 84.8813 268.764 84.3589 268.001 83.7781C267.111 83.1009 266.317 82.3444 265.617 81.5166C265.195 81.017 264.807 80.4915 264.454 79.9419C262.349 76.6614 261.48 72.5207 261.863 67.9002C261.879 67.7085 261.897 67.5159 261.917 67.3226C261.939 67.1148 261.963 66.9061 261.99 66.6965C262.01 66.5352 262.032 66.3734 262.056 66.211C262.323 64.3683 262.75 62.65 263.328 61.0719C263.559 60.4407 263.813 59.8318 264.091 59.2465ZM304.221 54.2207C304.163 54.2889 304.124 54.3751 304.11 54.4739L301.34 74.5846L297.381 100.96C297.378 100.985 297.376 101.01 297.376 101.035C297.375 101.279 297.545 101.478 297.796 101.515L305.278 102.598C305.54 102.636 305.767 102.479 305.825 102.227C305.828 102.213 305.831 102.198 305.833 102.183L307.971 86.4367C308.132 86.742 308.303 87.038 308.484 87.3245C309.043 88.2102 309.693 89.005 310.433 89.704C311.465 90.679 312.673 91.4673 314.051 92.0554C314.577 92.2796 315.127 92.4748 315.702 92.64C316.361 92.8294 317.052 92.9796 317.776 93.0893C317.816 93.0955 317.857 93.1015 317.898 93.1074C318.309 93.1669 318.716 93.2101 319.117 93.2373C320.803 93.3515 322.4 93.1847 323.891 92.7725C323.975 92.7492 324.059 92.7252 324.143 92.7003C324.932 92.4654 325.692 92.1611 326.418 91.7927C327.196 91.3979 327.937 90.9297 328.636 90.3945C330.226 89.1779 331.603 87.6156 332.731 85.786C332.866 85.5659 332.998 85.3418 333.127 85.114L333.146 85.0809C333.39 84.646 333.62 84.1975 333.837 83.7364C333.87 83.6658 333.903 83.5948 333.936 83.5236C334.653 81.9568 335.211 80.2486 335.595 78.435C335.683 78.0194 335.762 77.5982 335.831 77.1719C335.857 77.0112 335.882 76.8497 335.906 76.6876C335.917 76.6064 335.929 76.5253 335.94 76.4443L335.953 76.35C335.967 76.2445 335.98 76.1392 335.993 76.0341L336.002 75.9567C336.148 74.7475 336.216 73.5621 336.207 72.4098C336.203 71.8706 336.182 71.3388 336.144 70.8151C335.86 66.9158 334.637 63.471 332.466 60.8745C332.421 60.8212 332.376 60.7682 332.331 60.7155C331.954 60.2782 331.549 59.8659 331.116 59.4805C330.872 59.2632 330.62 59.0546 330.358 58.8548C330.09 58.6497 329.812 58.454 329.525 58.2681C329.447 58.2174 329.368 58.1675 329.288 58.1182C327.895 57.2563 326.289 56.6191 324.472 56.248C324.145 56.1812 323.811 56.123 323.47 56.0737C322.679 55.9592 321.909 55.9058 321.16 55.9104C319.975 55.9176 318.846 56.0701 317.778 56.3561C317.702 56.3765 317.626 56.3976 317.551 56.4194C317.436 56.4525 317.322 56.4871 317.208 56.5233C316.401 56.781 315.631 57.1169 314.902 57.5259C313.734 58.1811 312.669 59.0238 311.722 60.0317L312.492 55.6872C312.495 55.6676 312.497 55.6481 312.498 55.629C312.507 55.3774 312.335 55.1693 312.078 55.1321L304.665 54.0592C304.487 54.0334 304.324 54.0977 304.221 54.2207ZM343.09 60.0466C343.156 59.8085 343.377 59.6623 343.631 59.699L351.044 60.7719C351.11 60.7815 351.171 60.8025 351.224 60.8327C351.352 60.9048 351.438 61.0295 351.459 61.1768C351.463 61.2027 351.464 61.2292 351.464 61.2563C351.464 61.2795 351.462 61.3031 351.459 61.3271L348.843 78.4187L347.401 87.4048L365.75 63.2541C365.929 62.997 366.216 62.9678 366.424 62.9979L375.153 64.2613C375.43 64.3014 375.607 64.5394 375.567 64.8165L372.962 81.8388L370.544 99.5248C370.541 99.547 370.536 99.5686 370.53 99.5894C370.465 99.829 370.244 99.9765 369.989 99.9396L362.645 98.8767C362.616 98.8725 362.588 98.8661 362.561 98.8578C362.354 98.7927 362.22 98.6072 362.225 98.3873C362.225 98.3657 362.227 98.3438 362.23 98.3216L364.926 80.6757L366.258 72.4517L348.008 96.4046C347.83 96.6616 347.542 96.6908 347.335 96.6607L338.467 95.3772C338.19 95.3371 338.012 95.0992 338.052 94.8221L340.818 76.6913L343.076 60.1138C343.079 60.0907 343.084 60.0682 343.09 60.0466Z" fill="#12A4FF"/>
<path d="M191.484 58.7735C191.527 57.9798 191.61 57.1461 191.73 56.2726C191.741 56.1945 191.752 56.1159 191.763 56.0371C191.776 55.9505 191.789 55.8644 191.802 55.7787C191.836 55.5538 191.872 55.3321 191.91 55.1134C192.626 50.9522 193.963 47.9251 195.939 46.1085C196.836 45.2842 197.864 44.7091 199.025 44.3904C200.16 44.0789 201.422 44.0125 202.813 44.1978C204.443 44.4337 205.801 44.9767 206.89 45.8118C209.219 47.5976 210.321 50.7195 210.23 55.032C210.209 56.0551 210.12 57.1452 209.965 58.3004C209.955 58.3752 209.945 58.4503 209.934 58.5256L209.914 58.6642C209.901 58.7592 209.887 58.8536 209.872 58.9474C209.08 64.1423 207.426 67.5957 204.851 69.2665C203.266 70.2953 201.331 70.6483 199.033 70.3157C196.833 69.9973 195.113 69.1681 193.87 67.8347C192.079 65.9124 191.282 62.9421 191.475 58.9434C191.478 58.887 191.481 58.8304 191.484 58.7735Z" fill="#12A4FF"/>
<path d="M236.048 53.8108C235.656 54.1236 235.287 54.4795 234.94 54.8778C234.138 55.7995 233.457 56.9484 232.914 58.3152C232.651 58.9778 232.42 59.6915 232.224 60.4555C232.119 60.8599 232.025 61.2783 231.94 61.7107C231.861 62.1129 231.791 62.5271 231.729 62.9533C231.614 63.7519 231.54 64.5216 231.507 65.2601C231.395 67.822 231.781 70.0096 232.656 71.7317C233.056 72.521 233.56 73.2124 234.165 73.7973C235.312 74.9059 236.824 75.6315 238.694 75.9145L238.764 75.9247C240.383 76.1591 241.851 76.0181 243.145 75.5173C245.839 74.4757 247.784 71.8776 248.793 67.8638C248.98 67.1208 249.135 66.3293 249.257 65.4901C249.287 65.2799 249.315 65.0717 249.34 64.8656C249.359 64.7018 249.377 64.5394 249.394 64.3783C249.444 63.8843 249.477 63.4028 249.495 62.9344C249.536 61.8342 249.488 60.8059 249.353 59.8553C249.248 59.1156 249.091 58.423 248.881 57.7801C248.769 57.4377 248.643 57.1095 248.502 56.7958C247.891 55.4345 247.006 54.3465 245.859 53.5652C245.636 53.4128 245.402 53.272 245.159 53.1432C244.994 53.056 244.824 52.9742 244.65 52.898L244.606 52.8788L244.577 52.8662L244.556 52.8575C244.513 52.8392 244.469 52.8213 244.426 52.8036L244.401 52.7939C244.361 52.778 244.321 52.7624 244.281 52.747C243.68 52.5189 243.03 52.3528 242.331 52.2516C240.626 52.0048 239.072 52.195 237.705 52.8005C237.117 53.061 236.564 53.3984 236.048 53.8108Z" fill="#12A4FF"/>
<path d="M271.238 63.367C272.322 59.6288 274.095 57.1504 276.575 56.046C277.951 55.4335 279.545 55.2436 281.36 55.4959L281.429 55.5057C282.673 55.6857 283.738 56.0664 284.637 56.6046C284.704 56.645 284.771 56.6862 284.836 56.7283C285.036 56.8565 285.227 56.9927 285.409 57.1365C287.886 59.0873 288.808 62.4252 288.557 65.8737L271.238 63.367Z" fill="#12A4FF"/>
<path d="M314.555 62.6942C313.266 63.5901 312.19 64.9445 311.349 66.7539C311.213 67.0478 311.082 67.3538 310.958 67.6717C310.488 68.8781 310.108 70.2572 309.825 71.8081C309.794 71.9792 309.764 72.1524 309.735 72.3276C309.716 72.444 309.697 72.5613 309.679 72.6795C309.643 72.9129 309.611 73.144 309.581 73.3725C309.562 73.5106 309.545 73.6478 309.529 73.7841C309.524 73.8323 309.518 73.8805 309.513 73.9285C309.497 74.0639 309.483 74.1984 309.47 74.332C309.424 74.7959 309.391 75.2487 309.37 75.6904L309.366 75.7892C309.318 76.8985 309.349 77.936 309.459 78.8977C309.551 79.7084 309.698 80.4652 309.899 81.1658C310.15 82.0398 310.486 82.8263 310.905 83.5206C311.085 83.8187 311.28 84.0998 311.49 84.3636C311.53 84.4137 311.571 84.4632 311.612 84.512C311.874 84.8238 312.158 85.1099 312.464 85.3696C313.541 86.2841 314.891 86.8724 316.503 87.1057C317.26 87.2152 317.979 87.2425 318.661 87.1912C318.692 87.1888 318.724 87.1863 318.755 87.1836C319.196 87.1455 319.621 87.0743 320.03 86.9711C323.798 86.0203 326.211 82.3481 327.185 76.7521C327.231 76.4855 327.274 76.2145 327.314 75.9392C327.338 75.7762 327.36 75.6144 327.381 75.4538L327.389 75.3948L327.389 75.3923C327.411 75.2171 327.432 75.0432 327.452 74.8708C327.46 74.7989 327.467 74.7273 327.475 74.656C327.487 74.5387 327.499 74.4221 327.51 74.3062C328.042 68.6121 326.773 64.5046 323.564 62.5854C323.259 62.4034 322.938 62.241 322.598 62.0989C322.486 62.0521 322.373 62.0076 322.257 61.9652C322.124 61.9163 321.988 61.8703 321.85 61.8273C321.781 61.8059 321.711 61.7852 321.641 61.7653C321.233 61.6493 320.803 61.5582 320.352 61.4929C320.043 61.4482 319.74 61.4174 319.442 61.4004C318.096 61.3235 316.864 61.5298 315.759 62.0174C315.339 62.2025 314.937 62.4281 314.555 62.6942Z" fill="#12A4FF"/>
</svg>
