<svg width="322" height="731" viewBox="0 0 322 731" fill="none" xmlns="http://www.w3.org/2000/svg">
<path d="M139.216 273.135C148.887 295.676 178.125 295.945 191.536 293.261C295.93 270.717 208.773 152.416 188.352 159.265C167.932 166.115 212.871 222.075 199.724 240.574C186.576 259.073 169.812 161.659 151.365 169.573C132.918 177.487 183.396 236.457 166.929 254.643C150.461 272.829 150.235 196.991 128.405 204.445C106.575 211.899 127.128 244.958 139.216 273.135Z" fill="#FFF968"/>
<path d="M231.621 353.907L200.01 343.672C197.408 342.83 194.892 341.763 192.383 340.675C178.139 334.499 151.36 327.582 133.897 339.547C109.984 355.93 160.04 354.272 151.416 397.06C142.791 439.847 140.162 431.817 142.802 455.962C145.442 480.108 213.37 443.916 194.429 426.18C185.291 417.623 185.812 407.56 189.331 399.298C193.164 390.299 204.1 388.155 213.405 391.168L218.973 392.971C229.76 396.463 241.336 390.55 244.829 379.763C248.321 368.976 242.408 357.399 231.621 353.907Z" fill="white"/>
<path d="M160.366 92.44C163.07 115.901 173.906 137.042 187.224 133.657C210.895 127.639 213.41 90.4607 236.539 82.614C270.552 71.0751 226.38 33.7595 222.385 11.9139C217.248 -16.1763 186.487 19.9964 173.961 39.1456C161.435 58.2948 131.811 26.787 118.167 50.508C104.524 74.229 117.976 91.7605 135.707 99.7117C153.438 107.663 157.661 68.9785 160.366 92.44Z" fill="white"/>
<path d="M184.849 529.372C168.171 512.651 146.556 502.795 138.213 513.713C123.382 533.119 144.478 563.836 131.208 584.341C111.694 614.494 169.488 616.351 186.175 631.004C207.633 649.846 209.313 602.391 207.255 579.602C205.196 556.813 247.978 563.141 243.96 536.073C239.941 509.005 218.514 503.603 199.675 508.369C180.837 513.135 201.527 546.093 184.849 529.372Z" fill="white"/>
<mask id="path-5-outside-1_674_146" maskUnits="userSpaceOnUse" x="-0.970215" y="606.15" width="323" height="124" fill="black">
<rect fill="white" x="-0.970215" y="606.15" width="323" height="124"/>
<path d="M27.3131 629.587L24.8431 653.188L22.0331 677.316C22.0023 677.594 22.188 677.826 22.4663 677.857L30.1196 678.703C30.3979 678.734 30.6297 678.548 30.6605 678.27L33.1921 654.112L35.1471 636.44L57.8288 638.949L55.9433 656.629L53.1334 680.756C53.1026 681.034 53.2882 681.266 53.5665 681.297L61.2199 682.144C61.4982 682.175 61.73 681.989 61.7608 681.711L64.2228 657.545L67.0408 633.982C67.0716 633.703 66.8859 633.472 66.6076 633.441L27.854 629.154C27.5757 629.123 27.3439 629.309 27.3131 629.587Z"/>
<path d="M84.3059 685.543C95.6468 686.797 102.809 679.984 104.056 668.712C105.311 657.372 99.7953 649.296 88.4545 648.042C77.1833 646.795 69.9511 653.601 68.6965 664.942C67.4419 676.282 73.0347 684.296 84.3059 685.543ZM84.9294 679.907C78.8067 679.23 76.2303 674.508 77.1847 665.881C78.1314 657.323 81.6312 653.062 87.8311 653.677C93.8842 654.347 96.3602 659.339 95.4135 667.897C94.4591 676.524 91.052 680.584 84.9294 679.907Z"/>
<path d="M132.813 654.146L122.63 666.612L117.551 666.05L119.161 652.777C119.191 652.498 119.006 652.266 118.728 652.236L111.213 651.404C110.935 651.374 110.703 651.559 110.672 651.838L108.918 668.969L106.816 686.695C106.786 686.973 106.971 687.205 107.25 687.236L114.764 688.067C115.042 688.098 115.274 687.912 115.305 687.634L116.89 672.034L122.038 672.603L126.542 682.82L129.204 689.312C129.313 689.606 129.583 689.706 129.792 689.73L138.419 690.684C138.767 690.722 139.007 690.467 138.829 690.166L128.994 668.936L140.922 655.325C141.17 655 141.061 654.706 140.713 654.668L133.408 653.86C133.199 653.837 132.983 653.883 132.813 654.146Z"/>
<path d="M155.643 693.434C166.983 694.689 174.146 687.875 175.393 676.604C176.648 665.263 171.132 657.188 159.791 655.933C148.52 654.686 141.288 661.492 140.033 672.833C138.779 684.174 144.371 692.188 155.643 693.434ZM156.266 687.799C150.143 687.121 147.567 682.4 148.521 673.772C149.468 665.214 152.968 660.953 159.168 661.569C165.221 662.238 167.697 667.231 166.75 675.789C165.796 684.416 162.389 688.476 156.266 687.799Z"/>
<path d="M201.412 660.678C196.612 660.147 192.624 661.819 189.804 665.028L190.428 660.661C190.459 660.382 190.273 660.15 189.995 660.12L182.55 659.296C182.272 659.265 182.04 659.451 182.009 659.729L179.916 679.922L176.845 706.414C176.814 706.693 176.999 706.925 177.278 706.955L184.792 707.787C185.07 707.817 185.302 707.632 185.333 707.353L186.941 691.544C189.007 695.153 192.424 697.363 197.086 697.878C206.687 698.94 213.386 691.23 214.533 680.863C215.687 670.427 211.292 661.771 201.412 660.678ZM195.491 691.927C189.785 691.296 187.186 686.149 188.187 677.738C189.172 669.466 192.842 665.576 198.478 666.199C204.461 666.861 206.837 672.124 205.921 680.404C205.067 688.127 201.544 692.596 195.491 691.927Z"/>
<path d="M238.225 692.358L231.448 665.128C231.409 664.842 231.215 664.68 230.937 664.649L221.684 663.625C221.405 663.594 221.174 663.78 221.143 664.058L219.335 681.676L217.287 698.916C217.256 699.194 217.441 699.426 217.72 699.457L223.425 700.088C223.703 700.119 223.935 699.933 223.966 699.655L225.682 683.505L226.382 675.906L226.581 672.83L233.56 700.786C233.598 701.072 233.792 701.235 234.07 701.265L239.149 701.827C239.427 701.858 239.651 701.742 239.752 701.471L252.34 676.172L252.063 678.677L251.077 686.315L249.291 702.456C249.261 702.735 249.446 702.966 249.725 702.997L256.752 703.775C257.03 703.805 257.262 703.62 257.293 703.341L259.132 686.079L261.149 668.484C261.179 668.206 260.994 667.974 260.716 667.943L251.392 666.912C251.114 666.881 250.89 666.997 250.79 667.268L238.225 692.358Z"/>
<path d="M271.97 696.232L273.109 687.203L275.15 670.033C275.18 669.755 274.995 669.523 274.717 669.492L267.272 668.668C266.994 668.638 266.762 668.823 266.731 669.102L265.031 685.746L262.875 703.959C262.844 704.237 263.03 704.469 263.308 704.5L272.214 705.485C272.422 705.508 272.708 705.469 272.878 705.206L290.314 680.655L289.259 688.919L287.157 706.645C287.126 706.923 287.312 707.155 287.59 707.186L294.965 708.002C295.243 708.033 295.475 707.847 295.506 707.569L297.329 689.812L299.362 672.711C299.393 672.433 299.207 672.201 298.929 672.17L290.162 671.201C289.954 671.178 289.668 671.216 289.498 671.479L271.97 696.232Z"/>
</mask>
<path d="M27.3131 629.587L24.8431 653.188L22.0331 677.316C22.0023 677.594 22.188 677.826 22.4663 677.857L30.1196 678.703C30.3979 678.734 30.6297 678.548 30.6605 678.27L33.1921 654.112L35.1471 636.44L57.8288 638.949L55.9433 656.629L53.1334 680.756C53.1026 681.034 53.2882 681.266 53.5665 681.297L61.2199 682.144C61.4982 682.175 61.73 681.989 61.7608 681.711L64.2228 657.545L67.0408 633.982C67.0716 633.703 66.8859 633.472 66.6076 633.441L27.854 629.154C27.5757 629.123 27.3439 629.309 27.3131 629.587Z" fill="white"/>
<path d="M84.3059 685.543C95.6468 686.797 102.809 679.984 104.056 668.712C105.311 657.372 99.7953 649.296 88.4545 648.042C77.1833 646.795 69.9511 653.601 68.6965 664.942C67.4419 676.282 73.0347 684.296 84.3059 685.543ZM84.9294 679.907C78.8067 679.23 76.2303 674.508 77.1847 665.881C78.1314 657.323 81.6312 653.062 87.8311 653.677C93.8842 654.347 96.3602 659.339 95.4135 667.897C94.4591 676.524 91.052 680.584 84.9294 679.907Z" fill="white"/>
<path d="M132.813 654.146L122.63 666.612L117.551 666.05L119.161 652.777C119.191 652.498 119.006 652.266 118.728 652.236L111.213 651.404C110.935 651.374 110.703 651.559 110.672 651.838L108.918 668.969L106.816 686.695C106.786 686.973 106.971 687.205 107.25 687.236L114.764 688.067C115.042 688.098 115.274 687.912 115.305 687.634L116.89 672.034L122.038 672.603L126.542 682.82L129.204 689.312C129.313 689.606 129.583 689.706 129.792 689.73L138.419 690.684C138.767 690.722 139.007 690.467 138.829 690.166L128.994 668.936L140.922 655.325C141.17 655 141.061 654.706 140.713 654.668L133.408 653.86C133.199 653.837 132.983 653.883 132.813 654.146Z" fill="white"/>
<path d="M155.643 693.434C166.983 694.689 174.146 687.875 175.393 676.604C176.648 665.263 171.132 657.188 159.791 655.933C148.52 654.686 141.288 661.492 140.033 672.833C138.779 684.174 144.371 692.188 155.643 693.434ZM156.266 687.799C150.143 687.121 147.567 682.4 148.521 673.772C149.468 665.214 152.968 660.953 159.168 661.569C165.221 662.238 167.697 667.231 166.75 675.789C165.796 684.416 162.389 688.476 156.266 687.799Z" fill="white"/>
<path d="M201.412 660.678C196.612 660.147 192.624 661.819 189.804 665.028L190.428 660.661C190.459 660.382 190.273 660.15 189.995 660.12L182.55 659.296C182.272 659.265 182.04 659.451 182.009 659.729L179.916 679.922L176.845 706.414C176.814 706.693 176.999 706.925 177.278 706.955L184.792 707.787C185.07 707.817 185.302 707.632 185.333 707.353L186.941 691.544C189.007 695.153 192.424 697.363 197.086 697.878C206.687 698.94 213.386 691.23 214.533 680.863C215.687 670.427 211.292 661.771 201.412 660.678ZM195.491 691.927C189.785 691.296 187.186 686.149 188.187 677.738C189.172 669.466 192.842 665.576 198.478 666.199C204.461 666.861 206.837 672.124 205.921 680.404C205.067 688.127 201.544 692.596 195.491 691.927Z" fill="white"/>
<path d="M238.225 692.358L231.448 665.128C231.409 664.842 231.215 664.68 230.937 664.649L221.684 663.625C221.405 663.594 221.174 663.78 221.143 664.058L219.335 681.676L217.287 698.916C217.256 699.194 217.441 699.426 217.72 699.457L223.425 700.088C223.703 700.119 223.935 699.933 223.966 699.655L225.682 683.505L226.382 675.906L226.581 672.83L233.56 700.786C233.598 701.072 233.792 701.235 234.07 701.265L239.149 701.827C239.427 701.858 239.651 701.742 239.752 701.471L252.34 676.172L252.063 678.677L251.077 686.315L249.291 702.456C249.261 702.735 249.446 702.966 249.725 702.997L256.752 703.775C257.03 703.805 257.262 703.62 257.293 703.341L259.132 686.079L261.149 668.484C261.179 668.206 260.994 667.974 260.716 667.943L251.392 666.912C251.114 666.881 250.89 666.997 250.79 667.268L238.225 692.358Z" fill="white"/>
<path d="M271.97 696.232L273.109 687.203L275.15 670.033C275.18 669.755 274.995 669.523 274.717 669.492L267.272 668.668C266.994 668.638 266.762 668.823 266.731 669.102L265.031 685.746L262.875 703.959C262.844 704.237 263.03 704.469 263.308 704.5L272.214 705.485C272.422 705.508 272.708 705.469 272.878 705.206L290.314 680.655L289.259 688.919L287.157 706.645C287.126 706.923 287.312 707.155 287.59 707.186L294.965 708.002C295.243 708.033 295.475 707.847 295.506 707.569L297.329 689.812L299.362 672.711C299.393 672.433 299.207 672.201 298.929 672.17L290.162 671.201C289.954 671.178 289.668 671.216 289.498 671.479L271.97 696.232Z" fill="white"/>
<path d="M27.3131 629.587L24.8431 653.188L22.0331 677.316C22.0023 677.594 22.188 677.826 22.4663 677.857L30.1196 678.703C30.3979 678.734 30.6297 678.548 30.6605 678.27L33.1921 654.112L35.1471 636.44L57.8288 638.949L55.9433 656.629L53.1334 680.756C53.1026 681.034 53.2882 681.266 53.5665 681.297L61.2199 682.144C61.4982 682.175 61.73 681.989 61.7608 681.711L64.2228 657.545L67.0408 633.982C67.0716 633.703 66.8859 633.472 66.6076 633.441L27.854 629.154C27.5757 629.123 27.3439 629.309 27.3131 629.587Z" stroke="#F08603" stroke-width="44" stroke-linejoin="round" mask="url(#path-5-outside-1_674_146)"/>
<path d="M84.3059 685.543C95.6468 686.797 102.809 679.984 104.056 668.712C105.311 657.372 99.7953 649.296 88.4545 648.042C77.1833 646.795 69.9511 653.601 68.6965 664.942C67.4419 676.282 73.0347 684.296 84.3059 685.543ZM84.9294 679.907C78.8067 679.23 76.2303 674.508 77.1847 665.881C78.1314 657.323 81.6312 653.062 87.8311 653.677C93.8842 654.347 96.3602 659.339 95.4135 667.897C94.4591 676.524 91.052 680.584 84.9294 679.907Z" stroke="#F08603" stroke-width="44" stroke-linejoin="round" mask="url(#path-5-outside-1_674_146)"/>
<path d="M132.813 654.146L122.63 666.612L117.551 666.05L119.161 652.777C119.191 652.498 119.006 652.266 118.728 652.236L111.213 651.404C110.935 651.374 110.703 651.559 110.672 651.838L108.918 668.969L106.816 686.695C106.786 686.973 106.971 687.205 107.25 687.236L114.764 688.067C115.042 688.098 115.274 687.912 115.305 687.634L116.89 672.034L122.038 672.603L126.542 682.82L129.204 689.312C129.313 689.606 129.583 689.706 129.792 689.73L138.419 690.684C138.767 690.722 139.007 690.467 138.829 690.166L128.994 668.936L140.922 655.325C141.17 655 141.061 654.706 140.713 654.668L133.408 653.86C133.199 653.837 132.983 653.883 132.813 654.146Z" stroke="#F08603" stroke-width="44" stroke-linejoin="round" mask="url(#path-5-outside-1_674_146)"/>
<path d="M155.643 693.434C166.983 694.689 174.146 687.875 175.393 676.604C176.648 665.263 171.132 657.188 159.791 655.933C148.52 654.686 141.288 661.492 140.033 672.833C138.779 684.174 144.371 692.188 155.643 693.434ZM156.266 687.799C150.143 687.121 147.567 682.4 148.521 673.772C149.468 665.214 152.968 660.953 159.168 661.569C165.221 662.238 167.697 667.231 166.75 675.789C165.796 684.416 162.389 688.476 156.266 687.799Z" stroke="#F08603" stroke-width="44" stroke-linejoin="round" mask="url(#path-5-outside-1_674_146)"/>
<path d="M201.412 660.678C196.612 660.147 192.624 661.819 189.804 665.028L190.428 660.661C190.459 660.382 190.273 660.15 189.995 660.12L182.55 659.296C182.272 659.265 182.04 659.451 182.009 659.729L179.916 679.922L176.845 706.414C176.814 706.693 176.999 706.925 177.278 706.955L184.792 707.787C185.07 707.817 185.302 707.632 185.333 707.353L186.941 691.544C189.007 695.153 192.424 697.363 197.086 697.878C206.687 698.94 213.386 691.23 214.533 680.863C215.687 670.427 211.292 661.771 201.412 660.678ZM195.491 691.927C189.785 691.296 187.186 686.149 188.187 677.738C189.172 669.466 192.842 665.576 198.478 666.199C204.461 666.861 206.837 672.124 205.921 680.404C205.067 688.127 201.544 692.596 195.491 691.927Z" stroke="#F08603" stroke-width="44" stroke-linejoin="round" mask="url(#path-5-outside-1_674_146)"/>
<path d="M238.225 692.358L231.448 665.128C231.409 664.842 231.215 664.68 230.937 664.649L221.684 663.625C221.405 663.594 221.174 663.78 221.143 664.058L219.335 681.676L217.287 698.916C217.256 699.194 217.441 699.426 217.72 699.457L223.425 700.088C223.703 700.119 223.935 699.933 223.966 699.655L225.682 683.505L226.382 675.906L226.581 672.83L233.56 700.786C233.598 701.072 233.792 701.235 234.07 701.265L239.149 701.827C239.427 701.858 239.651 701.742 239.752 701.471L252.34 676.172L252.063 678.677L251.077 686.315L249.291 702.456C249.261 702.735 249.446 702.966 249.725 702.997L256.752 703.775C257.03 703.805 257.262 703.62 257.293 703.341L259.132 686.079L261.149 668.484C261.179 668.206 260.994 667.974 260.716 667.943L251.392 666.912C251.114 666.881 250.89 666.997 250.79 667.268L238.225 692.358Z" stroke="#F08603" stroke-width="44" stroke-linejoin="round" mask="url(#path-5-outside-1_674_146)"/>
<path d="M271.97 696.232L273.109 687.203L275.15 670.033C275.18 669.755 274.995 669.523 274.717 669.492L267.272 668.668C266.994 668.638 266.762 668.823 266.731 669.102L265.031 685.746L262.875 703.959C262.844 704.237 263.03 704.469 263.308 704.5L272.214 705.485C272.422 705.508 272.708 705.469 272.878 705.206L290.314 680.655L289.259 688.919L287.157 706.645C287.126 706.923 287.312 707.155 287.59 707.186L294.965 708.002C295.243 708.033 295.475 707.847 295.506 707.569L297.329 689.812L299.362 672.711C299.393 672.433 299.207 672.201 298.929 672.17L290.162 671.201C289.954 671.178 289.668 671.216 289.498 671.479L271.97 696.232Z" stroke="#F08603" stroke-width="44" stroke-linejoin="round" mask="url(#path-5-outside-1_674_146)"/>
</svg>
