<svg width="114" height="128" viewBox="0 0 114 128" fill="none" xmlns="http://www.w3.org/2000/svg">
<path fill-rule="evenodd" clip-rule="evenodd" d="M42.1307 125.68C42.076 125.669 42.0214 125.658 41.9669 125.647C35.3901 124.26 25.7658 120.783 17.5114 114.504C9.11972 108.121 1.13222 97.9567 1.13222 83.5973C1.13222 79.622 1.00737 75.5955 0.87683 71.3858C0.811393 69.2755 0.744528 67.1192 0.69125 64.9002C0.538594 58.5424 0.506295 51.8244 1.15245 45.7656C1.77004 39.9747 3.14187 33.1968 6.92718 27.7843C8.94851 24.8941 11.7115 22.3173 15.3555 20.6318C18.9795 18.9556 22.852 18.4485 26.6808 18.7409C30.1645 19.007 33.2612 20.169 35.8283 22.0351C35.9149 21.0494 36.0215 20.0919 36.1514 19.1706C36.626 15.8046 37.569 11.5452 39.9541 7.8813C42.7747 3.54842 47.5077 0.320557 53.711 0.320557C61.313 0.320557 65.8767 5.35294 68.0467 9.6042C68.4811 10.4551 68.8601 11.3383 69.1917 12.24C69.7006 11.4664 70.2735 10.7115 70.9197 9.99132C74.4911 6.01103 79.5006 3.99026 85.0398 4.44351C89.08 4.7741 92.2438 6.65679 94.3921 8.40691C96.5851 10.1935 98.3941 12.3816 99.8733 14.5435C102.836 18.8736 105.353 24.3969 107.356 30.3134C111.376 42.1847 113.96 57.5352 113.041 72.4764C112.133 87.2456 107.667 103.306 95.7737 114.457C83.425 126.036 65.3903 130.215 42.1307 125.68ZM71.6996 72.4393C71.6851 72.4753 71.6705 72.5112 71.6558 72.547C70.5292 75.297 68.9864 77.4507 66.8646 78.7448C59.2293 83.4013 59.8228 67.096 60.4684 49.3571C61.133 31.0983 61.8529 11.3206 53.711 11.3206C45.9194 11.3206 46.2697 25.2813 46.6538 40.5842C47.061 56.8074 47.506 74.5392 38.328 78.7448C29.61 82.7396 30.8263 71.4486 32.2001 58.6968C33.6367 45.3608 35.2455 30.427 25.8432 29.709C10.5577 28.5416 11.2089 49.5996 11.8652 70.8208C11.9986 75.1347 12.1322 79.4552 12.1322 83.5973C12.1322 103.212 33.5347 112.627 44.236 114.883C128.062 131.228 101.309 16.8115 84.1427 15.4069C75.3164 14.6847 75.0948 28.9507 74.8568 44.2678C74.6962 54.6089 74.5281 65.429 71.6996 72.4393ZM42.4194 73.637C42.415 73.6441 42.3908 73.5655 42.3598 73.3797C42.4083 73.5369 42.4238 73.6298 42.4194 73.637Z" fill="#F08603"/>
</svg>
