<svg width="215" height="213" viewBox="0 0 215 213" fill="none" xmlns="http://www.w3.org/2000/svg">
<path d="M36.5345 98.661C35.3666 106.015 47.0414 111.212 60.6852 114.588C74.1892 117.93 11.7801 170.129 6.50011 183C-24.1619 257.741 72.3384 162.901 132.045 181.265C146.373 185.672 159.885 195.929 174.032 190.97C186.539 186.586 199.03 177.649 208.154 167.508C225.872 147.815 203.278 130.832 177.302 125.633C139.752 118.118 119.05 100.388 137.412 79.0237C148.619 65.9845 163.049 54.3951 166.029 37.4618C174.155 -8.70267 131.626 -6.4333 109.2 17.723C90.3751 37.9997 119.934 96.7846 93.4345 88.8294V88.8294C66.8845 80.859 39.0641 82.732 36.5345 98.661Z" fill="#FFF968"/>
</svg>
