<svg width="219" height="184" viewBox="0 0 219 184" fill="none" xmlns="http://www.w3.org/2000/svg">
<path d="M214.847 124.609L190.535 78.0456C188.675 74.4832 187.136 70.7816 185.638 67.0526C176.586 44.5241 154.155 6.95673 121.275 1.1161C76.5065 -6.83656 134.344 46.3331 77.6582 84.7333C20.9725 123.134 26.8583 111.258 3.27024 141.179C-20.3178 171.101 95.4804 205.27 93.7818 164.602C92.9622 144.982 104.607 134.293 117.626 128.917C131.808 123.06 146.402 132.682 153.504 146.283L157.752 154.42C165.984 170.186 185.439 176.294 201.205 168.062C216.971 159.83 223.079 140.376 214.847 124.609Z" fill="#FFF968"/>
</svg>
