<svg width="210" height="236" viewBox="0 0 210 236" fill="none" xmlns="http://www.w3.org/2000/svg">
<path d="M25.6101 12.9059C4.80973 0.692135 -2.21969 50.6138 18.9957 62.0915C39.4989 73.184 70.0001 86.6112 70.0001 114.494C70.0001 133 -26.2381 83.4941 7.57659 169.536C42.2658 257.804 107.333 111.937 156.457 208.98C169.51 234.764 192.629 248.183 202.14 220.893C211.565 193.847 213.997 156.2 200.516 133.531C189.172 114.458 166.399 102.09 172.948 80.8872C177.65 65.6656 183.488 49.6784 172.762 35.3454C153.518 9.62884 120.3 -9.42704 103.5 6C86.7001 21.427 113.341 73.2755 86.7911 65.3052C70.1879 60.3209 43.3724 23.3357 25.6101 12.9059Z" fill="#FFF968"/>
</svg>
