<svg width="231" height="303" viewBox="0 0 231 303" fill="none" xmlns="http://www.w3.org/2000/svg">
<path d="M2.61403 195.49C6.42651 201.886 18.7213 198.401 31.3626 192.257C43.8744 186.175 19.4117 267.149 23.5987 280.415C49.2414 361.661 70.4399 193.82 201.673 193.583C218.071 193.553 236.883 187.604 228.921 173.269C217.191 152.151 180.212 126.395 141.553 136.585C111.747 144.441 87.9088 148.069 85.1572 117.368C80.9889 70.8594 81.8798 5.79454 61.4196 0.931664C30.1705 -6.49547 26.6221 103.576 23.5988 126.183C20.5755 148.79 65.5145 140.619 40.0189 151.5C14.5234 162.381 -5.64421 181.636 2.61403 195.49Z" fill="#FFF968"/>
</svg>
