<svg width="349" height="66" viewBox="0 0 349 66" fill="none" xmlns="http://www.w3.org/2000/svg">
<mask id="path-1-outside-1_372_1243" maskUnits="userSpaceOnUse" x="0.0576172" y="-0.179688" width="349" height="66" fill="black">
<rect fill="white" x="0.0576172" y="-0.179688" width="349" height="66"/>
<path fill-rule="evenodd" clip-rule="evenodd" d="M188.854 26.348C188.854 25.8933 189.212 25.5246 189.655 25.5246L206.874 25.5246C209.749 25.5246 212.08 23.1284 212.08 20.1725C212.08 17.2166 209.749 14.8203 206.874 14.8203L143.603 14.8203C143.463 14.8203 143.324 14.826 143.187 14.8372L141.72 14.831C140.437 14.8256 139.307 15.6417 138.853 16.9019L130.971 38.7661C130.807 39.2208 130.385 39.5226 129.914 39.5226C129.291 39.5226 128.786 39.0035 128.786 38.3632V20.1725C128.786 17.2166 126.455 14.8203 123.58 14.8203C123.533 14.8203 123.486 14.821 123.439 14.8223C123.392 14.821 123.344 14.8203 123.297 14.8203L100.354 14.8203C99.6351 14.8203 98.9504 14.9701 98.3276 15.2409C98.0162 15.3763 97.7202 15.542 97.4433 15.7344C96.0585 16.6962 95.148 18.325 95.148 20.1725V35.6059C95.148 37.769 93.4424 39.5226 91.3383 39.5226H90.9767C90.6386 39.5226 90.3049 39.4438 90.0007 39.292C89.2301 38.9076 88.7408 38.1044 88.7408 37.2239V20.1725C88.7408 17.5397 86.8918 15.3509 84.456 14.9038C84.1571 14.849 83.8493 14.8203 83.5349 14.8203L20.2398 14.8203C17.3778 14.8203 15.0576 17.2056 15.0576 20.1481C15.0576 23.0871 17.3725 25.471 20.2312 25.4759L29.4543 25.4917C30.2002 25.493 30.5544 26.4368 30.0027 26.9528C29.8523 27.0935 29.6563 27.1715 29.4529 27.1715H24.268C21.3929 27.1715 19.0621 29.5677 19.0621 32.5236C19.0621 35.4795 21.3929 37.8758 24.268 37.8758H29.2127C29.412 37.8758 29.6042 37.9522 29.7517 38.0901C30.293 38.5965 29.9446 39.5226 29.2127 39.5226H20.2635C17.3884 39.5226 15.0576 41.9188 15.0576 44.8748C15.0576 47.8307 17.3884 50.2269 20.2635 50.2269L43.4897 50.2269C46.3648 50.2269 48.6956 47.8307 48.6956 44.8748C48.6956 43.3926 48.1096 42.0512 47.1629 41.082C47.0372 40.9319 46.9008 40.7877 46.7539 40.6502C45.6489 39.6166 46.3142 37.2742 47.3247 36.1431C48.176 35.1903 48.6956 33.9193 48.6956 32.5236C48.6956 30.4894 47.5918 28.7202 45.9663 27.8147C45.2677 27.4256 44.9448 26.3198 45.5325 25.7701C45.7013 25.6121 45.9213 25.5246 46.1495 25.5246H48.3912C52.0979 25.5246 55.1028 28.614 55.1028 32.4249V44.8748C55.1028 47.8307 57.4336 50.2269 60.3087 50.2269C63.1838 50.2269 65.5146 47.8307 65.5146 44.8748C65.5146 42.1413 68.2966 40.3499 70.6887 41.5432L74.996 43.6918C77.0778 44.7302 78.2653 47.0996 79.9377 48.7437C80.7588 49.5508 81.8364 50.0844 83.0321 50.2023C83.1975 50.2186 83.3653 50.2269 83.5349 50.2269H99.553C99.8199 50.2269 100.087 50.2269 100.354 50.2269C103.229 50.2269 105.56 47.8307 105.56 44.8748V32.1119C105.56 28.4739 108.428 25.5246 111.967 25.5246C115.506 25.5246 118.374 28.4739 118.374 32.1119V44.8748C118.374 47.8307 120.705 50.2269 123.58 50.2269H125.278C130.145 50.2269 137.138 52.4524 138.721 47.7214L145.073 28.7349C145.715 26.8141 147.473 25.5246 149.449 25.5246C151.381 25.5246 153.109 26.7587 153.784 28.6199L160.575 47.3406C161.211 49.0938 162.782 50.231 164.568 50.231H166.337C169.053 50.231 171.014 47.2931 170.09 44.6084L166.437 33.9971C165.014 29.8628 167.997 25.5246 172.263 25.5246C175.676 25.5246 178.442 28.369 178.442 31.8776V44.8748C178.442 45.0398 178.449 45.2032 178.464 45.3644C178.452 48.0463 180.563 50.2269 183.172 50.2269H234.105C237.865 50.2269 240.913 47.0934 240.913 43.2279V37.8758C240.913 31.0544 246.291 25.5246 252.926 25.5246C256.465 25.5246 259.333 28.4739 259.333 32.1119V44.8748C259.333 47.8307 261.664 50.2269 264.539 50.2269C267.414 50.2269 269.745 47.8307 269.745 44.8748C269.745 41.922 272.75 39.987 275.334 41.2759L278.952 43.0806C281.159 44.1815 282.323 46.797 284.033 48.6052C284.978 49.6055 286.301 50.2269 287.766 50.2269C287.877 50.2269 287.989 50.2233 288.099 50.2161C288.209 50.2233 288.32 50.2269 288.432 50.2269L304.455 50.2269C307.327 50.2269 309.656 47.8278 309.656 44.8748C309.656 43.2831 310.911 41.9928 312.459 41.9928L320.869 41.9928C322.638 41.9928 324.072 43.4674 324.072 45.2865C324.072 48.015 326.224 50.2269 328.878 50.2269C331.532 50.2269 333.683 48.015 333.683 45.2865V36.229C333.683 33.5004 331.532 31.2885 328.878 31.2885C328.812 31.2885 328.747 31.2899 328.681 31.2925C328.614 31.2899 328.546 31.2885 328.477 31.2885C326.383 31.2885 325.563 28.494 327.308 27.3035L331.423 24.4958C333.819 22.8613 334.382 19.6045 332.681 17.2214C330.98 14.8383 327.659 14.2314 325.263 15.8659L315.824 22.3061C313.184 24.1074 309.656 22.1613 309.656 18.9037C309.656 16.6485 307.878 14.8203 305.684 14.8203L304.45 14.8203C301.575 14.8203 299.244 17.2166 299.244 20.1725V36.6407C299.244 38.2323 297.989 39.5226 296.441 39.5226H296.317C295.874 39.5226 295.437 39.4194 295.039 39.2207L294.927 39.1647C293.731 38.5681 292.971 37.3214 292.971 35.9547V20.1725C292.971 17.2166 290.641 14.8203 287.766 14.8203L223.693 14.8203C220.818 14.8203 218.487 17.2166 218.487 20.1725C218.487 23.1284 220.818 25.5246 223.693 25.5246H224.494C227.812 25.5246 230.501 28.2895 230.501 31.7002V32.5236C230.501 36.3891 227.453 39.5226 223.693 39.5226H189.655C189.212 39.5226 188.854 39.1539 188.854 38.6992C188.854 38.2444 189.212 37.8758 189.655 37.8758L194.06 37.8758C196.935 37.8758 199.266 35.4795 199.266 32.5236C199.266 29.5677 196.935 27.1715 194.06 27.1715L189.655 27.1715C189.212 27.1715 188.854 26.8028 188.854 26.348ZM66.4435 25.5246C65.9305 25.5246 65.5146 25.9522 65.5146 26.4796C65.5146 26.8454 65.7179 27.1791 66.038 27.3388L74.0538 31.3373C76.0303 32.3232 78.3291 30.8431 78.3291 28.5844C78.3291 26.8945 76.9966 25.5246 75.3529 25.5246L66.4435 25.5246ZM279.761 25.5246C281.307 25.5246 282.56 26.8128 282.56 28.4018C282.56 30.5256 280.398 31.9174 278.54 30.9903L270.109 26.7847C269.886 26.6738 269.745 26.442 269.745 26.188C269.745 25.8216 270.034 25.5246 270.39 25.5246L279.761 25.5246Z"/>
</mask>
<path fill-rule="evenodd" clip-rule="evenodd" d="M188.854 26.348C188.854 25.8933 189.212 25.5246 189.655 25.5246L206.874 25.5246C209.749 25.5246 212.08 23.1284 212.08 20.1725C212.08 17.2166 209.749 14.8203 206.874 14.8203L143.603 14.8203C143.463 14.8203 143.324 14.826 143.187 14.8372L141.72 14.831C140.437 14.8256 139.307 15.6417 138.853 16.9019L130.971 38.7661C130.807 39.2208 130.385 39.5226 129.914 39.5226C129.291 39.5226 128.786 39.0035 128.786 38.3632V20.1725C128.786 17.2166 126.455 14.8203 123.58 14.8203C123.533 14.8203 123.486 14.821 123.439 14.8223C123.392 14.821 123.344 14.8203 123.297 14.8203L100.354 14.8203C99.6351 14.8203 98.9504 14.9701 98.3276 15.2409C98.0162 15.3763 97.7202 15.542 97.4433 15.7344C96.0585 16.6962 95.148 18.325 95.148 20.1725V35.6059C95.148 37.769 93.4424 39.5226 91.3383 39.5226H90.9767C90.6386 39.5226 90.3049 39.4438 90.0007 39.292C89.2301 38.9076 88.7408 38.1044 88.7408 37.2239V20.1725C88.7408 17.5397 86.8918 15.3509 84.456 14.9038C84.1571 14.849 83.8493 14.8203 83.5349 14.8203L20.2398 14.8203C17.3778 14.8203 15.0576 17.2056 15.0576 20.1481C15.0576 23.0871 17.3725 25.471 20.2312 25.4759L29.4543 25.4917C30.2002 25.493 30.5544 26.4368 30.0027 26.9528C29.8523 27.0935 29.6563 27.1715 29.4529 27.1715H24.268C21.3929 27.1715 19.0621 29.5677 19.0621 32.5236C19.0621 35.4795 21.3929 37.8758 24.268 37.8758H29.2127C29.412 37.8758 29.6042 37.9522 29.7517 38.0901C30.293 38.5965 29.9446 39.5226 29.2127 39.5226H20.2635C17.3884 39.5226 15.0576 41.9188 15.0576 44.8748C15.0576 47.8307 17.3884 50.2269 20.2635 50.2269L43.4897 50.2269C46.3648 50.2269 48.6956 47.8307 48.6956 44.8748C48.6956 43.3926 48.1096 42.0512 47.1629 41.082C47.0372 40.9319 46.9008 40.7877 46.7539 40.6502C45.6489 39.6166 46.3142 37.2742 47.3247 36.1431C48.176 35.1903 48.6956 33.9193 48.6956 32.5236C48.6956 30.4894 47.5918 28.7202 45.9663 27.8147C45.2677 27.4256 44.9448 26.3198 45.5325 25.7701C45.7013 25.6121 45.9213 25.5246 46.1495 25.5246H48.3912C52.0979 25.5246 55.1028 28.614 55.1028 32.4249V44.8748C55.1028 47.8307 57.4336 50.2269 60.3087 50.2269C63.1838 50.2269 65.5146 47.8307 65.5146 44.8748C65.5146 42.1413 68.2966 40.3499 70.6887 41.5432L74.996 43.6918C77.0778 44.7302 78.2653 47.0996 79.9377 48.7437C80.7588 49.5508 81.8364 50.0844 83.0321 50.2023C83.1975 50.2186 83.3653 50.2269 83.5349 50.2269H99.553C99.8199 50.2269 100.087 50.2269 100.354 50.2269C103.229 50.2269 105.56 47.8307 105.56 44.8748V32.1119C105.56 28.4739 108.428 25.5246 111.967 25.5246C115.506 25.5246 118.374 28.4739 118.374 32.1119V44.8748C118.374 47.8307 120.705 50.2269 123.58 50.2269H125.278C130.145 50.2269 137.138 52.4524 138.721 47.7214L145.073 28.7349C145.715 26.8141 147.473 25.5246 149.449 25.5246C151.381 25.5246 153.109 26.7587 153.784 28.6199L160.575 47.3406C161.211 49.0938 162.782 50.231 164.568 50.231H166.337C169.053 50.231 171.014 47.2931 170.09 44.6084L166.437 33.9971C165.014 29.8628 167.997 25.5246 172.263 25.5246C175.676 25.5246 178.442 28.369 178.442 31.8776V44.8748C178.442 45.0398 178.449 45.2032 178.464 45.3644C178.452 48.0463 180.563 50.2269 183.172 50.2269H234.105C237.865 50.2269 240.913 47.0934 240.913 43.2279V37.8758C240.913 31.0544 246.291 25.5246 252.926 25.5246C256.465 25.5246 259.333 28.4739 259.333 32.1119V44.8748C259.333 47.8307 261.664 50.2269 264.539 50.2269C267.414 50.2269 269.745 47.8307 269.745 44.8748C269.745 41.922 272.75 39.987 275.334 41.2759L278.952 43.0806C281.159 44.1815 282.323 46.797 284.033 48.6052C284.978 49.6055 286.301 50.2269 287.766 50.2269C287.877 50.2269 287.989 50.2233 288.099 50.2161C288.209 50.2233 288.32 50.2269 288.432 50.2269L304.455 50.2269C307.327 50.2269 309.656 47.8278 309.656 44.8748C309.656 43.2831 310.911 41.9928 312.459 41.9928L320.869 41.9928C322.638 41.9928 324.072 43.4674 324.072 45.2865C324.072 48.015 326.224 50.2269 328.878 50.2269C331.532 50.2269 333.683 48.015 333.683 45.2865V36.229C333.683 33.5004 331.532 31.2885 328.878 31.2885C328.812 31.2885 328.747 31.2899 328.681 31.2925C328.614 31.2899 328.546 31.2885 328.477 31.2885C326.383 31.2885 325.563 28.494 327.308 27.3035L331.423 24.4958C333.819 22.8613 334.382 19.6045 332.681 17.2214C330.98 14.8383 327.659 14.2314 325.263 15.8659L315.824 22.3061C313.184 24.1074 309.656 22.1613 309.656 18.9037C309.656 16.6485 307.878 14.8203 305.684 14.8203L304.45 14.8203C301.575 14.8203 299.244 17.2166 299.244 20.1725V36.6407C299.244 38.2323 297.989 39.5226 296.441 39.5226H296.317C295.874 39.5226 295.437 39.4194 295.039 39.2207L294.927 39.1647C293.731 38.5681 292.971 37.3214 292.971 35.9547V20.1725C292.971 17.2166 290.641 14.8203 287.766 14.8203L223.693 14.8203C220.818 14.8203 218.487 17.2166 218.487 20.1725C218.487 23.1284 220.818 25.5246 223.693 25.5246H224.494C227.812 25.5246 230.501 28.2895 230.501 31.7002V32.5236C230.501 36.3891 227.453 39.5226 223.693 39.5226H189.655C189.212 39.5226 188.854 39.1539 188.854 38.6992C188.854 38.2444 189.212 37.8758 189.655 37.8758L194.06 37.8758C196.935 37.8758 199.266 35.4795 199.266 32.5236C199.266 29.5677 196.935 27.1715 194.06 27.1715L189.655 27.1715C189.212 27.1715 188.854 26.8028 188.854 26.348ZM66.4435 25.5246C65.9305 25.5246 65.5146 25.9522 65.5146 26.4796C65.5146 26.8454 65.7179 27.1791 66.038 27.3388L74.0538 31.3373C76.0303 32.3232 78.3291 30.8431 78.3291 28.5844C78.3291 26.8945 76.9966 25.5246 75.3529 25.5246L66.4435 25.5246ZM279.761 25.5246C281.307 25.5246 282.56 26.8128 282.56 28.4018C282.56 30.5256 280.398 31.9174 278.54 30.9903L270.109 26.7847C269.886 26.6738 269.745 26.442 269.745 26.188C269.745 25.8216 270.034 25.5246 270.39 25.5246L279.761 25.5246Z" fill="#F08603"/>
<path d="M44.6911 19.8882H44.0343V34.4547H44.6911V19.8882ZM44.6911 30.5925H43.7878V45.159H44.6911V30.5925ZM143.603 14.8203L143.603 29.3868L143.603 29.3868L143.603 14.8203ZM143.187 14.8372L143.126 29.4036L143.747 29.4062L144.367 29.3558L143.187 14.8372ZM141.72 14.831L141.781 0.264576L141.781 0.264576L141.72 14.831ZM138.853 16.9019L125.149 11.9622L125.149 11.9623L138.853 16.9019ZM123.58 14.8203L123.58 0.253783L123.58 14.8203ZM123.439 14.8223L123.039 29.3833L123.439 29.3943L123.838 29.3833L123.439 14.8223ZM123.297 14.8203L123.297 0.253781L123.297 0.253781L123.297 14.8203ZM100.354 14.8203L100.354 29.3868L100.354 29.3868L100.354 14.8203ZM98.3276 15.2409L104.136 28.5991L104.136 28.5991L98.3276 15.2409ZM97.4433 15.7344L105.753 27.6982L105.753 27.6982L97.4433 15.7344ZM84.456 14.9038L81.8262 29.231L81.8262 29.231L84.456 14.9038ZM83.5349 14.8203L83.5349 0.253783L83.5349 0.253783L83.5349 14.8203ZM20.2398 14.8203L20.2398 0.253781H20.2398V14.8203ZM15.0576 20.1481L29.6242 20.1481L15.0576 20.1481ZM20.2312 25.4759L20.2062 40.0424L20.2062 40.0424L20.2312 25.4759ZM19.0621 32.5236L4.49561 32.5236V32.5236H19.0621ZM20.2635 50.2269L20.2635 35.6604H20.2635V50.2269ZM43.4897 50.2269L43.4897 64.7935H43.4897V50.2269ZM47.1629 41.082L35.9954 50.4346L36.3533 50.862L36.7429 51.2608L47.1629 41.082ZM46.7539 40.6502L36.8032 51.2882L36.8032 51.2882L46.7539 40.6502ZM83.0321 50.2023L81.6035 64.6986L81.6036 64.6986L83.0321 50.2023ZM138.721 47.7214L152.535 52.3427L152.535 52.3427L138.721 47.7214ZM160.575 47.3406L146.881 52.3075L146.881 52.3075L160.575 47.3406ZM166.337 50.231L166.337 35.6645H166.337V50.231ZM170.09 44.6084L156.317 49.3494L156.317 49.3494L170.09 44.6084ZM178.464 45.3644L193.03 45.4288L193.033 44.7551L192.974 44.0841L178.464 45.3644ZM234.105 50.2269L234.105 35.6604H234.105V50.2269ZM252.926 25.5246L252.926 40.0912L252.926 40.0912L252.926 25.5246ZM288.099 50.2161L289.043 35.6802L288.099 35.6189L287.155 35.6802L288.099 50.2161ZM288.432 50.2269L288.432 64.7935L288.432 64.7935L288.432 50.2269ZM304.455 50.2269L304.455 35.6604L304.455 35.6604L304.455 50.2269ZM328.681 31.2925L328.104 45.8476L328.693 45.871L329.282 45.8467L328.681 31.2925ZM331.423 24.4958L339.633 36.5285L339.633 36.5285L331.423 24.4958ZM332.681 17.2214L320.825 25.684L320.825 25.6841L332.681 17.2214ZM325.263 15.8659L317.054 3.83318L317.054 3.83319L325.263 15.8659ZM287.766 14.8203L287.766 0.253783L287.766 0.253783L287.766 14.8203ZM270.39 25.5246L270.39 40.0912L270.39 40.0912L270.39 25.5246ZM75.3529 25.5246L75.3529 40.0912L75.3529 25.5246ZM66.4435 25.5246L66.4435 10.9581L66.4435 25.5246ZM66.038 27.3388L72.5401 14.304L72.5401 14.304L66.038 27.3388ZM189.655 27.1715L189.655 12.6049L189.655 12.6049L189.655 27.1715ZM194.06 27.1715L194.06 41.738L194.06 41.738L194.06 27.1715ZM194.06 37.8758L194.06 52.4423L194.06 52.4423L194.06 37.8758ZM189.655 37.8758L189.655 23.3092L189.655 23.3092L189.655 37.8758ZM30.0027 26.9528L20.052 16.3148L20.052 16.3148L30.0027 26.9528ZM223.693 14.8203L223.693 0.253785L223.693 0.253785L223.693 14.8203ZM295.039 39.2207L301.541 26.1859L301.54 26.1854L295.039 39.2207ZM90.0007 39.292L83.4986 52.3268L90.0007 39.292ZM304.45 14.8203L304.45 29.3868L304.45 14.8203ZM327.308 27.3035L319.098 15.2708L319.098 15.2708L327.308 27.3035ZM189.655 25.5246L189.655 10.9581L189.655 10.9581L189.655 25.5246ZM278.952 43.0806L272.45 56.1154L272.45 56.1154L278.952 43.0806ZM284.033 48.6052L294.617 38.597L294.617 38.597L284.033 48.6052ZM275.334 41.2759L281.836 28.2411L281.836 28.2411L275.334 41.2759ZM172.263 25.5246L172.263 10.9581L172.263 25.5246ZM294.927 39.1647L288.425 52.1995L288.426 52.2L294.927 39.1647ZM166.437 33.9971L180.211 29.2561L180.211 29.2561L166.437 33.9971ZM305.684 14.8203L305.684 0.253783L305.684 14.8203ZM153.784 28.6199L140.091 33.5868L140.091 33.5868L153.784 28.6199ZM315.824 22.3061L307.614 10.2734L307.614 10.2734L315.824 22.3061ZM145.073 28.7349L158.887 33.3561L158.887 33.3561L145.073 28.7349ZM111.967 25.5246L111.967 40.0912L111.967 25.5246ZM312.459 41.9928L312.459 56.5594L312.459 56.5594L312.459 41.9928ZM70.6887 41.5432L77.1908 28.5084L77.1908 28.5084L70.6887 41.5432ZM206.874 14.8203L206.874 0.253783L206.874 0.253783L206.874 14.8203ZM270.109 26.7847L263.607 39.8195L263.607 39.8195L270.109 26.7847ZM48.3912 25.5246L48.3912 40.0912L48.3912 40.0912L48.3912 25.5246ZM74.0538 31.3373L67.5516 44.3721L67.5516 44.3721L74.0538 31.3373ZM47.3247 36.1431L36.4619 26.4383L36.4619 26.4383L47.3247 36.1431ZM29.7517 38.0901L19.8009 48.7281L19.8009 48.7281L29.7517 38.0901ZM320.869 41.9928L320.869 27.4263L320.869 27.4263L320.869 41.9928ZM74.996 43.6918L68.4938 56.7266L68.4938 56.7266L74.996 43.6918ZM79.9377 48.7437L90.1493 38.3558L90.1493 38.3558L79.9377 48.7437ZM130.971 38.7661L117.268 33.8264L117.268 33.8264L130.971 38.7661ZM29.4543 25.4917L29.4293 40.0582L29.4293 40.0582L29.4543 25.4917ZM279.761 25.5246L279.761 40.0912H279.761V25.5246ZM45.5325 25.7701L35.5817 15.1321L35.5817 15.1321L45.5325 25.7701ZM46.1495 25.5246L46.1495 10.9581L46.1495 10.9581L46.1495 25.5246ZM278.54 30.9903L285.042 17.9555L285.042 17.9555L278.54 30.9903ZM45.9663 27.8147L38.8773 40.5399L45.9663 27.8147ZM206.874 25.5246L206.874 40.0912L206.874 40.0912L206.874 25.5246ZM206.874 10.9581L189.655 10.9581L189.655 40.0912L206.874 40.0912L206.874 10.9581ZM144.367 29.3558C144.112 29.3765 143.857 29.3868 143.603 29.3868L143.603 0.253786C143.068 0.253786 142.536 0.275475 142.007 0.31849L144.367 29.3558ZM141.658 29.3974L143.126 29.4036L143.248 0.270749L141.781 0.264576L141.658 29.3974ZM152.556 21.8416C151.044 26.0347 146.896 29.4194 141.658 29.3974L141.781 0.264576C133.977 0.231744 127.569 5.2488 125.149 11.9622L152.556 21.8416ZM144.675 43.7057L152.556 21.8416L125.149 11.9623L117.268 33.8264L144.675 43.7057ZM114.22 20.1725V38.3632H143.353V20.1725H114.22ZM123.58 29.3868C118.033 29.3868 114.22 24.8783 114.22 20.1725H143.353C143.353 9.55485 134.878 0.253784 123.58 0.253783L123.58 29.3868ZM123.838 29.3833C123.752 29.3857 123.666 29.3868 123.58 29.3868L123.58 0.253783C123.399 0.253783 123.219 0.256264 123.039 0.261209L123.838 29.3833ZM123.297 29.3868C123.211 29.3868 123.125 29.3857 123.039 29.3833L123.838 0.261213C123.658 0.256262 123.478 0.253781 123.297 0.253781V29.3868ZM100.354 29.3868L123.297 29.3868L123.297 0.253781L100.354 0.253783L100.354 29.3868ZM104.136 28.5991C102.968 29.1073 101.679 29.3868 100.354 29.3868L100.354 0.253783C97.5918 0.253783 94.933 0.832877 92.5188 1.8827L104.136 28.5991ZM105.753 27.6982C105.256 28.0437 104.715 28.3475 104.136 28.5991L92.5188 1.8827C91.3173 2.40516 90.1849 3.04034 89.1336 3.77058L105.753 27.6982ZM109.715 20.1725C109.715 23.1896 108.211 25.9909 105.753 27.6982L89.1336 3.77057C83.906 7.4015 80.5815 13.4605 80.5815 20.1725H109.715ZM109.715 35.6059V20.1725H80.5815V35.6059H109.715ZM90.9767 54.0891H91.3383V24.9561H90.9767V54.0891ZM74.1743 20.1725V37.2239H103.307V20.1725H74.1743ZM81.8262 29.231C77.1905 28.3801 74.1743 24.41 74.1743 20.1725H103.307C103.307 10.6694 96.5931 2.32175 87.0858 0.576653L81.8262 29.231ZM83.5349 29.3868C82.9625 29.3868 82.3901 29.3345 81.8262 29.231L87.0858 0.576654C85.924 0.363397 84.7361 0.253783 83.5349 0.253783L83.5349 29.3868ZM29.6242 20.1481C29.6242 24.8674 25.8005 29.3868 20.2398 29.3868V0.253781C8.955 0.253781 0.49109 9.54394 0.49109 20.1481L29.6242 20.1481ZM20.2561 10.9094C25.8095 10.9189 29.6242 15.4342 29.6242 20.1481L0.49109 20.1481C0.49109 30.74 8.9355 40.0231 20.2062 40.0424L20.2561 10.9094ZM29.4792 10.9252L20.2561 10.9094L20.2062 40.0424L29.4293 40.0582L29.4792 10.9252ZM24.268 41.738H29.4529V12.6049H24.268V41.738ZM33.6287 32.5236C33.6287 37.2294 29.8156 41.738 24.268 41.738V12.6049C12.9701 12.6049 4.49561 21.906 4.49561 32.5236L33.6287 32.5236ZM24.268 23.3093C29.8157 23.3093 33.6287 27.8178 33.6287 32.5236H4.49561C4.49561 43.1412 12.9701 52.4423 24.268 52.4423V23.3093ZM29.2127 23.3093H24.268V52.4423H29.2127V23.3093ZM20.2635 54.0891H29.2127V24.9561H20.2635V54.0891ZM29.6241 44.8748C29.6241 49.5806 25.8111 54.0891 20.2635 54.0891V24.9561C8.9656 24.9561 0.491086 34.2571 0.491086 44.8748H29.6241ZM20.2635 35.6604C25.8111 35.6604 29.6241 40.169 29.6241 44.8748H0.491086C0.491086 55.4924 8.9656 64.7935 20.2635 64.7935V35.6604ZM43.4897 35.6604L20.2635 35.6604L20.2635 64.7935L43.4897 64.7935L43.4897 35.6604ZM34.1291 44.8748C34.1291 40.169 37.9421 35.6604 43.4897 35.6604V64.7935C54.7876 64.7935 63.2621 55.4924 63.2621 44.8748H34.1291ZM36.7429 51.2608C35.0982 49.5772 34.1291 47.2915 34.1291 44.8748H63.2621C63.2621 39.4938 61.1211 34.5253 57.5828 30.9032L36.7429 51.2608ZM36.8032 51.2882C36.5188 51.0222 36.2488 50.7372 35.9954 50.4346L58.3304 31.7295C57.8255 31.1267 57.2829 30.5531 56.7046 30.0122L36.8032 51.2882ZM34.1291 32.5236C34.1291 30.2502 34.9879 28.0882 36.4619 26.4383L58.1876 45.8479C61.364 42.2923 63.2621 37.5885 63.2621 32.5236H34.1291ZM38.8773 40.5399C35.9467 38.9073 34.1291 35.8417 34.1291 32.5236H63.2621C63.2621 25.1371 59.2368 18.5332 53.0552 15.0895L38.8773 40.5399ZM48.3912 10.9581H46.1495V40.0912H48.3912V10.9581ZM69.6694 44.8748V32.4249H40.5363V44.8748H69.6694ZM60.3087 35.6604C65.8563 35.6604 69.6694 40.169 69.6694 44.8748H40.5363C40.5363 55.4924 49.0108 64.7935 60.3087 64.7935V35.6604ZM50.9481 44.8748C50.9481 40.1689 54.7611 35.6604 60.3087 35.6604V64.7935C71.6066 64.7935 80.0811 55.4924 80.0811 44.8748H50.9481ZM81.4981 30.657L77.1908 28.5084L64.1866 54.578L68.4938 56.7266L81.4981 30.657ZM84.4606 35.706C86.7377 35.9304 88.7164 36.9472 90.1493 38.3558L69.7261 59.1315C72.8012 62.1544 76.9351 64.2385 81.6035 64.6986L84.4606 35.706ZM83.5349 35.6604C83.8433 35.6604 84.1522 35.6756 84.4605 35.706L81.6036 64.6986C82.2429 64.7616 82.8873 64.7935 83.5349 64.7935V35.6604ZM99.553 35.6604H83.5349V64.7935H99.553V35.6604ZM90.9933 44.8748C90.9933 40.1689 94.8063 35.6604 100.354 35.6604V64.7935C111.652 64.7935 120.126 55.4924 120.126 44.8748H90.9933ZM90.9933 32.1119V44.8748H120.126V32.1119H90.9933ZM132.941 44.8748V32.1119H103.808V44.8748H132.941ZM123.58 35.6604C129.128 35.6604 132.941 40.1689 132.941 44.8748H103.808C103.808 55.4924 112.282 64.7935 123.58 64.7935V35.6604ZM125.278 35.6604H123.58V64.7935H125.278V35.6604ZM131.259 24.1136L124.907 43.1002L152.535 52.3427L158.887 33.3561L131.259 24.1136ZM174.268 42.3737L167.478 23.653L140.091 33.5868L146.881 52.3075L174.268 42.3737ZM164.568 35.6645C169.266 35.6645 172.938 38.7057 174.268 42.3736L146.881 52.3075C149.483 59.4819 156.297 64.7975 164.568 64.7975V35.6645ZM166.337 35.6645H164.568V64.7975H166.337V35.6645ZM156.317 49.3494C155.174 46.0306 155.872 42.7232 157.463 40.3399C159.058 37.9495 162.161 35.6645 166.337 35.6645L166.337 64.7975C180.084 64.7976 187.701 51.0156 183.863 39.8674L156.317 49.3494ZM152.664 38.7381L156.317 49.3494L183.863 39.8674L180.211 29.2561L152.664 38.7381ZM193.009 44.8748V31.8776H163.876V44.8748H193.009ZM192.974 44.0841C192.997 44.3481 193.009 44.612 193.009 44.8748H163.876C163.876 45.4677 163.902 46.0582 163.953 46.6448L192.974 44.0841ZM226.346 37.8758V43.2279H255.479V37.8758H226.346ZM273.9 44.8748V32.1119H244.767V44.8748H273.9ZM264.539 35.6604C270.087 35.6604 273.9 40.169 273.9 44.8748H244.767C244.767 55.4924 253.241 64.7935 264.539 64.7935V35.6604ZM255.179 44.8748C255.179 40.1689 258.992 35.6604 264.539 35.6604V64.7935C275.837 64.7935 284.312 55.4924 284.312 44.8748H255.179ZM285.454 30.0458L281.836 28.2411L268.832 54.3107L272.45 56.1154L285.454 30.0458ZM287.766 35.6604C290.534 35.6604 292.971 36.8572 294.617 38.597L273.449 58.6133C276.986 62.3538 282.069 64.7935 287.766 64.7935V35.6604ZM287.155 35.6802C287.359 35.667 287.563 35.6604 287.766 35.6604V64.7935C288.192 64.7935 288.618 64.7796 289.043 64.7521L287.155 35.6802ZM288.432 35.6604C288.635 35.6604 288.839 35.667 289.043 35.6802L287.155 64.7521C287.579 64.7796 288.005 64.7935 288.432 64.7935V35.6604ZM320.869 27.4263L312.459 27.4263L312.459 56.5594L320.869 56.5594L320.869 27.4263ZM328.878 35.6604C334.646 35.6604 338.639 40.3532 338.639 45.2865H309.506C309.506 55.6768 317.801 64.7935 328.878 64.7935V35.6604ZM319.117 45.2865C319.117 40.3533 323.109 35.6604 328.878 35.6604V64.7935C339.954 64.7935 348.25 55.6767 348.25 45.2865H319.117ZM328.878 45.855C323.109 45.855 319.117 41.1621 319.117 36.229H348.25C348.25 25.8387 339.954 16.722 328.878 16.722V45.855ZM329.282 45.8467C329.147 45.8523 329.012 45.855 328.878 45.855V16.722C328.611 16.722 328.346 16.7275 328.08 16.7384L329.282 45.8467ZM328.477 45.855C328.353 45.855 328.229 45.8526 328.104 45.8476L329.259 16.7375C328.999 16.7271 328.738 16.722 328.477 16.722V45.855ZM323.213 12.4631L319.098 15.2708L335.518 39.3361L339.633 36.5285L323.213 12.4631ZM320.825 25.6841C317.861 21.5314 318.752 15.5069 323.213 12.4631L339.633 36.5285C348.885 30.2158 350.903 17.6775 344.537 8.75866L320.825 25.6841ZM333.473 27.8986C329.218 30.8018 323.654 29.6474 320.825 25.684L344.537 8.75872C338.306 0.0291385 326.1 -2.339 317.054 3.83318L333.473 27.8986ZM324.034 34.3388L333.473 27.8985L317.054 3.83319L307.614 10.2734L324.034 34.3388ZM304.45 29.3868L305.684 29.3868L305.684 0.253783L304.45 0.253783L304.45 29.3868ZM313.811 36.6407V20.1725H284.678V36.6407H313.811ZM296.317 54.0891H296.441V24.9561H296.317V54.0891ZM288.426 52.2L288.538 52.2561L301.54 26.1854L301.428 26.1294L288.426 52.2ZM278.405 20.1725V35.9547H307.538V20.1725H278.405ZM287.766 29.3868C282.218 29.3868 278.405 24.8783 278.405 20.1725H307.538C307.538 9.55484 299.063 0.253784 287.766 0.253783L287.766 29.3868ZM224.494 10.9581H223.693V40.0912H224.494V10.9581ZM245.067 32.5236V31.7002H215.934V32.5236H245.067ZM194.06 23.3093L189.655 23.3092L189.655 52.4423L194.06 52.4423L194.06 23.3093ZM189.655 41.738L194.06 41.738L194.06 12.6049L189.655 12.6049L189.655 41.738ZM80.5559 18.3025L72.5401 14.304L59.5359 40.3736L67.5516 44.3721L80.5559 18.3025ZM66.4435 40.0912L75.3529 40.0912L75.3529 10.9581L66.4435 10.9581L66.4435 40.0912ZM263.607 39.8195L272.037 44.0251L285.042 17.9555L276.611 13.7499L263.607 39.8195ZM284.312 26.188C284.312 33.4834 278.457 40.0912 270.39 40.0912L270.39 10.9581C261.611 10.9581 255.179 18.1598 255.179 26.188H284.312ZM92.8956 28.5844C92.8956 19.2328 85.4193 10.9581 75.3529 10.9581L75.3529 40.0912C68.5738 40.0912 63.7625 34.5563 63.7625 28.5844H92.8956ZM80.0811 26.4796C80.0811 33.6139 74.3532 40.0912 66.4435 40.0912L66.4435 10.9581C57.5077 10.9581 50.9481 18.2905 50.9481 26.4796H80.0811ZM50.9481 26.4796C50.9481 32.2092 54.1338 37.6789 59.5359 40.3736L72.5401 14.304C77.3019 16.6793 80.0811 21.4817 80.0811 26.4796H50.9481ZM189.655 12.6049C197.635 12.6049 203.42 19.1407 203.42 26.348H174.287C174.287 34.4649 180.79 41.738 189.655 41.738L189.655 12.6049ZM213.832 32.5236C213.832 21.906 205.358 12.6049 194.06 12.6049L194.06 41.738C188.512 41.738 184.699 37.2295 184.699 32.5236H213.832ZM194.06 52.4423C205.358 52.4423 213.832 43.1413 213.832 32.5236H184.699C184.699 27.8178 188.512 23.3093 194.06 23.3093L194.06 52.4423ZM203.42 38.6992C203.42 45.9065 197.635 52.4423 189.655 52.4423L189.655 23.3092C180.79 23.3092 174.287 30.5824 174.287 38.6992H203.42ZM189.655 24.9561C197.635 24.9561 203.42 31.492 203.42 38.6992H174.287C174.287 46.8159 180.79 54.0891 189.655 54.0891V24.9561ZM215.934 32.5236C215.934 28.7274 219.03 24.9561 223.693 24.9561V54.0891C235.876 54.0891 245.067 44.0507 245.067 32.5236H215.934ZM20.052 16.3148C22.5616 13.9673 25.9087 12.6049 29.4529 12.6049V41.738C33.4038 41.738 37.143 40.2197 39.9534 37.5908L20.052 16.3148ZM223.693 0.253785C212.395 0.253788 203.921 9.55482 203.921 20.1725H233.054C233.054 24.8783 229.241 29.3868 223.693 29.3868L223.693 0.253785ZM296.317 24.9561C298.144 24.9561 299.932 25.383 301.541 26.1859L288.537 52.2555C290.943 53.4558 293.605 54.0891 296.317 54.0891V24.9561ZM284.678 36.6407C284.678 30.5706 289.566 24.9561 296.441 24.9561V54.0891C306.412 54.0891 313.811 45.894 313.811 36.6407H284.678ZM90.9767 24.9561C92.908 24.9561 94.7989 25.4073 96.5028 26.2572L83.4986 52.3268C85.8108 53.4803 88.3692 54.0891 90.9767 54.0891V24.9561ZM304.45 0.253783C293.152 0.253782 284.678 9.55487 284.678 20.1725H313.811C313.811 24.8782 309.998 29.3868 304.45 29.3868L304.45 0.253783ZM328.477 16.722C334.871 16.722 339.149 21.2742 340.43 25.6417C341.703 29.9788 340.577 35.884 335.518 39.3361L319.098 15.2708C306.277 24.0183 311.132 45.855 328.477 45.855V16.722ZM189.655 10.9581C180.79 10.9581 174.287 18.2312 174.287 26.348H203.42C203.42 33.5554 197.635 40.0912 189.655 40.0912L189.655 10.9581ZM304.455 64.7935C315.769 64.7935 324.222 55.4705 324.222 44.8748H295.089C295.089 40.185 298.886 35.6604 304.455 35.6604V64.7935ZM272.45 56.1154C271.385 55.584 270.69 54.9896 270.349 54.6625C270.038 54.3641 269.936 54.2018 270.121 54.4433C270.206 54.5542 270.313 54.6989 270.491 54.9417C270.638 55.1433 270.895 55.4983 271.137 55.8232C271.628 56.4836 272.425 57.5312 273.449 58.6133L294.617 38.597C294.785 38.775 294.796 38.8176 294.519 38.4447C294.477 38.3882 293.66 37.2633 293.237 36.712C292.172 35.3241 289.661 32.1444 285.454 30.0458L272.45 56.1154ZM284.312 44.8748C284.312 52.0753 276.525 58.1481 268.832 54.3107L281.836 28.2411C268.976 21.8259 255.179 31.7687 255.179 44.8748H284.312ZM252.926 40.0912C248.042 40.0912 244.767 36.1356 244.767 32.1119H273.9C273.9 20.8122 264.888 10.9581 252.926 10.9581L252.926 40.0912ZM163.897 45.3C163.851 55.6662 172.113 64.7935 183.172 64.7935V35.6604C189.014 35.6604 193.052 40.4265 193.03 45.4288L163.897 45.3ZM172.263 40.0912C167.253 40.0912 163.876 36.0307 163.876 31.8776H193.009C193.009 20.7072 184.098 10.9581 172.263 10.9581L172.263 40.0912ZM301.429 26.1299C305.315 28.0683 307.538 31.9577 307.538 35.9547H278.405C278.405 42.6852 282.147 49.0679 288.425 52.1995L301.429 26.1299ZM180.211 29.2561C181.854 34.0287 178.575 40.0912 172.263 40.0912L172.263 10.9581C157.419 10.9581 148.175 25.6969 152.664 38.7381L180.211 29.2561ZM80.5815 35.6059C80.5815 30.1073 85.0196 24.9561 91.3383 24.9561V54.0891C101.865 54.0891 109.715 45.4307 109.715 35.6059H80.5815ZM324.222 18.9037C324.222 8.98689 316.3 0.253785 305.684 0.253783L305.684 29.3868C299.455 29.3868 295.089 24.3102 295.089 18.9037H324.222ZM149.449 40.0912C145.049 40.0912 141.436 37.296 140.091 33.5868L167.478 23.653C164.782 16.2215 157.712 10.9581 149.449 10.9581V40.0912ZM307.614 10.2734C315.26 5.05675 324.222 11.2102 324.222 18.9037H295.089C295.089 33.1124 311.108 43.158 324.034 34.3388L307.614 10.2734ZM96.5028 26.2572C100.814 28.4078 103.307 32.7407 103.307 37.2239H74.1743C74.1743 43.4682 77.6461 49.4074 83.4986 52.3268L96.5028 26.2572ZM158.887 33.3561C157.61 37.1716 153.95 40.0912 149.449 40.0912V10.9581C140.996 10.9581 133.82 16.4567 131.259 24.1136L158.887 33.3561ZM111.967 40.0912C107.083 40.0912 103.808 36.1356 103.808 32.1119H132.941C132.941 20.8121 123.928 10.9581 111.967 10.9581L111.967 40.0912ZM120.126 32.1119C120.126 36.1356 116.851 40.0912 111.967 40.0912L111.967 10.9581C100.006 10.9581 90.9933 20.8121 90.9933 32.1119H120.126ZM99.553 64.7935C99.5536 64.7935 99.5541 64.7935 99.5546 64.7935C99.5551 64.7935 99.5556 64.7935 99.5562 64.7935C99.5567 64.7935 99.5572 64.7935 99.5577 64.7935C99.5582 64.7935 99.5588 64.7935 99.5593 64.7935C99.5598 64.7935 99.5603 64.7935 99.5608 64.7935C99.5614 64.7935 99.5619 64.7935 99.5624 64.7935C99.5629 64.7935 99.5635 64.7935 99.564 64.7935C99.5645 64.7935 99.565 64.7935 99.5655 64.7935C99.5661 64.7935 99.5666 64.7935 99.5671 64.7935C99.5676 64.7935 99.5681 64.7935 99.5687 64.7935C99.5692 64.7935 99.5697 64.7935 99.5702 64.7935C99.5708 64.7935 99.5713 64.7935 99.5718 64.7935C99.5723 64.7935 99.5728 64.7935 99.5734 64.7935C99.5739 64.7935 99.5744 64.7935 99.5749 64.7935C99.5754 64.7935 99.576 64.7935 99.5765 64.7935C99.577 64.7935 99.5775 64.7935 99.578 64.7935C99.5786 64.7935 99.5791 64.7935 99.5796 64.7935C99.5801 64.7935 99.5807 64.7935 99.5812 64.7935C99.5817 64.7935 99.5822 64.7935 99.5827 64.7935C99.5833 64.7935 99.5838 64.7935 99.5843 64.7935C99.5848 64.7935 99.5853 64.7935 99.5859 64.7935C99.5864 64.7935 99.5869 64.7935 99.5874 64.7935C99.588 64.7935 99.5885 64.7935 99.589 64.7935C99.5895 64.7935 99.59 64.7935 99.5906 64.7935C99.5911 64.7935 99.5916 64.7935 99.5921 64.7935C99.5926 64.7935 99.5932 64.7935 99.5937 64.7935C99.5942 64.7935 99.5947 64.7935 99.5952 64.7935C99.5958 64.7935 99.5963 64.7935 99.5968 64.7935C99.5973 64.7935 99.5979 64.7935 99.5984 64.7935C99.5989 64.7935 99.5994 64.7935 99.5999 64.7935C99.6005 64.7935 99.601 64.7935 99.6015 64.7935C99.602 64.7935 99.6025 64.7935 99.6031 64.7935C99.6036 64.7935 99.6041 64.7935 99.6046 64.7935C99.6052 64.7935 99.6057 64.7935 99.6062 64.7935C99.6067 64.7935 99.6072 64.7935 99.6078 64.7935C99.6083 64.7935 99.6088 64.7935 99.6093 64.7935C99.6098 64.7935 99.6104 64.7935 99.6109 64.7935C99.6114 64.7935 99.6119 64.7935 99.6125 64.7935C99.613 64.7935 99.6135 64.7935 99.614 64.7935C99.6145 64.7935 99.6151 64.7935 99.6156 64.7935C99.6161 64.7935 99.6166 64.7935 99.6171 64.7935C99.6177 64.7935 99.6182 64.7935 99.6187 64.7935C99.6192 64.7935 99.6197 64.7935 99.6203 64.7935C99.6208 64.7935 99.6213 64.7935 99.6218 64.7935C99.6224 64.7935 99.6229 64.7935 99.6234 64.7935C99.6239 64.7935 99.6244 64.7935 99.625 64.7935C99.6255 64.7935 99.626 64.7935 99.6265 64.7935C99.627 64.7935 99.6276 64.7935 99.6281 64.7935C99.6286 64.7935 99.6291 64.7935 99.6297 64.7935C99.6302 64.7935 99.6307 64.7935 99.6312 64.7935C99.6317 64.7935 99.6323 64.7935 99.6328 64.7935C99.6333 64.7935 99.6338 64.7935 99.6343 64.7935C99.6349 64.7935 99.6354 64.7935 99.6359 64.7935C99.6364 64.7935 99.637 64.7935 99.6375 64.7935C99.638 64.7935 99.6385 64.7935 99.639 64.7935C99.6396 64.7935 99.6401 64.7935 99.6406 64.7935C99.6411 64.7935 99.6416 64.7935 99.6422 64.7935C99.6427 64.7935 99.6432 64.7935 99.6437 64.7935C99.6442 64.7935 99.6448 64.7935 99.6453 64.7935C99.6458 64.7935 99.6463 64.7935 99.6469 64.7935C99.6474 64.7935 99.6479 64.7935 99.6484 64.7935C99.6489 64.7935 99.6495 64.7935 99.65 64.7935C99.6505 64.7935 99.651 64.7935 99.6515 64.7935C99.6521 64.7935 99.6526 64.7935 99.6531 64.7935C99.6536 64.7935 99.6542 64.7935 99.6547 64.7935C99.6552 64.7935 99.6557 64.7935 99.6562 64.7935C99.6568 64.7935 99.6573 64.7935 99.6578 64.7935C99.6583 64.7935 99.6588 64.7935 99.6594 64.7935C99.6599 64.7935 99.6604 64.7935 99.6609 64.7935C99.6615 64.7935 99.662 64.7935 99.6625 64.7935C99.663 64.7935 99.6635 64.7935 99.6641 64.7935C99.6646 64.7935 99.6651 64.7935 99.6656 64.7935C99.6661 64.7935 99.6667 64.7935 99.6672 64.7935C99.6677 64.7935 99.6682 64.7935 99.6688 64.7935C99.6693 64.7935 99.6698 64.7935 99.6703 64.7935C99.6708 64.7935 99.6714 64.7935 99.6719 64.7935C99.6724 64.7935 99.6729 64.7935 99.6734 64.7935C99.674 64.7935 99.6745 64.7935 99.675 64.7935C99.6755 64.7935 99.6761 64.7935 99.6766 64.7935C99.6771 64.7935 99.6776 64.7935 99.6781 64.7935C99.6787 64.7935 99.6792 64.7935 99.6797 64.7935C99.6802 64.7935 99.6807 64.7935 99.6813 64.7935C99.6818 64.7935 99.6823 64.7935 99.6828 64.7935C99.6833 64.7935 99.6839 64.7935 99.6844 64.7935C99.6849 64.7935 99.6854 64.7935 99.686 64.7935C99.6865 64.7935 99.687 64.7935 99.6875 64.7935C99.688 64.7935 99.6886 64.7935 99.6891 64.7935C99.6896 64.7935 99.6901 64.7935 99.6906 64.7935C99.6912 64.7935 99.6917 64.7935 99.6922 64.7935C99.6927 64.7935 99.6933 64.7935 99.6938 64.7935C99.6943 64.7935 99.6948 64.7935 99.6953 64.7935C99.6959 64.7935 99.6964 64.7935 99.6969 64.7935C99.6974 64.7935 99.6979 64.7935 99.6985 64.7935C99.699 64.7935 99.6995 64.7935 99.7 64.7935C99.7006 64.7935 99.7011 64.7935 99.7016 64.7935C99.7021 64.7935 99.7026 64.7935 99.7032 64.7935C99.7037 64.7935 99.7042 64.7935 99.7047 64.7935C99.7052 64.7935 99.7058 64.7935 99.7063 64.7935C99.7068 64.7935 99.7073 64.7935 99.7079 64.7935C99.7084 64.7935 99.7089 64.7935 99.7094 64.7935C99.7099 64.7935 99.7105 64.7935 99.711 64.7935C99.7115 64.7935 99.712 64.7935 99.7125 64.7935C99.7131 64.7935 99.7136 64.7935 99.7141 64.7935C99.7146 64.7935 99.7152 64.7935 99.7157 64.7935C99.7162 64.7935 99.7167 64.7935 99.7172 64.7935C99.7178 64.7935 99.7183 64.7935 99.7188 64.7935C99.7193 64.7935 99.7198 64.7935 99.7204 64.7935C99.7209 64.7935 99.7214 64.7935 99.7219 64.7935C99.7225 64.7935 99.723 64.7935 99.7235 64.7935C99.724 64.7935 99.7245 64.7935 99.7251 64.7935C99.7256 64.7935 99.7261 64.7935 99.7266 64.7935C99.7271 64.7935 99.7277 64.7935 99.7282 64.7935C99.7287 64.7935 99.7292 64.7935 99.7298 64.7935C99.7303 64.7935 99.7308 64.7935 99.7313 64.7935C99.7318 64.7935 99.7324 64.7935 99.7329 64.7935C99.7334 64.7935 99.7339 64.7935 99.7344 64.7935C99.735 64.7935 99.7355 64.7935 99.736 64.7935C99.7365 64.7935 99.7371 64.7935 99.7376 64.7935C99.7381 64.7935 99.7386 64.7935 99.7391 64.7935C99.7397 64.7935 99.7402 64.7935 99.7407 64.7935C99.7412 64.7935 99.7417 64.7935 99.7423 64.7935C99.7428 64.7935 99.7433 64.7935 99.7438 64.7935C99.7444 64.7935 99.7449 64.7935 99.7454 64.7935C99.7459 64.7935 99.7464 64.7935 99.747 64.7935C99.7475 64.7935 99.748 64.7935 99.7485 64.7935C99.749 64.7935 99.7496 64.7935 99.7501 64.7935C99.7506 64.7935 99.7511 64.7935 99.7517 64.7935C99.7522 64.7935 99.7527 64.7935 99.7532 64.7935C99.7537 64.7935 99.7543 64.7935 99.7548 64.7935C99.7553 64.7935 99.7558 64.7935 99.7563 64.7935C99.7569 64.7935 99.7574 64.7935 99.7579 64.7935C99.7584 64.7935 99.759 64.7935 99.7595 64.7935C99.76 64.7935 99.7605 64.7935 99.761 64.7935C99.7616 64.7935 99.7621 64.7935 99.7626 64.7935C99.7631 64.7935 99.7636 64.7935 99.7642 64.7935C99.7647 64.7935 99.7652 64.7935 99.7657 64.7935C99.7663 64.7935 99.7668 64.7935 99.7673 64.7935C99.7678 64.7935 99.7683 64.7935 99.7689 64.7935C99.7694 64.7935 99.7699 64.7935 99.7704 64.7935C99.7709 64.7935 99.7715 64.7935 99.772 64.7935C99.7725 64.7935 99.773 64.7935 99.7736 64.7935C99.7741 64.7935 99.7746 64.7935 99.7751 64.7935C99.7756 64.7935 99.7762 64.7935 99.7767 64.7935C99.7772 64.7935 99.7777 64.7935 99.7782 64.7935C99.7788 64.7935 99.7793 64.7935 99.7798 64.7935C99.7803 64.7935 99.7809 64.7935 99.7814 64.7935C99.7819 64.7935 99.7824 64.7935 99.7829 64.7935C99.7835 64.7935 99.784 64.7935 99.7845 64.7935C99.785 64.7935 99.7855 64.7935 99.7861 64.7935C99.7866 64.7935 99.7871 64.7935 99.7876 64.7935C99.7882 64.7935 99.7887 64.7935 99.7892 64.7935C99.7897 64.7935 99.7902 64.7935 99.7908 64.7935C99.7913 64.7935 99.7918 64.7935 99.7923 64.7935C99.7929 64.7935 99.7934 64.7935 99.7939 64.7935C99.7944 64.7935 99.7949 64.7935 99.7955 64.7935C99.796 64.7935 99.7965 64.7935 99.797 64.7935C99.7975 64.7935 99.7981 64.7935 99.7986 64.7935C99.7991 64.7935 99.7996 64.7935 99.8002 64.7935C99.8007 64.7935 99.8012 64.7935 99.8017 64.7935C99.8022 64.7935 99.8028 64.7935 99.8033 64.7935C99.8038 64.7935 99.8043 64.7935 99.8048 64.7935C99.8054 64.7935 99.8059 64.7935 99.8064 64.7935C99.8069 64.7935 99.8075 64.7935 99.808 64.7935C99.8085 64.7935 99.809 64.7935 99.8095 64.7935C99.8101 64.7935 99.8106 64.7935 99.8111 64.7935C99.8116 64.7935 99.8121 64.7935 99.8127 64.7935C99.8132 64.7935 99.8137 64.7935 99.8142 64.7935C99.8148 64.7935 99.8153 64.7935 99.8158 64.7935C99.8163 64.7935 99.8168 64.7935 99.8174 64.7935C99.8179 64.7935 99.8184 64.7935 99.8189 64.7935C99.8194 64.7935 99.82 64.7935 99.8205 64.7935C99.821 64.7935 99.8215 64.7935 99.8221 64.7935C99.8226 64.7935 99.8231 64.7935 99.8236 64.7935C99.8241 64.7935 99.8247 64.7935 99.8252 64.7935C99.8257 64.7935 99.8262 64.7935 99.8267 64.7935C99.8273 64.7935 99.8278 64.7935 99.8283 64.7935C99.8288 64.7935 99.8294 64.7935 99.8299 64.7935C99.8304 64.7935 99.8309 64.7935 99.8314 64.7935C99.832 64.7935 99.8325 64.7935 99.833 64.7935C99.8335 64.7935 99.834 64.7935 99.8346 64.7935C99.8351 64.7935 99.8356 64.7935 99.8361 64.7935C99.8367 64.7935 99.8372 64.7935 99.8377 64.7935C99.8382 64.7935 99.8387 64.7935 99.8393 64.7935C99.8398 64.7935 99.8403 64.7935 99.8408 64.7935C99.8413 64.7935 99.8419 64.7935 99.8424 64.7935C99.8429 64.7935 99.8434 64.7935 99.844 64.7935C99.8445 64.7935 99.845 64.7935 99.8455 64.7935C99.846 64.7935 99.8466 64.7935 99.8471 64.7935C99.8476 64.7935 99.8481 64.7935 99.8487 64.7935C99.8492 64.7935 99.8497 64.7935 99.8502 64.7935C99.8507 64.7935 99.8513 64.7935 99.8518 64.7935C99.8523 64.7935 99.8528 64.7935 99.8533 64.7935C99.8539 64.7935 99.8544 64.7935 99.8549 64.7935C99.8554 64.7935 99.856 64.7935 99.8565 64.7935C99.857 64.7935 99.8575 64.7935 99.858 64.7935C99.8586 64.7935 99.8591 64.7935 99.8596 64.7935C99.8601 64.7935 99.8606 64.7935 99.8612 64.7935C99.8617 64.7935 99.8622 64.7935 99.8627 64.7935C99.8633 64.7935 99.8638 64.7935 99.8643 64.7935C99.8648 64.7935 99.8653 64.7935 99.8659 64.7935C99.8664 64.7935 99.8669 64.7935 99.8674 64.7935C99.8679 64.7935 99.8685 64.7935 99.869 64.7935C99.8695 64.7935 99.87 64.7935 99.8706 64.7935C99.8711 64.7935 99.8716 64.7935 99.8721 64.7935C99.8726 64.7935 99.8732 64.7935 99.8737 64.7935C99.8742 64.7935 99.8747 64.7935 99.8752 64.7935C99.8758 64.7935 99.8763 64.7935 99.8768 64.7935C99.8773 64.7935 99.8779 64.7935 99.8784 64.7935C99.8789 64.7935 99.8794 64.7935 99.8799 64.7935C99.8805 64.7935 99.881 64.7935 99.8815 64.7935C99.882 64.7935 99.8826 64.7935 99.8831 64.7935C99.8836 64.7935 99.8841 64.7935 99.8846 64.7935C99.8852 64.7935 99.8857 64.7935 99.8862 64.7935C99.8867 64.7935 99.8872 64.7935 99.8878 64.7935C99.8883 64.7935 99.8888 64.7935 99.8893 64.7935C99.8899 64.7935 99.8904 64.7935 99.8909 64.7935C99.8914 64.7935 99.8919 64.7935 99.8925 64.7935C99.893 64.7935 99.8935 64.7935 99.894 64.7935C99.8945 64.7935 99.8951 64.7935 99.8956 64.7935C99.8961 64.7935 99.8966 64.7935 99.8972 64.7935C99.8977 64.7935 99.8982 64.7935 99.8987 64.7935C99.8992 64.7935 99.8998 64.7935 99.9003 64.7935C99.9008 64.7935 99.9013 64.7935 99.9018 64.7935C99.9024 64.7935 99.9029 64.7935 99.9034 64.7935C99.9039 64.7935 99.9045 64.7935 99.905 64.7935C99.9055 64.7935 99.906 64.7935 99.9065 64.7935C99.9071 64.7935 99.9076 64.7935 99.9081 64.7935C99.9086 64.7935 99.9091 64.7935 99.9097 64.7935C99.9102 64.7935 99.9107 64.7935 99.9112 64.7935C99.9118 64.7935 99.9123 64.7935 99.9128 64.7935C99.9133 64.7935 99.9138 64.7935 99.9144 64.7935C99.9149 64.7935 99.9154 64.7935 99.9159 64.7935C99.9165 64.7935 99.917 64.7935 99.9175 64.7935C99.918 64.7935 99.9185 64.7935 99.9191 64.7935C99.9196 64.7935 99.9201 64.7935 99.9206 64.7935C99.9211 64.7935 99.9217 64.7935 99.9222 64.7935C99.9227 64.7935 99.9232 64.7935 99.9238 64.7935C99.9243 64.7935 99.9248 64.7935 99.9253 64.7935C99.9258 64.7935 99.9264 64.7935 99.9269 64.7935C99.9274 64.7935 99.9279 64.7935 99.9284 64.7935C99.929 64.7935 99.9295 64.7935 99.93 64.7935C99.9305 64.7935 99.9311 64.7935 99.9316 64.7935C99.9321 64.7935 99.9326 64.7935 99.9331 64.7935C99.9337 64.7935 99.9342 64.7935 99.9347 64.7935C99.9352 64.7935 99.9357 64.7935 99.9363 64.7935C99.9368 64.7935 99.9373 64.7935 99.9378 64.7935C99.9384 64.7935 99.9389 64.7935 99.9394 64.7935C99.9399 64.7935 99.9404 64.7935 99.941 64.7935C99.9415 64.7935 99.942 64.7935 99.9425 64.7935C99.943 64.7935 99.9436 64.7935 99.9441 64.7935C99.9446 64.7935 99.9451 64.7935 99.9457 64.7935C99.9462 64.7935 99.9467 64.7935 99.9472 64.7935C99.9477 64.7935 99.9483 64.7935 99.9488 64.7935C99.9493 64.7935 99.9498 64.7935 99.9504 64.7935C99.9509 64.7935 99.9514 64.7935 99.9519 64.7935C99.9524 64.7935 99.953 64.7935 99.9535 64.7935C99.954 64.7935 99.9545 64.7935 99.955 64.7935C99.9556 64.7935 99.9561 64.7935 99.9566 64.7935C99.9571 64.7935 99.9577 64.7935 99.9582 64.7935C99.9587 64.7935 99.9592 64.7935 99.9597 64.7935C99.9603 64.7935 99.9608 64.7935 99.9613 64.7935C99.9618 64.7935 99.9623 64.7935 99.9629 64.7935C99.9634 64.7935 99.9639 64.7935 99.9644 64.7935C99.965 64.7935 99.9655 64.7935 99.966 64.7935C99.9665 64.7935 99.967 64.7935 99.9676 64.7935C99.9681 64.7935 99.9686 64.7935 99.9691 64.7935C99.9696 64.7935 99.9702 64.7935 99.9707 64.7935C99.9712 64.7935 99.9717 64.7935 99.9723 64.7935C99.9728 64.7935 99.9733 64.7935 99.9738 64.7935C99.9743 64.7935 99.9749 64.7935 99.9754 64.7935C99.9759 64.7935 99.9764 64.7935 99.9769 64.7935C99.9775 64.7935 99.978 64.7935 99.9785 64.7935C99.979 64.7935 99.9796 64.7935 99.9801 64.7935C99.9806 64.7935 99.9811 64.7935 99.9816 64.7935C99.9822 64.7935 99.9827 64.7935 99.9832 64.7935C99.9837 64.7935 99.9843 64.7935 99.9848 64.7935C99.9853 64.7935 99.9858 64.7935 99.9863 64.7935C99.9869 64.7935 99.9874 64.7935 99.9879 64.7935C99.9884 64.7935 99.9889 64.7935 99.9895 64.7935C99.99 64.7935 99.9905 64.7935 99.991 64.7935C99.9916 64.7935 99.9921 64.7935 99.9926 64.7935C99.9931 64.7935 99.9936 64.7935 99.9942 64.7935C99.9947 64.7935 99.9952 64.7935 99.9957 64.7935C99.9962 64.7935 99.9968 64.7935 99.9973 64.7935C99.9978 64.7935 99.9983 64.7935 99.9989 64.7935C99.9994 64.7935 99.9999 64.7935 100 64.7935C100.001 64.7935 100.001 64.7935 100.002 64.7935C100.003 64.7935 100.003 64.7935 100.004 64.7935C100.004 64.7935 100.005 64.7935 100.005 64.7935C100.006 64.7935 100.006 64.7935 100.007 64.7935C100.007 64.7935 100.008 64.7935 100.008 64.7935C100.009 64.7935 100.009 64.7935 100.01 64.7935C100.01 64.7935 100.011 64.7935 100.011 64.7935C100.012 64.7935 100.012 64.7935 100.013 64.7935C100.013 64.7935 100.014 64.7935 100.015 64.7935C100.015 64.7935 100.016 64.7935 100.016 64.7935C100.017 64.7935 100.017 64.7935 100.018 64.7935C100.018 64.7935 100.019 64.7935 100.019 64.7935C100.02 64.7935 100.02 64.7935 100.021 64.7935C100.021 64.7935 100.022 64.7935 100.022 64.7935C100.023 64.7935 100.023 64.7935 100.024 64.7935C100.024 64.7935 100.025 64.7935 100.025 64.7935C100.026 64.7935 100.026 64.7935 100.027 64.7935C100.028 64.7935 100.028 64.7935 100.029 64.7935C100.029 64.7935 100.03 64.7935 100.03 64.7935C100.031 64.7935 100.031 64.7935 100.032 64.7935C100.032 64.7935 100.033 64.7935 100.033 64.7935C100.034 64.7935 100.034 64.7935 100.035 64.7935C100.035 64.7935 100.036 64.7935 100.036 64.7935C100.037 64.7935 100.037 64.7935 100.038 64.7935C100.038 64.7935 100.039 64.7935 100.04 64.7935C100.04 64.7935 100.041 64.7935 100.041 64.7935C100.042 64.7935 100.042 64.7935 100.043 64.7935C100.043 64.7935 100.044 64.7935 100.044 64.7935C100.045 64.7935 100.045 64.7935 100.046 64.7935C100.046 64.7935 100.047 64.7935 100.047 64.7935C100.048 64.7935 100.048 64.7935 100.049 64.7935C100.049 64.7935 100.05 64.7935 100.05 64.7935C100.051 64.7935 100.052 64.7935 100.052 64.7935C100.053 64.7935 100.053 64.7935 100.054 64.7935C100.054 64.7935 100.055 64.7935 100.055 64.7935C100.056 64.7935 100.056 64.7935 100.057 64.7935C100.057 64.7935 100.058 64.7935 100.058 64.7935C100.059 64.7935 100.059 64.7935 100.06 64.7935C100.06 64.7935 100.061 64.7935 100.061 64.7935C100.062 64.7935 100.062 64.7935 100.063 64.7935C100.064 64.7935 100.064 64.7935 100.065 64.7935C100.065 64.7935 100.066 64.7935 100.066 64.7935C100.067 64.7935 100.067 64.7935 100.068 64.7935C100.068 64.7935 100.069 64.7935 100.069 64.7935C100.07 64.7935 100.07 64.7935 100.071 64.7935C100.071 64.7935 100.072 64.7935 100.072 64.7935C100.073 64.7935 100.073 64.7935 100.074 64.7935C100.074 64.7935 100.075 64.7935 100.076 64.7935C100.076 64.7935 100.077 64.7935 100.077 64.7935C100.078 64.7935 100.078 64.7935 100.079 64.7935C100.079 64.7935 100.08 64.7935 100.08 64.7935C100.081 64.7935 100.081 64.7935 100.082 64.7935C100.082 64.7935 100.083 64.7935 100.083 64.7935C100.084 64.7935 100.084 64.7935 100.085 64.7935C100.085 64.7935 100.086 64.7935 100.086 64.7935C100.087 64.7935 100.088 64.7935 100.088 64.7935C100.089 64.7935 100.089 64.7935 100.09 64.7935C100.09 64.7935 100.091 64.7935 100.091 64.7935C100.092 64.7935 100.092 64.7935 100.093 64.7935C100.093 64.7935 100.094 64.7935 100.094 64.7935C100.095 64.7935 100.095 64.7935 100.096 64.7935C100.096 64.7935 100.097 64.7935 100.097 64.7935C100.098 64.7935 100.098 64.7935 100.099 64.7935C100.1 64.7935 100.1 64.7935 100.101 64.7935C100.101 64.7935 100.102 64.7935 100.102 64.7935C100.103 64.7935 100.103 64.7935 100.104 64.7935C100.104 64.7935 100.105 64.7935 100.105 64.7935C100.106 64.7935 100.106 64.7935 100.107 64.7935C100.107 64.7935 100.108 64.7935 100.108 64.7935C100.109 64.7935 100.109 64.7935 100.11 64.7935C100.11 64.7935 100.111 64.7935 100.112 64.7935C100.112 64.7935 100.113 64.7935 100.113 64.7935C100.114 64.7935 100.114 64.7935 100.115 64.7935C100.115 64.7935 100.116 64.7935 100.116 64.7935C100.117 64.7935 100.117 64.7935 100.118 64.7935C100.118 64.7935 100.119 64.7935 100.119 64.7935C100.12 64.7935 100.12 64.7935 100.121 64.7935C100.121 64.7935 100.122 64.7935 100.122 64.7935C100.123 64.7935 100.123 64.7935 100.124 64.7935C100.125 64.7935 100.125 64.7935 100.126 64.7935C100.126 64.7935 100.127 64.7935 100.127 64.7935C100.128 64.7935 100.128 64.7935 100.129 64.7935C100.129 64.7935 100.13 64.7935 100.13 64.7935C100.131 64.7935 100.131 64.7935 100.132 64.7935C100.132 64.7935 100.133 64.7935 100.133 64.7935C100.134 64.7935 100.134 64.7935 100.135 64.7935C100.135 64.7935 100.136 64.7935 100.137 64.7935C100.137 64.7935 100.138 64.7935 100.138 64.7935C100.139 64.7935 100.139 64.7935 100.14 64.7935C100.14 64.7935 100.141 64.7935 100.141 64.7935C100.142 64.7935 100.142 64.7935 100.143 64.7935C100.143 64.7935 100.144 64.7935 100.144 64.7935C100.145 64.7935 100.145 64.7935 100.146 64.7935C100.146 64.7935 100.147 64.7935 100.147 64.7935C100.148 64.7935 100.149 64.7935 100.149 64.7935C100.15 64.7935 100.15 64.7935 100.151 64.7935C100.151 64.7935 100.152 64.7935 100.152 64.7935C100.153 64.7935 100.153 64.7935 100.154 64.7935C100.154 64.7935 100.155 64.7935 100.155 64.7935C100.156 64.7935 100.156 64.7935 100.157 64.7935C100.157 64.7935 100.158 64.7935 100.158 64.7935C100.159 64.7935 100.159 64.7935 100.16 64.7935C100.161 64.7935 100.161 64.7935 100.162 64.7935C100.162 64.7935 100.163 64.7935 100.163 64.7935C100.164 64.7935 100.164 64.7935 100.165 64.7935C100.165 64.7935 100.166 64.7935 100.166 64.7935C100.167 64.7935 100.167 64.7935 100.168 64.7935C100.168 64.7935 100.169 64.7935 100.169 64.7935C100.17 64.7935 100.17 64.7935 100.171 64.7935C100.171 64.7935 100.172 64.7935 100.173 64.7935C100.173 64.7935 100.174 64.7935 100.174 64.7935C100.175 64.7935 100.175 64.7935 100.176 64.7935C100.176 64.7935 100.177 64.7935 100.177 64.7935C100.178 64.7935 100.178 64.7935 100.179 64.7935C100.179 64.7935 100.18 64.7935 100.18 64.7935C100.181 64.7935 100.181 64.7935 100.182 64.7935C100.182 64.7935 100.183 64.7935 100.183 64.7935C100.184 64.7935 100.185 64.7935 100.185 64.7935C100.186 64.7935 100.186 64.7935 100.187 64.7935C100.187 64.7935 100.188 64.7935 100.188 64.7935C100.189 64.7935 100.189 64.7935 100.19 64.7935C100.19 64.7935 100.191 64.7935 100.191 64.7935C100.192 64.7935 100.192 64.7935 100.193 64.7935C100.193 64.7935 100.194 64.7935 100.194 64.7935C100.195 64.7935 100.195 64.7935 100.196 64.7935C100.196 64.7935 100.197 64.7935 100.198 64.7935C100.198 64.7935 100.199 64.7935 100.199 64.7935C100.2 64.7935 100.2 64.7935 100.201 64.7935C100.201 64.7935 100.202 64.7935 100.202 64.7935C100.203 64.7935 100.203 64.7935 100.204 64.7935C100.204 64.7935 100.205 64.7935 100.205 64.7935C100.206 64.7935 100.206 64.7935 100.207 64.7935C100.207 64.7935 100.208 64.7935 100.208 64.7935C100.209 64.7935 100.21 64.7935 100.21 64.7935C100.211 64.7935 100.211 64.7935 100.212 64.7935C100.212 64.7935 100.213 64.7935 100.213 64.7935C100.214 64.7935 100.214 64.7935 100.215 64.7935C100.215 64.7935 100.216 64.7935 100.216 64.7935C100.217 64.7935 100.217 64.7935 100.218 64.7935C100.218 64.7935 100.219 64.7935 100.219 64.7935C100.22 64.7935 100.22 64.7935 100.221 64.7935C100.222 64.7935 100.222 64.7935 100.223 64.7935C100.223 64.7935 100.224 64.7935 100.224 64.7935C100.225 64.7935 100.225 64.7935 100.226 64.7935C100.226 64.7935 100.227 64.7935 100.227 64.7935C100.228 64.7935 100.228 64.7935 100.229 64.7935C100.229 64.7935 100.23 64.7935 100.23 64.7935C100.231 64.7935 100.231 64.7935 100.232 64.7935C100.232 64.7935 100.233 64.7935 100.234 64.7935C100.234 64.7935 100.235 64.7935 100.235 64.7935C100.236 64.7935 100.236 64.7935 100.237 64.7935C100.237 64.7935 100.238 64.7935 100.238 64.7935C100.239 64.7935 100.239 64.7935 100.24 64.7935C100.24 64.7935 100.241 64.7935 100.241 64.7935C100.242 64.7935 100.242 64.7935 100.243 64.7935C100.243 64.7935 100.244 64.7935 100.244 64.7935C100.245 64.7935 100.246 64.7935 100.246 64.7935C100.247 64.7935 100.247 64.7935 100.248 64.7935C100.248 64.7935 100.249 64.7935 100.249 64.7935C100.25 64.7935 100.25 64.7935 100.251 64.7935C100.251 64.7935 100.252 64.7935 100.252 64.7935C100.253 64.7935 100.253 64.7935 100.254 64.7935C100.254 64.7935 100.255 64.7935 100.255 64.7935C100.256 64.7935 100.256 64.7935 100.257 64.7935C100.257 64.7935 100.258 64.7935 100.259 64.7935C100.259 64.7935 100.26 64.7935 100.26 64.7935C100.261 64.7935 100.261 64.7935 100.262 64.7935C100.262 64.7935 100.263 64.7935 100.263 64.7935C100.264 64.7935 100.264 64.7935 100.265 64.7935C100.265 64.7935 100.266 64.7935 100.266 64.7935C100.267 64.7935 100.267 64.7935 100.268 64.7935C100.268 64.7935 100.269 64.7935 100.269 64.7935C100.27 64.7935 100.271 64.7935 100.271 64.7935C100.272 64.7935 100.272 64.7935 100.273 64.7935C100.273 64.7935 100.274 64.7935 100.274 64.7935C100.275 64.7935 100.275 64.7935 100.276 64.7935C100.276 64.7935 100.277 64.7935 100.277 64.7935C100.278 64.7935 100.278 64.7935 100.279 64.7935C100.279 64.7935 100.28 64.7935 100.28 64.7935C100.281 64.7935 100.281 64.7935 100.282 64.7935C100.283 64.7935 100.283 64.7935 100.284 64.7935C100.284 64.7935 100.285 64.7935 100.285 64.7935C100.286 64.7935 100.286 64.7935 100.287 64.7935C100.287 64.7935 100.288 64.7935 100.288 64.7935C100.289 64.7935 100.289 64.7935 100.29 64.7935C100.29 64.7935 100.291 64.7935 100.291 64.7935C100.292 64.7935 100.292 64.7935 100.293 64.7935C100.293 64.7935 100.294 64.7935 100.295 64.7935C100.295 64.7935 100.296 64.7935 100.296 64.7935C100.297 64.7935 100.297 64.7935 100.298 64.7935C100.298 64.7935 100.299 64.7935 100.299 64.7935C100.3 64.7935 100.3 64.7935 100.301 64.7935C100.301 64.7935 100.302 64.7935 100.302 64.7935C100.303 64.7935 100.303 64.7935 100.304 64.7935C100.304 64.7935 100.305 64.7935 100.305 64.7935C100.306 64.7935 100.306 64.7935 100.307 64.7935C100.308 64.7935 100.308 64.7935 100.309 64.7935C100.309 64.7935 100.31 64.7935 100.31 64.7935C100.311 64.7935 100.311 64.7935 100.312 64.7935C100.312 64.7935 100.313 64.7935 100.313 64.7935C100.314 64.7935 100.314 64.7935 100.315 64.7935C100.315 64.7935 100.316 64.7935 100.316 64.7935C100.317 64.7935 100.317 64.7935 100.318 64.7935C100.318 64.7935 100.319 64.7935 100.32 64.7935C100.32 64.7935 100.321 64.7935 100.321 64.7935C100.322 64.7935 100.322 64.7935 100.323 64.7935C100.323 64.7935 100.324 64.7935 100.324 64.7935C100.325 64.7935 100.325 64.7935 100.326 64.7935C100.326 64.7935 100.327 64.7935 100.327 64.7935C100.328 64.7935 100.328 64.7935 100.329 64.7935C100.329 64.7935 100.33 64.7935 100.33 64.7935C100.331 64.7935 100.332 64.7935 100.332 64.7935C100.333 64.7935 100.333 64.7935 100.334 64.7935C100.334 64.7935 100.335 64.7935 100.335 64.7935C100.336 64.7935 100.336 64.7935 100.337 64.7935C100.337 64.7935 100.338 64.7935 100.338 64.7935C100.339 64.7935 100.339 64.7935 100.34 64.7935C100.34 64.7935 100.341 64.7935 100.341 64.7935C100.342 64.7935 100.342 64.7935 100.343 64.7935C100.344 64.7935 100.344 64.7935 100.345 64.7935C100.345 64.7935 100.346 64.7935 100.346 64.7935C100.347 64.7935 100.347 64.7935 100.348 64.7935C100.348 64.7935 100.349 64.7935 100.349 64.7935C100.35 64.7935 100.35 64.7935 100.351 64.7935C100.351 64.7935 100.352 64.7935 100.352 64.7935C100.353 64.7935 100.353 64.7935 100.354 64.7935V35.6604C100.353 35.6604 100.353 35.6604 100.352 35.6604C100.352 35.6604 100.351 35.6604 100.351 35.6604C100.35 35.6604 100.35 35.6604 100.349 35.6604C100.349 35.6604 100.348 35.6604 100.348 35.6604C100.347 35.6604 100.347 35.6604 100.346 35.6604C100.346 35.6604 100.345 35.6604 100.345 35.6604C100.344 35.6604 100.344 35.6604 100.343 35.6604C100.342 35.6604 100.342 35.6604 100.341 35.6604C100.341 35.6604 100.34 35.6604 100.34 35.6604C100.339 35.6604 100.339 35.6604 100.338 35.6604C100.338 35.6604 100.337 35.6604 100.337 35.6604C100.336 35.6604 100.336 35.6604 100.335 35.6604C100.335 35.6604 100.334 35.6604 100.334 35.6604C100.333 35.6604 100.333 35.6604 100.332 35.6604C100.332 35.6604 100.331 35.6604 100.33 35.6604C100.33 35.6604 100.329 35.6604 100.329 35.6604C100.328 35.6604 100.328 35.6604 100.327 35.6604C100.327 35.6604 100.326 35.6604 100.326 35.6604C100.325 35.6604 100.325 35.6604 100.324 35.6604C100.324 35.6604 100.323 35.6604 100.323 35.6604C100.322 35.6604 100.322 35.6604 100.321 35.6604C100.321 35.6604 100.32 35.6604 100.32 35.6604C100.319 35.6604 100.318 35.6604 100.318 35.6604C100.317 35.6604 100.317 35.6604 100.316 35.6604C100.316 35.6604 100.315 35.6604 100.315 35.6604C100.314 35.6604 100.314 35.6604 100.313 35.6604C100.313 35.6604 100.312 35.6604 100.312 35.6604C100.311 35.6604 100.311 35.6604 100.31 35.6604C100.31 35.6604 100.309 35.6604 100.309 35.6604C100.308 35.6604 100.308 35.6604 100.307 35.6604C100.306 35.6604 100.306 35.6604 100.305 35.6604C100.305 35.6604 100.304 35.6604 100.304 35.6604C100.303 35.6604 100.303 35.6604 100.302 35.6604C100.302 35.6604 100.301 35.6604 100.301 35.6604C100.3 35.6604 100.3 35.6604 100.299 35.6604C100.299 35.6604 100.298 35.6604 100.298 35.6604C100.297 35.6604 100.297 35.6604 100.296 35.6604C100.296 35.6604 100.295 35.6604 100.295 35.6604C100.294 35.6604 100.293 35.6604 100.293 35.6604C100.292 35.6604 100.292 35.6604 100.291 35.6604C100.291 35.6604 100.29 35.6604 100.29 35.6604C100.289 35.6604 100.289 35.6604 100.288 35.6604C100.288 35.6604 100.287 35.6604 100.287 35.6604C100.286 35.6604 100.286 35.6604 100.285 35.6604C100.285 35.6604 100.284 35.6604 100.284 35.6604C100.283 35.6604 100.283 35.6604 100.282 35.6604C100.281 35.6604 100.281 35.6604 100.28 35.6604C100.28 35.6604 100.279 35.6604 100.279 35.6604C100.278 35.6604 100.278 35.6604 100.277 35.6604C100.277 35.6604 100.276 35.6604 100.276 35.6604C100.275 35.6604 100.275 35.6604 100.274 35.6604C100.274 35.6604 100.273 35.6604 100.273 35.6604C100.272 35.6604 100.272 35.6604 100.271 35.6604C100.271 35.6604 100.27 35.6604 100.269 35.6604C100.269 35.6604 100.268 35.6604 100.268 35.6604C100.267 35.6604 100.267 35.6604 100.266 35.6604C100.266 35.6604 100.265 35.6604 100.265 35.6604C100.264 35.6604 100.264 35.6604 100.263 35.6604C100.263 35.6604 100.262 35.6604 100.262 35.6604C100.261 35.6604 100.261 35.6604 100.26 35.6604C100.26 35.6604 100.259 35.6604 100.259 35.6604C100.258 35.6604 100.257 35.6604 100.257 35.6604C100.256 35.6604 100.256 35.6604 100.255 35.6604C100.255 35.6604 100.254 35.6604 100.254 35.6604C100.253 35.6604 100.253 35.6604 100.252 35.6604C100.252 35.6604 100.251 35.6604 100.251 35.6604C100.25 35.6604 100.25 35.6604 100.249 35.6604C100.249 35.6604 100.248 35.6604 100.248 35.6604C100.247 35.6604 100.247 35.6604 100.246 35.6604C100.246 35.6604 100.245 35.6604 100.244 35.6604C100.244 35.6604 100.243 35.6604 100.243 35.6604C100.242 35.6604 100.242 35.6604 100.241 35.6604C100.241 35.6604 100.24 35.6604 100.24 35.6604C100.239 35.6604 100.239 35.6604 100.238 35.6604C100.238 35.6604 100.237 35.6604 100.237 35.6604C100.236 35.6604 100.236 35.6604 100.235 35.6604C100.235 35.6604 100.234 35.6604 100.234 35.6604C100.233 35.6604 100.232 35.6604 100.232 35.6604C100.231 35.6604 100.231 35.6604 100.23 35.6604C100.23 35.6604 100.229 35.6604 100.229 35.6604C100.228 35.6604 100.228 35.6604 100.227 35.6604C100.227 35.6604 100.226 35.6604 100.226 35.6604C100.225 35.6604 100.225 35.6604 100.224 35.6604C100.224 35.6604 100.223 35.6604 100.223 35.6604C100.222 35.6604 100.222 35.6604 100.221 35.6604C100.22 35.6604 100.22 35.6604 100.219 35.6604C100.219 35.6604 100.218 35.6604 100.218 35.6604C100.217 35.6604 100.217 35.6604 100.216 35.6604C100.216 35.6604 100.215 35.6604 100.215 35.6604C100.214 35.6604 100.214 35.6604 100.213 35.6604C100.213 35.6604 100.212 35.6604 100.212 35.6604C100.211 35.6604 100.211 35.6604 100.21 35.6604C100.21 35.6604 100.209 35.6604 100.208 35.6604C100.208 35.6604 100.207 35.6604 100.207 35.6604C100.206 35.6604 100.206 35.6604 100.205 35.6604C100.205 35.6604 100.204 35.6604 100.204 35.6604C100.203 35.6604 100.203 35.6604 100.202 35.6604C100.202 35.6604 100.201 35.6604 100.201 35.6604C100.2 35.6604 100.2 35.6604 100.199 35.6604C100.199 35.6604 100.198 35.6604 100.198 35.6604C100.197 35.6604 100.196 35.6604 100.196 35.6604C100.195 35.6604 100.195 35.6604 100.194 35.6604C100.194 35.6604 100.193 35.6604 100.193 35.6604C100.192 35.6604 100.192 35.6604 100.191 35.6604C100.191 35.6604 100.19 35.6604 100.19 35.6604C100.189 35.6604 100.189 35.6604 100.188 35.6604C100.188 35.6604 100.187 35.6604 100.187 35.6604C100.186 35.6604 100.186 35.6604 100.185 35.6604C100.185 35.6604 100.184 35.6604 100.183 35.6604C100.183 35.6604 100.182 35.6604 100.182 35.6604C100.181 35.6604 100.181 35.6604 100.18 35.6604C100.18 35.6604 100.179 35.6604 100.179 35.6604C100.178 35.6604 100.178 35.6604 100.177 35.6604C100.177 35.6604 100.176 35.6604 100.176 35.6604C100.175 35.6604 100.175 35.6604 100.174 35.6604C100.174 35.6604 100.173 35.6604 100.173 35.6604C100.172 35.6604 100.171 35.6604 100.171 35.6604C100.17 35.6604 100.17 35.6604 100.169 35.6604C100.169 35.6604 100.168 35.6604 100.168 35.6604C100.167 35.6604 100.167 35.6604 100.166 35.6604C100.166 35.6604 100.165 35.6604 100.165 35.6604C100.164 35.6604 100.164 35.6604 100.163 35.6604C100.163 35.6604 100.162 35.6604 100.162 35.6604C100.161 35.6604 100.161 35.6604 100.16 35.6604C100.159 35.6604 100.159 35.6604 100.158 35.6604C100.158 35.6604 100.157 35.6604 100.157 35.6604C100.156 35.6604 100.156 35.6604 100.155 35.6604C100.155 35.6604 100.154 35.6604 100.154 35.6604C100.153 35.6604 100.153 35.6604 100.152 35.6604C100.152 35.6604 100.151 35.6604 100.151 35.6604C100.15 35.6604 100.15 35.6604 100.149 35.6604C100.149 35.6604 100.148 35.6604 100.147 35.6604C100.147 35.6604 100.146 35.6604 100.146 35.6604C100.145 35.6604 100.145 35.6604 100.144 35.6604C100.144 35.6604 100.143 35.6604 100.143 35.6604C100.142 35.6604 100.142 35.6604 100.141 35.6604C100.141 35.6604 100.14 35.6604 100.14 35.6604C100.139 35.6604 100.139 35.6604 100.138 35.6604C100.138 35.6604 100.137 35.6604 100.137 35.6604C100.136 35.6604 100.135 35.6604 100.135 35.6604C100.134 35.6604 100.134 35.6604 100.133 35.6604C100.133 35.6604 100.132 35.6604 100.132 35.6604C100.131 35.6604 100.131 35.6604 100.13 35.6604C100.13 35.6604 100.129 35.6604 100.129 35.6604C100.128 35.6604 100.128 35.6604 100.127 35.6604C100.127 35.6604 100.126 35.6604 100.126 35.6604C100.125 35.6604 100.125 35.6604 100.124 35.6604C100.123 35.6604 100.123 35.6604 100.122 35.6604C100.122 35.6604 100.121 35.6604 100.121 35.6604C100.12 35.6604 100.12 35.6604 100.119 35.6604C100.119 35.6604 100.118 35.6604 100.118 35.6604C100.117 35.6604 100.117 35.6604 100.116 35.6604C100.116 35.6604 100.115 35.6604 100.115 35.6604C100.114 35.6604 100.114 35.6604 100.113 35.6604C100.113 35.6604 100.112 35.6604 100.112 35.6604C100.111 35.6604 100.11 35.6604 100.11 35.6604C100.109 35.6604 100.109 35.6604 100.108 35.6604C100.108 35.6604 100.107 35.6604 100.107 35.6604C100.106 35.6604 100.106 35.6604 100.105 35.6604C100.105 35.6604 100.104 35.6604 100.104 35.6604C100.103 35.6604 100.103 35.6604 100.102 35.6604C100.102 35.6604 100.101 35.6604 100.101 35.6604C100.1 35.6604 100.1 35.6604 100.099 35.6604C100.098 35.6604 100.098 35.6604 100.097 35.6604C100.097 35.6604 100.096 35.6604 100.096 35.6604C100.095 35.6604 100.095 35.6604 100.094 35.6604C100.094 35.6604 100.093 35.6604 100.093 35.6604C100.092 35.6604 100.092 35.6604 100.091 35.6604C100.091 35.6604 100.09 35.6604 100.09 35.6604C100.089 35.6604 100.089 35.6604 100.088 35.6604C100.088 35.6604 100.087 35.6604 100.086 35.6604C100.086 35.6604 100.085 35.6604 100.085 35.6604C100.084 35.6604 100.084 35.6604 100.083 35.6604C100.083 35.6604 100.082 35.6604 100.082 35.6604C100.081 35.6604 100.081 35.6604 100.08 35.6604C100.08 35.6604 100.079 35.6604 100.079 35.6604C100.078 35.6604 100.078 35.6604 100.077 35.6604C100.077 35.6604 100.076 35.6604 100.076 35.6604C100.075 35.6604 100.074 35.6604 100.074 35.6604C100.073 35.6604 100.073 35.6604 100.072 35.6604C100.072 35.6604 100.071 35.6604 100.071 35.6604C100.07 35.6604 100.07 35.6604 100.069 35.6604C100.069 35.6604 100.068 35.6604 100.068 35.6604C100.067 35.6604 100.067 35.6604 100.066 35.6604C100.066 35.6604 100.065 35.6604 100.065 35.6604C100.064 35.6604 100.064 35.6604 100.063 35.6604C100.062 35.6604 100.062 35.6604 100.061 35.6604C100.061 35.6604 100.06 35.6604 100.06 35.6604C100.059 35.6604 100.059 35.6604 100.058 35.6604C100.058 35.6604 100.057 35.6604 100.057 35.6604C100.056 35.6604 100.056 35.6604 100.055 35.6604C100.055 35.6604 100.054 35.6604 100.054 35.6604C100.053 35.6604 100.053 35.6604 100.052 35.6604C100.052 35.6604 100.051 35.6604 100.05 35.6604C100.05 35.6604 100.049 35.6604 100.049 35.6604C100.048 35.6604 100.048 35.6604 100.047 35.6604C100.047 35.6604 100.046 35.6604 100.046 35.6604C100.045 35.6604 100.045 35.6604 100.044 35.6604C100.044 35.6604 100.043 35.6604 100.043 35.6604C100.042 35.6604 100.042 35.6604 100.041 35.6604C100.041 35.6604 100.04 35.6604 100.04 35.6604C100.039 35.6604 100.038 35.6604 100.038 35.6604C100.037 35.6604 100.037 35.6604 100.036 35.6604C100.036 35.6604 100.035 35.6604 100.035 35.6604C100.034 35.6604 100.034 35.6604 100.033 35.6604C100.033 35.6604 100.032 35.6604 100.032 35.6604C100.031 35.6604 100.031 35.6604 100.03 35.6604C100.03 35.6604 100.029 35.6604 100.029 35.6604C100.028 35.6604 100.028 35.6604 100.027 35.6604C100.026 35.6604 100.026 35.6604 100.025 35.6604C100.025 35.6604 100.024 35.6604 100.024 35.6604C100.023 35.6604 100.023 35.6604 100.022 35.6604C100.022 35.6604 100.021 35.6604 100.021 35.6604C100.02 35.6604 100.02 35.6604 100.019 35.6604C100.019 35.6604 100.018 35.6604 100.018 35.6604C100.017 35.6604 100.017 35.6604 100.016 35.6604C100.016 35.6604 100.015 35.6604 100.015 35.6604C100.014 35.6604 100.013 35.6604 100.013 35.6604C100.012 35.6604 100.012 35.6604 100.011 35.6604C100.011 35.6604 100.01 35.6604 100.01 35.6604C100.009 35.6604 100.009 35.6604 100.008 35.6604C100.008 35.6604 100.007 35.6604 100.007 35.6604C100.006 35.6604 100.006 35.6604 100.005 35.6604C100.005 35.6604 100.004 35.6604 100.004 35.6604C100.003 35.6604 100.003 35.6604 100.002 35.6604C100.001 35.6604 100.001 35.6604 100 35.6604C99.9999 35.6604 99.9994 35.6604 99.9989 35.6604C99.9983 35.6604 99.9978 35.6604 99.9973 35.6604C99.9968 35.6604 99.9962 35.6604 99.9957 35.6604C99.9952 35.6604 99.9947 35.6604 99.9942 35.6604C99.9936 35.6604 99.9931 35.6604 99.9926 35.6604C99.9921 35.6604 99.9916 35.6604 99.991 35.6604C99.9905 35.6604 99.99 35.6604 99.9895 35.6604C99.9889 35.6604 99.9884 35.6604 99.9879 35.6604C99.9874 35.6604 99.9869 35.6604 99.9863 35.6604C99.9858 35.6604 99.9853 35.6604 99.9848 35.6604C99.9843 35.6604 99.9837 35.6604 99.9832 35.6604C99.9827 35.6604 99.9822 35.6604 99.9816 35.6604C99.9811 35.6604 99.9806 35.6604 99.9801 35.6604C99.9796 35.6604 99.979 35.6604 99.9785 35.6604C99.978 35.6604 99.9775 35.6604 99.9769 35.6604C99.9764 35.6604 99.9759 35.6604 99.9754 35.6604C99.9749 35.6604 99.9743 35.6604 99.9738 35.6604C99.9733 35.6604 99.9728 35.6604 99.9723 35.6604C99.9717 35.6604 99.9712 35.6604 99.9707 35.6604C99.9702 35.6604 99.9696 35.6604 99.9691 35.6604C99.9686 35.6604 99.9681 35.6604 99.9676 35.6604C99.967 35.6604 99.9665 35.6604 99.966 35.6604C99.9655 35.6604 99.965 35.6604 99.9644 35.6604C99.9639 35.6604 99.9634 35.6604 99.9629 35.6604C99.9623 35.6604 99.9618 35.6604 99.9613 35.6604C99.9608 35.6604 99.9603 35.6604 99.9597 35.6604C99.9592 35.6604 99.9587 35.6604 99.9582 35.6604C99.9577 35.6604 99.9571 35.6604 99.9566 35.6604C99.9561 35.6604 99.9556 35.6604 99.955 35.6604C99.9545 35.6604 99.954 35.6604 99.9535 35.6604C99.953 35.6604 99.9524 35.6604 99.9519 35.6604C99.9514 35.6604 99.9509 35.6604 99.9504 35.6604C99.9498 35.6604 99.9493 35.6604 99.9488 35.6604C99.9483 35.6604 99.9477 35.6604 99.9472 35.6604C99.9467 35.6604 99.9462 35.6604 99.9457 35.6604C99.9451 35.6604 99.9446 35.6604 99.9441 35.6604C99.9436 35.6604 99.943 35.6604 99.9425 35.6604C99.942 35.6604 99.9415 35.6604 99.941 35.6604C99.9404 35.6604 99.9399 35.6604 99.9394 35.6604C99.9389 35.6604 99.9384 35.6604 99.9378 35.6604C99.9373 35.6604 99.9368 35.6604 99.9363 35.6604C99.9357 35.6604 99.9352 35.6604 99.9347 35.6604C99.9342 35.6604 99.9337 35.6604 99.9331 35.6604C99.9326 35.6604 99.9321 35.6604 99.9316 35.6604C99.9311 35.6604 99.9305 35.6604 99.93 35.6604C99.9295 35.6604 99.929 35.6604 99.9284 35.6604C99.9279 35.6604 99.9274 35.6604 99.9269 35.6604C99.9264 35.6604 99.9258 35.6604 99.9253 35.6604C99.9248 35.6604 99.9243 35.6604 99.9238 35.6604C99.9232 35.6604 99.9227 35.6604 99.9222 35.6604C99.9217 35.6604 99.9211 35.6604 99.9206 35.6604C99.9201 35.6604 99.9196 35.6604 99.9191 35.6604C99.9185 35.6604 99.918 35.6604 99.9175 35.6604C99.917 35.6604 99.9165 35.6604 99.9159 35.6604C99.9154 35.6604 99.9149 35.6604 99.9144 35.6604C99.9138 35.6604 99.9133 35.6604 99.9128 35.6604C99.9123 35.6604 99.9118 35.6604 99.9112 35.6604C99.9107 35.6604 99.9102 35.6604 99.9097 35.6604C99.9091 35.6604 99.9086 35.6604 99.9081 35.6604C99.9076 35.6604 99.9071 35.6604 99.9065 35.6604C99.906 35.6604 99.9055 35.6604 99.905 35.6604C99.9045 35.6604 99.9039 35.6604 99.9034 35.6604C99.9029 35.6604 99.9024 35.6604 99.9018 35.6604C99.9013 35.6604 99.9008 35.6604 99.9003 35.6604C99.8998 35.6604 99.8992 35.6604 99.8987 35.6604C99.8982 35.6604 99.8977 35.6604 99.8972 35.6604C99.8966 35.6604 99.8961 35.6604 99.8956 35.6604C99.8951 35.6604 99.8945 35.6604 99.894 35.6604C99.8935 35.6604 99.893 35.6604 99.8925 35.6604C99.8919 35.6604 99.8914 35.6604 99.8909 35.6604C99.8904 35.6604 99.8899 35.6604 99.8893 35.6604C99.8888 35.6604 99.8883 35.6604 99.8878 35.6604C99.8872 35.6604 99.8867 35.6604 99.8862 35.6604C99.8857 35.6604 99.8852 35.6604 99.8846 35.6604C99.8841 35.6604 99.8836 35.6604 99.8831 35.6604C99.8826 35.6604 99.882 35.6604 99.8815 35.6604C99.881 35.6604 99.8805 35.6604 99.8799 35.6604C99.8794 35.6604 99.8789 35.6604 99.8784 35.6604C99.8779 35.6604 99.8773 35.6604 99.8768 35.6604C99.8763 35.6604 99.8758 35.6604 99.8752 35.6604C99.8747 35.6604 99.8742 35.6604 99.8737 35.6604C99.8732 35.6604 99.8726 35.6604 99.8721 35.6604C99.8716 35.6604 99.8711 35.6604 99.8706 35.6604C99.87 35.6604 99.8695 35.6604 99.869 35.6604C99.8685 35.6604 99.8679 35.6604 99.8674 35.6604C99.8669 35.6604 99.8664 35.6604 99.8659 35.6604C99.8653 35.6604 99.8648 35.6604 99.8643 35.6604C99.8638 35.6604 99.8633 35.6604 99.8627 35.6604C99.8622 35.6604 99.8617 35.6604 99.8612 35.6604C99.8606 35.6604 99.8601 35.6604 99.8596 35.6604C99.8591 35.6604 99.8586 35.6604 99.858 35.6604C99.8575 35.6604 99.857 35.6604 99.8565 35.6604C99.856 35.6604 99.8554 35.6604 99.8549 35.6604C99.8544 35.6604 99.8539 35.6604 99.8533 35.6604C99.8528 35.6604 99.8523 35.6604 99.8518 35.6604C99.8513 35.6604 99.8507 35.6604 99.8502 35.6604C99.8497 35.6604 99.8492 35.6604 99.8487 35.6604C99.8481 35.6604 99.8476 35.6604 99.8471 35.6604C99.8466 35.6604 99.846 35.6604 99.8455 35.6604C99.845 35.6604 99.8445 35.6604 99.844 35.6604C99.8434 35.6604 99.8429 35.6604 99.8424 35.6604C99.8419 35.6604 99.8413 35.6604 99.8408 35.6604C99.8403 35.6604 99.8398 35.6604 99.8393 35.6604C99.8387 35.6604 99.8382 35.6604 99.8377 35.6604C99.8372 35.6604 99.8367 35.6604 99.8361 35.6604C99.8356 35.6604 99.8351 35.6604 99.8346 35.6604C99.834 35.6604 99.8335 35.6604 99.833 35.6604C99.8325 35.6604 99.832 35.6604 99.8314 35.6604C99.8309 35.6604 99.8304 35.6604 99.8299 35.6604C99.8294 35.6604 99.8288 35.6604 99.8283 35.6604C99.8278 35.6604 99.8273 35.6604 99.8267 35.6604C99.8262 35.6604 99.8257 35.6604 99.8252 35.6604C99.8247 35.6604 99.8241 35.6604 99.8236 35.6604C99.8231 35.6604 99.8226 35.6604 99.8221 35.6604C99.8215 35.6604 99.821 35.6604 99.8205 35.6604C99.82 35.6604 99.8194 35.6604 99.8189 35.6604C99.8184 35.6604 99.8179 35.6604 99.8174 35.6604C99.8168 35.6604 99.8163 35.6604 99.8158 35.6604C99.8153 35.6604 99.8148 35.6604 99.8142 35.6604C99.8137 35.6604 99.8132 35.6604 99.8127 35.6604C99.8121 35.6604 99.8116 35.6604 99.8111 35.6604C99.8106 35.6604 99.8101 35.6604 99.8095 35.6604C99.809 35.6604 99.8085 35.6604 99.808 35.6604C99.8075 35.6604 99.8069 35.6604 99.8064 35.6604C99.8059 35.6604 99.8054 35.6604 99.8048 35.6604C99.8043 35.6604 99.8038 35.6604 99.8033 35.6604C99.8028 35.6604 99.8022 35.6604 99.8017 35.6604C99.8012 35.6604 99.8007 35.6604 99.8002 35.6604C99.7996 35.6604 99.7991 35.6604 99.7986 35.6604C99.7981 35.6604 99.7975 35.6604 99.797 35.6604C99.7965 35.6604 99.796 35.6604 99.7955 35.6604C99.7949 35.6604 99.7944 35.6604 99.7939 35.6604C99.7934 35.6604 99.7929 35.6604 99.7923 35.6604C99.7918 35.6604 99.7913 35.6604 99.7908 35.6604C99.7902 35.6604 99.7897 35.6604 99.7892 35.6604C99.7887 35.6604 99.7882 35.6604 99.7876 35.6604C99.7871 35.6604 99.7866 35.6604 99.7861 35.6604C99.7855 35.6604 99.785 35.6604 99.7845 35.6604C99.784 35.6604 99.7835 35.6604 99.7829 35.6604C99.7824 35.6604 99.7819 35.6604 99.7814 35.6604C99.7809 35.6604 99.7803 35.6604 99.7798 35.6604C99.7793 35.6604 99.7788 35.6604 99.7782 35.6604C99.7777 35.6604 99.7772 35.6604 99.7767 35.6604C99.7762 35.6604 99.7756 35.6604 99.7751 35.6604C99.7746 35.6604 99.7741 35.6604 99.7736 35.6604C99.773 35.6604 99.7725 35.6604 99.772 35.6604C99.7715 35.6604 99.7709 35.6604 99.7704 35.6604C99.7699 35.6604 99.7694 35.6604 99.7689 35.6604C99.7683 35.6604 99.7678 35.6604 99.7673 35.6604C99.7668 35.6604 99.7663 35.6604 99.7657 35.6604C99.7652 35.6604 99.7647 35.6604 99.7642 35.6604C99.7636 35.6604 99.7631 35.6604 99.7626 35.6604C99.7621 35.6604 99.7616 35.6604 99.761 35.6604C99.7605 35.6604 99.76 35.6604 99.7595 35.6604C99.759 35.6604 99.7584 35.6604 99.7579 35.6604C99.7574 35.6604 99.7569 35.6604 99.7563 35.6604C99.7558 35.6604 99.7553 35.6604 99.7548 35.6604C99.7543 35.6604 99.7537 35.6604 99.7532 35.6604C99.7527 35.6604 99.7522 35.6604 99.7517 35.6604C99.7511 35.6604 99.7506 35.6604 99.7501 35.6604C99.7496 35.6604 99.749 35.6604 99.7485 35.6604C99.748 35.6604 99.7475 35.6604 99.747 35.6604C99.7464 35.6604 99.7459 35.6604 99.7454 35.6604C99.7449 35.6604 99.7444 35.6604 99.7438 35.6604C99.7433 35.6604 99.7428 35.6604 99.7423 35.6604C99.7417 35.6604 99.7412 35.6604 99.7407 35.6604C99.7402 35.6604 99.7397 35.6604 99.7391 35.6604C99.7386 35.6604 99.7381 35.6604 99.7376 35.6604C99.7371 35.6604 99.7365 35.6604 99.736 35.6604C99.7355 35.6604 99.735 35.6604 99.7344 35.6604C99.7339 35.6604 99.7334 35.6604 99.7329 35.6604C99.7324 35.6604 99.7318 35.6604 99.7313 35.6604C99.7308 35.6604 99.7303 35.6604 99.7298 35.6604C99.7292 35.6604 99.7287 35.6604 99.7282 35.6604C99.7277 35.6604 99.7271 35.6604 99.7266 35.6604C99.7261 35.6604 99.7256 35.6604 99.7251 35.6604C99.7245 35.6604 99.724 35.6604 99.7235 35.6604C99.723 35.6604 99.7225 35.6604 99.7219 35.6604C99.7214 35.6604 99.7209 35.6604 99.7204 35.6604C99.7198 35.6604 99.7193 35.6604 99.7188 35.6604C99.7183 35.6604 99.7178 35.6604 99.7172 35.6604C99.7167 35.6604 99.7162 35.6604 99.7157 35.6604C99.7152 35.6604 99.7146 35.6604 99.7141 35.6604C99.7136 35.6604 99.7131 35.6604 99.7125 35.6604C99.712 35.6604 99.7115 35.6604 99.711 35.6604C99.7105 35.6604 99.7099 35.6604 99.7094 35.6604C99.7089 35.6604 99.7084 35.6604 99.7079 35.6604C99.7073 35.6604 99.7068 35.6604 99.7063 35.6604C99.7058 35.6604 99.7052 35.6604 99.7047 35.6604C99.7042 35.6604 99.7037 35.6604 99.7032 35.6604C99.7026 35.6604 99.7021 35.6604 99.7016 35.6604C99.7011 35.6604 99.7006 35.6604 99.7 35.6604C99.6995 35.6604 99.699 35.6604 99.6985 35.6604C99.6979 35.6604 99.6974 35.6604 99.6969 35.6604C99.6964 35.6604 99.6959 35.6604 99.6953 35.6604C99.6948 35.6604 99.6943 35.6604 99.6938 35.6604C99.6933 35.6604 99.6927 35.6604 99.6922 35.6604C99.6917 35.6604 99.6912 35.6604 99.6906 35.6604C99.6901 35.6604 99.6896 35.6604 99.6891 35.6604C99.6886 35.6604 99.688 35.6604 99.6875 35.6604C99.687 35.6604 99.6865 35.6604 99.686 35.6604C99.6854 35.6604 99.6849 35.6604 99.6844 35.6604C99.6839 35.6604 99.6833 35.6604 99.6828 35.6604C99.6823 35.6604 99.6818 35.6604 99.6813 35.6604C99.6807 35.6604 99.6802 35.6604 99.6797 35.6604C99.6792 35.6604 99.6787 35.6604 99.6781 35.6604C99.6776 35.6604 99.6771 35.6604 99.6766 35.6604C99.6761 35.6604 99.6755 35.6604 99.675 35.6604C99.6745 35.6604 99.674 35.6604 99.6734 35.6604C99.6729 35.6604 99.6724 35.6604 99.6719 35.6604C99.6714 35.6604 99.6708 35.6604 99.6703 35.6604C99.6698 35.6604 99.6693 35.6604 99.6688 35.6604C99.6682 35.6604 99.6677 35.6604 99.6672 35.6604C99.6667 35.6604 99.6661 35.6604 99.6656 35.6604C99.6651 35.6604 99.6646 35.6604 99.6641 35.6604C99.6635 35.6604 99.663 35.6604 99.6625 35.6604C99.662 35.6604 99.6615 35.6604 99.6609 35.6604C99.6604 35.6604 99.6599 35.6604 99.6594 35.6604C99.6588 35.6604 99.6583 35.6604 99.6578 35.6604C99.6573 35.6604 99.6568 35.6604 99.6562 35.6604C99.6557 35.6604 99.6552 35.6604 99.6547 35.6604C99.6542 35.6604 99.6536 35.6604 99.6531 35.6604C99.6526 35.6604 99.6521 35.6604 99.6515 35.6604C99.651 35.6604 99.6505 35.6604 99.65 35.6604C99.6495 35.6604 99.6489 35.6604 99.6484 35.6604C99.6479 35.6604 99.6474 35.6604 99.6469 35.6604C99.6463 35.6604 99.6458 35.6604 99.6453 35.6604C99.6448 35.6604 99.6442 35.6604 99.6437 35.6604C99.6432 35.6604 99.6427 35.6604 99.6422 35.6604C99.6416 35.6604 99.6411 35.6604 99.6406 35.6604C99.6401 35.6604 99.6396 35.6604 99.639 35.6604C99.6385 35.6604 99.638 35.6604 99.6375 35.6604C99.637 35.6604 99.6364 35.6604 99.6359 35.6604C99.6354 35.6604 99.6349 35.6604 99.6343 35.6604C99.6338 35.6604 99.6333 35.6604 99.6328 35.6604C99.6323 35.6604 99.6317 35.6604 99.6312 35.6604C99.6307 35.6604 99.6302 35.6604 99.6297 35.6604C99.6291 35.6604 99.6286 35.6604 99.6281 35.6604C99.6276 35.6604 99.627 35.6604 99.6265 35.6604C99.626 35.6604 99.6255 35.6604 99.625 35.6604C99.6244 35.6604 99.6239 35.6604 99.6234 35.6604C99.6229 35.6604 99.6224 35.6604 99.6218 35.6604C99.6213 35.6604 99.6208 35.6604 99.6203 35.6604C99.6197 35.6604 99.6192 35.6604 99.6187 35.6604C99.6182 35.6604 99.6177 35.6604 99.6171 35.6604C99.6166 35.6604 99.6161 35.6604 99.6156 35.6604C99.6151 35.6604 99.6145 35.6604 99.614 35.6604C99.6135 35.6604 99.613 35.6604 99.6125 35.6604C99.6119 35.6604 99.6114 35.6604 99.6109 35.6604C99.6104 35.6604 99.6098 35.6604 99.6093 35.6604C99.6088 35.6604 99.6083 35.6604 99.6078 35.6604C99.6072 35.6604 99.6067 35.6604 99.6062 35.6604C99.6057 35.6604 99.6052 35.6604 99.6046 35.6604C99.6041 35.6604 99.6036 35.6604 99.6031 35.6604C99.6025 35.6604 99.602 35.6604 99.6015 35.6604C99.601 35.6604 99.6005 35.6604 99.5999 35.6604C99.5994 35.6604 99.5989 35.6604 99.5984 35.6604C99.5979 35.6604 99.5973 35.6604 99.5968 35.6604C99.5963 35.6604 99.5958 35.6604 99.5952 35.6604C99.5947 35.6604 99.5942 35.6604 99.5937 35.6604C99.5932 35.6604 99.5926 35.6604 99.5921 35.6604C99.5916 35.6604 99.5911 35.6604 99.5906 35.6604C99.59 35.6604 99.5895 35.6604 99.589 35.6604C99.5885 35.6604 99.588 35.6604 99.5874 35.6604C99.5869 35.6604 99.5864 35.6604 99.5859 35.6604C99.5853 35.6604 99.5848 35.6604 99.5843 35.6604C99.5838 35.6604 99.5833 35.6604 99.5827 35.6604C99.5822 35.6604 99.5817 35.6604 99.5812 35.6604C99.5807 35.6604 99.5801 35.6604 99.5796 35.6604C99.5791 35.6604 99.5786 35.6604 99.578 35.6604C99.5775 35.6604 99.577 35.6604 99.5765 35.6604C99.576 35.6604 99.5754 35.6604 99.5749 35.6604C99.5744 35.6604 99.5739 35.6604 99.5734 35.6604C99.5728 35.6604 99.5723 35.6604 99.5718 35.6604C99.5713 35.6604 99.5708 35.6604 99.5702 35.6604C99.5697 35.6604 99.5692 35.6604 99.5687 35.6604C99.5681 35.6604 99.5676 35.6604 99.5671 35.6604C99.5666 35.6604 99.5661 35.6604 99.5655 35.6604C99.565 35.6604 99.5645 35.6604 99.564 35.6604C99.5635 35.6604 99.5629 35.6604 99.5624 35.6604C99.5619 35.6604 99.5614 35.6604 99.5608 35.6604C99.5603 35.6604 99.5598 35.6604 99.5593 35.6604C99.5588 35.6604 99.5582 35.6604 99.5577 35.6604C99.5572 35.6604 99.5567 35.6604 99.5562 35.6604C99.5556 35.6604 99.5551 35.6604 99.5546 35.6604C99.5541 35.6604 99.5536 35.6604 99.553 35.6604V64.7935ZM324.222 44.8748C324.222 50.9448 319.334 56.5594 312.459 56.5594L312.459 27.4263C302.488 27.4263 295.089 35.6214 295.089 44.8748H324.222ZM80.0811 44.8748C80.0811 52.2946 72.0712 58.5111 64.1866 54.578L77.1908 28.5084C64.522 22.1888 50.9481 31.988 50.9481 44.8748H80.0811ZM226.647 20.1725C226.647 9.55482 218.172 0.253783 206.874 0.253783L206.874 29.3868C201.327 29.3868 197.514 24.8783 197.514 20.1725H226.647ZM276.611 13.7499C281.471 16.174 284.312 21.0784 284.312 26.188H255.179C255.179 31.8057 258.302 37.1736 263.607 39.8195L276.611 13.7499ZM48.3912 40.0912C43.6752 40.0912 40.5363 36.2757 40.5363 32.4249H69.6694C69.6694 20.9523 60.5207 10.9581 48.3912 10.9581L48.3912 40.0912ZM67.5516 44.3721C79.8049 50.4843 92.8956 40.9964 92.8956 28.5844H63.7625C63.7625 20.6898 72.2558 14.1621 80.5559 18.3025L67.5516 44.3721ZM56.7046 30.0122C61.4956 34.4937 60.7782 39.9273 60.581 41.0202C60.2981 42.5875 59.6208 44.2436 58.1876 45.8479L36.4619 26.4383C34.0181 29.1737 32.5029 32.5666 31.911 35.8463C31.4048 38.6515 30.9072 45.7731 36.8032 51.2882L56.7046 30.0122ZM224.494 40.0912C219.389 40.0912 215.934 35.9512 215.934 31.7002H245.067C245.067 20.6279 236.234 10.9581 224.494 10.9581V40.0912ZM255.479 37.8758C255.479 38.7161 254.714 40.0912 252.926 40.0912V10.9581C237.869 10.9581 226.346 23.3927 226.346 37.8758H255.479ZM19.8009 48.7281C11.318 40.7932 15.8809 24.9561 29.2127 24.9561V54.0891C44.0083 54.0891 49.2681 36.3999 39.7024 27.4522L19.8009 48.7281ZM203.921 20.1725C203.921 30.7901 212.395 40.0912 223.693 40.0912V10.9581C229.241 10.9581 233.054 15.4667 233.054 20.1725H203.921ZM234.105 64.7935C246.287 64.7935 255.479 54.7551 255.479 43.2279H226.346C226.346 39.4316 229.442 35.6604 234.105 35.6604L234.105 64.7935ZM29.2127 52.4423C25.6645 52.4423 22.3135 51.0784 19.8009 48.7281L39.7024 27.4522C36.8949 24.826 33.1596 23.3093 29.2127 23.3093V52.4423ZM129.914 24.9561C137.714 24.9561 143.353 31.3417 143.353 38.3632H114.22C114.22 46.6653 120.868 54.0891 129.914 54.0891V24.9561ZM125.278 64.7935C125.621 64.7935 126.168 64.8378 127.778 64.9968C129.022 65.1196 131.205 65.344 133.431 65.3135C135.559 65.2843 139.191 65.0351 142.925 63.2483C147.276 61.1662 150.832 57.434 152.535 52.3427L124.907 43.1002C125.292 41.9502 125.972 40.6552 127.054 39.4509C128.128 38.2558 129.315 37.4643 130.349 36.9693C132.175 36.0958 133.457 36.1773 133.032 36.1831C132.702 36.1877 132.126 36.1513 130.64 36.0047C129.521 35.8942 127.369 35.6604 125.278 35.6604V64.7935ZM320.869 56.5594C314.215 56.5594 309.506 51.1291 309.506 45.2865H338.639C338.639 35.8057 331.061 27.4263 320.869 27.4263L320.869 56.5594ZM68.4938 56.7266C67.5223 56.2419 66.8842 55.7151 66.5752 55.4322C66.2927 55.1736 66.2003 55.038 66.3892 55.2666C66.4772 55.3732 66.5856 55.5085 66.7656 55.7359C66.9185 55.9291 67.1711 56.25 67.4184 56.5564C67.9161 57.1729 68.7137 58.1362 69.7261 59.1315L90.1493 38.3558C90.3256 38.5291 90.3475 38.5797 90.0871 38.2571C89.9554 38.0939 89.8334 37.9387 89.6106 37.6572C89.4149 37.4099 89.1466 37.0718 88.8516 36.7146C87.8146 35.459 85.3946 32.6007 81.4981 30.657L68.4938 56.7266ZM117.268 33.8264C119.117 28.6977 124.043 24.9561 129.914 24.9561V54.0891C136.728 54.0891 142.498 49.7439 144.675 43.7057L117.268 33.8264ZM29.4293 40.0582C16.1277 40.0354 11.5852 24.2346 20.052 16.3148L39.9534 37.5908C49.5236 28.6389 44.2726 10.9505 29.4792 10.9252L29.4293 40.0582ZM297.126 28.4018C297.126 19.1509 289.729 10.9581 279.761 10.9581V40.0912C272.884 40.0912 267.993 34.4746 267.993 28.4018H297.126ZM55.4832 36.408C52.9919 38.7384 49.6687 40.0912 46.1495 40.0912L46.1495 10.9581C42.1738 10.9581 38.4107 12.4859 35.5817 15.1321L55.4832 36.408ZM267.993 28.4018C267.993 20.3723 276.624 13.7563 285.042 17.9555L272.037 44.0251C284.173 50.0785 297.126 40.6789 297.126 28.4018H267.993ZM53.0552 15.0895C56.7775 17.1631 58.7207 20.4946 59.4307 23.4504C60.1511 26.4494 60.1459 32.0465 55.4832 36.408L35.5817 15.1321C30.3313 20.0433 30.1938 26.4682 31.1034 30.2548C32.0026 33.9982 34.4565 38.0771 38.8773 40.5399L53.0552 15.0895ZM206.874 40.0912C218.172 40.0912 226.647 30.7901 226.647 20.1725H197.514C197.514 15.4667 201.327 10.9581 206.874 10.9581L206.874 40.0912ZM143.603 29.3868L206.874 29.3868L206.874 0.253783L143.603 0.253786L143.603 29.3868ZM20.2398 29.3868L83.5349 29.3868L83.5349 0.253783L20.2398 0.253781L20.2398 29.3868ZM234.105 35.6604H183.172V64.7935H234.105V35.6604ZM304.455 35.6604L288.432 35.6604L288.432 64.7935L304.455 64.7935L304.455 35.6604ZM319.117 36.229V45.2865H348.25V36.229H319.117ZM223.693 29.3868L287.766 29.3868L287.766 0.253783L223.693 0.253785L223.693 29.3868ZM189.655 54.0891H223.693V24.9561H189.655V54.0891ZM279.761 10.9581L270.39 10.9581L270.39 40.0912L279.761 40.0912L279.761 10.9581Z" fill="#FFF968" mask="url(#path-1-outside-1_372_1243)"/>
</svg>
