<svg width="469" height="442" viewBox="0 0 469 442" fill="none" xmlns="http://www.w3.org/2000/svg">
<rect x="452.592" width="434.679" height="545.433" rx="48" transform="rotate(56.0767 452.592 0)" fill="white"/>
<path d="M162.88 231.748C172.111 225.16 175.378 216.121 169.776 204.295C169.589 203.913 169.239 203.905 169.011 204.067L162.858 208.459C162.63 208.621 162.54 208.857 162.686 209.183C166.207 216.044 165 222.065 158.846 226.457C151.382 231.784 143.173 229.559 136.057 219.588C129.347 210.186 129.392 201.211 137.027 195.762C142.611 191.777 148.445 191.999 153.871 197.071C154.09 197.258 154.285 197.291 154.513 197.128L160.553 192.818C160.781 192.655 160.83 192.362 160.627 192.077C150.996 183.041 141.54 184.371 133.278 190.268C121.483 198.685 119.891 212.119 128.918 224.768C137.864 237.303 150.915 240.287 162.88 231.748Z" fill="#021F69"/>
<path d="M198.463 206.182C207.75 199.554 208.544 189.7 201.957 180.47C195.329 171.182 185.833 168.843 176.546 175.471C167.315 182.058 166.465 191.953 173.093 201.24C179.721 210.528 189.233 212.77 198.463 206.182ZM195.169 201.567C190.155 205.145 185.086 203.345 180.044 196.279C175.043 189.271 174.809 183.762 179.839 180.086C184.797 176.548 189.971 178.617 194.973 185.626C200.015 192.691 200.183 197.989 195.169 201.567Z" fill="#021F69"/>
<path d="M212.501 152.563C207.43 156.182 205.565 161.039 206.588 166.329C202.725 159.712 202.207 154.406 207.018 149.338C209.404 146.776 214.955 142.384 218.146 138.903C218.334 138.683 218.366 138.488 218.204 138.26L214.991 133.759C214.829 133.531 214.536 133.482 214.291 133.742C210.962 137.15 205.313 141.526 202.382 144.649C194.355 153.044 195.685 163.102 203.98 174.725C212.56 186.748 221.966 189.323 231.026 182.858C239.914 176.514 241.123 166.88 234.698 157.878C229.168 150.129 220.763 146.667 212.501 152.563ZM227.748 178.145C223.076 181.479 217.967 179.622 213.697 173.639C209.183 167.314 209.397 161.83 213.955 158.577C218.514 155.324 223.68 157.141 228.112 163.351C232.545 169.562 232.363 174.851 227.748 178.145Z" fill="#021F69"/>
<path d="M260.047 155.267C255.147 158.764 250.347 157.46 245.467 151.224L266.948 135.895C267.176 135.732 267.265 135.496 267.062 135.211C259.791 125.264 250.255 122.868 241.139 129.374C232.193 135.758 231.269 145.791 237.857 155.021C244.241 163.967 253.826 166.673 263.284 159.923C271.204 154.27 272.737 146.296 269.33 139.956C269.225 139.687 268.932 139.639 268.704 139.801L262.892 143.949C262.664 144.111 262.631 144.307 262.737 144.575C264.688 149.117 263.694 152.664 260.047 155.267ZM244.449 133.891C248.95 130.679 253.636 132.667 256.768 136.452L242.523 146.617C239.71 141.229 240.232 136.9 244.449 133.891Z" fill="#021F69"/>
<path d="M275.211 105.23C271.279 108.036 269.422 111.941 269.461 116.213L267.013 112.542C266.851 112.314 266.558 112.265 266.33 112.428L260.233 116.779C260.005 116.942 259.956 117.235 260.119 117.462L272.025 133.905L287.404 155.695C287.566 155.923 287.859 155.972 288.087 155.809L294.241 151.418C294.469 151.255 294.518 150.962 294.355 150.734L285.011 137.881C288.957 139.193 292.977 138.56 296.795 135.836C304.658 130.224 304.507 120.012 298.448 111.522C292.349 102.975 283.302 99.4561 275.211 105.23ZM291.637 132.465C286.965 135.799 281.595 133.697 276.732 126.762C271.95 119.941 272.09 114.595 276.706 111.301C281.606 107.804 286.886 110.142 291.725 116.922C296.238 123.247 296.594 128.927 291.637 132.465Z" fill="#021F69"/>
<path d="M314.164 111.315L308.991 103.826L299.062 89.671C298.899 89.4431 298.606 89.3941 298.378 89.5568L292.281 93.9077C292.054 94.0704 292.005 94.3633 292.167 94.5912L302 108.128L312.539 123.137C312.702 123.365 312.995 123.414 313.223 123.252L320.516 118.047C320.687 117.925 320.874 117.705 320.826 117.396L317.445 87.4735L322.17 94.3353L332.425 108.946C332.587 109.174 332.88 109.223 333.108 109.06L339.148 104.75C339.376 104.587 339.425 104.294 339.262 104.067L328.779 89.6184L318.89 75.5204C318.727 75.2924 318.435 75.2435 318.207 75.4061L311.027 80.5297C310.856 80.6516 310.669 80.8713 310.718 81.1805L314.164 111.315Z" fill="#021F69"/>
<path fill-rule="evenodd" clip-rule="evenodd" d="M183.56 200.349C183.003 199.839 182.445 199.265 181.888 198.627C181.874 198.611 181.86 198.594 181.846 198.578C181.809 198.536 181.772 198.493 181.735 198.45C181.171 197.792 180.607 197.069 180.044 196.279C178.851 194.608 177.929 193.021 177.286 191.524C175.931 188.374 175.808 185.623 176.979 183.311C177.501 182.28 178.281 181.336 179.325 180.484C179.49 180.349 179.661 180.216 179.839 180.086C180.223 179.812 180.609 179.572 180.995 179.365C183.692 177.919 186.444 178.098 189.189 179.795C189.894 180.231 190.599 180.768 191.303 181.403C191.766 181.82 192.228 182.281 192.689 182.783C193.154 183.29 193.617 183.839 194.08 184.43C194.351 184.776 194.621 185.137 194.891 185.512C194.918 185.55 194.945 185.588 194.973 185.626C196.157 187.286 197.073 188.849 197.716 190.314C199.335 194.008 199.22 197.085 197.307 199.557C196.748 200.278 196.036 200.948 195.169 201.567C194.353 202.149 193.535 202.589 192.717 202.887C189.674 203.995 186.616 203.14 183.56 200.349ZM175.011 203.643C175.935 204.675 176.903 205.585 177.907 206.371C180.002 208.01 182.256 209.105 184.606 209.623C185.072 209.725 185.542 209.805 186.014 209.862C188.608 210.173 191.301 209.794 194.013 208.678C195.495 208.068 196.983 207.239 198.463 206.182C199.894 205.161 201.124 204.063 202.155 202.903C203.948 200.886 205.145 198.681 205.766 196.361C206.455 193.786 206.435 191.071 205.737 188.315C205.165 186.056 204.136 183.769 202.667 181.511C202.465 181.201 202.256 180.892 202.038 180.584C202.011 180.546 201.984 180.508 201.957 180.47C201.252 179.482 200.515 178.573 199.749 177.745C198.066 175.926 196.245 174.498 194.325 173.487C192.659 172.609 190.918 172.045 189.128 171.811C187.701 171.625 186.242 171.648 184.765 171.89C182.717 172.226 180.634 172.982 178.55 174.18C177.881 174.565 177.213 174.995 176.546 175.471C176.528 175.483 176.511 175.496 176.494 175.508C176.232 175.696 175.977 175.886 175.729 176.08C175.608 176.173 175.489 176.268 175.371 176.363C173.793 177.64 172.503 179.025 171.495 180.494C171.157 180.986 170.851 181.488 170.576 181.999C169.878 183.296 169.383 184.648 169.089 186.038C168.069 190.857 169.453 196.14 173.093 201.24C173.35 201.601 173.612 201.951 173.878 202.29C173.89 202.305 173.902 202.32 173.913 202.336C174.119 202.597 174.328 202.853 174.539 203.101C174.695 203.286 174.852 203.466 175.011 203.643ZM170.41 205.711C170.514 205.958 170.614 206.204 170.711 206.449C170.876 206.869 171.03 207.285 171.172 207.697C171.627 209.016 171.964 210.298 172.188 211.542C172.689 214.316 172.63 216.905 172.062 219.316C171.946 219.811 171.808 220.298 171.649 220.778C171.04 222.617 170.123 224.346 168.923 225.968C168.779 226.162 168.632 226.355 168.48 226.546C166.988 228.426 165.108 230.158 162.88 231.748C162.823 231.789 162.766 231.829 162.709 231.869C150.79 240.258 137.821 237.244 128.918 224.768C128.904 224.749 128.891 224.73 128.877 224.711C119.925 212.119 121.491 198.759 133.164 190.349C133.202 190.322 133.24 190.295 133.278 190.268C135.282 188.837 137.356 187.676 139.486 186.866C141.692 186.027 143.957 185.565 146.266 185.571C146.489 185.572 146.712 185.577 146.935 185.586C149.314 185.687 151.737 186.291 154.187 187.498C154.22 187.514 154.254 187.531 154.287 187.547C155.852 188.328 157.428 189.356 159.01 190.655C159.074 190.708 159.139 190.762 159.204 190.816C159.299 190.896 159.395 190.977 159.491 191.059C159.702 191.24 159.914 191.426 160.126 191.617C160.293 191.767 160.46 191.921 160.627 192.077C160.728 192.22 160.767 192.364 160.752 192.493C160.736 192.623 160.667 192.737 160.553 192.818L154.513 197.128C154.285 197.291 154.09 197.258 153.871 197.071C153.836 197.038 153.801 197.006 153.766 196.974C151.555 194.934 149.276 193.698 146.976 193.221L146.972 193.221C144.276 192.663 141.548 193.149 138.861 194.61C138.285 194.922 137.712 195.28 137.141 195.681C137.103 195.708 137.065 195.735 137.027 195.762C129.392 201.211 129.347 210.186 136.057 219.588C136.07 219.607 136.084 219.626 136.097 219.645C143.204 229.567 151.396 231.774 158.846 226.457C158.904 226.416 158.96 226.375 159.017 226.334C159.856 225.722 160.6 225.079 161.25 224.407C161.859 223.778 162.385 223.123 162.829 222.445C163.991 220.67 164.592 218.732 164.639 216.663C164.681 214.812 164.279 212.855 163.441 210.815C163.22 210.276 162.968 209.732 162.686 209.183C162.598 208.986 162.596 208.822 162.658 208.687C162.671 208.659 162.687 208.632 162.705 208.607C162.745 208.552 162.796 208.503 162.858 208.459L169.011 204.067C169.087 204.013 169.177 203.978 169.269 203.969C169.454 203.952 169.651 204.04 169.776 204.295C169.937 204.635 170.091 204.973 170.237 205.308C170.296 205.443 170.354 205.577 170.41 205.711ZM199.72 167.657C200.048 168.337 200.404 169.022 200.788 169.714C201.698 171.351 202.764 173.021 203.98 174.725C204.687 175.715 205.398 176.64 206.115 177.502C206.145 177.538 206.175 177.574 206.205 177.61C206.449 177.901 206.694 178.185 206.939 178.462C210.248 182.197 213.656 184.588 217.099 185.657C217.922 185.912 218.747 186.093 219.573 186.197C222.219 186.533 224.877 186.098 227.518 184.902C228.691 184.37 229.861 183.689 231.026 182.858C231.045 182.844 231.064 182.831 231.083 182.817C232.067 182.111 232.956 181.363 233.751 180.581C235.767 178.596 237.173 176.384 237.969 174.035C238.595 172.19 238.844 170.259 238.719 168.286C238.526 165.253 237.446 162.119 235.482 159.039C235.345 158.824 235.204 158.609 235.058 158.395C234.941 158.222 234.821 158.05 234.698 157.878C234.603 157.744 234.507 157.612 234.41 157.481C233.88 156.767 233.326 156.09 232.749 155.457C231.939 154.568 231.085 153.763 230.193 153.055C229.39 152.417 228.556 151.857 227.698 151.384C227.641 151.353 227.585 151.322 227.528 151.292C226.239 150.602 224.894 150.106 223.511 149.835C222.398 149.616 221.26 149.543 220.106 149.629C217.691 149.809 215.205 150.688 212.729 152.403C212.653 152.455 212.577 152.509 212.501 152.563C212.178 152.794 211.868 153.03 211.57 153.27C211.539 153.296 211.508 153.321 211.477 153.346C211.45 153.368 211.423 153.391 211.396 153.413C211.38 153.426 211.365 153.438 211.35 153.451C211.127 153.638 210.911 153.827 210.703 154.019C210.355 154.34 210.029 154.668 209.723 155.004C209.301 155.468 208.918 155.947 208.575 156.437C206.697 159.125 206.011 162.189 206.442 165.436C206.482 165.732 206.53 166.03 206.588 166.329C206.287 165.814 206.007 165.307 205.748 164.807C203.634 160.731 202.93 157.151 204.144 153.791C204.237 153.532 204.342 153.275 204.459 153.018C205.027 151.768 205.871 150.547 207.018 149.338C207.059 149.294 207.102 149.249 207.145 149.204C207.159 149.189 207.173 149.174 207.188 149.158C207.197 149.149 207.205 149.14 207.214 149.131C207.683 148.642 208.253 148.095 208.892 147.505C209.713 146.745 210.646 145.916 211.619 145.052C211.644 145.03 211.67 145.007 211.695 144.984C213.949 142.984 216.401 140.807 218.146 138.903C218.334 138.683 218.366 138.488 218.204 138.26L214.991 133.759C214.829 133.531 214.536 133.482 214.291 133.742C214.022 134.018 213.737 134.3 213.439 134.588C213.384 134.641 213.329 134.694 213.273 134.748C212.954 135.054 212.621 135.366 212.278 135.682L212.275 135.684C212.254 135.703 212.233 135.723 212.212 135.742C211.012 136.844 209.689 137.995 208.377 139.137C207.221 140.143 206.075 141.141 205.028 142.091C204.422 142.641 203.849 143.176 203.328 143.686C202.989 144.018 202.672 144.34 202.382 144.649C202.334 144.699 202.286 144.75 202.239 144.8C202.224 144.816 202.209 144.832 202.194 144.847C200.941 146.187 199.924 147.568 199.133 148.992C199.112 149.029 199.091 149.067 199.071 149.105C199.048 149.146 199.026 149.187 199.004 149.229C198.635 149.916 198.32 150.612 198.055 151.319C197.123 153.805 196.827 156.411 197.12 159.134C197.413 161.858 198.295 164.7 199.72 167.657ZM186.411 129.518C188.681 127.111 191.565 124.603 193.473 122.943C193.565 122.863 193.656 122.784 193.743 122.708C196.192 120.577 197.653 119.291 198.555 118.368C202.274 114.564 208.384 111.104 216.121 111.615C219.468 111.836 222.445 112.76 225.012 114.107C226.081 113.176 227.198 112.295 228.359 111.466C232.343 108.623 236.788 106.412 241.539 105.095C243.047 102.727 245.027 100.604 247.454 98.8715L253.55 94.5205C254.423 93.8976 255.325 93.3459 256.249 92.8642C258.052 90.8338 260.117 88.9739 262.431 87.3227C266.034 84.7516 269.901 82.8926 273.896 81.7517C275.362 79.5735 277.237 77.6163 279.502 76.0002L285.598 71.6493C287.824 70.061 290.239 68.9356 292.729 68.2538C294.679 65.4791 296.885 63.5946 298.248 62.6222L305.427 57.4986C315.545 50.2779 329.577 52.6228 336.798 62.7406C336.815 62.7656 336.833 62.7907 336.851 62.8158C336.868 62.8394 336.884 62.863 336.901 62.8866L346.689 76.8403L357.069 91.1467C357.103 91.1933 357.136 91.24 357.17 91.2868C364.39 101.405 362.046 115.437 351.928 122.658L345.888 126.968C343.673 128.549 341.27 129.671 338.793 130.354C336.848 133.111 334.653 134.985 333.296 135.954L326.003 141.159C323.684 142.814 321.16 143.966 318.56 144.638C317.838 145.69 317.054 146.711 316.208 147.697C317.412 155.787 314.142 164.243 307.021 169.325L300.867 173.717C294.11 178.539 285.607 179.095 278.553 175.918C277.752 176.58 276.922 177.217 276.064 177.83C270.405 181.868 263.917 184.603 257.026 185.436C253.986 191.668 249.309 196.838 243.805 200.765C238.304 204.692 231.824 207.444 224.802 208.142C221.776 214.613 216.979 219.996 211.243 224.09C205.322 228.315 198.37 231.203 190.899 231.84C187.339 239.554 181.633 245.393 175.66 249.655C165.419 256.964 152.971 260.388 140.206 257.683C127.745 255.042 117.891 247.189 111.011 237.548C104.041 227.782 99.8903 215.84 101.457 203.22C103.059 190.323 110.282 179.651 120.498 172.36C127.069 167.671 136.004 163.435 146.725 163.575C149.882 163.616 152.932 164.032 155.865 164.778C158.182 162.058 160.851 159.644 163.766 157.563C167.316 155.03 171.231 152.98 175.402 151.607C176.597 143.263 180.485 135.742 186.411 129.518ZM294.241 151.418C294.457 151.264 294.512 150.993 294.38 150.772C294.372 150.759 294.364 150.746 294.355 150.734L285.011 137.881C286.327 138.319 287.651 138.54 288.973 138.539C290 138.539 291.025 138.405 292.045 138.134C292.998 137.882 293.946 137.51 294.885 137.016C295.021 136.945 295.156 136.872 295.291 136.795C295.785 136.516 296.277 136.204 296.765 135.857C296.775 135.85 296.785 135.843 296.795 135.836C297.61 135.254 298.339 134.623 298.984 133.949C299.731 133.169 300.366 132.332 300.892 131.449C300.937 131.374 300.981 131.299 301.024 131.223C301.335 130.678 301.605 130.115 301.836 129.538C302.413 128.096 302.74 126.563 302.831 124.98C302.919 123.452 302.787 121.877 302.447 120.29C302.392 120.037 302.333 119.784 302.268 119.531C302.265 119.518 302.262 119.506 302.259 119.494C301.696 117.309 300.744 115.114 299.432 112.999C299.39 112.93 299.347 112.861 299.303 112.793C299.119 112.501 298.928 112.211 298.73 111.923C298.637 111.789 298.544 111.655 298.448 111.522C298.434 111.502 298.419 111.481 298.405 111.461C298.372 111.415 298.338 111.369 298.305 111.323C298.286 111.297 298.268 111.271 298.249 111.246C298.186 111.16 298.123 111.074 298.06 110.989C298.044 110.969 298.029 110.948 298.013 110.927C297.99 110.897 297.967 110.866 297.944 110.836C295.96 108.213 293.69 106.108 291.259 104.656C289.879 103.832 288.447 103.218 286.986 102.84C285.386 102.425 283.75 102.293 282.11 102.476C281.827 102.508 281.544 102.549 281.261 102.599L281.258 102.6C281.206 102.609 281.154 102.618 281.102 102.628C281.011 102.646 280.919 102.664 280.828 102.684C278.937 103.086 277.049 103.918 275.211 105.23C274.653 105.629 274.136 106.049 273.661 106.49C273.583 106.563 273.505 106.636 273.429 106.71C272.578 107.534 271.868 108.425 271.295 109.37C271.281 109.392 271.268 109.414 271.255 109.436C271.228 109.481 271.201 109.527 271.174 109.573C271.114 109.677 271.055 109.781 270.998 109.885C269.945 111.822 269.441 113.967 269.461 116.213L267.013 112.542C267.002 112.526 266.99 112.511 266.977 112.497C266.81 112.308 266.542 112.277 266.33 112.428L260.233 116.779C260.087 116.884 260.014 117.042 260.024 117.203C260.03 117.292 260.061 117.381 260.119 117.462L270.179 131.356L270.18 131.357L272.025 133.905L287.404 155.695C287.419 155.716 287.435 155.735 287.452 155.753C287.62 155.93 287.88 155.957 288.087 155.809L294.241 151.418ZM270.336 150.924C270.645 149.989 270.849 149.044 270.954 148.101C271.188 145.994 270.924 143.891 270.201 141.9C270.174 141.824 270.145 141.748 270.116 141.672C270.087 141.596 270.057 141.519 270.027 141.443C269.824 140.939 269.592 140.443 269.33 139.956C269.225 139.687 268.932 139.639 268.704 139.801L262.892 143.949C262.729 144.065 262.666 144.199 262.682 144.364C262.688 144.429 262.707 144.499 262.737 144.575C262.818 144.764 262.894 144.95 262.965 145.135C264.588 149.375 263.56 152.718 260.131 155.206C260.104 155.226 260.075 155.246 260.047 155.267C260.028 155.28 260.009 155.294 259.99 155.307C259.48 155.667 258.971 155.975 258.463 156.231C257.524 156.705 256.587 156.999 255.653 157.115C253.278 157.409 250.914 156.545 248.54 154.508C248.444 154.426 248.348 154.342 248.253 154.256C247.96 153.993 247.666 153.712 247.373 153.413C246.891 152.923 246.409 152.384 245.926 151.797C245.802 151.647 245.678 151.493 245.554 151.336C245.525 151.299 245.496 151.262 245.467 151.224L266.948 135.895C267.176 135.732 267.265 135.496 267.062 135.211C266.843 134.911 266.622 134.619 266.399 134.333C266.344 134.263 266.289 134.193 266.234 134.124L266.233 134.122C265.49 133.186 264.726 132.325 263.943 131.541C263.829 131.428 263.716 131.316 263.602 131.206C263.526 131.133 263.449 131.06 263.373 130.988C262.606 130.266 261.823 129.616 261.024 129.04C258.982 127.567 256.843 126.577 254.649 126.09C253.846 125.912 253.035 125.801 252.22 125.759C251.646 125.729 251.069 125.733 250.491 125.771C250.164 125.793 249.837 125.825 249.509 125.869C249.493 125.871 249.477 125.873 249.461 125.875C249.388 125.885 249.315 125.895 249.242 125.906C248.891 125.959 248.539 126.025 248.187 126.103C248.101 126.122 248.015 126.142 247.928 126.162C247.688 126.22 247.447 126.283 247.207 126.353C245.295 126.904 243.375 127.829 241.472 129.14C241.38 129.204 241.288 129.268 241.196 129.333C241.177 129.347 241.158 129.36 241.139 129.374C240.377 129.918 239.673 130.488 239.027 131.082C238.703 131.38 238.394 131.684 238.099 131.993C236.841 133.314 235.847 134.737 235.114 136.236C235.067 136.332 235.021 136.428 234.977 136.525C234.564 137.416 234.242 138.333 234.01 139.27C233.138 142.803 233.554 146.622 235.222 150.43C235.433 150.912 235.665 151.395 235.917 151.877C236.468 152.931 237.115 153.981 237.857 155.021C237.952 155.155 238.048 155.287 238.145 155.418C238.271 155.588 238.397 155.755 238.525 155.92C238.644 156.074 238.765 156.225 238.886 156.375C242.616 160.98 247.283 163.605 252.313 163.695C252.969 163.707 253.632 163.676 254.299 163.6C254.404 163.588 254.51 163.575 254.615 163.561C255.614 163.427 256.624 163.194 257.64 162.857C258.431 162.595 259.227 162.27 260.024 161.879C260.761 161.519 261.499 161.103 262.238 160.631C262.586 160.407 262.935 160.171 263.284 159.923C263.303 159.909 263.322 159.895 263.341 159.882C263.361 159.867 263.381 159.853 263.401 159.839C265.225 158.521 266.705 157.08 267.859 155.564C268.32 154.959 268.729 154.341 269.088 153.715C269.122 153.654 269.157 153.594 269.19 153.533C269.27 153.389 269.348 153.244 269.422 153.099C269.791 152.383 270.096 151.656 270.336 150.924ZM256.768 136.452C256.399 136.006 256.009 135.586 255.6 135.195C252.749 132.474 248.988 131.234 245.279 133.358C245.092 133.465 244.905 133.581 244.719 133.705C244.629 133.765 244.539 133.827 244.449 133.891C244.43 133.905 244.411 133.919 244.392 133.932C243.864 134.313 243.395 134.716 242.984 135.138C242.737 135.393 242.51 135.655 242.305 135.924C241.053 137.563 240.577 139.473 240.839 141.629C240.994 142.896 241.404 144.248 242.062 145.68C242.083 145.724 242.103 145.768 242.124 145.812C242.248 146.078 242.381 146.346 242.523 146.617L256.768 136.452ZM292.281 93.9077C292.073 94.0568 292.014 94.3153 292.131 94.5329C292.142 94.5527 292.154 94.5722 292.167 94.5912L302 108.128L312.539 123.137C312.702 123.365 312.995 123.414 313.223 123.252L320.516 118.047C320.687 117.925 320.874 117.705 320.826 117.396L317.445 87.4735L322.17 94.3353L332.425 108.946C332.438 108.964 332.452 108.981 332.466 108.997C332.634 109.18 332.899 109.21 333.108 109.06L339.148 104.75C339.358 104.6 339.416 104.341 339.297 104.122C339.287 104.103 339.275 104.085 339.262 104.067L328.779 89.6184L318.89 75.5204C318.727 75.2924 318.435 75.2435 318.207 75.4061L311.027 80.5297C310.856 80.6516 310.669 80.8713 310.718 81.1805L314.164 111.315L308.991 103.826L299.062 89.671C299.048 89.6513 299.033 89.633 299.017 89.616C298.998 89.5962 298.979 89.5783 298.958 89.5622C298.792 89.4322 298.563 89.4245 298.378 89.5568L292.281 93.9077ZM286.202 133.961C286.238 133.965 286.274 133.969 286.31 133.973C286.985 134.047 287.655 134.026 288.318 133.91C288.584 133.863 288.849 133.801 289.112 133.723C289.556 133.592 289.997 133.417 290.432 133.197C290.838 132.992 291.24 132.748 291.637 132.465C291.765 132.373 291.89 132.28 292.011 132.186C292.505 131.801 292.94 131.393 293.318 130.964C294.068 130.11 294.591 129.172 294.899 128.162C295.456 126.336 295.308 124.276 294.518 122.064C294.382 121.684 294.227 121.299 294.053 120.91C293.513 119.698 292.791 118.446 291.897 117.166C291.843 117.09 291.789 117.013 291.735 116.936L291.733 116.933C291.73 116.93 291.727 116.926 291.725 116.922C291.636 116.798 291.548 116.676 291.459 116.555C291.455 116.549 291.451 116.544 291.447 116.539C291.444 116.534 291.441 116.53 291.437 116.526C291.426 116.51 291.414 116.494 291.402 116.478L291.401 116.476C291.35 116.407 291.3 116.34 291.249 116.272C291.217 116.23 291.186 116.188 291.154 116.146C291.131 116.116 291.108 116.086 291.085 116.055C291.075 116.042 291.065 116.03 291.055 116.017C291.022 115.972 290.988 115.928 290.954 115.884C290.3 115.04 289.638 114.276 288.972 113.597C288.392 113.005 287.808 112.478 287.221 112.016C285.379 110.568 283.511 109.771 281.657 109.696C281.337 109.683 281.017 109.691 280.698 109.721C280.045 109.783 279.394 109.937 278.747 110.186C278.504 110.279 278.261 110.386 278.019 110.507C277.67 110.681 277.323 110.883 276.977 111.114C276.887 111.174 276.796 111.237 276.706 111.301C276.452 111.483 276.211 111.67 275.984 111.864C275.793 112.027 275.611 112.195 275.439 112.367C274.34 113.466 273.639 114.742 273.349 116.178C273.224 116.793 273.175 117.437 273.202 118.109C273.216 118.48 273.254 118.859 273.315 119.246C273.432 119.983 273.632 120.751 273.917 121.547C274.499 123.169 275.434 124.911 276.732 126.762C276.867 126.956 277.003 127.145 277.14 127.331C277.222 127.443 277.305 127.554 277.387 127.664C277.416 127.703 277.446 127.741 277.475 127.78C277.807 128.216 278.142 128.63 278.478 129.021C278.515 129.065 278.553 129.108 278.59 129.151C278.612 129.176 278.634 129.201 278.656 129.225C279.503 130.19 280.36 131.013 281.222 131.69C281.733 132.091 282.246 132.442 282.759 132.74C283.01 132.887 283.262 133.021 283.513 133.142C284.048 133.4 284.582 133.602 285.114 133.746C285.478 133.844 285.84 133.916 286.202 133.961ZM219.518 178.96C221.014 179.674 222.538 179.935 224.052 179.709C224.679 179.616 225.304 179.439 225.925 179.177C226.518 178.926 227.108 178.596 227.691 178.185C227.71 178.172 227.729 178.159 227.748 178.145C228.15 177.858 228.519 177.556 228.854 177.239C230.727 175.467 231.542 173.242 231.278 170.689C231.174 169.69 230.905 168.641 230.469 167.548C230.052 166.503 229.482 165.418 228.759 164.3C228.658 164.144 228.553 163.988 228.446 163.83C228.404 163.768 228.361 163.705 228.317 163.642C228.25 163.545 228.182 163.449 228.112 163.351C228.039 163.249 227.966 163.147 227.892 163.047C227.842 162.979 227.791 162.91 227.741 162.843C227.642 162.711 227.542 162.581 227.443 162.453C227.407 162.407 227.371 162.362 227.335 162.316C227.049 161.955 226.761 161.612 226.47 161.287C226.101 160.874 225.728 160.49 225.352 160.136C225.306 160.092 225.26 160.049 225.213 160.006C225.066 159.87 224.919 159.739 224.771 159.612C223.88 158.849 222.976 158.249 222.065 157.817C221.896 157.736 221.726 157.661 221.555 157.592C221.353 157.51 221.15 157.436 220.947 157.371C220.323 157.169 219.699 157.047 219.076 157.005C219.054 157.003 219.031 157.002 219.009 157.001C218.007 156.942 217.011 157.093 216.032 157.457C216.022 157.461 216.012 157.465 216.002 157.468C215.951 157.488 215.901 157.507 215.85 157.528C215.842 157.531 215.834 157.534 215.826 157.537C215.786 157.554 215.746 157.57 215.706 157.587C215.337 157.743 214.97 157.931 214.607 158.149C214.388 158.28 214.171 158.423 213.955 158.577C213.484 158.914 213.059 159.274 212.68 159.657C211.45 160.902 210.717 162.384 210.494 164.049C210.428 164.545 210.407 165.058 210.432 165.585C210.439 165.735 210.45 165.887 210.465 166.039C210.568 167.127 210.861 168.274 211.346 169.469C211.756 170.479 212.303 171.524 212.99 172.596C213.211 172.941 213.447 173.289 213.697 173.639C215.518 176.19 217.491 177.991 219.518 178.96ZM186.492 188.087C187.033 188.829 187.594 189.57 188.176 190.305C188.205 190.341 188.234 190.378 188.263 190.414C188.804 191.096 189.363 191.772 189.94 192.441C189.873 192.565 189.803 192.683 189.732 192.795C189.62 192.97 189.518 193.109 189.433 193.215L185.817 188.266C185.925 188.229 186.059 188.187 186.221 188.147C186.308 188.125 186.399 188.105 186.492 188.087ZM185.706 188.307C185.7 188.309 185.694 188.312 185.688 188.314C185.607 188.407 185.498 188.545 185.373 188.732C186.065 189.441 186.699 190.183 187.275 190.947C187.303 190.985 187.331 191.022 187.359 191.059C187.943 191.844 188.466 192.652 188.928 193.468C189.083 193.425 189.208 193.382 189.302 193.346L185.706 188.307Z" fill="white"/>
<path d="M344.523 340.825L361.023 364.535C362.382 366.487 363.562 368.548 364.727 370.621C371.339 382.387 386.239 401.259 404.62 402.161C429.79 403.396 394.267 378.218 422.741 353.134C451.214 328.05 448.81 334.992 459.682 316.889C470.553 298.786 404.496 288.115 408.279 310.354C410.105 321.084 404.452 327.776 397.671 331.644C390.285 335.857 381.587 331.59 376.73 324.611L373.824 320.435C368.193 312.344 357.069 310.349 348.978 315.98C340.887 321.61 338.893 332.734 344.523 340.825Z" fill="#F08603"/>
<path d="M476.369 145.45L462.999 119.844C461.899 117.736 460.989 115.542 460.095 113.339C455.024 100.831 442.629 80.2262 424.51 77.0074C399.698 72.5999 431.753 102.068 400.336 123.35C368.92 144.632 372.182 138.05 359.109 154.634C346.036 171.217 410.214 190.154 409.272 167.615C408.818 156.741 415.272 150.817 422.487 147.837C430.347 144.592 438.436 149.924 442.371 157.462L444.726 161.972C449.288 170.71 460.071 174.095 468.809 169.533C477.547 164.97 480.932 154.188 476.369 145.45Z" fill="#12A4FF"/>
<path d="M181.359 350.403L179.958 321.55C179.843 319.175 179.936 316.802 180.049 314.427C180.69 300.945 178.077 277.042 162.977 266.522C142.3 252.117 159.045 292.31 121.599 298.458C84.1544 304.605 89.8756 299.998 71.0538 309.571C52.232 319.144 102.555 363.247 111.151 342.39C115.298 332.328 123.641 329.656 131.441 329.977C139.938 330.326 145.045 338.559 145.457 347.052L145.704 352.134C146.182 361.98 154.551 369.574 164.397 369.096C174.242 368.618 181.836 360.249 181.359 350.403Z" fill="#F08603"/>
<path d="M245.474 246.407C238.56 266.587 257.261 283.818 267.476 289.911C347.957 336.276 360.764 209.13 343.598 201.634C326.431 194.137 322.767 256.447 303.495 260.707C284.223 264.968 330.243 192.361 313.729 186.703C297.214 181.044 295.366 248.527 274.136 250.649C252.905 252.77 297.004 203.727 278.576 195.798C260.148 187.87 254.117 221.182 245.474 246.407Z" fill="#FFF968"/>
<path d="M209.14 416.095C211.155 437.331 235.294 445.326 247.112 446.669C339.548 455.755 298.829 334.626 280.099 334.869C261.369 335.112 283.704 393.396 267.899 405.218C252.094 417.041 264.111 331.922 246.732 333.571C229.353 335.22 255.473 397.469 237.003 408.15C218.533 418.83 238.506 355.974 218.449 356.342C198.391 356.711 206.621 389.55 209.14 416.095Z" fill="#12A4FF"/>
</svg>
