<svg width="497" height="391" viewBox="0 0 497 391" fill="none" xmlns="http://www.w3.org/2000/svg">
<rect x="453.198" y="0.830566" width="434.679" height="545.433" rx="48" transform="rotate(56.0767 453.198 0.830566)" fill="white"/>
<mask id="path-2-outside-1_691_189" maskUnits="userSpaceOnUse" x="86.8389" y="46.8975" width="298" height="234" fill="black">
<rect fill="white" x="86.8389" y="46.8975" width="298" height="234"/>
<path d="M109.935 219.395L123.833 238.629L137.829 258.482C137.992 258.71 138.285 258.759 138.513 258.596L144.78 254.123C145.008 253.961 145.057 253.668 144.895 253.44L130.671 233.75L120.342 219.277L138.917 206.021L149.303 220.453L163.299 240.306C163.461 240.534 163.754 240.583 163.982 240.42L170.25 235.947C170.478 235.785 170.527 235.492 170.364 235.264L156.083 215.614L142.469 196.177C142.307 195.949 142.014 195.9 141.786 196.062L110.049 218.711C109.821 218.874 109.772 219.167 109.935 219.395Z"/>
<path d="M189.719 223.085C199.007 216.456 199.8 206.602 193.213 197.372C186.585 188.085 177.09 185.745 167.802 192.373C158.572 198.961 157.721 208.855 164.349 218.143C170.977 227.43 180.489 229.672 189.719 223.085ZM186.426 218.469C181.412 222.048 176.343 220.247 171.301 213.182C166.299 206.173 166.066 200.664 171.096 196.988C176.053 193.451 181.228 195.52 186.229 202.528C191.271 209.593 191.44 214.891 186.426 218.469Z"/>
<path d="M204.928 167.34L205.653 183.42L201.494 186.389L193.841 175.424C193.679 175.196 193.386 175.147 193.158 175.31L187.004 179.702C186.776 179.864 186.727 180.157 186.89 180.385L197.007 194.321L207.262 208.931C207.425 209.159 207.717 209.208 207.945 209.046L214.099 204.654C214.327 204.491 214.376 204.198 214.213 203.971L204.991 191.289L209.207 188.28L219.377 192.89L225.69 195.952C225.967 196.098 226.235 195.993 226.406 195.871L233.472 190.829C233.757 190.625 233.765 190.275 233.431 190.17L211.944 180.908L211.757 162.811C211.724 162.404 211.448 162.257 211.163 162.461L205.18 166.73C205.009 166.852 204.879 167.031 204.928 167.34Z"/>
<path d="M248.14 181.392C257.428 174.764 258.221 164.91 251.634 155.68C245.006 146.392 235.51 144.053 226.223 150.681C216.992 157.268 216.142 167.163 222.77 176.451C229.398 185.738 238.91 187.98 248.14 181.392ZM244.846 176.777C239.832 180.356 234.764 178.555 229.721 171.49C224.72 164.481 224.486 158.972 229.517 155.296C234.474 151.759 239.648 153.828 244.65 160.836C249.692 167.901 249.861 173.199 244.846 176.777Z"/>
<path d="M260.402 126.461C256.471 129.267 254.614 133.172 254.653 137.444L252.205 133.773C252.042 133.545 251.749 133.496 251.521 133.659L245.425 138.01C245.197 138.172 245.148 138.465 245.31 138.693L257.217 155.136L272.595 176.926C272.758 177.154 273.051 177.202 273.279 177.04L279.432 172.648C279.66 172.486 279.709 172.193 279.547 171.965L270.202 159.112C274.148 160.424 278.168 159.791 281.986 157.066C289.849 151.455 289.699 141.242 283.64 132.753C277.54 124.206 268.493 120.687 260.402 126.461ZM276.828 153.695C272.156 157.03 266.786 154.928 261.923 147.993C257.141 141.172 257.282 135.826 261.897 132.532C266.797 129.035 272.077 131.373 276.916 138.153C281.43 144.478 281.785 150.158 276.828 153.695Z"/>
<path d="M308.96 125.519L285.751 109.747C285.531 109.56 285.279 109.568 285.051 109.73L277.473 115.138C277.245 115.301 277.196 115.594 277.359 115.822L287.76 130.156L297.731 144.368C297.893 144.596 298.186 144.645 298.414 144.482L303.086 141.148C303.314 140.985 303.363 140.692 303.201 140.464L293.71 127.286L289.164 121.157L287.261 118.731L311.104 134.91C311.324 135.097 311.576 135.089 311.804 134.927L315.964 131.958C316.191 131.795 316.281 131.56 316.175 131.291L308.684 104.044L310.148 106.095L314.507 112.444L323.941 125.663C324.103 125.891 324.396 125.94 324.624 125.777L330.379 121.67C330.607 121.508 330.656 121.215 330.493 120.987L320.352 106.897L310.121 92.4408C309.959 92.2129 309.666 92.1639 309.438 92.3266L301.803 97.7754C301.575 97.938 301.485 98.174 301.591 98.4426L308.96 125.519Z"/>
<path d="M336.689 105.902L331.517 98.413L321.587 84.258C321.425 84.0301 321.132 83.9812 320.904 84.1438L314.807 88.4947C314.579 88.6574 314.53 88.9503 314.693 89.1782L324.525 102.715L335.065 117.724C335.228 117.952 335.52 118.001 335.748 117.839L343.042 112.634C343.213 112.512 343.4 112.292 343.351 111.983L339.97 82.0605L344.695 88.9223L354.95 103.533C355.113 103.761 355.406 103.81 355.634 103.647L361.674 99.337C361.901 99.1744 361.95 98.8815 361.788 98.6536L351.305 84.2054L341.416 70.1074C341.253 69.8795 340.96 69.8305 340.732 69.9932L333.553 75.1167C333.382 75.2387 333.195 75.4583 333.243 75.7675L336.689 105.902Z"/>
</mask>
<path d="M109.935 219.395L123.833 238.629L137.829 258.482C137.992 258.71 138.285 258.759 138.513 258.596L144.78 254.123C145.008 253.961 145.057 253.668 144.895 253.44L130.671 233.75L120.342 219.277L138.917 206.021L149.303 220.453L163.299 240.306C163.461 240.534 163.754 240.583 163.982 240.42L170.25 235.947C170.478 235.785 170.527 235.492 170.364 235.264L156.083 215.614L142.469 196.177C142.307 195.949 142.014 195.9 141.786 196.062L110.049 218.711C109.821 218.874 109.772 219.167 109.935 219.395Z" fill="#021F69"/>
<path d="M189.719 223.085C199.007 216.456 199.8 206.602 193.213 197.372C186.585 188.085 177.09 185.745 167.802 192.373C158.572 198.961 157.721 208.855 164.349 218.143C170.977 227.43 180.489 229.672 189.719 223.085ZM186.426 218.469C181.412 222.048 176.343 220.247 171.301 213.182C166.299 206.173 166.066 200.664 171.096 196.988C176.053 193.451 181.228 195.52 186.229 202.528C191.271 209.593 191.44 214.891 186.426 218.469Z" fill="#021F69"/>
<path d="M204.928 167.34L205.653 183.42L201.494 186.389L193.841 175.424C193.679 175.196 193.386 175.147 193.158 175.31L187.004 179.702C186.776 179.864 186.727 180.157 186.89 180.385L197.007 194.321L207.262 208.931C207.425 209.159 207.717 209.208 207.945 209.046L214.099 204.654C214.327 204.491 214.376 204.198 214.213 203.971L204.991 191.289L209.207 188.28L219.377 192.89L225.69 195.952C225.967 196.098 226.235 195.993 226.406 195.871L233.472 190.829C233.757 190.625 233.765 190.275 233.431 190.17L211.944 180.908L211.757 162.811C211.724 162.404 211.448 162.257 211.163 162.461L205.18 166.73C205.009 166.852 204.879 167.031 204.928 167.34Z" fill="#021F69"/>
<path d="M248.14 181.392C257.428 174.764 258.221 164.91 251.634 155.68C245.006 146.392 235.51 144.053 226.223 150.681C216.992 157.268 216.142 167.163 222.77 176.451C229.398 185.738 238.91 187.98 248.14 181.392ZM244.846 176.777C239.832 180.356 234.764 178.555 229.721 171.49C224.72 164.481 224.486 158.972 229.517 155.296C234.474 151.759 239.648 153.828 244.65 160.836C249.692 167.901 249.861 173.199 244.846 176.777Z" fill="#021F69"/>
<path d="M260.402 126.461C256.471 129.267 254.614 133.172 254.653 137.444L252.205 133.773C252.042 133.545 251.749 133.496 251.521 133.659L245.425 138.01C245.197 138.172 245.148 138.465 245.31 138.693L257.217 155.136L272.595 176.926C272.758 177.154 273.051 177.202 273.279 177.04L279.432 172.648C279.66 172.486 279.709 172.193 279.547 171.965L270.202 159.112C274.148 160.424 278.168 159.791 281.986 157.066C289.849 151.455 289.699 141.242 283.64 132.753C277.54 124.206 268.493 120.687 260.402 126.461ZM276.828 153.695C272.156 157.03 266.786 154.928 261.923 147.993C257.141 141.172 257.282 135.826 261.897 132.532C266.797 129.035 272.077 131.373 276.916 138.153C281.43 144.478 281.785 150.158 276.828 153.695Z" fill="#021F69"/>
<path d="M308.96 125.519L285.751 109.747C285.531 109.56 285.279 109.568 285.051 109.73L277.473 115.138C277.245 115.301 277.196 115.594 277.359 115.822L287.76 130.156L297.731 144.368C297.893 144.596 298.186 144.645 298.414 144.482L303.086 141.148C303.314 140.985 303.363 140.692 303.201 140.464L293.71 127.286L289.164 121.157L287.261 118.731L311.104 134.91C311.324 135.097 311.576 135.089 311.804 134.927L315.964 131.958C316.191 131.795 316.281 131.56 316.175 131.291L308.684 104.044L310.148 106.095L314.507 112.444L323.941 125.663C324.103 125.891 324.396 125.94 324.624 125.777L330.379 121.67C330.607 121.508 330.656 121.215 330.493 120.987L320.352 106.897L310.121 92.4408C309.959 92.2129 309.666 92.1639 309.438 92.3266L301.803 97.7754C301.575 97.938 301.485 98.174 301.591 98.4426L308.96 125.519Z" fill="#021F69"/>
<path d="M336.689 105.902L331.517 98.413L321.587 84.258C321.425 84.0301 321.132 83.9812 320.904 84.1438L314.807 88.4947C314.579 88.6574 314.53 88.9503 314.693 89.1782L324.525 102.715L335.065 117.724C335.228 117.952 335.52 118.001 335.748 117.839L343.042 112.634C343.213 112.512 343.4 112.292 343.351 111.983L339.97 82.0605L344.695 88.9223L354.95 103.533C355.113 103.761 355.406 103.81 355.634 103.647L361.674 99.337C361.901 99.1744 361.95 98.8815 361.788 98.6536L351.305 84.2054L341.416 70.1074C341.253 69.8795 340.96 69.8305 340.732 69.9932L333.553 75.1167C333.382 75.2387 333.195 75.4583 333.243 75.7675L336.689 105.902Z" fill="#021F69"/>
<path d="M109.935 219.395L123.833 238.629L137.829 258.482C137.992 258.71 138.285 258.759 138.513 258.596L144.78 254.123C145.008 253.961 145.057 253.668 144.895 253.44L130.671 233.75L120.342 219.277L138.917 206.021L149.303 220.453L163.299 240.306C163.461 240.534 163.754 240.583 163.982 240.42L170.25 235.947C170.478 235.785 170.527 235.492 170.364 235.264L156.083 215.614L142.469 196.177C142.307 195.949 142.014 195.9 141.786 196.062L110.049 218.711C109.821 218.874 109.772 219.167 109.935 219.395Z" stroke="white" stroke-width="44" stroke-linejoin="round" mask="url(#path-2-outside-1_691_189)"/>
<path d="M189.719 223.085C199.007 216.456 199.8 206.602 193.213 197.372C186.585 188.085 177.09 185.745 167.802 192.373C158.572 198.961 157.721 208.855 164.349 218.143C170.977 227.43 180.489 229.672 189.719 223.085ZM186.426 218.469C181.412 222.048 176.343 220.247 171.301 213.182C166.299 206.173 166.066 200.664 171.096 196.988C176.053 193.451 181.228 195.52 186.229 202.528C191.271 209.593 191.44 214.891 186.426 218.469Z" stroke="white" stroke-width="44" stroke-linejoin="round" mask="url(#path-2-outside-1_691_189)"/>
<path d="M204.928 167.34L205.653 183.42L201.494 186.389L193.841 175.424C193.679 175.196 193.386 175.147 193.158 175.31L187.004 179.702C186.776 179.864 186.727 180.157 186.89 180.385L197.007 194.321L207.262 208.931C207.425 209.159 207.717 209.208 207.945 209.046L214.099 204.654C214.327 204.491 214.376 204.198 214.213 203.971L204.991 191.289L209.207 188.28L219.377 192.89L225.69 195.952C225.967 196.098 226.235 195.993 226.406 195.871L233.472 190.829C233.757 190.625 233.765 190.275 233.431 190.17L211.944 180.908L211.757 162.811C211.724 162.404 211.448 162.257 211.163 162.461L205.18 166.73C205.009 166.852 204.879 167.031 204.928 167.34Z" stroke="white" stroke-width="44" stroke-linejoin="round" mask="url(#path-2-outside-1_691_189)"/>
<path d="M248.14 181.392C257.428 174.764 258.221 164.91 251.634 155.68C245.006 146.392 235.51 144.053 226.223 150.681C216.992 157.268 216.142 167.163 222.77 176.451C229.398 185.738 238.91 187.98 248.14 181.392ZM244.846 176.777C239.832 180.356 234.764 178.555 229.721 171.49C224.72 164.481 224.486 158.972 229.517 155.296C234.474 151.759 239.648 153.828 244.65 160.836C249.692 167.901 249.861 173.199 244.846 176.777Z" stroke="white" stroke-width="44" stroke-linejoin="round" mask="url(#path-2-outside-1_691_189)"/>
<path d="M260.402 126.461C256.471 129.267 254.614 133.172 254.653 137.444L252.205 133.773C252.042 133.545 251.749 133.496 251.521 133.659L245.425 138.01C245.197 138.172 245.148 138.465 245.31 138.693L257.217 155.136L272.595 176.926C272.758 177.154 273.051 177.202 273.279 177.04L279.432 172.648C279.66 172.486 279.709 172.193 279.547 171.965L270.202 159.112C274.148 160.424 278.168 159.791 281.986 157.066C289.849 151.455 289.699 141.242 283.64 132.753C277.54 124.206 268.493 120.687 260.402 126.461ZM276.828 153.695C272.156 157.03 266.786 154.928 261.923 147.993C257.141 141.172 257.282 135.826 261.897 132.532C266.797 129.035 272.077 131.373 276.916 138.153C281.43 144.478 281.785 150.158 276.828 153.695Z" stroke="white" stroke-width="44" stroke-linejoin="round" mask="url(#path-2-outside-1_691_189)"/>
<path d="M308.96 125.519L285.751 109.747C285.531 109.56 285.279 109.568 285.051 109.73L277.473 115.138C277.245 115.301 277.196 115.594 277.359 115.822L287.76 130.156L297.731 144.368C297.893 144.596 298.186 144.645 298.414 144.482L303.086 141.148C303.314 140.985 303.363 140.692 303.201 140.464L293.71 127.286L289.164 121.157L287.261 118.731L311.104 134.91C311.324 135.097 311.576 135.089 311.804 134.927L315.964 131.958C316.191 131.795 316.281 131.56 316.175 131.291L308.684 104.044L310.148 106.095L314.507 112.444L323.941 125.663C324.103 125.891 324.396 125.94 324.624 125.777L330.379 121.67C330.607 121.508 330.656 121.215 330.493 120.987L320.352 106.897L310.121 92.4408C309.959 92.2129 309.666 92.1639 309.438 92.3266L301.803 97.7754C301.575 97.938 301.485 98.174 301.591 98.4426L308.96 125.519Z" stroke="white" stroke-width="44" stroke-linejoin="round" mask="url(#path-2-outside-1_691_189)"/>
<path d="M336.689 105.902L331.517 98.413L321.587 84.258C321.425 84.0301 321.132 83.9812 320.904 84.1438L314.807 88.4947C314.579 88.6574 314.53 88.9503 314.693 89.1782L324.525 102.715L335.065 117.724C335.228 117.952 335.52 118.001 335.748 117.839L343.042 112.634C343.213 112.512 343.4 112.292 343.351 111.983L339.97 82.0605L344.695 88.9223L354.95 103.533C355.113 103.761 355.406 103.81 355.634 103.647L361.674 99.337C361.901 99.1744 361.95 98.8815 361.788 98.6536L351.305 84.2054L341.416 70.1074C341.253 69.8795 340.96 69.8305 340.732 69.9932L333.553 75.1167C333.382 75.2387 333.195 75.4583 333.243 75.7675L336.689 105.902Z" stroke="white" stroke-width="44" stroke-linejoin="round" mask="url(#path-2-outside-1_691_189)"/>
<path d="M345.129 341.655L361.629 365.366C362.987 367.317 364.168 369.378 365.332 371.451C371.945 383.218 386.845 402.09 405.226 402.992C430.396 404.227 394.873 379.048 423.346 353.965C451.82 328.881 449.416 335.823 460.288 317.719C471.159 299.616 405.102 288.946 408.885 311.185C410.711 321.914 405.058 328.606 398.277 332.475C390.891 336.688 382.193 332.421 377.336 325.441L374.429 321.265C368.799 313.174 357.675 311.18 349.584 316.81C341.493 322.441 339.499 333.564 345.129 341.655Z" fill="#F08603"/>
<path d="M476.975 146.281L463.605 120.674C462.505 118.567 461.595 116.373 460.701 114.169C455.63 101.661 443.235 81.0567 425.116 77.838C400.304 73.4304 432.358 102.898 400.942 124.181C369.526 145.463 372.788 138.881 359.715 155.464C346.642 172.047 410.819 190.985 409.878 168.446C409.424 157.571 415.877 151.648 423.093 148.668C430.953 145.422 439.041 150.755 442.977 158.293L445.332 162.802C449.894 171.541 460.676 174.926 469.414 170.363C478.152 165.801 481.537 155.019 476.975 146.281Z" fill="#12A4FF"/>
<path d="M181.964 351.233L180.564 322.381C180.449 320.006 180.542 317.633 180.655 315.258C181.296 301.776 178.683 277.873 163.583 267.353C142.906 252.948 159.65 293.141 122.205 299.288C84.7602 305.436 90.4815 300.828 71.6597 310.402C52.8378 319.975 103.161 364.078 111.757 343.221C115.904 333.159 124.247 330.487 132.047 330.807C140.544 331.156 145.651 339.389 146.063 347.883L146.31 352.964C146.788 362.81 155.157 370.404 165.002 369.926C174.848 369.448 182.442 361.079 181.964 351.233Z" fill="#F08603"/>
<path d="M246.08 247.238C239.166 267.418 257.867 284.649 268.081 290.742C348.563 337.107 361.37 209.96 344.203 202.464C327.037 194.968 323.373 257.278 304.101 261.538C284.829 265.798 330.849 193.191 314.335 187.533C297.82 181.875 295.972 249.358 274.742 251.479C253.511 253.601 297.609 204.557 279.182 196.629C260.754 188.7 254.722 222.013 246.08 247.238Z" fill="#FFF968"/>
<path d="M509.562 277.995C530.871 277.027 540.044 253.31 541.966 241.572C555.586 149.695 432.602 184.408 431.923 203.128C431.245 221.847 490.557 202.405 501.588 218.772C512.619 235.139 428.194 218.952 428.986 236.391C429.778 253.83 493.237 230.802 502.997 249.775C512.756 268.748 450.957 245.708 450.339 265.759C449.721 285.811 482.925 279.205 509.562 277.995Z" fill="#FFF968"/>
<path d="M209.746 416.925C211.761 438.161 235.9 446.157 247.718 447.5C340.154 456.585 299.435 335.457 280.705 335.699C261.975 335.942 284.31 394.226 268.505 406.049C252.7 417.872 264.717 332.752 247.338 334.401C229.958 336.05 256.079 398.3 237.609 408.981C219.138 419.661 239.112 356.804 219.055 357.173C198.997 357.542 207.227 390.38 209.746 416.925Z" fill="#12A4FF"/>
</svg>
