<svg width="1155" height="902" viewBox="0 0 1155 902" fill="none" xmlns="http://www.w3.org/2000/svg">
<path d="M1117.09 150.521C1125.71 146.569 1133.36 146.043 1139.14 150.646C1168.88 174.287 1140.49 233.509 1093.39 278.721C1071.44 299.791 1079.74 299.002 1096.09 297.446C1114.83 295.664 1144.15 292.876 1150.65 320.817C1162.83 373.141 1146.76 432.08 1071.73 441.751C1032.36 446.826 1019.09 416.775 1006.25 387.71C994.622 361.379 983.35 335.857 953.358 337.986C937.918 339.082 918.407 339.481 898.523 338.605C909.01 357.41 923.442 371.698 935.552 383.688C959.264 407.165 974.076 421.83 932.948 444.336C890.522 467.553 837.164 461.583 791.849 447.244C792.042 466.955 792.537 487.069 793.031 507.16L793.031 507.162L793.031 507.166C796.508 648.543 799.959 788.833 698.195 780.413C635.598 775.234 646.943 675.832 657.075 587.065C666.762 502.186 675.34 427.031 617.103 453.272C555.793 480.898 558.01 599.023 560.039 707.099C561.952 809.044 563.697 902.048 511.799 901.72C457.568 901.377 463.196 769.672 468.392 648.083C473.441 529.956 478.081 421.375 427.027 452.069C376.692 482.332 374.448 584.979 372.34 681.375C370.11 783.388 368.033 878.402 309.273 873.219C264.417 869.263 210.456 749.276 195.171 611.75C184.376 618.719 173.797 626.74 163.126 634.832C151.178 643.891 139.114 653.038 126.503 660.894C123.552 662.733 120.377 663.523 116.968 663.03C82.8936 658.095 78.0837 598.767 94.3213 541.863C101.888 515.345 95.7496 519.753 83.6537 528.438C69.7936 538.39 48.1121 553.957 30.2666 535.049C-3.15298 499.64 -17.4806 446.157 36.8496 404.33C65.3561 382.384 89.4663 399.853 112.787 416.749C133.912 432.055 154.39 446.892 176.9 431.532C184.828 426.122 194.397 420.098 204.765 414.145C239.424 272.736 344.644 165.021 579.274 212.314C589.284 214.491 600.696 217.619 612.917 221.751C626.137 219.653 640.093 221.192 653.262 226.964L679.91 238.644C706.732 250.4 739.405 247.148 755.167 222.467C773.502 193.755 782.709 155.304 751.058 119.089C690.848 50.1984 941.903 -52.8779 942.668 32.7645C943.1 81.0315 941.256 92.853 931.453 120.308C940.622 124.369 950.823 131.414 962.257 142.057C1003.59 180.524 1065.77 174.063 1117.09 150.521Z" fill="#EEFFFF"/>
</svg>
