<svg width="198" height="295" viewBox="0 0 198 295" fill="none" xmlns="http://www.w3.org/2000/svg">
<path d="M147.997 287.117C148.469 289.408 148.171 291.276 146.743 292.412C139.409 298.249 126.747 288.138 118.49 274.304C114.643 267.858 114.372 269.897 113.838 273.916C113.227 278.521 112.27 285.724 105.192 285.736C91.9365 285.76 78.6577 278.626 80.4961 260.05C81.4606 250.303 89.4219 248.78 97.1222 247.307C104.098 245.972 110.86 244.678 112.012 237.349C112.605 233.576 113.592 228.864 114.906 224.132C109.803 225.609 105.567 228.286 102.012 230.532C95.052 234.931 90.7043 237.678 87.5754 226.541C84.3478 215.053 88.7441 202.555 94.7061 192.456C89.9562 191.409 85.0931 190.412 80.2352 189.416L80.2337 189.415C46.0505 182.406 12.1302 175.451 19.8014 151.452C24.5201 136.69 47.7891 144.933 68.5686 152.295C88.4378 159.334 106.031 165.566 102.953 150.109C99.7137 133.836 71.1907 127.814 45.0942 122.304C20.478 117.107 -1.97906 112.366 0.97973 99.9068C4.07152 86.8874 35.4239 95.5489 64.3686 103.545C92.4889 111.314 118.337 118.455 113.79 104.477C109.307 90.696 84.7532 84.4605 61.6943 78.6047C37.2917 72.4077 14.5635 66.636 19.0701 52.7965C22.5104 42.2314 54.3523 35.9162 88.2649 39.8726C87.1884 36.8906 85.8469 33.902 84.4937 30.8874C82.9786 27.5122 81.4488 24.1043 80.2599 20.6363C79.9816 19.8247 79.9678 19.0175 80.2756 18.2254C83.3528 10.3069 97.8835 12.4426 110.663 19.5041C116.619 22.7949 115.9 21.0744 114.483 17.6844C112.86 13.7999 110.32 7.72329 115.856 4.48205C126.224 -1.58793 139.877 -2.06482 146.919 13.3184C150.613 21.3898 145.075 26.2171 139.719 30.8863C134.867 35.116 130.163 39.216 132.607 45.4803C133.468 47.6866 134.385 50.3215 135.241 53.1444C167.316 69.3241 187.374 100.599 162.984 154.385C161.906 156.67 160.52 159.241 158.849 161.95C158.62 165.244 157.475 168.514 155.357 171.36L151.07 177.119C146.755 182.915 145.724 190.951 150.783 196.11C156.669 202.111 165.402 206.459 175.865 200.859C195.769 190.205 206.62 256.285 185.987 251.716C174.359 249.142 171.619 248.042 165.562 244.162C164.077 246.141 161.817 248.203 158.624 250.361C147.082 258.163 145.185 273.473 147.997 287.117Z" fill="#EEFFFF"/>
</svg>
