<svg width="320" height="568" viewBox="0 0 320 568" fill="none" xmlns="http://www.w3.org/2000/svg">
<path d="M40.1592 147.28L40.2392 160.84L40.1592 174.72C40.1592 174.88 40.2792 175 40.4392 175H44.8392C44.9992 175 45.1192 174.88 45.1192 174.72L45.0392 160.84V150.68H58.0792L58.1192 160.84L58.0392 174.72C58.0392 174.88 58.1592 175 58.3192 175H62.7192C62.8792 175 62.9992 174.88 62.9992 174.72L62.8792 160.84L62.9992 147.28C62.9992 147.12 62.8792 147 62.7192 147H40.4392C40.2792 147 40.1592 147.12 40.1592 147.28ZM76.1248 172.24C72.6848 172.24 70.8848 170.04 70.6848 165.52H85.7648C85.9248 165.52 86.0448 165.44 86.0448 165.24C85.9648 158.2 82.3248 153.92 75.9248 153.92C69.6448 153.92 65.8848 158.28 65.8848 164.76C65.8848 171.04 69.4448 175.48 76.0848 175.48C81.6448 175.48 85.0048 172.28 85.5248 168.2C85.5648 168.04 85.4448 167.92 85.2848 167.92H81.2048C81.0448 167.92 80.9648 168 80.9248 168.16C80.3248 170.92 78.6848 172.24 76.1248 172.24ZM75.9648 157.12C79.1248 157.12 80.6448 159.6 80.8448 162.4H70.8448C71.3248 158.96 73.0048 157.12 75.9648 157.12ZM99.787 154C97.027 154 94.867 155.2 93.467 157.2L93.547 154.68C93.547 154.52 93.427 154.4 93.267 154.4H88.987C88.827 154.4 88.707 154.52 88.707 154.68L88.787 166.28L88.707 181.52C88.707 181.68 88.827 181.8 88.987 181.8H93.307C93.467 181.8 93.587 181.68 93.587 181.52L93.507 172.44C94.907 174.36 96.987 175.4 99.667 175.4C105.187 175.4 108.507 170.6 108.507 164.64C108.507 158.64 105.467 154 99.787 154ZM98.387 172.12C95.107 172.12 93.307 169.36 93.347 164.52C93.387 159.76 95.227 157.32 98.467 157.32C101.907 157.32 103.587 160.16 103.587 164.92C103.587 169.36 101.867 172.12 98.387 172.12ZM121.161 172.24C117.721 172.24 115.921 170.04 115.721 165.52H130.801C130.961 165.52 131.081 165.44 131.081 165.24C131.001 158.2 127.361 153.92 120.961 153.92C114.681 153.92 110.921 158.28 110.921 164.76C110.921 171.04 114.481 175.48 121.121 175.48C126.681 175.48 130.041 172.28 130.561 168.2C130.601 168.04 130.481 167.92 130.321 167.92H126.241C126.081 167.92 126.001 168 125.961 168.16C125.361 170.92 123.721 172.24 121.161 172.24ZM121.001 157.12C124.161 157.12 125.681 159.6 125.881 162.4H115.881C116.361 158.96 118.041 157.12 121.001 157.12ZM146.903 163.96C149.503 163.36 151.143 161.96 151.143 159.48C151.143 156 148.183 154.4 142.943 154.4H134.023C133.863 154.4 133.743 154.52 133.743 154.68L133.823 164.52L133.743 174.72C133.743 174.88 133.863 175 134.023 175H143.023C146.263 175 151.743 174.28 151.743 169.2C151.743 166.48 150.343 164.76 146.903 164V163.96ZM142.863 157.6C144.943 157.6 146.343 158.44 146.343 160.12C146.343 161.88 145.023 162.68 142.903 162.68H138.463V157.6H142.863ZM138.463 165.8H142.903C145.103 165.8 146.903 166.72 146.903 168.8C146.903 170.88 145.303 171.8 142.903 171.8H138.503L138.463 165.8ZM164.087 172.24C160.647 172.24 158.847 170.04 158.647 165.52H173.727C173.887 165.52 174.007 165.44 174.007 165.24C173.927 158.2 170.287 153.92 163.887 153.92C157.607 153.92 153.847 158.28 153.847 164.76C153.847 171.04 157.407 175.48 164.047 175.48C169.607 175.48 172.967 172.28 173.487 168.2C173.527 168.04 173.407 167.92 173.247 167.92H169.167C169.007 167.92 168.927 168 168.887 168.16C168.287 170.92 166.647 172.24 164.087 172.24ZM163.927 157.12C167.087 157.12 168.607 159.6 168.807 162.4H158.807C159.287 158.96 160.967 157.12 163.927 157.12ZM187.75 154C184.99 154 182.83 155.2 181.43 157.2L181.51 154.68C181.51 154.52 181.39 154.4 181.23 154.4H176.95C176.79 154.4 176.67 154.52 176.67 154.68L176.75 166.28L176.67 181.52C176.67 181.68 176.79 181.8 176.95 181.8H181.27C181.43 181.8 181.55 181.68 181.55 181.52L181.47 172.44C182.87 174.36 184.95 175.4 187.63 175.4C193.15 175.4 196.47 170.6 196.47 164.64C196.47 158.64 193.43 154 187.75 154ZM186.35 172.12C183.07 172.12 181.27 169.36 181.31 164.52C181.35 159.76 183.19 157.32 186.43 157.32C189.87 157.32 191.55 160.16 191.55 164.92C191.55 169.36 189.83 172.12 186.35 172.12ZM212.688 162.44H203.968L204.048 154.68C204.048 154.52 203.928 154.4 203.768 154.4H199.448C199.288 154.4 199.168 154.52 199.168 154.68L199.248 164.52L199.168 174.72C199.168 174.88 199.288 175 199.448 175H203.768C203.928 175 204.048 174.88 204.048 174.72L203.968 165.88H212.688L212.648 174.72C212.648 174.88 212.768 175 212.928 175H217.248C217.408 175 217.528 174.88 217.528 174.72L217.448 164.52L217.528 154.68C217.528 154.52 217.408 154.4 217.248 154.4H212.928C212.768 154.4 212.648 154.52 212.648 154.68L212.688 162.44ZM225.409 169.76L225.489 164.56L225.569 154.68C225.569 154.52 225.449 154.4 225.289 154.4H221.009C220.849 154.4 220.729 154.52 220.729 154.68L220.809 164.24L220.729 174.72C220.729 174.88 220.849 175 221.009 175H226.129C226.249 175 226.409 174.96 226.489 174.8L234.849 159.76L234.769 164.52L234.689 174.72C234.689 174.88 234.809 175 234.969 175H239.209C239.369 175 239.489 174.88 239.489 174.72L239.409 164.52L239.489 154.68C239.489 154.52 239.369 154.4 239.209 154.4H234.169C234.049 154.4 233.889 154.44 233.809 154.6L225.409 169.76ZM241.921 154.68V157.56C241.921 157.72 242.041 157.84 242.201 157.84H248.881L248.921 164.52L248.841 174.72C248.841 174.88 248.961 175 249.121 175H253.441C253.601 175 253.721 174.88 253.721 174.72L253.641 164.52L253.681 157.84H260.361C260.521 157.84 260.641 157.72 260.641 157.56V154.68C260.641 154.52 260.521 154.4 260.361 154.4H242.201C242.041 154.4 241.921 154.52 241.921 154.68ZM271.619 172.24C268.179 172.24 266.379 170.04 266.179 165.52H281.259C281.419 165.52 281.539 165.44 281.539 165.24C281.459 158.2 277.819 153.92 271.419 153.92C265.139 153.92 261.379 158.28 261.379 164.76C261.379 171.04 264.939 175.48 271.579 175.48C277.139 175.48 280.499 172.28 281.019 168.2C281.059 168.04 280.939 167.92 280.779 167.92H276.699C276.539 167.92 276.459 168 276.419 168.16C275.819 170.92 274.179 172.24 271.619 172.24ZM271.459 157.12C274.619 157.12 276.139 159.6 276.339 162.4H266.339C266.819 158.96 268.499 157.12 271.459 157.12ZM120.984 192.92C115.544 192.92 112.104 195.92 111.704 200.36C111.704 200.52 111.824 200.6 111.984 200.6H115.904C116.064 200.6 116.144 200.52 116.184 200.32C116.664 197.64 118.344 196.2 120.864 196.2C123.704 196.2 125.344 198.08 125.744 201.72H118.904C118.744 201.72 118.624 201.84 118.624 202V204.56C118.624 204.72 118.744 204.84 118.904 204.84H125.824C125.584 209.12 123.904 211.24 120.824 211.24C117.944 211.24 116.224 209.52 115.984 206.48C115.944 206.28 115.824 206.2 115.664 206.2H111.664C111.504 206.2 111.384 206.32 111.424 206.48C111.824 211.12 115.384 214.48 120.744 214.48C127.104 214.48 130.824 210.28 130.824 203.76C130.824 197.24 127.264 192.92 120.984 192.92ZM146.228 193.6L141.228 201.32H138.308L138.388 193.68C138.388 193.52 138.268 193.4 138.108 193.4H133.788C133.628 193.4 133.508 193.52 133.508 193.68L133.588 203.52L133.508 213.72C133.508 213.88 133.628 214 133.788 214H138.108C138.268 214 138.388 213.88 138.388 213.72L138.308 204.76H141.268L144.468 210.28L146.388 213.8C146.468 213.96 146.628 214 146.748 214H151.708C151.908 214 152.028 213.84 151.908 213.68L144.988 202.24L150.908 193.76C151.028 193.56 150.948 193.4 150.748 193.4H146.548C146.428 193.4 146.308 193.44 146.228 193.6ZM165.016 193C162.256 193 160.096 194.2 158.696 196.2L158.776 193.68C158.776 193.52 158.656 193.4 158.496 193.4H154.216C154.056 193.4 153.936 193.52 153.936 193.68L154.016 205.28L153.936 220.52C153.936 220.68 154.056 220.8 154.216 220.8H158.536C158.696 220.8 158.816 220.68 158.816 220.52L158.736 211.44C160.136 213.36 162.216 214.4 164.896 214.4C170.416 214.4 173.736 209.6 173.736 203.64C173.736 197.64 170.696 193 165.016 193ZM163.616 211.12C160.336 211.12 158.536 208.36 158.576 203.52C158.616 198.76 160.456 196.32 163.696 196.32C167.136 196.32 168.816 199.16 168.816 203.92C168.816 208.36 167.096 211.12 163.616 211.12ZM191.19 196.08C189.79 194.08 187.67 193 184.95 193C179.43 193 176.15 197.8 176.15 203.76C176.15 209.76 179.15 214.4 184.83 214.4C187.63 214.4 189.79 213.2 191.19 211.16L191.11 213.72C191.11 213.88 191.23 214 191.39 214H195.63C195.79 214 195.91 213.88 195.91 213.72L195.83 203.6L195.91 193.68C195.91 193.52 195.79 193.4 195.63 193.4H191.35C191.19 193.4 191.07 193.52 191.07 193.68L191.19 196.08ZM186.15 211.12C182.75 211.16 181.03 208.24 181.03 203.48C181.03 199 182.75 196.2 186.23 196.24C189.51 196.28 191.35 199 191.31 203.88C191.27 208.68 189.39 211.12 186.15 211.12ZM212.648 201.44H203.928L204.008 193.68C204.008 193.52 203.888 193.4 203.728 193.4H199.408C199.248 193.4 199.128 193.52 199.128 193.68L199.208 203.52L199.128 213.72C199.128 213.88 199.248 214 199.408 214H203.728C203.888 214 204.008 213.88 204.008 213.72L203.928 204.88H212.648L212.608 213.72C212.608 213.88 212.728 214 212.888 214H217.208C217.368 214 217.488 213.88 217.488 213.72L217.408 203.52L217.488 193.68C217.488 193.52 217.368 193.4 217.208 193.4H212.888C212.728 193.4 212.608 193.52 212.608 193.68L212.648 201.44Z" fill="#EEFFFF"/>
<path d="M63.842 385.275V386.65C63.842 386.75 63.892 386.8 63.992 386.8H68.267L68.292 391.35L68.242 397.85C68.242 397.95 68.292 398 68.392 398H70.417C70.517 398 70.567 397.95 70.567 397.85L70.542 391.35L70.567 386.8H74.842C74.942 386.8 74.992 386.75 74.992 386.65V385.275C74.992 385.175 74.942 385.125 74.842 385.125H63.992C63.892 385.125 63.842 385.175 63.842 385.275ZM81.4441 398.3C85.3691 398.3 87.5441 395.6 87.5441 391.55C87.5441 387.5 85.3691 384.825 81.4441 384.825C77.5441 384.825 75.3191 387.525 75.3191 391.6C75.3191 395.65 77.5441 398.3 81.4441 398.3ZM81.4441 396.7C78.9191 396.7 77.6441 394.85 77.6441 391.6C77.6441 388.35 78.8941 386.425 81.4441 386.425C83.9441 386.425 85.1941 388.35 85.1941 391.6C85.1941 394.85 83.9691 396.7 81.4441 396.7ZM89.2186 385.275L89.2436 391.35L89.2186 397.85C89.2186 397.95 89.2686 398 89.3686 398H91.3936C91.4936 398 91.5436 397.95 91.5436 397.85L91.4936 391.35L91.5186 386.8H97.0686C97.1686 386.8 97.2186 386.75 97.2186 386.65V385.275C97.2186 385.175 97.1686 385.125 97.0686 385.125H89.3686C89.2686 385.125 89.2186 385.175 89.2186 385.275ZM107.757 385.125H99.1568C99.0818 385.125 99.0068 385.175 99.0068 385.275C98.9318 388.05 98.7568 391.1 98.5568 392.85C98.3568 394.525 98.0068 395.625 97.3318 396.35H96.4818C96.3818 396.35 96.3318 396.425 96.3318 396.5V400.925C96.3318 401.025 96.4068 401.075 96.4818 401.075H98.2318C98.3068 401.075 98.3818 401 98.3818 400.925L98.4568 398H107.582L107.657 400.925C107.657 401 107.732 401.075 107.807 401.075H109.532C109.632 401.075 109.682 401 109.682 400.925V396.5C109.682 396.4 109.632 396.35 109.532 396.35H108.057L107.957 391.25L107.907 385.275C107.907 385.2 107.832 385.125 107.757 385.125ZM105.782 396.35H99.5318C99.9818 395.5 100.332 394.575 100.507 392.875C100.682 391.4 100.832 389 100.932 386.775H105.682L105.757 391.225L105.782 396.35ZM119.653 387.075C118.803 385.65 117.403 384.875 115.603 384.875C112.203 384.875 110.228 387.875 110.228 391.6C110.228 395.325 112.078 398.25 115.553 398.25C117.403 398.25 118.803 397.4 119.653 395.975L119.603 397.85C119.603 397.95 119.653 398 119.753 398H121.753C121.853 398 121.903 397.95 121.903 397.85L121.853 391.425L121.903 385.275C121.903 385.175 121.853 385.125 121.753 385.125H119.753C119.653 385.125 119.603 385.175 119.603 385.275L119.653 387.075ZM116.128 396.65C113.703 396.675 112.553 394.525 112.553 391.425C112.553 388.5 113.703 386.425 116.178 386.45C118.453 386.475 119.753 388.375 119.728 391.675C119.703 394.975 118.353 396.65 116.128 396.65ZM136.561 391.1C138.211 390.725 139.236 389.85 139.236 388.3C139.236 386.15 137.436 385.125 134.336 385.125H129.111C129.011 385.125 128.961 385.175 128.961 385.275L128.986 391.35L128.961 397.85C128.961 397.95 129.011 398 129.111 398H134.361C136.661 398 139.611 397.35 139.611 394.375C139.611 392.675 138.736 391.6 136.561 391.125V391.1ZM134.286 386.7C135.886 386.7 136.936 387.325 136.936 388.575C136.936 389.9 135.936 390.45 134.311 390.45H131.211V386.7H134.286ZM131.211 391.975H134.311C135.936 391.975 137.311 392.65 137.311 394.175C137.311 395.75 136.111 396.425 134.311 396.425H131.211V391.975ZM143.464 385.1H141.439C141.339 385.1 141.289 385.15 141.289 385.25L141.314 391.675L141.289 397.875C141.289 397.975 141.339 398.025 141.439 398.025H143.589V398H145.814C149.264 398 151.264 396.775 151.264 393.95C151.264 391.2 149.314 389.975 145.814 389.975H143.589L143.614 385.25C143.614 385.15 143.564 385.1 143.464 385.1ZM152.189 391.775L152.164 397.85C152.164 397.95 152.214 398 152.314 398H154.339C154.439 398 154.489 397.95 154.489 397.85L154.439 391.775L154.489 385.275C154.489 385.175 154.439 385.125 154.339 385.125H152.314C152.214 385.125 152.164 385.175 152.164 385.275L152.189 391.775ZM143.589 391.55H145.814C147.939 391.55 148.939 392.375 148.939 394C148.939 395.775 147.764 396.425 145.814 396.425H143.589V391.55ZM167.201 398.3C170.551 398.3 172.601 396.2 172.851 393.3C172.851 393.225 172.801 393.175 172.701 393.175H170.851C170.776 393.175 170.701 393.225 170.701 393.325C170.501 395.425 169.276 396.725 167.251 396.7C164.726 396.7 163.526 394.875 163.526 391.575C163.526 388.35 164.726 386.45 167.251 386.425C169.076 386.425 170.251 387.525 170.551 389.425C170.576 389.525 170.651 389.575 170.726 389.575H172.551C172.651 389.575 172.701 389.525 172.676 389.425C172.426 386.675 170.476 384.825 167.251 384.825C163.351 384.825 161.176 387.55 161.176 391.6C161.176 395.65 163.351 398.3 167.201 398.3ZM181.288 395.425L177.363 385.25C177.338 385.15 177.263 385.125 177.188 385.125H174.663C174.563 385.125 174.513 385.175 174.513 385.275L174.538 391.675L174.513 397.85C174.513 397.95 174.563 398 174.663 398H176.213C176.313 398 176.363 397.95 176.363 397.85L176.338 391.975L176.313 389.05L176.288 387.575L180.288 397.875C180.313 397.975 180.388 398 180.463 398H181.838C181.913 398 181.988 397.975 182.013 397.875L185.963 387.675L185.938 389.025L185.913 391.975V397.85C185.913 397.95 185.963 398 186.063 398H187.938C188.038 398 188.088 397.95 188.088 397.85L188.063 391.675L188.088 385.275C188.088 385.175 188.038 385.125 187.938 385.125H185.413C185.338 385.125 185.263 385.15 185.238 385.25L181.288 395.425ZM195.985 398.3C199.91 398.3 202.085 395.6 202.085 391.55C202.085 387.5 199.91 384.825 195.985 384.825C192.085 384.825 189.86 387.525 189.86 391.6C189.86 395.65 192.085 398.3 195.985 398.3ZM195.985 396.7C193.46 396.7 192.185 394.85 192.185 391.6C192.185 388.35 193.435 386.425 195.985 386.425C198.485 386.425 199.735 388.35 199.735 391.6C199.735 394.85 198.51 396.7 195.985 396.7ZM216.786 385.225L213.286 390.225H211.886L211.911 385.275C211.911 385.175 211.861 385.125 211.761 385.125H209.736C209.636 385.125 209.586 385.175 209.586 385.275L209.636 390.225H208.211L204.711 385.225C204.661 385.175 204.586 385.125 204.511 385.125H202.511C202.386 385.125 202.336 385.2 202.411 385.3L206.386 390.775L201.886 397.825C201.836 397.925 201.886 398 201.986 398H204.286C204.361 398 204.436 397.975 204.461 397.9L205.586 395.975L208.161 391.875H209.636L209.586 397.85C209.586 397.95 209.636 398 209.736 398H211.761C211.861 398 211.911 397.95 211.911 397.85L211.886 391.875H213.336L215.911 395.975L217.061 397.9C217.086 397.95 217.161 398 217.236 398H219.511C219.611 398 219.661 397.925 219.611 397.825L215.111 390.775L219.086 385.3C219.161 385.2 219.111 385.125 218.986 385.125H216.986C216.911 385.125 216.836 385.175 216.786 385.225ZM225.599 396.7C223.074 396.7 221.774 395.025 221.699 391.85H231.299C231.399 391.85 231.449 391.8 231.449 391.7C231.399 387.425 229.199 384.825 225.449 384.825C221.724 384.825 219.424 387.575 219.424 391.6C219.424 395.525 221.574 398.3 225.574 398.3C228.899 398.3 230.849 396.35 231.224 393.675C231.249 393.575 231.199 393.525 231.099 393.525H229.199C229.124 393.525 229.049 393.575 229.024 393.65C228.649 395.625 227.499 396.7 225.599 396.7ZM225.474 386.4C227.749 386.4 228.899 388.175 228.974 390.3H221.774C222.099 387.825 223.349 386.4 225.474 386.4ZM231.699 385.275V386.65C231.699 386.75 231.749 386.8 231.849 386.8H236.124L236.149 391.35L236.099 397.85C236.099 397.95 236.149 398 236.249 398H238.274C238.374 398 238.424 397.95 238.424 397.85L238.399 391.35L238.424 386.8H242.699C242.799 386.8 242.849 386.75 242.849 386.65V385.275C242.849 385.175 242.799 385.125 242.699 385.125H231.849C231.749 385.125 231.699 385.175 231.699 385.275ZM249.352 396.7C246.827 396.7 245.527 395.025 245.452 391.85H255.052C255.152 391.85 255.202 391.8 255.202 391.7C255.152 387.425 252.952 384.825 249.202 384.825C245.477 384.825 243.177 387.575 243.177 391.6C243.177 395.525 245.327 398.3 249.327 398.3C252.652 398.3 254.602 396.35 254.977 393.675C255.002 393.575 254.952 393.525 254.852 393.525H252.952C252.877 393.525 252.802 393.575 252.777 393.65C252.402 395.625 251.252 396.7 249.352 396.7ZM249.227 386.4C251.502 386.4 252.652 388.175 252.727 390.3H245.527C245.852 387.825 247.102 386.4 249.227 386.4ZM105.359 414.35H99.1342L99.1842 409.275C99.1842 409.175 99.1342 409.125 99.0342 409.125H97.0092C96.9092 409.125 96.8592 409.175 96.8592 409.275L96.8842 415.35L96.8592 421.85C96.8592 421.95 96.9092 422 97.0092 422H99.0342C99.1342 422 99.1842 421.95 99.1842 421.85L99.1342 416.025H105.359L105.334 421.85C105.334 421.95 105.384 422 105.484 422H107.509C107.609 422 107.659 421.95 107.659 421.85L107.609 415.35L107.659 409.275C107.659 409.175 107.609 409.125 107.509 409.125H105.484C105.384 409.125 105.334 409.175 105.334 409.275L105.359 414.35ZM118.848 411.075C117.998 409.65 116.598 408.875 114.798 408.875C111.398 408.875 109.423 411.875 109.423 415.6C109.423 419.325 111.273 422.25 114.748 422.25C116.598 422.25 117.998 421.4 118.848 419.975L118.798 421.85C118.798 421.95 118.848 422 118.948 422H120.948C121.048 422 121.098 421.95 121.098 421.85L121.048 415.425L121.098 409.275C121.098 409.175 121.048 409.125 120.948 409.125H118.948C118.848 409.125 118.798 409.175 118.798 409.275L118.848 411.075ZM115.323 420.65C112.898 420.675 111.748 418.525 111.748 415.425C111.748 412.5 112.898 410.425 115.373 410.45C117.648 410.475 118.948 412.375 118.923 415.675C118.898 418.975 117.548 420.65 115.323 420.65ZM131.074 414.925C130.124 415.125 129.074 415.225 128.174 415.225C125.799 415.225 125.424 414.075 125.424 412.375V409.275C125.424 409.175 125.349 409.125 125.274 409.125H123.249C123.149 409.125 123.099 409.175 123.099 409.275L123.124 412.375C123.124 414.975 123.749 416.875 127.649 416.875C128.774 416.875 129.974 416.7 131.074 416.5L131.049 421.85C131.049 421.95 131.099 422 131.199 422H133.224C133.324 422 133.374 421.95 133.374 421.85L133.324 415.35L133.374 409.275C133.374 409.175 133.324 409.125 133.224 409.125H131.199C131.099 409.125 131.049 409.175 131.049 409.275L131.074 414.925ZM144.554 411.075C143.704 409.65 142.304 408.875 140.504 408.875C137.104 408.875 135.129 411.875 135.129 415.6C135.129 419.325 136.979 422.25 140.454 422.25C142.304 422.25 143.704 421.4 144.554 419.975L144.504 421.85C144.504 421.95 144.554 422 144.654 422H146.654C146.754 422 146.804 421.95 146.804 421.85L146.754 415.425L146.804 409.275C146.804 409.175 146.754 409.125 146.654 409.125H144.654C144.554 409.125 144.504 409.175 144.504 409.275L144.554 411.075ZM141.029 420.65C138.604 420.675 137.454 418.525 137.454 415.425C137.454 412.5 138.604 410.425 141.079 410.45C143.354 410.475 144.654 412.375 144.629 415.675C144.604 418.975 143.254 420.65 141.029 420.65ZM148.43 409.275V410.65C148.43 410.75 148.48 410.8 148.58 410.8H152.855L152.88 415.35L152.83 421.85C152.83 421.95 152.88 422 152.98 422H155.005C155.105 422 155.155 421.95 155.155 421.85L155.13 415.35L155.155 410.8H159.43C159.53 410.8 159.58 410.75 159.58 410.65V409.275C159.58 409.175 159.53 409.125 159.43 409.125H148.58C148.48 409.125 148.43 409.175 148.43 409.275ZM163.385 409.1H161.36C161.26 409.1 161.21 409.15 161.21 409.25L161.235 415.675L161.21 421.85C161.21 421.95 161.26 422 161.36 422H165.735C169.185 422 171.185 420.775 171.185 417.95C171.185 415.2 169.235 413.975 165.735 413.975H163.51L163.535 409.25C163.535 409.15 163.485 409.1 163.385 409.1ZM163.51 415.55H165.735C167.86 415.55 168.86 416.375 168.86 418C168.86 419.775 167.685 420.425 165.735 420.425H163.51V415.55ZM179.815 419.5L179.84 415.375L179.89 409.275C179.89 409.175 179.84 409.125 179.74 409.125H177.74C177.64 409.125 177.59 409.175 177.59 409.275L177.615 415.225L177.59 421.85C177.59 421.95 177.64 422 177.74 422H180.19C180.265 422 180.34 421.975 180.365 421.9L186.365 411.7L186.34 415.35L186.29 421.85C186.29 421.95 186.34 422 186.44 422H188.44C188.54 422 188.59 421.95 188.59 421.85L188.54 415.35L188.59 409.275C188.59 409.175 188.54 409.125 188.44 409.125H186.04C185.965 409.125 185.89 409.15 185.865 409.225L179.815 419.5ZM190.748 409.275L190.773 415.35L190.748 421.85C190.748 421.95 190.798 422 190.898 422H192.923C193.023 422 193.073 421.95 193.073 421.85L193.023 415.35L193.048 410.8H198.598C198.698 410.8 198.748 410.75 198.748 410.65V409.275C198.748 409.175 198.698 409.125 198.598 409.125H190.898C190.798 409.125 190.748 409.175 190.748 409.275ZM206.716 408.875C204.891 408.875 203.491 409.75 202.616 411.175L202.666 409.275C202.666 409.175 202.616 409.125 202.516 409.125H200.516C200.416 409.125 200.366 409.175 200.366 409.275L200.416 416.35L200.366 426.1C200.366 426.2 200.416 426.25 200.516 426.25H202.541C202.641 426.25 202.691 426.2 202.691 426.1L202.641 420.1C203.516 421.5 204.891 422.25 206.666 422.25C210.066 422.25 212.041 419.25 212.041 415.525C212.041 411.775 210.191 408.875 206.716 408.875ZM206.091 420.65C203.816 420.65 202.516 418.75 202.541 415.45C202.566 412.15 203.916 410.475 206.141 410.475C208.566 410.475 209.716 412.6 209.716 415.7C209.716 418.6 208.566 420.65 206.091 420.65ZM216.084 426.25H217.959C218.034 426.25 218.109 426.225 218.134 426.125L223.959 409.3C223.984 409.2 223.934 409.125 223.834 409.125H221.784C221.709 409.125 221.634 409.15 221.609 409.25L218.509 419.05L214.859 409.25C214.834 409.15 214.759 409.125 214.684 409.125H212.384C212.284 409.125 212.234 409.175 212.284 409.3L217.384 422.05L215.959 426.075C215.934 426.175 215.984 426.25 216.084 426.25Z" fill="#EEFFFF" fill-opacity="0.55"/>
<path d="M163.35 255.725V339.475C163.35 341.696 162.468 343.826 160.897 345.397C159.326 346.968 157.196 347.85 154.975 347.85H118.125C115.904 347.85 113.774 346.968 112.203 345.397C110.632 343.826 109.75 341.696 109.75 339.475V255.725C109.75 253.504 110.632 251.374 112.203 249.803C113.774 248.232 115.904 247.35 118.125 247.35H123.15V252.375C123.15 252.819 123.326 253.245 123.641 253.559C123.955 253.874 124.381 254.05 124.825 254.05H148.275C148.719 254.05 149.145 253.874 149.459 253.559C149.774 253.245 149.95 252.819 149.95 252.375V247.35H154.975C157.196 247.35 159.326 248.232 160.897 249.803C162.468 251.374 163.35 253.504 163.35 255.725Z" fill="#EEFFFF"/>
<path d="M203.55 309.325V332.775C203.55 333.219 203.726 333.645 204.04 333.959C204.355 334.274 204.781 334.45 205.225 334.45H210.25V339.475C210.25 341.696 209.368 343.826 207.797 345.397C206.226 346.968 204.096 347.85 201.875 347.85H163.149C165.431 345.664 166.715 342.636 166.7 339.475V294.25H201.875C204.096 294.25 206.226 295.132 207.798 296.703C209.368 298.274 210.25 300.404 210.25 302.625V307.65H205.225C204.3 307.65 203.55 308.4 203.55 309.325Z" fill="#EEFFFF"/>
<path d="M205.828 278.103C205.022 277.642 203.995 277.911 203.517 278.706L201.808 281.621V281.621C199.838 275.541 196.239 270.119 191.401 265.943C186.564 261.767 180.674 258.998 174.372 257.937L177.722 255.39C178.462 254.836 178.611 253.786 178.057 253.045C177.502 252.305 176.452 252.156 175.712 252.71L169.012 257.735C168.272 258.29 168.122 259.34 168.677 260.08L173.702 266.78C174.022 267.198 174.516 267.445 175.042 267.45C175.404 267.453 175.758 267.335 176.047 267.115C176.787 266.561 176.936 265.511 176.382 264.77L173.735 261.219C179.624 262.224 185.107 264.874 189.554 268.864C194 272.853 197.226 278.019 198.86 283.765L194.304 281.085C193.921 280.806 193.438 280.703 192.974 280.8C192.51 280.898 192.109 281.188 191.871 281.598C191.633 282.007 191.579 282.499 191.724 282.95C191.869 283.402 192.198 283.771 192.629 283.966L199.865 288.221C200.117 288.376 200.407 288.457 200.703 288.455H201.138C201.573 288.363 201.941 288.079 202.143 287.685L206.398 280.482C206.643 280.092 206.722 279.621 206.614 279.173C206.507 278.726 206.224 278.34 205.828 278.103L205.828 278.103Z" fill="#EEFFFF"/>
</svg>
