<svg width="320" height="568" viewBox="0 0 320 568" fill="none" xmlns="http://www.w3.org/2000/svg">
<g clip-path="url(#clip0_838_3519)">
<rect width="320" height="568" fill="#021F69"/>
<path opacity="0.6" fill-rule="evenodd" clip-rule="evenodd" d="M449.832 349.688C478.452 371.652 513.165 382.228 523.603 364.017C533.073 347.494 527.775 328.391 522.443 309.162C517.329 290.722 512.182 272.165 520 255.658C521.283 252.95 522.233 250.415 522.879 248.041C538.693 251.11 545.304 251.133 571.633 246.878C618.351 239.328 541.14 110.774 508.523 149.401C492.786 168.037 473.154 168.029 456.727 162.007C438.835 155.448 433.57 134.385 438.502 115.977L441.453 104.964C443.509 97.2898 443.188 89.5391 440.942 82.4933C442.181 75.4729 442.94 68.9779 443.295 63.3287C449.59 -68.7744 381.99 -117.28 301.86 -124.437C297.745 -129.604 293.657 -134.33 290.041 -138.21C279.777 -149.227 286.176 -161.648 292.778 -174.463C300.065 -188.608 307.6 -203.233 293.238 -216.977C265.866 -243.171 237.844 -230.891 221.285 -209.687C212.443 -198.365 222.752 -187.818 229.343 -181.076C235.094 -175.192 238.013 -172.205 222.897 -174.13C190.462 -178.262 158.455 -170.694 158.597 -151.67C158.722 -134.959 170.789 -122.674 183.313 -110.456C113.947 -89.926 58.2937 -52.8446 59.7977 -29.1209C61.8599 3.40737 113.933 -3.37003 169.843 -10.6467C222.674 -17.5227 278.931 -24.8446 299.653 0.13047C320.671 25.4619 260.973 31.9691 196.027 39.0485C129.177 46.3354 56.7661 54.2285 61.0947 83.8803C65.2371 112.257 115.894 103.558 171.422 94.0239C230.288 83.9161 294.629 72.8683 314.824 104.058C334.008 133.684 292.241 135.257 245.07 137.033C195.738 138.891 140.495 140.972 142.879 175.596C146.754 231.884 223.099 218.317 300.035 204.645C310.97 202.702 321.916 200.756 332.668 199.009C328.609 224.956 329.791 254.6 346.006 275.841C361.725 296.433 368.502 287.12 379.352 272.213C384.893 264.599 391.496 255.526 400.895 248.232C402.072 259.166 403.914 269.79 405.799 278.133C409.459 294.339 396.457 302.621 383.042 311.166C368.234 320.598 352.925 330.35 358.975 351.432C370.506 391.612 404.039 395.481 431.607 384.474C446.328 378.597 442.363 362.814 439.829 352.725C437.618 343.92 436.495 339.452 449.832 349.688ZM240.541 657.117C245.341 675.526 216.164 690.706 183.705 694.649C168.579 696.487 172.14 698.667 179.158 702.962C187.2 707.884 199.779 715.583 193.981 728.727C183.122 753.342 158.964 772.114 126.008 753.425C108.716 743.62 112.437 727.595 116.037 712.095C119.297 698.053 122.457 684.443 109.806 676.277C105.35 673.401 100.229 669.821 94.9727 665.819C15.5322 678.516 -61.8932 648.054 -88.1605 518.435C-89.2002 512.872 -90.0564 506.389 -90.5747 499.279C-94.4796 492.998 -96.6902 485.562 -96.577 477.618L-96.4147 466.218C-96.1433 447.163 -106.409 428.031 -125.363 426.057C-142.765 424.243 -161.8 429.047 -172.491 450.971C-194.649 496.412 -301.006 390.697 -257.563 371.93C-233.078 361.353 -226.663 359.755 -210.58 358.855C-210.536 356.395 -210.235 353.705 -209.655 350.765C-206.121 332.845 -215.657 316.116 -225.134 299.49C-235.016 282.155 -244.833 264.933 -239.7 246.592C-234.043 226.379 -197.797 228.126 -164.668 242.408C-149.229 249.064 -151.412 245.007 -155.714 237.012C-160.643 227.852 -168.354 213.522 -155.522 204.216C-131.492 186.79 -98.0322 182.324 -77.0074 218.454C-65.9759 237.41 -78.4291 250.616 -90.4743 263.39C-101.386 274.961 -111.963 286.177 -104.443 300.992C-100.571 308.618 -96.1816 318.467 -92.3612 328.779C-85.0366 319.404 -80.858 308.99 -77.3516 300.251L-77.3514 300.251C-70.4854 283.139 -66.1966 272.45 -45.9113 288.562C-24.986 305.183 -16.5761 333.633 -14.1532 359.783C-4.15705 355.455 5.97908 350.887 16.1041 346.323C87.3447 314.215 158.037 282.354 175.587 335.978C186.382 368.962 133.334 384.515 85.9612 398.405C40.6637 411.686 0.555306 423.445 26.4136 447.468C53.6362 472.758 113.308 446.281 167.903 422.057C219.401 399.206 266.383 378.36 277.352 404.857C288.815 432.544 220.545 457.94 157.519 481.385C96.2874 504.163 40.0043 525.1 66.5886 544.509C92.799 563.645 145.546 542.761 195.082 523.149C247.504 502.394 296.329 483.064 306.299 514.095C313.571 536.727 268.701 586.315 206.48 623.216C221.616 631.993 236.325 640.946 240.541 657.117Z" fill="#12A4FF"/>
</g>
<defs>
<clipPath id="clip0_838_3519">
<rect width="320" height="568" fill="white"/>
</clipPath>
</defs>
</svg>
