<svg width="69" height="74" viewBox="0 0 69 74" fill="none" xmlns="http://www.w3.org/2000/svg">
<path d="M11.5179 72.7289L30.1588 72.7289C31.6932 72.7289 33.2199 72.8635 34.7472 73.0106C43.417 73.8453 58.9055 72.9094 66.1587 63.5057C76.0907 50.6289 49.6601 60.164 46.8693 35.8361C44.0785 11.5083 46.8693 15.3401 41.2876 2.90883C35.706 -9.52245 5.70475 21.5335 18.879 27.7268C25.2352 30.7149 26.6962 36.1759 26.2456 41.1936C25.7547 46.659 20.2885 49.6932 14.801 49.6932L11.5179 49.6932C5.15672 49.6932 2.19422e-07 54.8499 1.43566e-07 61.211C6.77102e-08 67.5722 5.15672 72.7289 11.5179 72.7289Z" fill="#021F69"/>
</svg>
