<svg width="1409" height="900" viewBox="0 0 1409 900" fill="none" xmlns="http://www.w3.org/2000/svg">
<path d="M83.6614 586.553L83.6614 595.3C83.6614 621.81 105.152 643.3 131.661 643.3L422.36 643.3L422.36 538.553L131.661 538.553C105.152 538.553 83.6614 560.043 83.6614 586.553Z" fill="#12A4FF"/>
<rect x="867.912" y="558.803" width="104.748" height="434.888" rx="48" transform="rotate(90 867.912 558.803)" fill="#F08603"/>
<rect x="1174.26" y="611.177" width="104.748" height="460.978" rx="48" transform="rotate(90 1174.26 611.177)" fill="#12A4FF"/>
<rect x="926.338" y="18.3064" width="388.654" height="697.618" rx="48" fill="#12A4FF"/>
<rect x="713.28" y="313.552" width="170.057" height="559.493" rx="48" fill="#021F69"/>
<path d="M928 790C928 763.49 949.49 742 976 742H1269C1295.51 742 1317 763.49 1317 790V900H928V790Z" fill="#021F69"/>
<rect x="0.43457" y="175.428" width="388.654" height="697.618" rx="48" fill="#12A4FF"/>
<path d="M422.36 66.3064C422.36 39.7968 443.851 18.3064 470.36 18.3064H615.513C642.023 18.3064 663.513 39.7967 663.513 66.3064V667.924C663.513 694.434 642.023 715.924 615.513 715.924H470.36C443.851 715.924 422.36 694.434 422.36 667.924V66.3064Z" fill="#F08603"/>
<rect x="422.435" y="745.046" width="241" height="108" rx="48" fill="#FFF968"/>
<rect x="713.28" y="30.4985" width="170.057" height="260.221" rx="48" fill="#021F69"/>
<rect x="1334" y="18" width="75" height="698" rx="37.5" fill="#FFF968"/>
<rect x="942.368" y="47.0122" width="356.594" height="93.2962" rx="46.6481" fill="#021F69"/>
<path d="M0.43457 0H388.435V110.637C388.435 137.147 366.944 158.637 340.435 158.637H48.4346C21.9249 158.637 0.43457 137.147 0.43457 110.637V0Z" fill="#021F69"/>
<mask id="path-14-outside-1_673_71" maskUnits="userSpaceOnUse" x="27.4346" y="44.5554" width="335" height="63" fill="black">
<rect fill="white" x="27.4346" y="44.5554" width="335" height="63"/>
<path fill-rule="evenodd" clip-rule="evenodd" d="M208.471 69.6348C208.471 69.1977 208.816 68.8434 209.241 68.8434L225.791 68.8434C228.554 68.8434 230.794 66.5404 230.794 63.6994C230.794 60.8585 228.554 58.5554 225.791 58.5554L164.98 58.5554C164.846 58.5554 164.712 58.5609 164.58 58.5716L163.17 58.5657C161.937 58.5605 160.851 59.3449 160.415 60.5561L152.84 81.5699C152.682 82.0069 152.277 82.297 151.824 82.297C151.225 82.297 150.74 81.7981 150.74 81.1826V63.6994C150.74 60.8585 148.5 58.5554 145.736 58.5554C145.691 58.5554 145.646 58.556 145.6 58.5573C145.555 58.556 145.51 58.5554 145.464 58.5554L123.413 58.5554C122.723 58.5554 122.065 58.6994 121.466 58.9597C121.167 59.0898 120.882 59.2491 120.616 59.4339C119.285 60.3583 118.41 61.9238 118.41 63.6994V78.5326C118.41 80.6116 116.771 82.297 114.749 82.297H114.401C114.076 82.297 113.755 82.2212 113.463 82.0754C112.722 81.7059 112.252 80.934 112.252 80.0877V63.6994C112.252 61.169 110.475 59.0654 108.134 58.6357C107.847 58.5829 107.551 58.5554 107.249 58.5554L46.4152 58.5554C43.6645 58.5554 41.4346 60.848 41.4346 63.676C41.4346 66.5007 43.6594 68.7919 46.4069 68.7966L55.2713 68.8118C55.9882 68.813 56.3286 69.7201 55.7984 70.216C55.6538 70.3513 55.4654 70.4262 55.27 70.4262H50.2868C47.5234 70.4262 45.2833 72.7292 45.2833 75.5702C45.2833 78.4111 47.5234 80.7142 50.2868 80.7142H55.0391C55.2307 80.7142 55.4154 80.7877 55.5571 80.9202C56.0774 81.4069 55.7425 82.297 55.0391 82.297H46.438C43.6747 82.297 41.4346 84.6 41.4346 87.441C41.4346 90.2819 43.6747 92.585 46.438 92.585H68.7609C71.5242 92.585 73.7643 90.2819 73.7643 87.441C73.7643 86.0165 73.2011 84.7273 72.2912 83.7958C72.1703 83.6515 72.0393 83.5128 71.8981 83.3807C70.8361 82.3873 71.4755 80.1361 72.4467 79.0489C73.2648 78.1331 73.7643 76.9116 73.7643 75.5702C73.7643 73.6151 72.7034 71.9147 71.1411 71.0444C70.4697 70.6704 70.1593 69.6076 70.7242 69.0793C70.8864 68.9275 71.0979 68.8434 71.3172 68.8434H73.4717C77.0343 68.8434 79.9223 71.8126 79.9223 75.4753V87.441C79.9223 90.2819 82.1624 92.585 84.9257 92.585C87.689 92.585 89.9291 90.2819 89.9291 87.441C89.9291 84.8138 92.6029 83.0921 94.902 84.239L99.0418 86.304C101.043 87.3021 102.184 89.5793 103.791 91.1594C104.58 91.9352 105.616 92.448 106.765 92.5613C106.924 92.577 107.086 92.585 107.249 92.585H122.644C122.9 92.585 123.157 92.585 123.413 92.585C126.177 92.585 128.417 90.2819 128.417 87.441V75.1745C128.417 71.6779 131.174 68.8434 134.575 68.8434C137.976 68.8434 140.733 71.6779 140.733 75.1745V87.441C140.733 90.2819 142.973 92.585 145.736 92.585H147.369C152.046 92.585 158.767 94.7239 160.288 90.1769L166.393 71.9288C167.011 70.0828 168.7 68.8434 170.599 68.8434C172.456 68.8434 174.117 70.0295 174.766 71.8183L181.292 89.8109C181.903 91.4959 183.413 92.5889 185.13 92.5889H186.831C189.441 92.5889 191.326 89.7652 190.437 87.185L186.927 76.9863C185.559 73.0128 188.426 68.8434 192.526 68.8434C195.806 68.8434 198.465 71.5771 198.465 74.9493V87.441C198.465 87.5996 198.472 87.7566 198.485 87.9116C198.474 90.4892 200.503 92.585 203.01 92.585L251.963 92.585C255.576 92.585 258.506 89.5733 258.506 85.8582V80.7142C258.506 74.1581 263.675 68.8434 270.052 68.8434C273.453 68.8434 276.21 71.678 276.21 75.1745V87.441C276.21 90.2819 278.45 92.585 281.213 92.585C283.977 92.585 286.217 90.2819 286.217 87.441C286.217 84.603 289.105 82.7433 291.588 83.9821L295.066 85.7166C297.187 86.7746 298.305 89.2884 299.948 91.0263C300.857 91.9877 302.129 92.585 303.536 92.585C303.644 92.585 303.751 92.5815 303.856 92.5746C303.962 92.5815 304.069 92.585 304.177 92.585H319.577C322.337 92.585 324.575 90.2791 324.575 87.441C324.575 85.9112 325.781 84.6711 327.269 84.6711L335.352 84.6711C337.052 84.6711 338.431 86.0884 338.431 87.8367C338.431 90.4591 340.499 92.585 343.049 92.585C345.6 92.585 347.668 90.4591 347.668 87.8367V79.1314C347.668 76.509 345.6 74.3831 343.049 74.3831C342.986 74.3831 342.923 74.3844 342.861 74.387C342.796 74.3844 342.73 74.3831 342.664 74.3831C340.652 74.3831 339.864 71.6973 341.541 70.5531L345.496 67.8546C347.798 66.2837 348.339 63.1535 346.705 60.8631C345.07 58.5727 341.878 57.9894 339.575 59.5603L330.503 65.7501C327.966 67.4813 324.575 65.6109 324.575 62.48C324.575 60.3125 322.866 58.5554 320.758 58.5554L319.572 58.5554C316.808 58.5554 314.568 60.8585 314.568 63.6994V79.5271C314.568 81.0569 313.362 82.297 311.874 82.297H311.755C311.33 82.297 310.91 82.1978 310.527 82.0068L310.419 81.953C309.269 81.3796 308.54 80.1814 308.54 78.8678V63.6994C308.54 60.8585 306.299 58.5554 303.536 58.5554L241.956 58.5554C239.192 58.5554 236.952 60.8585 236.952 63.6994C236.952 66.5404 239.192 68.8434 241.956 68.8434H242.726C245.914 68.8434 248.499 71.5008 248.499 74.7788V75.5702C248.499 79.2853 245.569 82.297 241.956 82.297H209.241C208.816 82.297 208.471 81.9427 208.471 81.5056C208.471 81.0685 208.816 80.7142 209.241 80.7142L213.475 80.7142C216.238 80.7142 218.478 78.4111 218.478 75.5702C218.478 72.7292 216.238 70.4262 213.475 70.4262L209.241 70.4262C208.816 70.4262 208.471 70.0719 208.471 69.6348ZM90.8219 68.8434C90.3288 68.8434 89.9291 69.2543 89.9291 69.7612C89.9291 70.1128 90.1245 70.4335 90.4322 70.587L98.1362 74.43C100.036 75.3776 102.245 73.955 102.245 71.7842C102.245 70.1601 100.965 68.8434 99.3848 68.8434L90.8219 68.8434ZM295.843 68.8434C297.329 68.8434 298.533 70.0815 298.533 71.6086C298.533 73.6499 296.455 74.9875 294.669 74.0965L286.566 70.0545C286.352 69.9479 286.217 69.7252 286.217 69.4809C286.217 69.1289 286.494 68.8434 286.837 68.8434L295.843 68.8434Z"/>
</mask>
<path fill-rule="evenodd" clip-rule="evenodd" d="M208.471 69.6348C208.471 69.1977 208.816 68.8434 209.241 68.8434L225.791 68.8434C228.554 68.8434 230.794 66.5404 230.794 63.6994C230.794 60.8585 228.554 58.5554 225.791 58.5554L164.98 58.5554C164.846 58.5554 164.712 58.5609 164.58 58.5716L163.17 58.5657C161.937 58.5605 160.851 59.3449 160.415 60.5561L152.84 81.5699C152.682 82.0069 152.277 82.297 151.824 82.297C151.225 82.297 150.74 81.7981 150.74 81.1826V63.6994C150.74 60.8585 148.5 58.5554 145.736 58.5554C145.691 58.5554 145.646 58.556 145.6 58.5573C145.555 58.556 145.51 58.5554 145.464 58.5554L123.413 58.5554C122.723 58.5554 122.065 58.6994 121.466 58.9597C121.167 59.0898 120.882 59.2491 120.616 59.4339C119.285 60.3583 118.41 61.9238 118.41 63.6994V78.5326C118.41 80.6116 116.771 82.297 114.749 82.297H114.401C114.076 82.297 113.755 82.2212 113.463 82.0754C112.722 81.7059 112.252 80.934 112.252 80.0877V63.6994C112.252 61.169 110.475 59.0654 108.134 58.6357C107.847 58.5829 107.551 58.5554 107.249 58.5554L46.4152 58.5554C43.6645 58.5554 41.4346 60.848 41.4346 63.676C41.4346 66.5007 43.6594 68.7919 46.4069 68.7966L55.2713 68.8118C55.9882 68.813 56.3286 69.7201 55.7984 70.216C55.6538 70.3513 55.4654 70.4262 55.27 70.4262H50.2868C47.5234 70.4262 45.2833 72.7292 45.2833 75.5702C45.2833 78.4111 47.5234 80.7142 50.2868 80.7142H55.0391C55.2307 80.7142 55.4154 80.7877 55.5571 80.9202C56.0774 81.4069 55.7425 82.297 55.0391 82.297H46.438C43.6747 82.297 41.4346 84.6 41.4346 87.441C41.4346 90.2819 43.6747 92.585 46.438 92.585H68.7609C71.5242 92.585 73.7643 90.2819 73.7643 87.441C73.7643 86.0165 73.2011 84.7273 72.2912 83.7958C72.1703 83.6515 72.0393 83.5128 71.8981 83.3807C70.8361 82.3873 71.4755 80.1361 72.4467 79.0489C73.2648 78.1331 73.7643 76.9116 73.7643 75.5702C73.7643 73.6151 72.7034 71.9147 71.1411 71.0444C70.4697 70.6704 70.1593 69.6076 70.7242 69.0793C70.8864 68.9275 71.0979 68.8434 71.3172 68.8434H73.4717C77.0343 68.8434 79.9223 71.8126 79.9223 75.4753V87.441C79.9223 90.2819 82.1624 92.585 84.9257 92.585C87.689 92.585 89.9291 90.2819 89.9291 87.441C89.9291 84.8138 92.6029 83.0921 94.902 84.239L99.0418 86.304C101.043 87.3021 102.184 89.5793 103.791 91.1594C104.58 91.9352 105.616 92.448 106.765 92.5613C106.924 92.577 107.086 92.585 107.249 92.585H122.644C122.9 92.585 123.157 92.585 123.413 92.585C126.177 92.585 128.417 90.2819 128.417 87.441V75.1745C128.417 71.6779 131.174 68.8434 134.575 68.8434C137.976 68.8434 140.733 71.6779 140.733 75.1745V87.441C140.733 90.2819 142.973 92.585 145.736 92.585H147.369C152.046 92.585 158.767 94.7239 160.288 90.1769L166.393 71.9288C167.011 70.0828 168.7 68.8434 170.599 68.8434C172.456 68.8434 174.117 70.0295 174.766 71.8183L181.292 89.8109C181.903 91.4959 183.413 92.5889 185.13 92.5889H186.831C189.441 92.5889 191.326 89.7652 190.437 87.185L186.927 76.9863C185.559 73.0128 188.426 68.8434 192.526 68.8434C195.806 68.8434 198.465 71.5771 198.465 74.9493V87.441C198.465 87.5996 198.472 87.7566 198.485 87.9116C198.474 90.4892 200.503 92.585 203.01 92.585L251.963 92.585C255.576 92.585 258.506 89.5733 258.506 85.8582V80.7142C258.506 74.1581 263.675 68.8434 270.052 68.8434C273.453 68.8434 276.21 71.678 276.21 75.1745V87.441C276.21 90.2819 278.45 92.585 281.213 92.585C283.977 92.585 286.217 90.2819 286.217 87.441C286.217 84.603 289.105 82.7433 291.588 83.9821L295.066 85.7166C297.187 86.7746 298.305 89.2884 299.948 91.0263C300.857 91.9877 302.129 92.585 303.536 92.585C303.644 92.585 303.751 92.5815 303.856 92.5746C303.962 92.5815 304.069 92.585 304.177 92.585H319.577C322.337 92.585 324.575 90.2791 324.575 87.441C324.575 85.9112 325.781 84.6711 327.269 84.6711L335.352 84.6711C337.052 84.6711 338.431 86.0884 338.431 87.8367C338.431 90.4591 340.499 92.585 343.049 92.585C345.6 92.585 347.668 90.4591 347.668 87.8367V79.1314C347.668 76.509 345.6 74.3831 343.049 74.3831C342.986 74.3831 342.923 74.3844 342.861 74.387C342.796 74.3844 342.73 74.3831 342.664 74.3831C340.652 74.3831 339.864 71.6973 341.541 70.5531L345.496 67.8546C347.798 66.2837 348.339 63.1535 346.705 60.8631C345.07 58.5727 341.878 57.9894 339.575 59.5603L330.503 65.7501C327.966 67.4813 324.575 65.6109 324.575 62.48C324.575 60.3125 322.866 58.5554 320.758 58.5554L319.572 58.5554C316.808 58.5554 314.568 60.8585 314.568 63.6994V79.5271C314.568 81.0569 313.362 82.297 311.874 82.297H311.755C311.33 82.297 310.91 82.1978 310.527 82.0068L310.419 81.953C309.269 81.3796 308.54 80.1814 308.54 78.8678V63.6994C308.54 60.8585 306.299 58.5554 303.536 58.5554L241.956 58.5554C239.192 58.5554 236.952 60.8585 236.952 63.6994C236.952 66.5404 239.192 68.8434 241.956 68.8434H242.726C245.914 68.8434 248.499 71.5008 248.499 74.7788V75.5702C248.499 79.2853 245.569 82.297 241.956 82.297H209.241C208.816 82.297 208.471 81.9427 208.471 81.5056C208.471 81.0685 208.816 80.7142 209.241 80.7142L213.475 80.7142C216.238 80.7142 218.478 78.4111 218.478 75.5702C218.478 72.7292 216.238 70.4262 213.475 70.4262L209.241 70.4262C208.816 70.4262 208.471 70.0719 208.471 69.6348ZM90.8219 68.8434C90.3288 68.8434 89.9291 69.2543 89.9291 69.7612C89.9291 70.1128 90.1245 70.4335 90.4322 70.587L98.1362 74.43C100.036 75.3776 102.245 73.955 102.245 71.7842C102.245 70.1601 100.965 68.8434 99.3848 68.8434L90.8219 68.8434ZM295.843 68.8434C297.329 68.8434 298.533 70.0815 298.533 71.6086C298.533 73.6499 296.455 74.9875 294.669 74.0965L286.566 70.0545C286.352 69.9479 286.217 69.7252 286.217 69.4809C286.217 69.1289 286.494 68.8434 286.837 68.8434L295.843 68.8434Z" fill="#F08603"/>
<path d="M69.9155 63.4262H69.2842V77.4262H69.9155V63.4262ZM70.7395 89.297H73.7643V75.297H70.7395V89.297ZM69.9155 73.7142H69.0474V87.7142H69.9155V73.7142ZM164.98 58.5554L164.98 72.5554L164.98 72.5554L164.98 58.5554ZM164.58 58.5716L164.522 72.5715L165.119 72.574L165.715 72.5256L164.58 58.5716ZM163.17 58.5657L163.229 44.5658L163.229 44.5658L163.17 58.5657ZM160.415 60.5561L147.244 55.8085L147.244 55.8085L160.415 60.5561ZM145.736 58.5554L145.736 44.5554L145.736 58.5554ZM145.6 58.5573L145.216 72.552L145.6 72.5626L145.985 72.552L145.6 58.5573ZM145.464 58.5554L145.464 44.5554L145.464 44.5554L145.464 58.5554ZM123.413 58.5554L123.413 72.5554L123.413 72.5554L123.413 58.5554ZM121.466 58.9597L127.049 71.7983L127.049 71.7983L121.466 58.9597ZM120.616 59.4339L128.603 70.9324L128.603 70.9324L120.616 59.4339ZM108.134 58.6357L105.606 72.4056L105.606 72.4056L108.134 58.6357ZM107.249 58.5554L107.249 44.5554L107.249 44.5554L107.249 58.5554ZM46.4152 58.5554L46.4152 44.5554H46.4152V58.5554ZM41.4346 63.676L55.4346 63.676L41.4346 63.676ZM46.4069 68.7966L46.3829 82.7966L46.3829 82.7966L46.4069 68.7966ZM45.2833 75.5702L31.2833 75.5702V75.5702H45.2833ZM72.2912 83.7958L61.558 92.7846L61.902 93.1954L62.2765 93.5787L72.2912 83.7958ZM71.8981 83.3807L62.3344 93.605L62.3344 93.605L71.8981 83.3807ZM106.765 92.5613L105.392 106.494L105.392 106.494L106.765 92.5613ZM160.288 90.1769L173.565 94.6184L173.565 94.6184L160.288 90.1769ZM181.292 89.8109L168.131 94.5846L168.131 94.5846L181.292 89.8109ZM186.831 92.5889L186.831 78.5889H186.831V92.5889ZM190.437 87.185L177.2 91.7416L177.2 91.7416L190.437 87.185ZM198.485 87.9116L212.485 87.9735L212.488 87.326L212.431 86.681L198.485 87.9116ZM251.963 92.585L251.963 78.585L251.963 78.585L251.963 92.585ZM270.052 68.8434L270.052 82.8434L270.052 82.8434L270.052 68.8434ZM303.856 92.5746L304.764 78.604L303.856 78.5451L302.949 78.604L303.856 92.5746ZM342.861 74.387L342.306 88.376L342.872 88.3985L343.438 88.3751L342.861 74.387ZM345.496 67.8546L353.386 79.4193L353.386 79.4193L345.496 67.8546ZM346.705 60.8631L335.31 68.9966L335.31 68.9967L346.705 60.8631ZM339.575 59.5603L331.685 47.9956L331.685 47.9956L339.575 59.5603ZM303.536 58.5554L303.536 44.5554L303.536 44.5554L303.536 58.5554ZM286.837 68.8434L286.837 82.8434L286.837 82.8434L286.837 68.8434ZM99.3848 68.8434L99.3848 82.8434L99.3848 68.8434ZM90.8219 68.8434L90.8219 54.8434L90.8219 68.8434ZM90.4322 70.587L96.6814 58.0591L96.6814 58.0591L90.4322 70.587ZM209.241 70.4262L209.241 56.4262L209.241 56.4262L209.241 70.4262ZM213.475 70.4262L213.475 84.4262L213.475 84.4262L213.475 70.4262ZM213.475 80.7142L213.475 94.7142L213.475 94.7142L213.475 80.7142ZM209.241 80.7142L209.241 66.7142L209.241 66.7142L209.241 80.7142ZM55.7984 70.216L46.2347 59.9918L46.2347 59.9918L55.7984 70.216ZM241.956 58.5554L241.956 44.5554L241.956 44.5554L241.956 58.5554ZM310.527 82.0068L304.277 94.5346L304.278 94.5347L310.527 82.0068ZM113.463 82.0754L107.214 94.6032L107.214 94.6032L113.463 82.0754ZM319.572 58.5554L319.572 44.5554L319.572 44.5554L319.572 58.5554ZM341.541 70.5531L333.65 58.9883L333.65 58.9884L341.541 70.5531ZM209.241 68.8434L209.241 54.8434L209.241 54.8434L209.241 68.8434ZM295.066 85.7166L288.816 98.2444L288.816 98.2445L295.066 85.7166ZM299.948 91.0263L310.121 81.4074L299.948 91.0263ZM291.588 83.9821L297.838 71.4543L297.838 71.4543L291.588 83.9821ZM203.01 92.585L203.01 106.585L203.01 106.585L203.01 92.585ZM192.526 68.8434L192.526 82.8434L192.526 68.8434ZM310.419 81.953L316.668 69.4253L316.668 69.4251L310.419 81.953ZM186.927 76.9863L173.689 81.5429L173.689 81.5429L186.927 76.9863ZM320.758 58.5554L320.758 72.5554L320.758 72.5554L320.758 58.5554ZM174.766 71.8183L161.605 76.592L161.605 76.592L174.766 71.8183ZM330.503 65.7501L322.613 54.1854L322.613 54.1854L330.503 65.7501ZM166.393 71.9288L153.116 67.4873L153.116 67.4873L166.393 71.9288ZM134.575 68.8434L134.575 82.8434L134.575 68.8434ZM327.269 84.6711L327.269 98.6711L327.269 98.6711L327.269 84.6711ZM94.902 84.239L101.151 71.7111L101.151 71.7111L94.902 84.239ZM225.791 58.5554L225.791 44.5554L225.791 44.5554L225.791 58.5554ZM286.566 70.0545L280.317 82.5824L280.317 82.5824L286.566 70.0545ZM73.4717 68.8434L73.4717 82.8434L73.4717 82.8434L73.4717 68.8434ZM98.1362 74.43L91.887 86.9578L91.887 86.9578L98.1362 74.43ZM72.4467 79.0489L62.0064 69.7216L72.4467 79.0489ZM55.5571 80.9202L45.9934 91.1445L45.9934 91.1445L55.5571 80.9202ZM335.352 84.6711L335.352 70.6711L335.352 70.6711L335.352 84.6711ZM99.0418 86.304L92.7925 98.8318L92.7925 98.8318L99.0418 86.304ZM103.791 91.1594L113.606 81.1756L103.791 91.1594ZM152.84 81.5699L139.67 76.8223L139.67 76.8223L152.84 81.5699ZM55.2713 68.8118L55.2473 82.8117L55.2473 82.8117L55.2713 68.8118ZM295.843 68.8434L295.843 82.8434H295.843V68.8434ZM70.7242 69.0793L80.2879 79.3035L80.2879 79.3035L70.7242 69.0793ZM71.3172 68.8434L71.3172 54.8434L71.3172 54.8434L71.3172 68.8434ZM294.669 74.0965L300.918 61.5686L300.918 61.5686L294.669 74.0965ZM71.1411 71.0444L77.9543 58.8141L77.9543 58.8141L71.1411 71.0444ZM225.791 68.8434L225.791 82.8434L225.791 82.8434L225.791 68.8434ZM225.791 54.8434L209.241 54.8434L209.241 82.8434L225.791 82.8434L225.791 54.8434ZM165.715 72.5256C165.47 72.5455 165.225 72.5554 164.98 72.5554L164.98 44.5554C164.467 44.5554 163.955 44.5763 163.446 44.6176L165.715 72.5256ZM163.112 72.5655L164.522 72.5715L164.639 44.5717L163.229 44.5658L163.112 72.5655ZM173.585 65.3037C172.133 69.3336 168.146 72.5867 163.112 72.5655L163.229 44.5658C155.729 44.5342 149.57 49.3562 147.244 55.8085L173.585 65.3037ZM166.01 86.3174L173.585 65.3036L147.244 55.8085L139.67 76.8223L166.01 86.3174ZM136.74 63.6994V81.1826H164.74V63.6994H136.74ZM145.736 72.5554C140.405 72.5554 136.74 68.2222 136.74 63.6994H164.74C164.74 53.4947 156.595 44.5554 145.736 44.5554L145.736 72.5554ZM145.985 72.552C145.902 72.5543 145.819 72.5554 145.736 72.5554L145.736 44.5554C145.563 44.5554 145.389 44.5578 145.216 44.5626L145.985 72.552ZM145.464 72.5554C145.382 72.5554 145.299 72.5543 145.216 72.552L145.985 44.5626C145.811 44.5578 145.638 44.5554 145.464 44.5554V72.5554ZM123.413 72.5554L145.464 72.5554L145.464 44.5554L123.413 44.5554L123.413 72.5554ZM127.049 71.7983C125.926 72.2867 124.687 72.5554 123.413 72.5554L123.413 44.5554C120.759 44.5554 118.203 45.112 115.883 46.121L127.049 71.7983ZM128.603 70.9324C128.124 71.2645 127.605 71.5565 127.049 71.7983L115.883 46.121C114.728 46.6231 113.64 47.2336 112.629 47.9354L128.603 70.9324ZM132.41 63.6994C132.41 66.5992 130.965 69.2915 128.603 70.9324L112.63 47.9354C107.605 51.4252 104.41 57.2485 104.41 63.6994H132.41ZM132.41 78.5326V63.6994H104.41V78.5326H132.41ZM114.401 96.297H114.749V68.297H114.401V96.297ZM98.252 63.6994V80.0877H126.252V63.6994H98.252ZM105.606 72.4056C101.151 71.5878 98.252 67.7721 98.252 63.6994H126.252C126.252 54.566 119.799 46.543 110.661 44.8657L105.606 72.4056ZM107.249 72.5554C106.698 72.5554 106.148 72.5051 105.606 72.4056L110.661 44.8657C109.545 44.6608 108.403 44.5554 107.249 44.5554L107.249 72.5554ZM55.4346 63.676C55.4346 68.2117 51.7597 72.5554 46.4152 72.5554V44.5554C35.5693 44.5554 27.4346 53.4843 27.4346 63.676L55.4346 63.676ZM46.4309 54.7966C51.7683 54.8057 55.4346 59.1454 55.4346 63.676L27.4346 63.676C27.4346 73.856 35.5506 82.778 46.3829 82.7966L46.4309 54.7966ZM55.2953 54.8118L46.4309 54.7966L46.3829 82.7966L55.2473 82.8117L55.2953 54.8118ZM50.2868 84.4262H55.27V56.4262H50.2868V84.4262ZM59.2833 75.5702C59.2833 80.093 55.6186 84.4262 50.2868 84.4262V56.4262C39.4283 56.4262 31.2833 65.3655 31.2833 75.5702L59.2833 75.5702ZM50.2868 66.7142C55.6186 66.7142 59.2833 71.0474 59.2833 75.5702H31.2833C31.2833 85.7749 39.4283 94.7142 50.2868 94.7142V66.7142ZM55.0391 66.7142H50.2868V94.7142H55.0391V66.7142ZM46.438 96.297H55.0391V68.297H46.438V96.297ZM55.4346 87.441C55.4346 91.9637 51.7699 96.297 46.438 96.297V68.297C35.5795 68.297 27.4346 77.2363 27.4346 87.441H55.4346ZM46.438 78.585C51.7699 78.585 55.4346 82.9182 55.4346 87.441H27.4346C27.4346 97.6456 35.5795 106.585 46.438 106.585V78.585ZM68.7609 78.585H46.438V106.585H68.7609V78.585ZM59.7643 87.441C59.7643 82.9182 63.429 78.585 68.7609 78.585V106.585C79.6194 106.585 87.7643 97.6457 87.7643 87.441H59.7643ZM62.2765 93.5787C60.6957 91.9605 59.7643 89.7637 59.7643 87.441H87.7643C87.7643 82.2693 85.7065 77.494 82.3059 74.0128L62.2765 93.5787ZM62.3344 93.605C62.0611 93.3494 61.8016 93.0755 61.558 92.7846L83.0243 74.8069C82.5391 74.2275 82.0175 73.6763 81.4618 73.1565L62.3344 93.605ZM59.7643 75.5702C59.7643 73.3852 60.5897 71.3073 62.0064 69.7216L82.8871 88.3762C85.94 84.959 87.7643 80.4381 87.7643 75.5702H59.7643ZM64.3279 83.2747C61.5112 81.7056 59.7643 78.7592 59.7643 75.5702H87.7643C87.7643 68.471 83.8955 62.1239 77.9543 58.8141L64.3279 83.2747ZM73.4717 54.8434H71.3172V82.8434H73.4717V54.8434ZM93.9223 87.441V75.4753H65.9223V87.441H93.9223ZM84.9257 78.585C90.2576 78.585 93.9223 82.9182 93.9223 87.441H65.9223C65.9223 97.6457 74.0673 106.585 84.9257 106.585V78.585ZM75.9291 87.441C75.9291 82.9182 79.5939 78.585 84.9257 78.585V106.585C95.7842 106.585 103.929 97.6457 103.929 87.441H75.9291ZM105.291 73.7761L101.151 71.7111L88.6528 96.7668L92.7925 98.8318L105.291 73.7761ZM108.138 78.6288C110.327 78.8444 112.229 79.8217 113.606 81.1756L93.9769 101.143C96.9324 104.049 100.906 106.052 105.392 106.494L108.138 78.6288ZM107.249 78.585C107.545 78.585 107.842 78.5996 108.138 78.6288L105.392 106.494C106.007 106.554 106.626 106.585 107.249 106.585V78.585ZM122.644 78.585H107.249V106.585H122.644V78.585ZM114.417 87.441C114.417 82.9182 118.082 78.585 123.413 78.585V106.585C134.272 106.585 142.417 97.6457 142.417 87.441H114.417ZM114.417 75.1745V87.441H142.417V75.1745H114.417ZM154.733 87.441V75.1745H126.733V87.441H154.733ZM145.736 78.585C151.068 78.585 154.733 82.9182 154.733 87.441H126.733C126.733 97.6456 134.878 106.585 145.736 106.585V78.585ZM147.369 78.585H145.736V106.585H147.369V78.585ZM153.116 67.4873L147.012 85.7354L173.565 94.6184L179.67 76.3703L153.116 67.4873ZM194.453 85.0372L187.927 67.0445L161.605 76.592L168.131 94.5846L194.453 85.0372ZM185.13 78.5889C189.646 78.5889 193.174 81.5118 194.453 85.0371L168.131 94.5846C170.632 101.48 177.181 106.589 185.13 106.589V78.5889ZM186.831 78.5889H185.13V106.589H186.831V78.5889ZM177.2 91.7416C176.102 88.5518 176.772 85.3731 178.301 83.0825C179.835 80.7851 182.816 78.5889 186.831 78.5889L186.831 106.589C200.043 106.589 207.363 93.3429 203.675 82.6284L177.2 91.7416ZM173.689 81.5429L177.2 91.7416L203.675 82.6284L200.165 72.4297L173.689 81.5429ZM212.465 87.441V74.9493H184.465V87.441H212.465ZM212.431 86.681C212.453 86.935 212.465 87.1886 212.465 87.441H184.465C184.465 88.0107 184.49 88.5782 184.539 89.1422L212.431 86.681ZM244.506 80.7142V85.8582H272.506V80.7142H244.506ZM290.21 87.441V75.1745H262.21V87.441H290.21ZM281.213 78.585C286.545 78.585 290.21 82.9182 290.21 87.441H262.21C262.21 97.6457 270.355 106.585 281.213 106.585V78.585ZM272.217 87.441C272.217 82.9182 275.881 78.585 281.213 78.585V106.585C292.072 106.585 300.217 97.6457 300.217 87.441H272.217ZM301.315 73.1888L297.838 71.4543L285.339 96.51L288.816 98.2444L301.315 73.1888ZM303.536 78.585C306.196 78.585 308.539 79.7352 310.121 81.4074L289.776 100.645C293.175 104.24 298.061 106.585 303.536 106.585V78.585ZM302.949 78.604C303.145 78.5913 303.341 78.585 303.536 78.585V106.585C303.947 106.585 304.356 106.572 304.764 106.545L302.949 78.604ZM304.177 78.585C304.372 78.585 304.568 78.5913 304.764 78.604L302.949 106.545C303.357 106.572 303.766 106.585 304.177 106.585V78.585ZM335.352 70.6711L327.269 70.6711L327.269 98.6711L335.352 98.6711L335.352 70.6711ZM343.049 78.585C348.594 78.585 352.431 83.0954 352.431 87.8367H324.431C324.431 97.8228 332.403 106.585 343.049 106.585V78.585ZM333.668 87.8367C333.668 83.0953 337.505 78.585 343.049 78.585V106.585C353.695 106.585 361.668 97.8228 361.668 87.8367H333.668ZM343.049 88.3831C337.505 88.3831 333.668 83.8727 333.668 79.1314H361.668C361.668 69.1453 353.695 60.3831 343.049 60.3831V88.3831ZM343.438 88.3751C343.309 88.3804 343.179 88.3831 343.049 88.3831V60.3831C342.793 60.3831 342.538 60.3884 342.283 60.3989L343.438 88.3751ZM342.664 88.3831C342.545 88.3831 342.425 88.3807 342.306 88.376L343.416 60.398C343.166 60.3881 342.915 60.3831 342.664 60.3831V88.3831ZM337.605 56.2899L333.65 58.9883L349.431 82.1178L353.386 79.4193L337.605 56.2899ZM335.31 68.9967C332.461 65.0055 333.318 59.2153 337.605 56.2899L353.386 79.4193C362.279 73.3521 364.218 61.3015 358.099 52.7295L335.31 68.9967ZM347.466 71.125C343.376 73.9153 338.028 72.8059 335.31 68.9966L358.1 52.7296C352.111 44.3395 340.38 42.0635 331.685 47.9956L347.466 71.125ZM338.394 77.3148L347.466 71.125L331.685 47.9956L322.613 54.1854L338.394 77.3148ZM319.572 72.5554L320.758 72.5554L320.758 44.5554L319.572 44.5554L319.572 72.5554ZM328.568 79.5271V63.6994H300.568V79.5271H328.568ZM311.755 96.297H311.874V68.297H311.755V96.297ZM304.17 94.4807L304.277 94.5346L316.776 69.4791L316.668 69.4253L304.17 94.4807ZM294.54 63.6994V78.8678H322.54V63.6994H294.54ZM303.536 72.5554C298.204 72.5554 294.54 68.2222 294.54 63.6994H322.54C322.54 53.4948 314.395 44.5554 303.536 44.5554L303.536 72.5554ZM242.726 54.8434H241.956V82.8434H242.726V54.8434ZM262.499 75.5702V74.7788H234.499V75.5702H262.499ZM213.475 66.7142L209.241 66.7142L209.241 94.7142L213.475 94.7142L213.475 66.7142ZM209.241 84.4262L213.475 84.4262L213.475 56.4262L209.241 56.4262L209.241 84.4262ZM104.385 61.9021L96.6814 58.0591L84.1829 83.1148L91.887 86.9578L104.385 61.9021ZM90.8219 82.8434L99.3848 82.8434L99.3848 54.8434L90.8219 54.8434L90.8219 82.8434ZM280.317 82.5824L288.42 86.6243L300.918 61.5686L292.815 57.5267L280.317 82.5824ZM300.217 69.4809C300.217 76.4925 294.59 82.8434 286.837 82.8434L286.837 54.8434C278.399 54.8434 272.217 61.7652 272.217 69.4809H300.217ZM116.245 71.7842C116.245 62.7963 109.06 54.8434 99.3848 54.8434L99.3848 82.8434C92.8694 82.8434 88.2452 77.5238 88.2452 71.7842H116.245ZM103.929 69.7612C103.929 76.6181 98.424 82.8434 90.8219 82.8434L90.8219 54.8434C82.2337 54.8434 75.9291 61.8906 75.9291 69.7612H103.929ZM75.9291 69.7612C75.9291 75.268 78.991 80.525 84.1829 83.1149L96.6814 58.0591C101.258 60.3421 103.929 64.9577 103.929 69.7612H75.9291ZM209.241 56.4262C216.911 56.4262 222.471 62.708 222.471 69.6348H194.471C194.471 77.4358 200.721 84.4262 209.241 84.4262L209.241 56.4262ZM232.478 75.5702C232.478 65.3655 224.333 56.4262 213.475 56.4262L213.475 84.4262C208.143 84.4262 204.478 80.093 204.478 75.5702H232.478ZM213.475 94.7142C224.333 94.7142 232.478 85.7748 232.478 75.5702H204.478C204.478 71.0475 208.143 66.7142 213.475 66.7142L213.475 94.7142ZM222.471 81.5056C222.471 88.4323 216.911 94.7142 209.241 94.7142L209.241 66.7142C200.721 66.7142 194.471 73.7047 194.471 81.5056H222.471ZM209.241 68.297C216.911 68.297 222.471 74.5788 222.471 81.5056H194.471C194.471 89.3065 200.721 96.297 209.241 96.297V68.297ZM234.499 75.5702C234.499 71.9215 237.474 68.297 241.956 68.297V96.297C253.664 96.297 262.499 86.649 262.499 75.5702H234.499ZM46.2347 59.9918C48.6467 57.7356 51.8637 56.4262 55.27 56.4262V84.4262C59.0672 84.4262 62.661 82.967 65.3621 80.4403L46.2347 59.9918ZM241.956 44.5554C231.097 44.5554 222.952 53.4947 222.952 63.6994H250.952C250.952 68.2222 247.288 72.5554 241.956 72.5554L241.956 44.5554ZM311.755 68.297C313.511 68.297 315.229 68.7072 316.776 69.479L304.278 94.5347C306.59 95.6883 309.148 96.297 311.755 96.297V68.297ZM300.568 79.5271C300.568 73.6931 305.267 68.297 311.874 68.297V96.297C321.457 96.297 328.568 88.4207 328.568 79.5271H300.568ZM114.401 68.297C116.257 68.297 118.075 68.7306 119.712 69.5475L107.214 94.6032C109.436 95.7118 111.895 96.297 114.401 96.297V68.297ZM319.572 44.5554C308.713 44.5554 300.568 53.4947 300.568 63.6994H328.568C328.568 68.2222 324.904 72.5554 319.572 72.5554L319.572 44.5554ZM342.664 60.3831C348.809 60.3831 352.921 64.7583 354.153 68.9559C355.376 73.1244 354.294 78.7999 349.431 82.1178L333.65 58.9884C321.328 67.3957 325.994 88.3831 342.664 88.3831V60.3831ZM209.241 54.8434C200.721 54.8434 194.471 61.8339 194.471 69.6348H222.471C222.471 76.5616 216.911 82.8434 209.241 82.8434L209.241 54.8434ZM319.577 106.585C330.45 106.585 338.575 97.6246 338.575 87.441H310.575C310.575 82.9336 314.224 78.585 319.577 78.585V106.585ZM288.816 98.2445C287.792 97.7337 287.125 97.1624 286.797 96.8481C286.498 96.5613 286.4 96.4053 286.578 96.6374C286.659 96.7439 286.763 96.883 286.933 97.1164C287.075 97.3102 287.322 97.6513 287.554 97.9636C288.026 98.5983 288.793 99.6052 289.776 100.645L310.121 81.4074C310.282 81.5785 310.293 81.6194 310.027 81.261C309.986 81.2068 309.201 80.1256 308.794 79.5957C307.771 78.2617 305.358 75.2058 301.315 73.1888L288.816 98.2445ZM300.217 87.441C300.217 94.3614 292.733 100.198 285.339 96.51L297.838 71.4543C285.477 65.2885 272.217 74.8446 272.217 87.441H300.217ZM270.052 82.8434C265.358 82.8434 262.21 79.0417 262.21 75.1745H290.21C290.21 64.3143 281.548 54.8434 270.052 54.8434L270.052 82.8434ZM184.485 87.8497C184.441 97.8128 192.381 106.585 203.01 106.585V78.585C208.625 78.585 212.506 83.1656 212.485 87.9735L184.485 87.8497ZM192.526 82.8434C187.71 82.8434 184.465 78.9409 184.465 74.9493H212.465C212.465 64.2134 203.901 54.8434 192.526 54.8434L192.526 82.8434ZM316.668 69.4251C320.403 71.2881 322.54 75.0262 322.54 78.8678H294.54C294.54 85.3366 298.136 91.471 304.17 94.4808L316.668 69.4251ZM200.165 72.4297C201.743 77.0168 198.592 82.8434 192.526 82.8434L192.526 54.8434C178.259 54.8434 169.375 69.0089 173.689 81.5429L200.165 72.4297ZM104.41 78.5326C104.41 73.2478 108.676 68.297 114.749 68.297V96.297C124.866 96.297 132.41 87.9753 132.41 78.5326H104.41ZM338.575 62.48C338.575 52.9488 330.961 44.5554 320.758 44.5554L320.758 72.5554C314.771 72.5554 310.575 67.6763 310.575 62.48H338.575ZM170.599 82.8434C166.37 82.8434 162.898 80.1569 161.605 76.592L187.927 67.0446C185.336 59.9021 178.541 54.8434 170.599 54.8434V82.8434ZM322.613 54.1854C329.962 49.1716 338.575 55.0857 338.575 62.48H310.575C310.575 76.136 325.97 85.791 338.394 77.3148L322.613 54.1854ZM119.712 69.5475C123.856 71.6145 126.252 75.7787 126.252 80.0877H98.252C98.252 86.0892 101.589 91.7974 107.214 94.6032L119.712 69.5475ZM179.67 76.3703C178.443 80.0374 174.925 82.8434 170.599 82.8434V54.8434C162.475 54.8434 155.578 60.1281 153.116 67.4873L179.67 76.3703ZM134.575 82.8434C129.881 82.8434 126.733 79.0417 126.733 75.1745H154.733C154.733 64.3142 146.071 54.8434 134.575 54.8434L134.575 82.8434ZM142.417 75.1745C142.417 79.0417 139.269 82.8434 134.575 82.8434L134.575 54.8434C123.079 54.8434 114.417 64.3142 114.417 75.1745H142.417ZM122.644 106.585C122.644 106.585 122.645 106.585 122.645 106.585C122.646 106.585 122.646 106.585 122.647 106.585C122.647 106.585 122.648 106.585 122.648 106.585C122.649 106.585 122.649 106.585 122.65 106.585C122.65 106.585 122.651 106.585 122.651 106.585C122.652 106.585 122.652 106.585 122.653 106.585C122.653 106.585 122.654 106.585 122.654 106.585C122.655 106.585 122.655 106.585 122.656 106.585C122.656 106.585 122.657 106.585 122.657 106.585C122.658 106.585 122.658 106.585 122.659 106.585C122.659 106.585 122.66 106.585 122.66 106.585C122.661 106.585 122.661 106.585 122.662 106.585C122.662 106.585 122.663 106.585 122.663 106.585C122.664 106.585 122.664 106.585 122.665 106.585C122.665 106.585 122.666 106.585 122.666 106.585C122.667 106.585 122.667 106.585 122.668 106.585C122.668 106.585 122.669 106.585 122.669 106.585C122.67 106.585 122.67 106.585 122.671 106.585C122.671 106.585 122.672 106.585 122.672 106.585C122.673 106.585 122.673 106.585 122.674 106.585C122.674 106.585 122.675 106.585 122.675 106.585C122.676 106.585 122.676 106.585 122.677 106.585C122.677 106.585 122.678 106.585 122.678 106.585C122.679 106.585 122.679 106.585 122.68 106.585C122.68 106.585 122.681 106.585 122.681 106.585C122.682 106.585 122.682 106.585 122.683 106.585C122.683 106.585 122.684 106.585 122.684 106.585C122.685 106.585 122.685 106.585 122.686 106.585C122.686 106.585 122.687 106.585 122.687 106.585C122.688 106.585 122.688 106.585 122.689 106.585C122.689 106.585 122.69 106.585 122.69 106.585C122.691 106.585 122.691 106.585 122.692 106.585C122.692 106.585 122.693 106.585 122.693 106.585C122.694 106.585 122.694 106.585 122.695 106.585C122.695 106.585 122.696 106.585 122.696 106.585C122.697 106.585 122.697 106.585 122.698 106.585C122.698 106.585 122.699 106.585 122.699 106.585C122.7 106.585 122.7 106.585 122.701 106.585C122.701 106.585 122.702 106.585 122.702 106.585C122.703 106.585 122.703 106.585 122.704 106.585C122.704 106.585 122.705 106.585 122.705 106.585C122.706 106.585 122.706 106.585 122.707 106.585C122.707 106.585 122.708 106.585 122.708 106.585C122.709 106.585 122.709 106.585 122.71 106.585C122.71 106.585 122.711 106.585 122.711 106.585C122.712 106.585 122.712 106.585 122.713 106.585C122.713 106.585 122.714 106.585 122.714 106.585C122.715 106.585 122.715 106.585 122.716 106.585C122.716 106.585 122.717 106.585 122.717 106.585C122.718 106.585 122.718 106.585 122.719 106.585C122.719 106.585 122.72 106.585 122.72 106.585C122.721 106.585 122.721 106.585 122.722 106.585C122.722 106.585 122.723 106.585 122.723 106.585C122.724 106.585 122.724 106.585 122.725 106.585C122.725 106.585 122.726 106.585 122.726 106.585C122.727 106.585 122.727 106.585 122.728 106.585C122.728 106.585 122.729 106.585 122.729 106.585C122.73 106.585 122.73 106.585 122.731 106.585C122.731 106.585 122.732 106.585 122.732 106.585C122.733 106.585 122.733 106.585 122.734 106.585C122.734 106.585 122.735 106.585 122.735 106.585C122.736 106.585 122.736 106.585 122.737 106.585C122.737 106.585 122.738 106.585 122.738 106.585C122.739 106.585 122.739 106.585 122.74 106.585C122.74 106.585 122.741 106.585 122.741 106.585C122.742 106.585 122.742 106.585 122.743 106.585C122.743 106.585 122.744 106.585 122.744 106.585C122.745 106.585 122.745 106.585 122.746 106.585C122.746 106.585 122.747 106.585 122.747 106.585C122.748 106.585 122.748 106.585 122.749 106.585C122.749 106.585 122.75 106.585 122.75 106.585C122.751 106.585 122.751 106.585 122.752 106.585C122.752 106.585 122.753 106.585 122.753 106.585C122.754 106.585 122.754 106.585 122.755 106.585C122.755 106.585 122.756 106.585 122.756 106.585C122.757 106.585 122.757 106.585 122.758 106.585C122.758 106.585 122.759 106.585 122.759 106.585C122.76 106.585 122.76 106.585 122.761 106.585C122.761 106.585 122.762 106.585 122.762 106.585C122.763 106.585 122.763 106.585 122.764 106.585C122.764 106.585 122.765 106.585 122.765 106.585C122.766 106.585 122.766 106.585 122.767 106.585C122.767 106.585 122.768 106.585 122.768 106.585C122.769 106.585 122.769 106.585 122.77 106.585C122.77 106.585 122.771 106.585 122.771 106.585C122.772 106.585 122.772 106.585 122.773 106.585C122.773 106.585 122.774 106.585 122.774 106.585C122.775 106.585 122.776 106.585 122.776 106.585C122.777 106.585 122.777 106.585 122.778 106.585C122.778 106.585 122.779 106.585 122.779 106.585C122.78 106.585 122.78 106.585 122.781 106.585C122.781 106.585 122.782 106.585 122.782 106.585C122.783 106.585 122.783 106.585 122.784 106.585C122.784 106.585 122.785 106.585 122.785 106.585C122.786 106.585 122.786 106.585 122.787 106.585C122.787 106.585 122.788 106.585 122.788 106.585C122.789 106.585 122.789 106.585 122.79 106.585C122.79 106.585 122.791 106.585 122.791 106.585C122.792 106.585 122.792 106.585 122.793 106.585C122.793 106.585 122.794 106.585 122.794 106.585C122.795 106.585 122.795 106.585 122.796 106.585C122.796 106.585 122.797 106.585 122.797 106.585C122.798 106.585 122.798 106.585 122.799 106.585C122.799 106.585 122.8 106.585 122.8 106.585C122.801 106.585 122.801 106.585 122.802 106.585C122.802 106.585 122.803 106.585 122.803 106.585C122.804 106.585 122.804 106.585 122.805 106.585C122.805 106.585 122.806 106.585 122.806 106.585C122.807 106.585 122.807 106.585 122.808 106.585C122.808 106.585 122.809 106.585 122.809 106.585C122.81 106.585 122.81 106.585 122.811 106.585C122.811 106.585 122.812 106.585 122.812 106.585C122.813 106.585 122.813 106.585 122.814 106.585C122.814 106.585 122.815 106.585 122.815 106.585C122.816 106.585 122.816 106.585 122.817 106.585C122.817 106.585 122.818 106.585 122.818 106.585C122.819 106.585 122.819 106.585 122.82 106.585C122.82 106.585 122.821 106.585 122.821 106.585C122.822 106.585 122.822 106.585 122.823 106.585C122.823 106.585 122.824 106.585 122.824 106.585C122.825 106.585 122.825 106.585 122.826 106.585C122.826 106.585 122.827 106.585 122.827 106.585C122.828 106.585 122.828 106.585 122.829 106.585C122.829 106.585 122.83 106.585 122.83 106.585C122.831 106.585 122.831 106.585 122.832 106.585C122.832 106.585 122.833 106.585 122.833 106.585C122.834 106.585 122.834 106.585 122.835 106.585C122.835 106.585 122.836 106.585 122.836 106.585C122.837 106.585 122.837 106.585 122.838 106.585C122.838 106.585 122.839 106.585 122.839 106.585C122.84 106.585 122.84 106.585 122.841 106.585C122.841 106.585 122.842 106.585 122.842 106.585C122.843 106.585 122.843 106.585 122.844 106.585C122.844 106.585 122.845 106.585 122.845 106.585C122.846 106.585 122.846 106.585 122.847 106.585C122.847 106.585 122.848 106.585 122.848 106.585C122.849 106.585 122.849 106.585 122.85 106.585C122.85 106.585 122.851 106.585 122.851 106.585C122.852 106.585 122.852 106.585 122.853 106.585C122.853 106.585 122.854 106.585 122.854 106.585C122.855 106.585 122.855 106.585 122.856 106.585C122.856 106.585 122.857 106.585 122.857 106.585C122.858 106.585 122.858 106.585 122.859 106.585C122.859 106.585 122.86 106.585 122.86 106.585C122.861 106.585 122.861 106.585 122.862 106.585C122.862 106.585 122.863 106.585 122.863 106.585C122.864 106.585 122.864 106.585 122.865 106.585C122.865 106.585 122.866 106.585 122.866 106.585C122.867 106.585 122.867 106.585 122.868 106.585C122.868 106.585 122.869 106.585 122.869 106.585C122.87 106.585 122.87 106.585 122.871 106.585C122.871 106.585 122.872 106.585 122.872 106.585C122.873 106.585 122.873 106.585 122.874 106.585C122.874 106.585 122.875 106.585 122.875 106.585C122.876 106.585 122.876 106.585 122.877 106.585C122.877 106.585 122.878 106.585 122.878 106.585C122.879 106.585 122.879 106.585 122.88 106.585C122.88 106.585 122.881 106.585 122.881 106.585C122.882 106.585 122.882 106.585 122.883 106.585C122.883 106.585 122.884 106.585 122.884 106.585C122.885 106.585 122.885 106.585 122.886 106.585C122.886 106.585 122.887 106.585 122.887 106.585C122.888 106.585 122.888 106.585 122.889 106.585C122.889 106.585 122.89 106.585 122.89 106.585C122.891 106.585 122.891 106.585 122.892 106.585C122.892 106.585 122.893 106.585 122.893 106.585C122.894 106.585 122.894 106.585 122.895 106.585C122.895 106.585 122.896 106.585 122.896 106.585C122.897 106.585 122.897 106.585 122.898 106.585C122.898 106.585 122.899 106.585 122.899 106.585C122.9 106.585 122.9 106.585 122.901 106.585C122.901 106.585 122.902 106.585 122.902 106.585C122.903 106.585 122.903 106.585 122.904 106.585C122.904 106.585 122.905 106.585 122.905 106.585C122.906 106.585 122.906 106.585 122.907 106.585C122.907 106.585 122.908 106.585 122.908 106.585C122.909 106.585 122.909 106.585 122.91 106.585C122.91 106.585 122.911 106.585 122.911 106.585C122.912 106.585 122.912 106.585 122.913 106.585C122.913 106.585 122.914 106.585 122.914 106.585C122.915 106.585 122.915 106.585 122.916 106.585C122.916 106.585 122.917 106.585 122.917 106.585C122.918 106.585 122.918 106.585 122.919 106.585C122.919 106.585 122.92 106.585 122.92 106.585C122.921 106.585 122.921 106.585 122.922 106.585C122.922 106.585 122.923 106.585 122.923 106.585C122.924 106.585 122.924 106.585 122.925 106.585C122.925 106.585 122.926 106.585 122.926 106.585C122.927 106.585 122.927 106.585 122.928 106.585C122.928 106.585 122.929 106.585 122.929 106.585C122.93 106.585 122.93 106.585 122.931 106.585C122.931 106.585 122.932 106.585 122.932 106.585C122.933 106.585 122.933 106.585 122.934 106.585C122.934 106.585 122.935 106.585 122.935 106.585C122.936 106.585 122.936 106.585 122.937 106.585C122.937 106.585 122.938 106.585 122.938 106.585C122.939 106.585 122.939 106.585 122.94 106.585C122.94 106.585 122.941 106.585 122.941 106.585C122.942 106.585 122.942 106.585 122.943 106.585C122.943 106.585 122.944 106.585 122.944 106.585C122.945 106.585 122.945 106.585 122.946 106.585C122.946 106.585 122.947 106.585 122.947 106.585C122.948 106.585 122.948 106.585 122.949 106.585C122.949 106.585 122.95 106.585 122.95 106.585C122.951 106.585 122.951 106.585 122.952 106.585C122.952 106.585 122.953 106.585 122.953 106.585C122.954 106.585 122.954 106.585 122.955 106.585C122.955 106.585 122.956 106.585 122.956 106.585C122.957 106.585 122.957 106.585 122.958 106.585C122.958 106.585 122.959 106.585 122.959 106.585C122.96 106.585 122.96 106.585 122.961 106.585C122.961 106.585 122.962 106.585 122.962 106.585C122.963 106.585 122.963 106.585 122.964 106.585C122.964 106.585 122.965 106.585 122.965 106.585C122.966 106.585 122.966 106.585 122.967 106.585C122.967 106.585 122.968 106.585 122.968 106.585C122.969 106.585 122.969 106.585 122.97 106.585C122.97 106.585 122.971 106.585 122.971 106.585C122.972 106.585 122.972 106.585 122.973 106.585C122.973 106.585 122.974 106.585 122.974 106.585C122.975 106.585 122.975 106.585 122.976 106.585C122.976 106.585 122.977 106.585 122.977 106.585C122.978 106.585 122.978 106.585 122.979 106.585C122.979 106.585 122.98 106.585 122.98 106.585C122.981 106.585 122.981 106.585 122.982 106.585C122.982 106.585 122.983 106.585 122.983 106.585C122.984 106.585 122.984 106.585 122.985 106.585C122.986 106.585 122.986 106.585 122.987 106.585C122.987 106.585 122.988 106.585 122.988 106.585C122.989 106.585 122.989 106.585 122.99 106.585C122.99 106.585 122.991 106.585 122.991 106.585C122.992 106.585 122.992 106.585 122.993 106.585C122.993 106.585 122.994 106.585 122.994 106.585C122.995 106.585 122.995 106.585 122.996 106.585C122.996 106.585 122.997 106.585 122.997 106.585C122.998 106.585 122.998 106.585 122.999 106.585C122.999 106.585 123 106.585 123 106.585C123.001 106.585 123.001 106.585 123.002 106.585C123.002 106.585 123.003 106.585 123.003 106.585C123.004 106.585 123.004 106.585 123.005 106.585C123.005 106.585 123.006 106.585 123.006 106.585C123.007 106.585 123.007 106.585 123.008 106.585C123.008 106.585 123.009 106.585 123.009 106.585C123.01 106.585 123.01 106.585 123.011 106.585C123.011 106.585 123.012 106.585 123.012 106.585C123.013 106.585 123.013 106.585 123.014 106.585C123.014 106.585 123.015 106.585 123.015 106.585C123.016 106.585 123.016 106.585 123.017 106.585C123.017 106.585 123.018 106.585 123.018 106.585C123.019 106.585 123.019 106.585 123.02 106.585C123.02 106.585 123.021 106.585 123.021 106.585C123.022 106.585 123.022 106.585 123.023 106.585C123.023 106.585 123.024 106.585 123.024 106.585C123.025 106.585 123.025 106.585 123.026 106.585C123.026 106.585 123.027 106.585 123.027 106.585C123.028 106.585 123.028 106.585 123.029 106.585C123.029 106.585 123.03 106.585 123.03 106.585C123.031 106.585 123.031 106.585 123.032 106.585C123.032 106.585 123.033 106.585 123.033 106.585C123.034 106.585 123.034 106.585 123.035 106.585C123.035 106.585 123.036 106.585 123.036 106.585C123.037 106.585 123.037 106.585 123.038 106.585C123.038 106.585 123.039 106.585 123.039 106.585C123.04 106.585 123.04 106.585 123.041 106.585C123.041 106.585 123.042 106.585 123.042 106.585C123.043 106.585 123.043 106.585 123.044 106.585C123.044 106.585 123.045 106.585 123.045 106.585C123.046 106.585 123.046 106.585 123.047 106.585C123.047 106.585 123.048 106.585 123.048 106.585C123.049 106.585 123.049 106.585 123.05 106.585C123.05 106.585 123.051 106.585 123.051 106.585C123.052 106.585 123.052 106.585 123.053 106.585C123.053 106.585 123.054 106.585 123.054 106.585C123.055 106.585 123.055 106.585 123.056 106.585C123.056 106.585 123.057 106.585 123.057 106.585C123.058 106.585 123.058 106.585 123.059 106.585C123.059 106.585 123.06 106.585 123.06 106.585C123.061 106.585 123.061 106.585 123.062 106.585C123.062 106.585 123.063 106.585 123.063 106.585C123.064 106.585 123.064 106.585 123.065 106.585C123.065 106.585 123.066 106.585 123.066 106.585C123.067 106.585 123.067 106.585 123.068 106.585C123.068 106.585 123.069 106.585 123.069 106.585C123.07 106.585 123.07 106.585 123.071 106.585C123.071 106.585 123.072 106.585 123.072 106.585C123.073 106.585 123.073 106.585 123.074 106.585C123.074 106.585 123.075 106.585 123.075 106.585C123.076 106.585 123.076 106.585 123.077 106.585C123.077 106.585 123.078 106.585 123.078 106.585C123.079 106.585 123.079 106.585 123.08 106.585C123.08 106.585 123.081 106.585 123.081 106.585C123.082 106.585 123.082 106.585 123.083 106.585C123.083 106.585 123.084 106.585 123.084 106.585C123.085 106.585 123.085 106.585 123.086 106.585C123.086 106.585 123.087 106.585 123.087 106.585C123.088 106.585 123.088 106.585 123.089 106.585C123.089 106.585 123.09 106.585 123.09 106.585C123.091 106.585 123.091 106.585 123.092 106.585C123.092 106.585 123.093 106.585 123.093 106.585C123.094 106.585 123.094 106.585 123.095 106.585C123.095 106.585 123.096 106.585 123.096 106.585C123.097 106.585 123.097 106.585 123.098 106.585C123.098 106.585 123.099 106.585 123.099 106.585C123.1 106.585 123.1 106.585 123.101 106.585C123.101 106.585 123.102 106.585 123.102 106.585C123.103 106.585 123.103 106.585 123.104 106.585C123.104 106.585 123.105 106.585 123.105 106.585C123.106 106.585 123.106 106.585 123.107 106.585C123.107 106.585 123.108 106.585 123.108 106.585C123.109 106.585 123.109 106.585 123.11 106.585C123.11 106.585 123.111 106.585 123.111 106.585C123.112 106.585 123.112 106.585 123.113 106.585C123.113 106.585 123.114 106.585 123.114 106.585C123.115 106.585 123.115 106.585 123.116 106.585C123.116 106.585 123.117 106.585 123.117 106.585C123.118 106.585 123.118 106.585 123.119 106.585C123.119 106.585 123.12 106.585 123.12 106.585C123.121 106.585 123.121 106.585 123.122 106.585C123.122 106.585 123.123 106.585 123.123 106.585C123.124 106.585 123.124 106.585 123.125 106.585C123.125 106.585 123.126 106.585 123.126 106.585C123.127 106.585 123.127 106.585 123.128 106.585C123.128 106.585 123.129 106.585 123.129 106.585C123.13 106.585 123.13 106.585 123.131 106.585C123.131 106.585 123.132 106.585 123.132 106.585C123.133 106.585 123.133 106.585 123.134 106.585C123.134 106.585 123.135 106.585 123.135 106.585C123.136 106.585 123.136 106.585 123.137 106.585C123.137 106.585 123.138 106.585 123.138 106.585C123.139 106.585 123.139 106.585 123.14 106.585C123.14 106.585 123.141 106.585 123.141 106.585C123.142 106.585 123.142 106.585 123.143 106.585C123.143 106.585 123.144 106.585 123.144 106.585C123.145 106.585 123.145 106.585 123.146 106.585C123.146 106.585 123.147 106.585 123.147 106.585C123.148 106.585 123.148 106.585 123.149 106.585C123.149 106.585 123.15 106.585 123.15 106.585C123.151 106.585 123.151 106.585 123.152 106.585C123.152 106.585 123.153 106.585 123.153 106.585C123.154 106.585 123.154 106.585 123.155 106.585C123.155 106.585 123.156 106.585 123.156 106.585C123.157 106.585 123.157 106.585 123.158 106.585C123.158 106.585 123.159 106.585 123.159 106.585C123.16 106.585 123.16 106.585 123.161 106.585C123.161 106.585 123.162 106.585 123.162 106.585C123.163 106.585 123.163 106.585 123.164 106.585C123.164 106.585 123.165 106.585 123.165 106.585C123.166 106.585 123.166 106.585 123.167 106.585C123.167 106.585 123.168 106.585 123.168 106.585C123.169 106.585 123.169 106.585 123.17 106.585C123.17 106.585 123.171 106.585 123.171 106.585C123.172 106.585 123.172 106.585 123.173 106.585C123.173 106.585 123.174 106.585 123.174 106.585C123.175 106.585 123.175 106.585 123.176 106.585C123.176 106.585 123.177 106.585 123.177 106.585C123.178 106.585 123.178 106.585 123.179 106.585C123.179 106.585 123.18 106.585 123.18 106.585C123.181 106.585 123.181 106.585 123.182 106.585C123.182 106.585 123.183 106.585 123.183 106.585C123.184 106.585 123.184 106.585 123.185 106.585C123.185 106.585 123.186 106.585 123.187 106.585C123.187 106.585 123.188 106.585 123.188 106.585C123.189 106.585 123.189 106.585 123.19 106.585C123.19 106.585 123.191 106.585 123.191 106.585C123.192 106.585 123.192 106.585 123.193 106.585C123.193 106.585 123.194 106.585 123.194 106.585C123.195 106.585 123.195 106.585 123.196 106.585C123.196 106.585 123.197 106.585 123.197 106.585C123.198 106.585 123.198 106.585 123.199 106.585C123.199 106.585 123.2 106.585 123.2 106.585C123.201 106.585 123.201 106.585 123.202 106.585C123.202 106.585 123.203 106.585 123.203 106.585C123.204 106.585 123.204 106.585 123.205 106.585C123.205 106.585 123.206 106.585 123.206 106.585C123.207 106.585 123.207 106.585 123.208 106.585C123.208 106.585 123.209 106.585 123.209 106.585C123.21 106.585 123.21 106.585 123.211 106.585C123.211 106.585 123.212 106.585 123.212 106.585C123.213 106.585 123.213 106.585 123.214 106.585C123.214 106.585 123.215 106.585 123.215 106.585C123.216 106.585 123.216 106.585 123.217 106.585C123.217 106.585 123.218 106.585 123.218 106.585C123.219 106.585 123.219 106.585 123.22 106.585C123.22 106.585 123.221 106.585 123.221 106.585C123.222 106.585 123.222 106.585 123.223 106.585C123.223 106.585 123.224 106.585 123.224 106.585C123.225 106.585 123.225 106.585 123.226 106.585C123.226 106.585 123.227 106.585 123.227 106.585C123.228 106.585 123.228 106.585 123.229 106.585C123.229 106.585 123.23 106.585 123.23 106.585C123.231 106.585 123.231 106.585 123.232 106.585C123.232 106.585 123.233 106.585 123.233 106.585C123.234 106.585 123.234 106.585 123.235 106.585C123.235 106.585 123.236 106.585 123.236 106.585C123.237 106.585 123.237 106.585 123.238 106.585C123.238 106.585 123.239 106.585 123.239 106.585C123.24 106.585 123.24 106.585 123.241 106.585C123.241 106.585 123.242 106.585 123.242 106.585C123.243 106.585 123.243 106.585 123.244 106.585C123.244 106.585 123.245 106.585 123.245 106.585C123.246 106.585 123.246 106.585 123.247 106.585C123.247 106.585 123.248 106.585 123.248 106.585C123.249 106.585 123.249 106.585 123.25 106.585C123.25 106.585 123.251 106.585 123.251 106.585C123.252 106.585 123.252 106.585 123.253 106.585C123.253 106.585 123.254 106.585 123.254 106.585C123.255 106.585 123.255 106.585 123.256 106.585C123.256 106.585 123.257 106.585 123.257 106.585C123.258 106.585 123.258 106.585 123.259 106.585C123.259 106.585 123.26 106.585 123.26 106.585C123.261 106.585 123.261 106.585 123.262 106.585C123.262 106.585 123.263 106.585 123.263 106.585C123.264 106.585 123.264 106.585 123.265 106.585C123.265 106.585 123.266 106.585 123.266 106.585C123.267 106.585 123.267 106.585 123.268 106.585C123.268 106.585 123.269 106.585 123.269 106.585C123.27 106.585 123.27 106.585 123.271 106.585C123.271 106.585 123.272 106.585 123.272 106.585C123.273 106.585 123.273 106.585 123.274 106.585C123.274 106.585 123.275 106.585 123.275 106.585C123.276 106.585 123.276 106.585 123.277 106.585C123.277 106.585 123.278 106.585 123.278 106.585C123.279 106.585 123.279 106.585 123.28 106.585C123.28 106.585 123.281 106.585 123.281 106.585C123.282 106.585 123.282 106.585 123.283 106.585C123.283 106.585 123.284 106.585 123.284 106.585C123.285 106.585 123.285 106.585 123.286 106.585C123.286 106.585 123.287 106.585 123.287 106.585C123.288 106.585 123.288 106.585 123.289 106.585C123.289 106.585 123.29 106.585 123.29 106.585C123.291 106.585 123.291 106.585 123.292 106.585C123.292 106.585 123.293 106.585 123.293 106.585C123.294 106.585 123.294 106.585 123.295 106.585C123.295 106.585 123.296 106.585 123.296 106.585C123.297 106.585 123.297 106.585 123.298 106.585C123.298 106.585 123.299 106.585 123.299 106.585C123.3 106.585 123.3 106.585 123.301 106.585C123.301 106.585 123.302 106.585 123.302 106.585C123.303 106.585 123.303 106.585 123.304 106.585C123.304 106.585 123.305 106.585 123.305 106.585C123.306 106.585 123.306 106.585 123.307 106.585C123.307 106.585 123.308 106.585 123.308 106.585C123.309 106.585 123.309 106.585 123.31 106.585C123.31 106.585 123.311 106.585 123.311 106.585C123.312 106.585 123.312 106.585 123.313 106.585C123.313 106.585 123.314 106.585 123.314 106.585C123.315 106.585 123.315 106.585 123.316 106.585C123.316 106.585 123.317 106.585 123.317 106.585C123.318 106.585 123.318 106.585 123.319 106.585C123.319 106.585 123.32 106.585 123.32 106.585C123.321 106.585 123.321 106.585 123.322 106.585C123.322 106.585 123.323 106.585 123.323 106.585C123.324 106.585 123.324 106.585 123.325 106.585C123.325 106.585 123.326 106.585 123.326 106.585C123.327 106.585 123.327 106.585 123.328 106.585C123.328 106.585 123.329 106.585 123.329 106.585C123.33 106.585 123.33 106.585 123.331 106.585C123.331 106.585 123.332 106.585 123.332 106.585C123.333 106.585 123.333 106.585 123.334 106.585C123.334 106.585 123.335 106.585 123.335 106.585C123.336 106.585 123.336 106.585 123.337 106.585C123.337 106.585 123.338 106.585 123.338 106.585C123.339 106.585 123.339 106.585 123.34 106.585C123.34 106.585 123.341 106.585 123.341 106.585C123.342 106.585 123.342 106.585 123.343 106.585C123.343 106.585 123.344 106.585 123.344 106.585C123.345 106.585 123.345 106.585 123.346 106.585C123.346 106.585 123.347 106.585 123.347 106.585C123.348 106.585 123.348 106.585 123.349 106.585C123.349 106.585 123.35 106.585 123.35 106.585C123.351 106.585 123.351 106.585 123.352 106.585C123.352 106.585 123.353 106.585 123.353 106.585C123.354 106.585 123.354 106.585 123.355 106.585C123.355 106.585 123.356 106.585 123.356 106.585C123.357 106.585 123.357 106.585 123.358 106.585C123.358 106.585 123.359 106.585 123.359 106.585C123.36 106.585 123.36 106.585 123.361 106.585C123.361 106.585 123.362 106.585 123.362 106.585C123.363 106.585 123.363 106.585 123.364 106.585C123.364 106.585 123.365 106.585 123.365 106.585C123.366 106.585 123.366 106.585 123.367 106.585C123.367 106.585 123.368 106.585 123.368 106.585C123.369 106.585 123.369 106.585 123.37 106.585C123.37 106.585 123.371 106.585 123.371 106.585C123.372 106.585 123.372 106.585 123.373 106.585C123.373 106.585 123.374 106.585 123.374 106.585C123.375 106.585 123.375 106.585 123.376 106.585C123.376 106.585 123.377 106.585 123.377 106.585C123.378 106.585 123.378 106.585 123.379 106.585C123.379 106.585 123.38 106.585 123.38 106.585C123.381 106.585 123.381 106.585 123.382 106.585C123.382 106.585 123.383 106.585 123.383 106.585C123.384 106.585 123.384 106.585 123.385 106.585C123.385 106.585 123.386 106.585 123.386 106.585C123.387 106.585 123.387 106.585 123.388 106.585C123.388 106.585 123.389 106.585 123.389 106.585C123.39 106.585 123.39 106.585 123.391 106.585C123.391 106.585 123.392 106.585 123.392 106.585C123.393 106.585 123.393 106.585 123.394 106.585C123.394 106.585 123.395 106.585 123.395 106.585C123.396 106.585 123.396 106.585 123.397 106.585C123.397 106.585 123.398 106.585 123.398 106.585C123.399 106.585 123.399 106.585 123.4 106.585C123.4 106.585 123.401 106.585 123.401 106.585C123.402 106.585 123.402 106.585 123.403 106.585C123.403 106.585 123.404 106.585 123.404 106.585C123.405 106.585 123.405 106.585 123.406 106.585C123.406 106.585 123.407 106.585 123.407 106.585C123.408 106.585 123.408 106.585 123.409 106.585C123.409 106.585 123.41 106.585 123.41 106.585C123.411 106.585 123.411 106.585 123.412 106.585C123.412 106.585 123.413 106.585 123.413 106.585V78.585C123.413 78.585 123.412 78.585 123.412 78.585C123.411 78.585 123.411 78.585 123.41 78.585C123.41 78.585 123.409 78.585 123.409 78.585C123.408 78.585 123.408 78.585 123.407 78.585C123.407 78.585 123.406 78.585 123.406 78.585C123.405 78.585 123.405 78.585 123.404 78.585C123.404 78.585 123.403 78.585 123.403 78.585C123.402 78.585 123.402 78.585 123.401 78.585C123.401 78.585 123.4 78.585 123.4 78.585C123.399 78.585 123.399 78.585 123.398 78.585C123.398 78.585 123.397 78.585 123.397 78.585C123.396 78.585 123.396 78.585 123.395 78.585C123.395 78.585 123.394 78.585 123.394 78.585C123.393 78.585 123.393 78.585 123.392 78.585C123.392 78.585 123.391 78.585 123.391 78.585C123.39 78.585 123.39 78.585 123.389 78.585C123.389 78.585 123.388 78.585 123.388 78.585C123.387 78.585 123.387 78.585 123.386 78.585C123.386 78.585 123.385 78.585 123.385 78.585C123.384 78.585 123.384 78.585 123.383 78.585C123.383 78.585 123.382 78.585 123.382 78.585C123.381 78.585 123.381 78.585 123.38 78.585C123.38 78.585 123.379 78.585 123.379 78.585C123.378 78.585 123.378 78.585 123.377 78.585C123.377 78.585 123.376 78.585 123.376 78.585C123.375 78.585 123.375 78.585 123.374 78.585C123.374 78.585 123.373 78.585 123.373 78.585C123.372 78.585 123.372 78.585 123.371 78.585C123.371 78.585 123.37 78.585 123.37 78.585C123.369 78.585 123.369 78.585 123.368 78.585C123.368 78.585 123.367 78.585 123.367 78.585C123.366 78.585 123.366 78.585 123.365 78.585C123.365 78.585 123.364 78.585 123.364 78.585C123.363 78.585 123.363 78.585 123.362 78.585C123.362 78.585 123.361 78.585 123.361 78.585C123.36 78.585 123.36 78.585 123.359 78.585C123.359 78.585 123.358 78.585 123.358 78.585C123.357 78.585 123.357 78.585 123.356 78.585C123.356 78.585 123.355 78.585 123.355 78.585C123.354 78.585 123.354 78.585 123.353 78.585C123.353 78.585 123.352 78.585 123.352 78.585C123.351 78.585 123.351 78.585 123.35 78.585C123.35 78.585 123.349 78.585 123.349 78.585C123.348 78.585 123.348 78.585 123.347 78.585C123.347 78.585 123.346 78.585 123.346 78.585C123.345 78.585 123.345 78.585 123.344 78.585C123.344 78.585 123.343 78.585 123.343 78.585C123.342 78.585 123.342 78.585 123.341 78.585C123.341 78.585 123.34 78.585 123.34 78.585C123.339 78.585 123.339 78.585 123.338 78.585C123.338 78.585 123.337 78.585 123.337 78.585C123.336 78.585 123.336 78.585 123.335 78.585C123.335 78.585 123.334 78.585 123.334 78.585C123.333 78.585 123.333 78.585 123.332 78.585C123.332 78.585 123.331 78.585 123.331 78.585C123.33 78.585 123.33 78.585 123.329 78.585C123.329 78.585 123.328 78.585 123.328 78.585C123.327 78.585 123.327 78.585 123.326 78.585C123.326 78.585 123.325 78.585 123.325 78.585C123.324 78.585 123.324 78.585 123.323 78.585C123.323 78.585 123.322 78.585 123.322 78.585C123.321 78.585 123.321 78.585 123.32 78.585C123.32 78.585 123.319 78.585 123.319 78.585C123.318 78.585 123.318 78.585 123.317 78.585C123.317 78.585 123.316 78.585 123.316 78.585C123.315 78.585 123.315 78.585 123.314 78.585C123.314 78.585 123.313 78.585 123.313 78.585C123.312 78.585 123.312 78.585 123.311 78.585C123.311 78.585 123.31 78.585 123.31 78.585C123.309 78.585 123.309 78.585 123.308 78.585C123.308 78.585 123.307 78.585 123.307 78.585C123.306 78.585 123.306 78.585 123.305 78.585C123.305 78.585 123.304 78.585 123.304 78.585C123.303 78.585 123.303 78.585 123.302 78.585C123.302 78.585 123.301 78.585 123.301 78.585C123.3 78.585 123.3 78.585 123.299 78.585C123.299 78.585 123.298 78.585 123.298 78.585C123.297 78.585 123.297 78.585 123.296 78.585C123.296 78.585 123.295 78.585 123.295 78.585C123.294 78.585 123.294 78.585 123.293 78.585C123.293 78.585 123.292 78.585 123.292 78.585C123.291 78.585 123.291 78.585 123.29 78.585C123.29 78.585 123.289 78.585 123.289 78.585C123.288 78.585 123.288 78.585 123.287 78.585C123.287 78.585 123.286 78.585 123.286 78.585C123.285 78.585 123.285 78.585 123.284 78.585C123.284 78.585 123.283 78.585 123.283 78.585C123.282 78.585 123.282 78.585 123.281 78.585C123.281 78.585 123.28 78.585 123.28 78.585C123.279 78.585 123.279 78.585 123.278 78.585C123.278 78.585 123.277 78.585 123.277 78.585C123.276 78.585 123.276 78.585 123.275 78.585C123.275 78.585 123.274 78.585 123.274 78.585C123.273 78.585 123.273 78.585 123.272 78.585C123.272 78.585 123.271 78.585 123.271 78.585C123.27 78.585 123.27 78.585 123.269 78.585C123.269 78.585 123.268 78.585 123.268 78.585C123.267 78.585 123.267 78.585 123.266 78.585C123.266 78.585 123.265 78.585 123.265 78.585C123.264 78.585 123.264 78.585 123.263 78.585C123.263 78.585 123.262 78.585 123.262 78.585C123.261 78.585 123.261 78.585 123.26 78.585C123.26 78.585 123.259 78.585 123.259 78.585C123.258 78.585 123.258 78.585 123.257 78.585C123.257 78.585 123.256 78.585 123.256 78.585C123.255 78.585 123.255 78.585 123.254 78.585C123.254 78.585 123.253 78.585 123.253 78.585C123.252 78.585 123.252 78.585 123.251 78.585C123.251 78.585 123.25 78.585 123.25 78.585C123.249 78.585 123.249 78.585 123.248 78.585C123.248 78.585 123.247 78.585 123.247 78.585C123.246 78.585 123.246 78.585 123.245 78.585C123.245 78.585 123.244 78.585 123.244 78.585C123.243 78.585 123.243 78.585 123.242 78.585C123.242 78.585 123.241 78.585 123.241 78.585C123.24 78.585 123.24 78.585 123.239 78.585C123.239 78.585 123.238 78.585 123.238 78.585C123.237 78.585 123.237 78.585 123.236 78.585C123.236 78.585 123.235 78.585 123.235 78.585C123.234 78.585 123.234 78.585 123.233 78.585C123.233 78.585 123.232 78.585 123.232 78.585C123.231 78.585 123.231 78.585 123.23 78.585C123.23 78.585 123.229 78.585 123.229 78.585C123.228 78.585 123.228 78.585 123.227 78.585C123.227 78.585 123.226 78.585 123.226 78.585C123.225 78.585 123.225 78.585 123.224 78.585C123.224 78.585 123.223 78.585 123.223 78.585C123.222 78.585 123.222 78.585 123.221 78.585C123.221 78.585 123.22 78.585 123.22 78.585C123.219 78.585 123.219 78.585 123.218 78.585C123.218 78.585 123.217 78.585 123.217 78.585C123.216 78.585 123.216 78.585 123.215 78.585C123.215 78.585 123.214 78.585 123.214 78.585C123.213 78.585 123.213 78.585 123.212 78.585C123.212 78.585 123.211 78.585 123.211 78.585C123.21 78.585 123.21 78.585 123.209 78.585C123.209 78.585 123.208 78.585 123.208 78.585C123.207 78.585 123.207 78.585 123.206 78.585C123.206 78.585 123.205 78.585 123.205 78.585C123.204 78.585 123.204 78.585 123.203 78.585C123.203 78.585 123.202 78.585 123.202 78.585C123.201 78.585 123.201 78.585 123.2 78.585C123.2 78.585 123.199 78.585 123.199 78.585C123.198 78.585 123.198 78.585 123.197 78.585C123.197 78.585 123.196 78.585 123.196 78.585C123.195 78.585 123.195 78.585 123.194 78.585C123.194 78.585 123.193 78.585 123.193 78.585C123.192 78.585 123.192 78.585 123.191 78.585C123.191 78.585 123.19 78.585 123.19 78.585C123.189 78.585 123.189 78.585 123.188 78.585C123.188 78.585 123.187 78.585 123.187 78.585C123.186 78.585 123.185 78.585 123.185 78.585C123.184 78.585 123.184 78.585 123.183 78.585C123.183 78.585 123.182 78.585 123.182 78.585C123.181 78.585 123.181 78.585 123.18 78.585C123.18 78.585 123.179 78.585 123.179 78.585C123.178 78.585 123.178 78.585 123.177 78.585C123.177 78.585 123.176 78.585 123.176 78.585C123.175 78.585 123.175 78.585 123.174 78.585C123.174 78.585 123.173 78.585 123.173 78.585C123.172 78.585 123.172 78.585 123.171 78.585C123.171 78.585 123.17 78.585 123.17 78.585C123.169 78.585 123.169 78.585 123.168 78.585C123.168 78.585 123.167 78.585 123.167 78.585C123.166 78.585 123.166 78.585 123.165 78.585C123.165 78.585 123.164 78.585 123.164 78.585C123.163 78.585 123.163 78.585 123.162 78.585C123.162 78.585 123.161 78.585 123.161 78.585C123.16 78.585 123.16 78.585 123.159 78.585C123.159 78.585 123.158 78.585 123.158 78.585C123.157 78.585 123.157 78.585 123.156 78.585C123.156 78.585 123.155 78.585 123.155 78.585C123.154 78.585 123.154 78.585 123.153 78.585C123.153 78.585 123.152 78.585 123.152 78.585C123.151 78.585 123.151 78.585 123.15 78.585C123.15 78.585 123.149 78.585 123.149 78.585C123.148 78.585 123.148 78.585 123.147 78.585C123.147 78.585 123.146 78.585 123.146 78.585C123.145 78.585 123.145 78.585 123.144 78.585C123.144 78.585 123.143 78.585 123.143 78.585C123.142 78.585 123.142 78.585 123.141 78.585C123.141 78.585 123.14 78.585 123.14 78.585C123.139 78.585 123.139 78.585 123.138 78.585C123.138 78.585 123.137 78.585 123.137 78.585C123.136 78.585 123.136 78.585 123.135 78.585C123.135 78.585 123.134 78.585 123.134 78.585C123.133 78.585 123.133 78.585 123.132 78.585C123.132 78.585 123.131 78.585 123.131 78.585C123.13 78.585 123.13 78.585 123.129 78.585C123.129 78.585 123.128 78.585 123.128 78.585C123.127 78.585 123.127 78.585 123.126 78.585C123.126 78.585 123.125 78.585 123.125 78.585C123.124 78.585 123.124 78.585 123.123 78.585C123.123 78.585 123.122 78.585 123.122 78.585C123.121 78.585 123.121 78.585 123.12 78.585C123.12 78.585 123.119 78.585 123.119 78.585C123.118 78.585 123.118 78.585 123.117 78.585C123.117 78.585 123.116 78.585 123.116 78.585C123.115 78.585 123.115 78.585 123.114 78.585C123.114 78.585 123.113 78.585 123.113 78.585C123.112 78.585 123.112 78.585 123.111 78.585C123.111 78.585 123.11 78.585 123.11 78.585C123.109 78.585 123.109 78.585 123.108 78.585C123.108 78.585 123.107 78.585 123.107 78.585C123.106 78.585 123.106 78.585 123.105 78.585C123.105 78.585 123.104 78.585 123.104 78.585C123.103 78.585 123.103 78.585 123.102 78.585C123.102 78.585 123.101 78.585 123.101 78.585C123.1 78.585 123.1 78.585 123.099 78.585C123.099 78.585 123.098 78.585 123.098 78.585C123.097 78.585 123.097 78.585 123.096 78.585C123.096 78.585 123.095 78.585 123.095 78.585C123.094 78.585 123.094 78.585 123.093 78.585C123.093 78.585 123.092 78.585 123.092 78.585C123.091 78.585 123.091 78.585 123.09 78.585C123.09 78.585 123.089 78.585 123.089 78.585C123.088 78.585 123.088 78.585 123.087 78.585C123.087 78.585 123.086 78.585 123.086 78.585C123.085 78.585 123.085 78.585 123.084 78.585C123.084 78.585 123.083 78.585 123.083 78.585C123.082 78.585 123.082 78.585 123.081 78.585C123.081 78.585 123.08 78.585 123.08 78.585C123.079 78.585 123.079 78.585 123.078 78.585C123.078 78.585 123.077 78.585 123.077 78.585C123.076 78.585 123.076 78.585 123.075 78.585C123.075 78.585 123.074 78.585 123.074 78.585C123.073 78.585 123.073 78.585 123.072 78.585C123.072 78.585 123.071 78.585 123.071 78.585C123.07 78.585 123.07 78.585 123.069 78.585C123.069 78.585 123.068 78.585 123.068 78.585C123.067 78.585 123.067 78.585 123.066 78.585C123.066 78.585 123.065 78.585 123.065 78.585C123.064 78.585 123.064 78.585 123.063 78.585C123.063 78.585 123.062 78.585 123.062 78.585C123.061 78.585 123.061 78.585 123.06 78.585C123.06 78.585 123.059 78.585 123.059 78.585C123.058 78.585 123.058 78.585 123.057 78.585C123.057 78.585 123.056 78.585 123.056 78.585C123.055 78.585 123.055 78.585 123.054 78.585C123.054 78.585 123.053 78.585 123.053 78.585C123.052 78.585 123.052 78.585 123.051 78.585C123.051 78.585 123.05 78.585 123.05 78.585C123.049 78.585 123.049 78.585 123.048 78.585C123.048 78.585 123.047 78.585 123.047 78.585C123.046 78.585 123.046 78.585 123.045 78.585C123.045 78.585 123.044 78.585 123.044 78.585C123.043 78.585 123.043 78.585 123.042 78.585C123.042 78.585 123.041 78.585 123.041 78.585C123.04 78.585 123.04 78.585 123.039 78.585C123.039 78.585 123.038 78.585 123.038 78.585C123.037 78.585 123.037 78.585 123.036 78.585C123.036 78.585 123.035 78.585 123.035 78.585C123.034 78.585 123.034 78.585 123.033 78.585C123.033 78.585 123.032 78.585 123.032 78.585C123.031 78.585 123.031 78.585 123.03 78.585C123.03 78.585 123.029 78.585 123.029 78.585C123.028 78.585 123.028 78.585 123.027 78.585C123.027 78.585 123.026 78.585 123.026 78.585C123.025 78.585 123.025 78.585 123.024 78.585C123.024 78.585 123.023 78.585 123.023 78.585C123.022 78.585 123.022 78.585 123.021 78.585C123.021 78.585 123.02 78.585 123.02 78.585C123.019 78.585 123.019 78.585 123.018 78.585C123.018 78.585 123.017 78.585 123.017 78.585C123.016 78.585 123.016 78.585 123.015 78.585C123.015 78.585 123.014 78.585 123.014 78.585C123.013 78.585 123.013 78.585 123.012 78.585C123.012 78.585 123.011 78.585 123.011 78.585C123.01 78.585 123.01 78.585 123.009 78.585C123.009 78.585 123.008 78.585 123.008 78.585C123.007 78.585 123.007 78.585 123.006 78.585C123.006 78.585 123.005 78.585 123.005 78.585C123.004 78.585 123.004 78.585 123.003 78.585C123.003 78.585 123.002 78.585 123.002 78.585C123.001 78.585 123.001 78.585 123 78.585C123 78.585 122.999 78.585 122.999 78.585C122.998 78.585 122.998 78.585 122.997 78.585C122.997 78.585 122.996 78.585 122.996 78.585C122.995 78.585 122.995 78.585 122.994 78.585C122.994 78.585 122.993 78.585 122.993 78.585C122.992 78.585 122.992 78.585 122.991 78.585C122.991 78.585 122.99 78.585 122.99 78.585C122.989 78.585 122.989 78.585 122.988 78.585C122.988 78.585 122.987 78.585 122.987 78.585C122.986 78.585 122.986 78.585 122.985 78.585C122.984 78.585 122.984 78.585 122.983 78.585C122.983 78.585 122.982 78.585 122.982 78.585C122.981 78.585 122.981 78.585 122.98 78.585C122.98 78.585 122.979 78.585 122.979 78.585C122.978 78.585 122.978 78.585 122.977 78.585C122.977 78.585 122.976 78.585 122.976 78.585C122.975 78.585 122.975 78.585 122.974 78.585C122.974 78.585 122.973 78.585 122.973 78.585C122.972 78.585 122.972 78.585 122.971 78.585C122.971 78.585 122.97 78.585 122.97 78.585C122.969 78.585 122.969 78.585 122.968 78.585C122.968 78.585 122.967 78.585 122.967 78.585C122.966 78.585 122.966 78.585 122.965 78.585C122.965 78.585 122.964 78.585 122.964 78.585C122.963 78.585 122.963 78.585 122.962 78.585C122.962 78.585 122.961 78.585 122.961 78.585C122.96 78.585 122.96 78.585 122.959 78.585C122.959 78.585 122.958 78.585 122.958 78.585C122.957 78.585 122.957 78.585 122.956 78.585C122.956 78.585 122.955 78.585 122.955 78.585C122.954 78.585 122.954 78.585 122.953 78.585C122.953 78.585 122.952 78.585 122.952 78.585C122.951 78.585 122.951 78.585 122.95 78.585C122.95 78.585 122.949 78.585 122.949 78.585C122.948 78.585 122.948 78.585 122.947 78.585C122.947 78.585 122.946 78.585 122.946 78.585C122.945 78.585 122.945 78.585 122.944 78.585C122.944 78.585 122.943 78.585 122.943 78.585C122.942 78.585 122.942 78.585 122.941 78.585C122.941 78.585 122.94 78.585 122.94 78.585C122.939 78.585 122.939 78.585 122.938 78.585C122.938 78.585 122.937 78.585 122.937 78.585C122.936 78.585 122.936 78.585 122.935 78.585C122.935 78.585 122.934 78.585 122.934 78.585C122.933 78.585 122.933 78.585 122.932 78.585C122.932 78.585 122.931 78.585 122.931 78.585C122.93 78.585 122.93 78.585 122.929 78.585C122.929 78.585 122.928 78.585 122.928 78.585C122.927 78.585 122.927 78.585 122.926 78.585C122.926 78.585 122.925 78.585 122.925 78.585C122.924 78.585 122.924 78.585 122.923 78.585C122.923 78.585 122.922 78.585 122.922 78.585C122.921 78.585 122.921 78.585 122.92 78.585C122.92 78.585 122.919 78.585 122.919 78.585C122.918 78.585 122.918 78.585 122.917 78.585C122.917 78.585 122.916 78.585 122.916 78.585C122.915 78.585 122.915 78.585 122.914 78.585C122.914 78.585 122.913 78.585 122.913 78.585C122.912 78.585 122.912 78.585 122.911 78.585C122.911 78.585 122.91 78.585 122.91 78.585C122.909 78.585 122.909 78.585 122.908 78.585C122.908 78.585 122.907 78.585 122.907 78.585C122.906 78.585 122.906 78.585 122.905 78.585C122.905 78.585 122.904 78.585 122.904 78.585C122.903 78.585 122.903 78.585 122.902 78.585C122.902 78.585 122.901 78.585 122.901 78.585C122.9 78.585 122.9 78.585 122.899 78.585C122.899 78.585 122.898 78.585 122.898 78.585C122.897 78.585 122.897 78.585 122.896 78.585C122.896 78.585 122.895 78.585 122.895 78.585C122.894 78.585 122.894 78.585 122.893 78.585C122.893 78.585 122.892 78.585 122.892 78.585C122.891 78.585 122.891 78.585 122.89 78.585C122.89 78.585 122.889 78.585 122.889 78.585C122.888 78.585 122.888 78.585 122.887 78.585C122.887 78.585 122.886 78.585 122.886 78.585C122.885 78.585 122.885 78.585 122.884 78.585C122.884 78.585 122.883 78.585 122.883 78.585C122.882 78.585 122.882 78.585 122.881 78.585C122.881 78.585 122.88 78.585 122.88 78.585C122.879 78.585 122.879 78.585 122.878 78.585C122.878 78.585 122.877 78.585 122.877 78.585C122.876 78.585 122.876 78.585 122.875 78.585C122.875 78.585 122.874 78.585 122.874 78.585C122.873 78.585 122.873 78.585 122.872 78.585C122.872 78.585 122.871 78.585 122.871 78.585C122.87 78.585 122.87 78.585 122.869 78.585C122.869 78.585 122.868 78.585 122.868 78.585C122.867 78.585 122.867 78.585 122.866 78.585C122.866 78.585 122.865 78.585 122.865 78.585C122.864 78.585 122.864 78.585 122.863 78.585C122.863 78.585 122.862 78.585 122.862 78.585C122.861 78.585 122.861 78.585 122.86 78.585C122.86 78.585 122.859 78.585 122.859 78.585C122.858 78.585 122.858 78.585 122.857 78.585C122.857 78.585 122.856 78.585 122.856 78.585C122.855 78.585 122.855 78.585 122.854 78.585C122.854 78.585 122.853 78.585 122.853 78.585C122.852 78.585 122.852 78.585 122.851 78.585C122.851 78.585 122.85 78.585 122.85 78.585C122.849 78.585 122.849 78.585 122.848 78.585C122.848 78.585 122.847 78.585 122.847 78.585C122.846 78.585 122.846 78.585 122.845 78.585C122.845 78.585 122.844 78.585 122.844 78.585C122.843 78.585 122.843 78.585 122.842 78.585C122.842 78.585 122.841 78.585 122.841 78.585C122.84 78.585 122.84 78.585 122.839 78.585C122.839 78.585 122.838 78.585 122.838 78.585C122.837 78.585 122.837 78.585 122.836 78.585C122.836 78.585 122.835 78.585 122.835 78.585C122.834 78.585 122.834 78.585 122.833 78.585C122.833 78.585 122.832 78.585 122.832 78.585C122.831 78.585 122.831 78.585 122.83 78.585C122.83 78.585 122.829 78.585 122.829 78.585C122.828 78.585 122.828 78.585 122.827 78.585C122.827 78.585 122.826 78.585 122.826 78.585C122.825 78.585 122.825 78.585 122.824 78.585C122.824 78.585 122.823 78.585 122.823 78.585C122.822 78.585 122.822 78.585 122.821 78.585C122.821 78.585 122.82 78.585 122.82 78.585C122.819 78.585 122.819 78.585 122.818 78.585C122.818 78.585 122.817 78.585 122.817 78.585C122.816 78.585 122.816 78.585 122.815 78.585C122.815 78.585 122.814 78.585 122.814 78.585C122.813 78.585 122.813 78.585 122.812 78.585C122.812 78.585 122.811 78.585 122.811 78.585C122.81 78.585 122.81 78.585 122.809 78.585C122.809 78.585 122.808 78.585 122.808 78.585C122.807 78.585 122.807 78.585 122.806 78.585C122.806 78.585 122.805 78.585 122.805 78.585C122.804 78.585 122.804 78.585 122.803 78.585C122.803 78.585 122.802 78.585 122.802 78.585C122.801 78.585 122.801 78.585 122.8 78.585C122.8 78.585 122.799 78.585 122.799 78.585C122.798 78.585 122.798 78.585 122.797 78.585C122.797 78.585 122.796 78.585 122.796 78.585C122.795 78.585 122.795 78.585 122.794 78.585C122.794 78.585 122.793 78.585 122.793 78.585C122.792 78.585 122.792 78.585 122.791 78.585C122.791 78.585 122.79 78.585 122.79 78.585C122.789 78.585 122.789 78.585 122.788 78.585C122.788 78.585 122.787 78.585 122.787 78.585C122.786 78.585 122.786 78.585 122.785 78.585C122.785 78.585 122.784 78.585 122.784 78.585C122.783 78.585 122.783 78.585 122.782 78.585C122.782 78.585 122.781 78.585 122.781 78.585C122.78 78.585 122.78 78.585 122.779 78.585C122.779 78.585 122.778 78.585 122.778 78.585C122.777 78.585 122.777 78.585 122.776 78.585C122.776 78.585 122.775 78.585 122.774 78.585C122.774 78.585 122.773 78.585 122.773 78.585C122.772 78.585 122.772 78.585 122.771 78.585C122.771 78.585 122.77 78.585 122.77 78.585C122.769 78.585 122.769 78.585 122.768 78.585C122.768 78.585 122.767 78.585 122.767 78.585C122.766 78.585 122.766 78.585 122.765 78.585C122.765 78.585 122.764 78.585 122.764 78.585C122.763 78.585 122.763 78.585 122.762 78.585C122.762 78.585 122.761 78.585 122.761 78.585C122.76 78.585 122.76 78.585 122.759 78.585C122.759 78.585 122.758 78.585 122.758 78.585C122.757 78.585 122.757 78.585 122.756 78.585C122.756 78.585 122.755 78.585 122.755 78.585C122.754 78.585 122.754 78.585 122.753 78.585C122.753 78.585 122.752 78.585 122.752 78.585C122.751 78.585 122.751 78.585 122.75 78.585C122.75 78.585 122.749 78.585 122.749 78.585C122.748 78.585 122.748 78.585 122.747 78.585C122.747 78.585 122.746 78.585 122.746 78.585C122.745 78.585 122.745 78.585 122.744 78.585C122.744 78.585 122.743 78.585 122.743 78.585C122.742 78.585 122.742 78.585 122.741 78.585C122.741 78.585 122.74 78.585 122.74 78.585C122.739 78.585 122.739 78.585 122.738 78.585C122.738 78.585 122.737 78.585 122.737 78.585C122.736 78.585 122.736 78.585 122.735 78.585C122.735 78.585 122.734 78.585 122.734 78.585C122.733 78.585 122.733 78.585 122.732 78.585C122.732 78.585 122.731 78.585 122.731 78.585C122.73 78.585 122.73 78.585 122.729 78.585C122.729 78.585 122.728 78.585 122.728 78.585C122.727 78.585 122.727 78.585 122.726 78.585C122.726 78.585 122.725 78.585 122.725 78.585C122.724 78.585 122.724 78.585 122.723 78.585C122.723 78.585 122.722 78.585 122.722 78.585C122.721 78.585 122.721 78.585 122.72 78.585C122.72 78.585 122.719 78.585 122.719 78.585C122.718 78.585 122.718 78.585 122.717 78.585C122.717 78.585 122.716 78.585 122.716 78.585C122.715 78.585 122.715 78.585 122.714 78.585C122.714 78.585 122.713 78.585 122.713 78.585C122.712 78.585 122.712 78.585 122.711 78.585C122.711 78.585 122.71 78.585 122.71 78.585C122.709 78.585 122.709 78.585 122.708 78.585C122.708 78.585 122.707 78.585 122.707 78.585C122.706 78.585 122.706 78.585 122.705 78.585C122.705 78.585 122.704 78.585 122.704 78.585C122.703 78.585 122.703 78.585 122.702 78.585C122.702 78.585 122.701 78.585 122.701 78.585C122.7 78.585 122.7 78.585 122.699 78.585C122.699 78.585 122.698 78.585 122.698 78.585C122.697 78.585 122.697 78.585 122.696 78.585C122.696 78.585 122.695 78.585 122.695 78.585C122.694 78.585 122.694 78.585 122.693 78.585C122.693 78.585 122.692 78.585 122.692 78.585C122.691 78.585 122.691 78.585 122.69 78.585C122.69 78.585 122.689 78.585 122.689 78.585C122.688 78.585 122.688 78.585 122.687 78.585C122.687 78.585 122.686 78.585 122.686 78.585C122.685 78.585 122.685 78.585 122.684 78.585C122.684 78.585 122.683 78.585 122.683 78.585C122.682 78.585 122.682 78.585 122.681 78.585C122.681 78.585 122.68 78.585 122.68 78.585C122.679 78.585 122.679 78.585 122.678 78.585C122.678 78.585 122.677 78.585 122.677 78.585C122.676 78.585 122.676 78.585 122.675 78.585C122.675 78.585 122.674 78.585 122.674 78.585C122.673 78.585 122.673 78.585 122.672 78.585C122.672 78.585 122.671 78.585 122.671 78.585C122.67 78.585 122.67 78.585 122.669 78.585C122.669 78.585 122.668 78.585 122.668 78.585C122.667 78.585 122.667 78.585 122.666 78.585C122.666 78.585 122.665 78.585 122.665 78.585C122.664 78.585 122.664 78.585 122.663 78.585C122.663 78.585 122.662 78.585 122.662 78.585C122.661 78.585 122.661 78.585 122.66 78.585C122.66 78.585 122.659 78.585 122.659 78.585C122.658 78.585 122.658 78.585 122.657 78.585C122.657 78.585 122.656 78.585 122.656 78.585C122.655 78.585 122.655 78.585 122.654 78.585C122.654 78.585 122.653 78.585 122.653 78.585C122.652 78.585 122.652 78.585 122.651 78.585C122.651 78.585 122.65 78.585 122.65 78.585C122.649 78.585 122.649 78.585 122.648 78.585C122.648 78.585 122.647 78.585 122.647 78.585C122.646 78.585 122.646 78.585 122.645 78.585C122.645 78.585 122.644 78.585 122.644 78.585V106.585ZM338.575 87.441C338.575 93.275 333.876 98.6711 327.269 98.6711L327.269 70.6711C317.686 70.6711 310.575 78.5474 310.575 87.441H338.575ZM103.929 87.441C103.929 94.5722 96.2307 100.547 88.6528 96.7668L101.151 71.7111C88.9752 65.6374 75.9291 75.0554 75.9291 87.441H103.929ZM244.794 63.6994C244.794 53.4947 236.649 44.5554 225.791 44.5554L225.791 72.5554C220.459 72.5554 216.794 68.2222 216.794 63.6994H244.794ZM292.815 57.5267C297.486 59.8566 300.217 64.5703 300.217 69.4809H272.217C272.217 74.88 275.219 80.0392 280.317 82.5824L292.815 57.5267ZM73.4717 82.8434C68.9391 82.8434 65.9223 79.1764 65.9223 75.4753H93.9223C93.9223 64.4489 85.1294 54.8434 73.4717 54.8434L73.4717 82.8434ZM91.887 86.9578C103.664 92.8324 116.245 83.7134 116.245 71.7842H88.2452C88.2452 64.1966 96.4081 57.9228 104.385 61.9021L91.887 86.9578ZM81.4618 73.1565C86.0665 77.4637 85.3769 82.6859 85.1874 83.7363C84.9155 85.2427 84.2645 86.8344 82.8871 88.3762L62.0064 69.7216C59.6576 72.3506 58.2013 75.6115 57.6325 78.7637C57.1459 81.4598 56.6677 88.3044 62.3344 93.605L81.4618 73.1565ZM242.726 82.8434C237.819 82.8434 234.499 78.8645 234.499 74.7788H262.499C262.499 64.1371 254.009 54.8434 242.726 54.8434V82.8434ZM272.506 80.7142C272.506 81.5219 271.77 82.8434 270.052 82.8434V54.8434C255.58 54.8434 244.506 66.7944 244.506 80.7142H272.506ZM45.9934 91.1445C37.8404 83.5181 42.2258 68.297 55.0391 68.297V96.297C69.2593 96.297 74.3145 79.2957 65.1209 70.696L45.9934 91.1445ZM222.952 63.6994C222.952 73.9041 231.097 82.8434 241.956 82.8434V54.8434C247.288 54.8434 250.952 59.1766 250.952 63.6994H222.952ZM251.963 106.585C263.671 106.585 272.506 96.937 272.506 85.8582H244.506C244.506 82.2095 247.481 78.585 251.963 78.585L251.963 106.585ZM55.0391 94.7142C51.629 94.7142 48.4083 93.4034 45.9934 91.1445L65.1209 70.696C62.4225 68.1719 58.8324 66.7142 55.0391 66.7142V94.7142ZM151.824 68.297C159.32 68.297 164.74 74.4343 164.74 81.1826H136.74C136.74 89.1619 143.13 96.297 151.824 96.297V68.297ZM147.369 106.585C147.697 106.585 148.223 106.628 149.771 106.78C150.967 106.898 153.065 107.114 155.204 107.085C157.25 107.057 160.74 106.817 164.329 105.1C168.511 103.099 171.928 99.5117 173.565 94.6184L147.012 85.7354C147.381 84.6301 148.035 83.3855 149.075 82.228C150.108 81.0794 151.248 80.3187 152.242 79.843C153.997 79.0034 155.229 79.0818 154.82 79.0874C154.504 79.0917 153.95 79.0568 152.522 78.9159C151.447 78.8097 149.378 78.585 147.369 78.585V106.585ZM335.352 98.6711C328.957 98.6711 324.431 93.4523 324.431 87.8367H352.431C352.431 78.7245 345.147 70.6711 335.352 70.6711L335.352 98.6711ZM92.7925 98.8318C91.8587 98.366 91.2455 97.8597 90.9485 97.5878C90.677 97.3393 90.5882 97.2089 90.7697 97.4287C90.8543 97.5311 90.9585 97.6611 91.1315 97.8797C91.2784 98.0654 91.5212 98.3738 91.7589 98.6683C92.2373 99.2608 93.0038 100.187 93.9769 101.143L113.606 81.1756C113.775 81.3421 113.796 81.3907 113.546 81.0807C113.419 80.9238 113.302 80.7747 113.088 80.5041C112.9 80.2664 112.642 79.9415 112.358 79.5982C111.362 78.3915 109.036 75.6442 105.291 73.7761L92.7925 98.8318ZM139.67 76.8223C141.446 71.8931 146.181 68.297 151.824 68.297V96.297C158.373 96.297 163.919 92.1207 166.01 86.3174L139.67 76.8223ZM55.2473 82.8117C42.4631 82.7898 38.0972 67.6035 46.2347 59.9918L65.3621 80.4403C74.56 71.8366 69.5133 54.8361 55.2953 54.8118L55.2473 82.8117ZM312.533 71.6086C312.533 62.7177 305.424 54.8434 295.843 54.8434V82.8434C289.233 82.8434 284.533 77.4452 284.533 71.6086H312.533ZM80.2879 79.3035C77.8935 81.5432 74.6996 82.8434 71.3172 82.8434L71.3172 54.8434C67.4961 54.8434 63.8793 56.3118 61.1604 58.855L80.2879 79.3035ZM284.533 71.6086C284.533 63.8915 292.828 57.5328 300.918 61.5686L288.42 86.6243C300.083 92.4423 312.533 83.4083 312.533 71.6086H284.533ZM77.9543 58.8141C81.5319 60.8071 83.3994 64.009 84.0818 66.8498C84.7742 69.7322 84.7693 75.1117 80.2879 79.3035L61.1604 58.855C56.1142 63.5752 55.9821 69.7503 56.8563 73.3896C57.7205 76.9874 60.079 80.9077 64.3279 83.2747L77.9543 58.8141ZM225.791 82.8434C236.649 82.8434 244.794 73.9041 244.794 63.6994H216.794C216.794 59.1766 220.459 54.8434 225.791 54.8434L225.791 82.8434ZM164.98 72.5554L225.791 72.5554L225.791 44.5554L164.98 44.5554L164.98 72.5554ZM46.4152 72.5554L107.249 72.5554L107.249 44.5554L46.4152 44.5554L46.4152 72.5554ZM251.963 78.585L203.01 78.585L203.01 106.585L251.963 106.585L251.963 78.585ZM319.577 78.585H304.177V106.585H319.577V78.585ZM333.668 79.1314V87.8367H361.668V79.1314H333.668ZM241.956 72.5554L303.536 72.5554L303.536 44.5554L241.956 44.5554L241.956 72.5554ZM209.241 96.297H241.956V68.297H209.241V96.297ZM295.843 54.8434L286.837 54.8434L286.837 82.8434L295.843 82.8434L295.843 54.8434Z" fill="#FFF968" mask="url(#path-14-outside-1_673_71)"/>
<path d="M990.781 108.912C990.781 121.667 1004.7 127.79 1011.66 129.257C1066.17 139.886 1048.77 65.4821 1037.61 64.5687C1026.45 63.6552 1036.45 99.6116 1026.37 105.757C1016.3 111.901 1028.26 61.9114 1017.82 61.9114C1007.38 61.9114 1019.41 100.442 1007.82 105.757C996.218 111.071 1011.66 74.7826 999.697 73.8691C987.737 72.9557 990.781 92.9683 990.781 108.912Z" fill="#FFF968"/>
<path d="M1092.89 129.775L1111.53 129.775C1113.06 129.775 1114.59 129.909 1116.12 130.056C1124.79 130.891 1140.27 129.955 1147.53 120.551C1157.46 107.675 1131.03 117.21 1128.24 92.8818C1125.45 68.5539 1128.24 72.3858 1122.66 59.9545C1117.07 47.5232 1087.07 78.5791 1100.25 84.7725C1106.6 87.7606 1108.06 93.2216 1107.61 98.2392C1107.12 103.705 1101.66 106.739 1096.17 106.739L1092.89 106.739C1086.52 106.739 1081.37 111.896 1081.37 118.257C1081.37 124.618 1086.52 129.775 1092.89 129.775Z" fill="#F08603"/>
<path d="M1226.04 85.7824C1224.5 74.0711 1218.91 63.5857 1212.28 65.3854C1200.49 68.5844 1199.53 87.1974 1188.03 91.3069C1171.11 97.3501 1193.5 115.657 1195.67 126.55C1198.47 140.557 1213.56 122.22 1219.67 112.544C1225.78 102.867 1240.85 118.386 1247.48 106.414C1254.11 94.442 1247.25 85.7824 1238.32 81.9482C1229.38 78.114 1227.58 97.4937 1226.04 85.7824Z" fill="#FFF968"/>
<path d="M505.548 776.84H494.978C494.698 776.84 494.488 777.05 494.418 777.26L477.478 825.28C477.338 825.56 477.548 825.84 477.898 825.84H485.598C485.878 825.84 486.088 825.7 486.158 825.42L490.428 812.19H509.608L514.018 825.42C514.088 825.7 514.298 825.84 514.578 825.84H522.488C522.838 825.84 522.978 825.56 522.838 825.28L506.108 777.26C506.038 777.05 505.828 776.84 505.548 776.84ZM507.368 805.33H492.598L499.878 782.72L507.368 805.33Z" fill="#F08603"/>
<path d="M543.557 776.84H536.487C536.277 776.84 535.997 776.91 535.857 777.19C533.687 780.76 530.117 783.63 525.567 785.24C525.287 785.31 525.147 785.52 525.147 785.8V791.4C525.147 791.75 525.357 791.89 525.707 791.82C529.487 790.63 532.847 788.81 535.507 786.29V825.35C535.507 825.63 535.717 825.84 535.997 825.84H543.557C543.837 825.84 544.047 825.63 544.047 825.35V777.33C544.047 777.05 543.837 776.84 543.557 776.84Z" fill="#F08603"/>
<path d="M567.685 776.84H560.615C560.405 776.84 560.125 776.91 559.985 777.19C557.815 780.76 554.245 783.63 549.695 785.24C549.415 785.31 549.275 785.52 549.275 785.8V791.4C549.275 791.75 549.485 791.89 549.835 791.82C553.615 790.63 556.975 788.81 559.635 786.29V825.35C559.635 825.63 559.845 825.84 560.125 825.84H567.685C567.965 825.84 568.175 825.63 568.175 825.35V777.33C568.175 777.05 567.965 776.84 567.685 776.84Z" fill="#F08603"/>
<path d="M606.712 819.4H582.702V817.86C582.702 806.59 607.342 808.2 607.342 790.42C607.132 781.46 601.672 776 591.242 776C580.392 776.07 574.792 782.09 574.722 793.01C574.722 793.36 574.932 793.5 575.212 793.5H582.072C582.352 793.5 582.562 793.36 582.562 793.01C582.772 786.01 585.992 782.3 591.242 782.23C596.772 782.16 599.572 785.59 599.362 790.7C599.362 802.18 574.652 800.01 574.652 819.26V825.35C574.652 825.63 574.862 825.84 575.142 825.84H606.712C606.992 825.84 607.202 825.63 607.202 825.35V819.89C607.202 819.61 606.992 819.4 606.712 819.4Z" fill="#F08603"/>
</svg>
