<svg width="1440" height="900" viewBox="0 0 1440 900" fill="none" xmlns="http://www.w3.org/2000/svg">
<g clip-path="url(#clip0_257_65)">
<rect width="1440" height="900" fill="#F08603"/>
<rect x="1412" y="28" width="843" height="1244" rx="48" transform="rotate(90 1412 28)" fill="#FFF968"/>
<path d="M1222.53 199.001C1229.82 195.66 1236.28 195.216 1241.17 199.107C1266.3 219.091 1242.31 269.152 1202.5 307.37C1183.95 325.181 1190.97 324.514 1204.79 323.199C1220.63 321.693 1245.4 319.336 1250.9 342.954C1261.18 387.184 1247.6 437.007 1184.2 445.182C1150.93 449.471 1139.71 424.069 1128.86 399.5C1119.04 377.242 1109.51 355.668 1084.17 357.468C1071.12 358.394 1054.63 358.732 1037.83 357.991C1046.69 373.887 1058.89 385.965 1069.12 396.1C1089.16 415.946 1101.68 428.342 1066.92 447.367C1031.07 466.992 985.974 461.946 947.679 449.825C947.842 466.487 948.26 483.489 948.677 500.473L948.678 500.474L948.678 500.478C951.616 619.986 954.532 738.575 868.533 731.457C815.634 727.079 825.222 643.053 833.784 568.017C841.97 496.268 849.219 432.739 800.004 454.92C748.193 478.273 750.066 578.126 751.78 669.484C753.397 755.66 754.872 834.277 711.014 833.999C665.184 833.709 669.941 722.378 674.332 619.596C678.598 519.742 682.519 427.958 639.375 453.904C596.838 479.485 594.941 566.254 593.16 647.739C591.275 733.972 589.52 814.288 539.864 809.908C501.956 806.563 456.355 705.136 443.438 588.884C434.315 594.775 425.375 601.556 416.357 608.396C406.26 616.054 396.066 623.786 385.408 630.426C382.914 631.98 380.231 632.649 377.35 632.231C348.554 628.06 344.49 577.909 358.212 529.808C364.607 507.392 359.419 511.118 349.197 518.459C337.484 526.872 319.161 540.031 304.081 524.048C275.838 494.116 263.73 448.906 309.644 413.549C333.734 394.998 354.109 409.764 373.817 424.047C391.669 436.986 408.975 449.527 427.997 436.543C434.698 431.97 442.784 426.878 451.545 421.846C480.835 302.311 569.755 211.258 768.036 251.236C776.495 253.075 786.139 255.72 796.467 259.213C807.639 257.439 819.432 258.74 830.562 263.62L853.081 273.493C875.748 283.43 903.359 280.681 916.679 259.818C932.174 235.548 939.955 203.044 913.207 172.431C862.324 114.197 1074.49 27.0654 1075.13 99.46C1075.5 140.261 1073.94 150.254 1065.66 173.462C1073.4 176.895 1082.02 182.85 1091.69 191.846C1126.61 224.363 1179.17 218.901 1222.53 199.001Z" fill="#EEFFFF"/>
<rect x="-29" y="49" width="156" height="803" rx="78" fill="#EEFFFF"/>
</g>
<defs>
<clipPath id="clip0_257_65">
<rect width="1440" height="900" fill="white"/>
</clipPath>
</defs>
</svg>
