<svg width="195" height="209" viewBox="0 0 195 209" fill="none" xmlns="http://www.w3.org/2000/svg">
<path d="M32.7116 206.614L86.0989 207.056C90.1175 207.09 94.1071 207.472 98.1023 207.905C122.578 210.562 167.004 208.423 187.946 181.733C216.426 145.435 141.218 171.864 133.873 102.78C126.527 33.6954 134.355 44.6321 118.812 9.23294C103.27 -26.1662 17.4245 61.2341 54.6545 79.1148C72.6166 87.7416 76.6332 103.269 75.2365 117.494C73.7152 132.988 58.1361 141.467 42.5681 141.338L33.2537 141.261C15.207 141.111 0.455945 155.619 0.306255 173.666C0.156565 191.713 14.665 206.464 32.7116 206.614Z" fill="#FFF968"/>
</svg>
