<svg width="324" height="330" viewBox="0 0 324 330" fill="none" xmlns="http://www.w3.org/2000/svg">
<path fill-rule="evenodd" clip-rule="evenodd" d="M75.8995 36.9463C100.565 15.1997 161.719 -19.4832 209.008 15.7577C218.994 23.1996 229.65 30.6402 240.29 38.0692C292.632 74.6148 344.572 110.879 314.294 145.634C295.669 167.012 262.556 136.302 232.985 108.878C204.71 82.6551 179.673 59.4362 173.641 87.632C167.29 117.316 210.84 148.101 250.684 176.268C288.268 202.836 322.556 227.075 308.557 245.86C293.929 265.489 247.539 228.219 204.713 193.811C163.106 160.383 124.861 129.657 122.37 156.432C119.913 182.83 156.64 211.098 191.131 237.645C227.632 265.738 261.628 291.904 244.029 311.886C231.193 326.46 177.623 315.731 125.693 287.52C125.87 301.813 125.744 315.879 116.163 325.605C105.255 336.677 82.3941 322.559 66.0436 301.436C58.424 291.592 58.3851 295.003 58.3085 301.724C58.2207 309.426 58.0833 321.474 46.4348 322.907C24.6204 325.59 1.33944 316.497 0.659152 285.553C0.302211 269.317 13.1028 265.221 25.4841 261.26C36.7001 257.671 47.572 254.192 48.0065 241.898C48.1596 237.568 48.5279 232.477 49.1358 227.115C6.98166 176.693 -4.0487 109.622 75.8995 36.9463Z" fill="#FFF968"/>
</svg>
