<svg width="1946" height="2448" viewBox="0 0 1946 2448" fill="none" xmlns="http://www.w3.org/2000/svg">
<path d="M453.333 352.126C452.989 374.868 453.171 394.717 459.782 416.403C484.459 497.349 522.327 580.857 579.504 644.509C650.367 723.397 736.529 778.717 829.555 828.21C885.526 857.989 945.874 882.322 1008.7 892.127C1028.53 895.22 1053.03 900.87 1068.91 884.874C1087.09 866.555 1087.24 825.659 1087.59 802.427C1089.06 705.021 968.928 680.488 890.736 682.782C835.047 684.415 794.059 728.046 767.508 772.925C723.228 847.768 691.14 955.738 704.074 1042.97C713.052 1103.52 760.819 1144.48 807.753 1178.83C882.406 1233.47 966.399 1275.33 1051.73 1310.5C1127.61 1341.78 1199.61 1357.28 1281.31 1362.94C1332.89 1366.51 1397.03 1376.53 1445.64 1351.88C1479.31 1334.8 1479.61 1260.11 1473.09 1228.94C1467.34 1201.46 1443.63 1186.38 1418.21 1178.4C1357.8 1159.44 1287.96 1153.22 1225.07 1156.56C1062.38 1165.22 932.391 1275.34 869.38 1421.64C832.439 1507.41 809.736 1599.75 766.386 1682.74C731.758 1749.03 684.385 1796.52 608.672 1808.72C442.03 1835.57 256.313 1761.07 194.543 1595.09C181.907 1561.13 176.009 1524.72 173.891 1488.67C172.268 1461.07 167.593 1427.95 201.3 1417.86C270.509 1397.15 338.387 1433.7 392.64 1472.69C504.025 1552.73 601.669 1651.3 687.909 1757.42C776.054 1865.89 856.085 1981.16 948.945 2085.78C1013.88 2158.94 1091.47 2204.95 1186.44 2228.86C1251.09 2245.14 1317.32 2252.8 1383.75 2256.88C1442.19 2260.47 1503.09 2264.17 1561.28 2255.48C1657.84 2241.05 1711.99 2180.99 1747.72 2094.5C1779.42 2017.77 1805.64 1935.25 1821.47 1853.74C1845.36 1730.73 1843.62 1599.94 1834.97 1475.54C1821.61 1283.32 1785.02 1092.48 1749.75 903.314C1733.37 815.433 1715.97 727.516 1693.62 640.925C1673.55 563.208 1650.39 483.39 1607.06 414.989C1572.81 360.904 1511.61 295.289 1440.95 298.59C1376.54 301.599 1338.82 378.573 1322.83 431.658C1292.96 530.787 1307.8 632.912 1336.49 730.505C1365.04 827.602 1410.84 935.402 1494.19 998.508C1546.03 1037.75 1617.07 1062.55 1682.51 1057C1728.91 1053.06 1754.54 1018.77 1771.25 978.206C1790.82 930.708 1798.88 871.084 1789.59 820.445C1782.98 784.46 1762.24 728.781 1721.76 717.772C1677.46 705.723 1675.38 804.316 1673.93 826.675C1666.93 935.072 1694.49 1037.6 1712.93 1143.34C1722.71 1199.47 1740.97 1288.97 1697.58 1336.57C1679.92 1355.96 1654.09 1367.5 1630.73 1378.23C1590.88 1396.54 1551.1 1413.21 1514.64 1438.06C1437.38 1490.71 1380.89 1569.21 1367.3 1662.87C1353.7 1756.67 1371.41 1847.02 1419.31 1928.54C1459.4 1996.76 1518.42 2055.32 1595.48 2079.22C1670.84 2102.6 1777.29 2100.71 1807.77 2011.94C1840.81 1915.71 1759.49 1796.85 1696.81 1731.47C1620.27 1651.64 1513.82 1595.48 1401.22 1603.66C1298.95 1611.08 1214.89 1671.01 1142.81 1739.8C1091.22 1789.05 1051.05 1847.58 1002.22 1899.06C899.496 2007.33 715.428 2035.82 577.001 1989.84C473.704 1955.52 391.768 1878.98 325.259 1795.35C240.877 1689.25 179.877 1569.94 127.054 1445.68C82.0401 1339.78 40.0476 1233.14 33.3343 1117.06C28.856 1039.62 23.3666 938.342 67.8535 870.132C117.69 793.72 233.729 796.768 310.462 821.857C413.485 855.543 507.751 940.383 527.016 1049.57C540.128 1123.88 527.368 1191.93 504.693 1262.73C482.265 1332.76 467.124 1401.94 466.974 1475.85C466.802 1560.7 491.82 1638.63 530.346 1713.68C576.123 1802.86 638.686 1884.93 726.197 1936.63C815.512 1989.39 935.975 2011.33 1031.86 1962.76C1157.82 1898.95 1194.99 1758.28 1203.11 1628.12C1211.58 1492.45 1191.81 1356.51 1158 1225.3C1139.9 1155.05 1102.13 1088.79 1089.16 1017.62C1080.55 970.335 1104.83 938.584 1126.93 899.476C1166.31 829.8 1188.58 751.165 1198.26 672.028C1206.97 600.776 1204.1 528.546 1213 457.453C1214.29 447.123 1215.83 422.974 1230.61 420.992C1240.3 419.692 1254.05 426.956 1260.87 431.465C1294.76 453.864 1323.65 486.153 1349.17 517.196C1435.2 621.812 1511.53 769.047 1478.67 908.496C1450.48 1028.16 1325.11 1105.64 1226.99 1164.57C1124.91 1225.87 1013.04 1277.22 931.606 1366.75C852.949 1453.22 810.582 1566.97 810.146 1683.77C809.606 1828.52 897.329 1934.08 1012.18 2012.91C1081.84 2060.73 1158.8 2098.32 1239.8 2122.45C1293.8 2138.54 1357.48 2154.6 1414.51 2148.46C1446.28 2145.04 1473.95 2126.78 1475.46 2092.25C1477.24 2051.44 1446.06 2015.02 1416.13 1991.56C1292.53 1894.68 1107.19 1892.37 959.169 1912.32C817.72 1931.38 686.992 1986.12 561.053 2050.99C504.496 2080.13 442.335 2108.28 395.183 2151.99C388.575 2158.12 364.496 2175.61 369.605 2187.59C374.905 2200.02 397.836 2205.2 408.244 2208.39C469.905 2227.29 534.737 2237.68 598.342 2247.25C825.897 2281.49 1056.37 2298.1 1284.98 2324.2C1404.69 2337.87 1528.71 2361.32 1649.32 2346.03C1733.7 2335.33 1980.67 2270.22 1899.39 2295.27C1842.78 2312.72 1787.3 2338.14 1735.45 2366.62C1710.37 2380.4 1689.9 2395.4 1671.62 2417.22C1668.59 2420.84 1672.07 2407.71 1673.32 2403.15C1687.59 2351.2 1698.48 2298.43 1704.64 2244.84C1749.94 1851.45 1598.76 1467.02 1415.84 1126.24C1313.23 935.075 1194.1 753.129 1063.68 579.848C970.642 456.223 872.055 335.928 763.154 225.847C708.033 170.129 649.642 115.515 585.39 70.3189C563.514 54.9311 523.506 23.3227 493.226 31.8294C462.056 40.5864 464.113 98.9157 463.677 121.532C462.067 205.063 480.958 286.134 509.912 364.11C545.02 458.656 592.696 549.355 657.113 627.317C715.638 698.148 791.401 767.242 879.146 799.28C972.879 833.505 1083.78 815.043 1111.29 707.072C1137.7 603.383 1086.65 506.407 988.031 467.412C890.505 428.85 754.94 420.833 663.964 480.698C625.564 505.965 594.015 545.018 585.874 591.184C574.019 658.408 612.63 721.659 653.834 770.837C740.791 874.627 866.008 955.018 997.026 989.704C1027.05 997.652 1058.14 1003.51 1089.16 1005.75C1095.48 1006.21 1117.21 1005.76 1093.94 1008.23C980.124 1020.33 866.867 1034.06 754.508 1056.53C651.917 1077.05 529.458 1104.1 447.955 1175.25C440.035 1182.17 398.073 1221.98 424.131 1229.8C471.678 1244.05 530.169 1240.19 578.655 1241.41C720.008 1244.95 861.776 1244.82 1003.08 1239.65C1057.96 1237.64 1479.38 1244.61 1417.82 1093.44C1384.41 1011.38 1272.95 955.451 1201.24 916.921C1032.6 826.323 848.106 759.32 662.687 712.727C555.963 685.909 447.728 670.111 338.105 661.825C281.11 657.517 222.722 653.279 165.641 659.036C129.789 662.652 80.3313 671.152 56.2961 701.903C27.4473 738.812 83.032 789.304 104.707 812.63C184.79 898.813 268.656 977.993 362.687 1048.57" stroke="#12A4FF" stroke-width="59" stroke-linecap="round"/>
</svg>
