<svg width="2430" height="1964" viewBox="0 0 2430 1964" fill="none" xmlns="http://www.w3.org/2000/svg">
<path d="M352.408 1520.97C375.153 1520.97 394.997 1520.49 416.58 1513.55C497.144 1487.65 580.072 1448.53 642.853 1390.4C720.663 1318.35 774.675 1231.36 822.758 1137.6C851.689 1081.19 875.109 1020.48 883.964 957.511C886.758 937.641 892.037 913.051 875.803 897.419C857.212 879.516 816.318 879.985 793.083 879.985C695.666 879.985 672.95 1000.47 676.423 1078.62C678.897 1134.28 723.142 1174.6 768.416 1200.48C843.919 1243.62 952.362 1274.08 1039.39 1259.83C1099.79 1249.94 1140.03 1201.56 1173.67 1154.11C1227.18 1078.64 1267.76 994.024 1301.64 908.176C1331.77 831.829 1346.18 759.598 1350.6 677.823C1353.4 626.2 1362.45 561.912 1337.07 513.682C1319.48 480.278 1244.8 481.097 1213.73 488.087C1186.34 494.25 1171.61 518.189 1164.02 543.728C1145.98 604.42 1140.81 674.343 1145.1 737.173C1156.21 899.711 1268.29 1028.03 1415.52 1088.82C1501.84 1124.47 1594.51 1145.77 1678.14 1187.86C1744.95 1221.49 1793.15 1268.14 1806.49 1343.66C1835.85 1509.88 1764.16 1696.7 1599.13 1760.96C1565.38 1774.11 1529.05 1780.56 1493.05 1783.22C1465.47 1785.26 1432.42 1790.43 1421.83 1756.88C1400.07 1688 1435.59 1619.57 1473.76 1564.74C1552.11 1452.16 1649.19 1353.04 1754 1265.2C1861.12 1175.43 1975.17 1093.67 2078.39 999.241C2150.56 933.212 2195.38 854.932 2217.86 759.615C2233.16 694.729 2239.82 628.389 2242.9 561.904C2245.6 503.414 2248.39 442.471 2238.82 384.41C2222.93 288.081 2162.06 234.844 2075.05 200.424C1997.84 169.884 1914.93 144.913 1833.2 130.317C1709.85 108.29 1579.09 112.005 1454.84 122.527C1262.84 138.785 1072.57 178.254 883.964 216.375C796.339 234.085 708.696 252.808 622.451 276.467C545.046 297.701 465.587 322.067 397.848 366.419C344.286 401.489 279.602 463.664 283.97 534.269C287.95 598.624 365.486 635.185 418.806 650.373C518.374 678.735 620.264 662.362 717.412 632.197C814.067 602.186 921.164 554.766 983.004 470.468C1021.46 418.048 1045.18 346.636 1038.65 281.289C1034.01 234.954 999.332 209.844 958.522 193.747C910.735 174.898 850.995 167.744 800.502 177.797C764.621 184.941 709.261 206.521 698.865 247.163C687.486 291.644 786.1 292.238 808.477 293.344C916.968 298.709 1019.07 269.602 1124.52 249.574C1180.49 238.941 1269.7 219.336 1317.96 262C1337.61 279.37 1349.54 305.021 1360.62 328.213C1379.53 367.782 1396.8 407.311 1422.2 443.389C1476.01 519.84 1555.35 575.147 1649.21 587.314C1743.2 599.497 1833.27 580.43 1914.06 531.302C1981.66 490.193 2039.33 430.293 2062.07 352.88C2084.3 277.176 2080.81 170.764 1991.59 141.63C1894.87 110.05 1777.25 193.151 1712.83 256.807C1634.15 334.543 1579.61 441.835 1589.49 554.3C1598.46 656.445 1659.64 739.589 1729.52 810.619C1779.54 861.463 1838.67 900.74 1890.88 948.794C2000.69 1049.87 2031.95 1233.49 1988.06 1372.59C1955.31 1476.39 1880.02 1559.48 1797.4 1627.24C1692.58 1713.21 1574.21 1776.01 1450.76 1830.7C1345.55 1877.31 1239.56 1920.91 1123.59 1929.37C1046.23 1935.02 945.047 1942.04 876.174 1898.58C799.018 1849.91 800.314 1733.83 824.242 1656.73C856.369 1553.21 939.777 1457.68 1048.66 1436.76C1122.76 1422.53 1191 1434.26 1262.14 1455.87C1332.49 1477.23 1401.89 1491.33 1475.8 1490.36C1560.64 1489.26 1638.18 1463.06 1712.64 1423.41C1801.12 1376.29 1882.24 1312.5 1932.61 1224.22C1984.02 1134.11 2004.14 1013.33 1954.12 918.191C1888.43 793.214 1747.21 758.163 1616.94 752.011C1481.15 745.597 1345.53 767.41 1214.84 803.2C1144.88 822.36 1079.19 861.126 1008.23 875.162C961.078 884.489 928.965 860.692 889.528 839.181C819.265 800.856 740.303 779.785 661.029 771.299C589.654 763.659 517.475 767.622 446.255 759.8C435.907 758.664 411.738 757.488 409.532 742.737C408.086 733.067 415.142 719.21 419.548 712.32C441.432 678.098 473.282 648.731 503.936 622.738C607.241 535.143 753.308 456.599 893.237 487.346C1013.31 513.73 1092.68 637.913 1153.08 735.133C1215.92 836.276 1268.95 947.364 1359.69 1027.43C1447.35 1104.77 1561.72 1145.42 1678.51 1144.09C1823.26 1142.45 1927.47 1053.14 2004.57 937.109C2051.33 866.739 2087.75 789.226 2110.66 707.869C2125.93 653.633 2141.03 589.719 2134.03 532.786C2130.13 501.065 2111.46 473.681 2076.9 472.693C2036.07 471.527 2000.12 503.248 1977.12 533.527C1882.12 658.584 1882.61 843.938 1904.79 991.637C1925.98 1132.78 1982.68 1262.67 2049.45 1387.61C2079.44 1443.73 2108.53 1505.45 2152.95 1551.94C2159.17 1558.46 2177.03 1582.27 2188.93 1576.98C2201.27 1571.49 2206.11 1548.49 2209.14 1538.03C2227.11 1476.09 2236.52 1411.11 2245.12 1347.37C2275.93 1119.32 2289.06 888.626 2311.71 659.647C2323.57 539.74 2345.14 415.38 2328.03 295.014C2316.06 210.805 2247.23 -35.1528 2273.5 45.7426C2291.8 102.083 2318.06 157.171 2347.32 208.585C2361.47 233.452 2376.79 253.694 2398.88 271.644C2402.55 274.624 2389.36 271.344 2384.78 270.161C2332.62 256.671 2279.69 246.587 2226.02 241.227C1831.99 201.879 1449.88 358.842 1111.91 546.881C922.31 652.365 742.183 774.235 570.891 907.248C448.684 1002.15 329.891 1102.54 221.466 1213.09C166.587 1269.04 112.86 1328.25 68.6394 1393.18C53.5836 1415.28 22.5826 1455.77 31.5455 1485.91C40.772 1516.95 99.0636 1514.01 121.684 1514.1C205.23 1514.45 286.006 1494.34 363.536 1464.21C457.542 1427.68 547.51 1378.64 624.492 1313.06C694.431 1253.47 762.373 1176.67 793.083 1088.45C825.889 994.214 805.755 883.6 697.381 857.728C593.306 832.883 497.111 885.39 459.609 984.589C422.524 1082.69 416.554 1218.36 477.785 1308.42C503.63 1346.43 543.154 1377.39 589.438 1384.83C656.833 1395.67 719.494 1356.11 768.045 1314.17C870.51 1225.65 949.002 1099.24 981.706 967.712C989.2 937.573 994.584 906.392 996.358 875.348C996.72 869.016 995.944 847.3 998.769 870.526C1012.59 984.149 1028.02 1097.19 1052.18 1209.19C1074.25 1311.46 1103.14 1433.5 1175.52 1513.92C1182.55 1521.73 1223 1563.09 1230.42 1536.92C1243.96 1489.16 1239.21 1430.73 1239.69 1382.24C1241.1 1240.85 1238.84 1099.1 1231.53 957.882C1228.7 903.04 1229.3 481.562 1079.08 545.397C997.531 580.049 943.292 692.332 905.849 764.622C817.807 934.604 753.596 1120.09 709.808 1306.19C684.604 1413.31 670.442 1521.77 663.811 1631.51C660.364 1688.56 657.008 1747.01 663.626 1803.99C667.782 1839.79 677.028 1889.11 708.138 1912.68C745.479 1940.97 795.126 1884.63 818.122 1862.6C903.086 1781.23 980.991 1696.18 1050.14 1601.09" stroke="#F08603" stroke-width="59" stroke-linecap="round"/>
</svg>
