<svg width="69" height="74" viewBox="0 0 69 74" fill="none" xmlns="http://www.w3.org/2000/svg">
<path d="M11.5179 73.3865L30.1588 73.3865C31.6932 73.3865 33.2199 73.5211 34.7472 73.6681C43.417 74.5029 58.9055 73.567 66.1587 64.1633C76.0907 51.2865 49.6601 60.8216 46.8693 36.4937C44.0785 12.1658 46.8693 15.9977 41.2876 3.56643C35.706 -8.86486 5.70475 22.1911 18.879 28.3844C25.2352 31.3725 26.6962 36.8335 26.2456 41.8512C25.7547 47.3166 20.2885 50.3508 14.801 50.3508L11.5179 50.3508C5.15672 50.3508 2.19422e-07 55.5075 1.43566e-07 61.8686C6.77102e-08 68.2298 5.15672 73.3865 11.5179 73.3865Z" fill="#021F69"/>
</svg>
